<svg width="20" height="20" viewBox="0 0 20 20" xmlns="http://www.w3.org/2000/svg" xmlns:xlink="http://www.w3.org/1999/xlink"><title>UI-Icons/Alert-Dark@1x</title><defs><path d="M1.037 18.184L10.37 1.301a.72.72 0 0 1 1.26 0l9.333 16.883a.72.72 0 0 1-.63 1.068H1.667a.72.72 0 0 1-.63-1.068zm1.85-.372h16.226L11 3.138 2.887 17.812zM11 16.584c-.736 0-1.333-.581-1.333-1.298 0-.718.597-1.299 1.333-1.299s1.333.581 1.333 1.299c0 .717-.597 1.298-1.333 1.298zm-.72-9.09a.72.72 0 0 1 1.44 0v4.545a.72.72 0 1 1-1.44 0V7.494z" id="a"/></defs><g transform="translate(-1)" fill="none" fill-rule="evenodd"><mask id="b" fill="#fff"><use xlink:href="#a"/></mask><use fill="#444" fill-rule="nonzero" xlink:href="#a"/><g mask="url(#b)" fill="#181818"><path d="M1 0h20v20H1z"/></g></g></svg>