<svg width="22" height="22" viewBox="0 0 22 22" xmlns="http://www.w3.org/2000/svg" xmlns:xlink="http://www.w3.org/1999/xlink"><title>UI-Icons/Calendar-Dark@1x</title><defs><path d="M16.095 3.405h3.03a1.97 1.97 0 0 1 1.97 1.97v13.75a1.97 1.97 0 0 1-1.97 1.97H2.875a1.97 1.97 0 0 1-1.97-1.97V5.375a1.97 1.97 0 0 1 1.97-1.97h3.03v-1.78a.72.72 0 1 1 1.44 0v1.78h7.31v-1.78a.72.72 0 0 1 1.44 0v1.78zm-7.5 10h4.81v-3.03a.72.72 0 0 1 1.44 0v3.03h3.03a.72.72 0 0 1 0 1.44h-3.03v3.03a.72.72 0 0 1-1.44 0v-3.03h-4.81v3.03a.72.72 0 0 1-1.44 0v-3.03h-3.03a.72.72 0 0 1 0-1.44h3.03v-3.03a.72.72 0 1 1 1.44 0v3.03zm11.06-6.25v-1.78a.53.53 0 0 0-.53-.53H2.875a.53.53 0 0 0-.53.53v1.78h17.31zm0 1.44H2.345v10.53c0 .292.238.53.53.53h16.25a.53.53 0 0 0 .53-.53V8.595z" id="a"/></defs><g fill="none" fill-rule="evenodd"><mask id="b" fill="#fff"><use xlink:href="#a"/></mask><use fill="#444" fill-rule="nonzero" xlink:href="#a"/><g mask="url(#b)" fill="#181818"><path d="M1 1h20v20H1z"/></g></g></svg>