<svg xmlns="http://www.w3.org/2000/svg" xmlns:xlink="http://www.w3.org/1999/xlink" width="20" height="18" viewBox="0 0 20 18"><defs><path id="a" d="M16.01 2.51h2.149c1.016 0 1.841.825 1.841 1.841V15.65a1.841 1.841 0 0 1-1.841 1.84H1.841A1.841 1.841 0 0 1 0 15.65V4.35c0-1.016.825-1.84 1.841-1.84H6.5L7.593.323A.586.586 0 0 1 8.117 0h6.276c.222 0 .425.125.524.324l1.094 2.186zM8.48 1.172L7.385 3.358a.586.586 0 0 1-.524.324H1.84c-.37 0-.67.3-.67.67v11.297c0 .369.3.669.67.669h16.318c.37 0 .67-.3.67-.67V4.352a.67.67 0 0 0-.67-.669h-2.51a.586.586 0 0 1-.524-.324L14.03 1.172H8.48zm2.775 12.636a3.808 3.808 0 1 0 0-7.616 3.808 3.808 0 0 0 0 7.616zm0 1.171a4.98 4.98 0 1 1 0-9.958 4.98 4.98 0 0 1 0 9.958zM3.096 6.192a.586.586 0 0 1 0-1.171h1.255a.586.586 0 0 1 0 1.171H3.096z"/></defs><g fill="none" fill-rule="evenodd" opacity=".613"><mask id="b" fill="#fff"><use xlink:href="#a"/></mask><use fill="#111" fill-rule="nonzero" xlink:href="#a"/><g fill="#181818" mask="url(#b)"><path d="M0-1h20v20H0z"/></g></g></svg>