<svg width="20" height="20" viewBox="0 0 20 20" xmlns="http://www.w3.org/2000/svg" xmlns:xlink="http://www.w3.org/1999/xlink"><title>UI-Icons/Checkbox-Selected-Dark@1x</title><defs><path d="M1.818 1.818v16.364h16.364V1.818H1.818zM20 0v20H0V0h20z" id="a"/><path d="M5 10c-.3 0-.5-.1-.7-.3l-4-4c-.4-.4-.4-1 0-1.4.4-.4 1-.4 1.4 0L5 7.6 12.3.3c.4-.4 1-.4 1.4 0 .4.4.4 1 0 1.4l-8 8c-.2.2-.4.3-.7.3z" id="c"/></defs><g fill="none" fill-rule="evenodd"><mask id="b" fill="#fff"><use xlink:href="#a"/></mask><use fill="#02543F" fill-rule="nonzero" xlink:href="#a"/><g mask="url(#b)" fill="#181818"><path d="M0 0h20v20H0z"/></g><g transform="translate(2.857 4.957)"><mask id="d" fill="#fff"><use xlink:href="#c"/></mask><use fill="#111" fill-rule="nonzero" xlink:href="#c"/><g mask="url(#d)" fill="#181818"><path d="M0-2.1h14v14H0z"/></g></g></g></svg>