<svg width="12" height="22" viewBox="0 0 12 22" xmlns="http://www.w3.org/2000/svg" xmlns:xlink="http://www.w3.org/1999/xlink"><title>UI-Icons/Dollar-Dark@1x</title><defs><path d="M7.1 4.905v5.665c2.681.987 3.706 1.846 3.706 3.845 0 2.339-1.403 3.726-3.695 4.085l-.01.002v1.873a.72.72 0 0 1-1.44 0v-1.782c-1.494-.023-3.17-.373-4.74-.964a.72.72 0 1 1 .509-1.348c1.415.534 2.926.848 4.23.872v-5.565c-3.12-1.103-4.395-2.114-4.395-4.512 0-2.256 1.634-3.46 4.109-3.646.094-.007.19-.013.286-.017V1.625a.72.72 0 1 1 1.44 0v1.833c1.39.134 2.775.515 3.648 1.018a.72.72 0 0 1-.718 1.248c-.663-.382-1.785-.693-2.93-.819zm-1.44-.05l-.178.011c-1.81.136-2.777.848-2.777 2.21 0 1.461.747 2.151 2.955 2.98V4.855zM7.1 17.04c1.497-.294 2.266-1.121 2.266-2.625 0-1.068-.549-1.622-2.266-2.304v4.929z" id="a"/></defs><g fill="none" fill-rule="evenodd"><mask id="b" fill="#fff"><use xlink:href="#a"/></mask><use fill="#444" fill-rule="nonzero" xlink:href="#a"/><g mask="url(#b)" fill="#181818"><path d="M-4 1h20v20H-4z"/></g></g></svg>