<svg width="20" height="20" viewBox="0 0 20 20" xmlns="http://www.w3.org/2000/svg" xmlns:xlink="http://www.w3.org/1999/xlink"><title>UI-Icons/Email-Dark@1x</title><defs><path d="M1.637 8.259L3.427 9.6a.5.5 0 0 1-.6.8L.326 8.525a.5.5 0 0 1 .114-.864L19.19.16a.5.5 0 0 1 .676.562l-3.75 18.75a.5.5 0 0 1-.79.302L5.33 12.279a.5.5 0 0 1 .6-.8l9.36 7.02 3.414-17.067L1.637 8.259zm7.52 6.226a.5.5 0 0 1 .76.65L6.005 19.7a.5.5 0 0 1-.88-.325l.005-7.497a.5.5 0 0 1 .222-.415l5.62-3.754a.5.5 0 1 1 .556.832L6.13 12.146l-.004 5.876 3.032-3.537z" id="a"/></defs><g fill="none" fill-rule="evenodd"><mask id="b" fill="#fff"><use xlink:href="#a"/></mask><use fill="#111" fill-rule="nonzero" xlink:href="#a"/><g mask="url(#b)" fill="#181818"><path d="M0 0h20v20H0z"/></g></g></svg>