<svg width="20" height="20" viewBox="0 0 20 20" xmlns="http://www.w3.org/2000/svg" xmlns:xlink="http://www.w3.org/1999/xlink"><title>UI-Icons/Fax-Dark@1x</title><defs><path d="M3.875 15.125v-3.25a.5.5 0 0 1 .5-.5h11.25a.5.5 0 0 1 .5.5v3.25h2.75v-7.75H1.125v7.75h2.75zm0 1H.625a.5.5 0 0 1-.5-.5v-8.75a.5.5 0 0 1 .5-.5h18.75a.5.5 0 0 1 .5.5v8.75a.5.5 0 0 1-.5.5h-3.25v3.25a.5.5 0 0 1-.5.5H4.375a.5.5 0 0 1-.5-.5v-3.25zm1-3.75v6.5h10.25v-6.5H4.875zm0-11.25v3.25a.5.5 0 0 1-1 0V.625a.5.5 0 0 1 .5-.5h11.25a.5.5 0 0 1 .5.5v3.75a.5.5 0 1 1-1 0v-3.25H4.875z" id="a"/></defs><g fill="none" fill-rule="evenodd"><mask id="b" fill="#fff"><use xlink:href="#a"/></mask><use fill="#111" fill-rule="nonzero" xlink:href="#a"/><g mask="url(#b)" fill="#181818"><path d="M0 0h20v20H0z"/></g></g></svg>