<svg width="41" height="41" viewBox="0 0 41 41" fill="none" xmlns="http://www.w3.org/2000/svg"><path d="M0 20.5C0 9.178 9.178 0 20.5 0S41 9.178 41 20.5 31.822 41 20.5 41 0 31.822 0 20.5z" fill="#6EBDD6"/><path d="M15.4 14.44a3.387 3.387 0 1 0 0-6.774 3.387 3.387 0 0 0 0 6.774zm10.16 0a3.387 3.387 0 1 0 0-6.774 3.387 3.387 0 0 0 0 6.774zm5.93 5.398a4.655 4.655 0 0 0-4.627-4.128h-2.606a4.633 4.633 0 0 0-3.276 1.363 2.78 2.78 0 0 1 .17 1.644A8.774 8.774 0 0 0 20.11 17.2a4.634 4.634 0 0 0-3.407-1.49h-2.606a4.654 4.654 0 0 0-4.627 4.128L8.206 30.902a.423.423 0 0 0 .42.472h8.044v-2.695l-3.916-3.918a1.087 1.087 0 0 1 1.502-1.567l4.308 3.946h3.832l4.307-3.948a1.086 1.086 0 0 1 1.502 1.566L24.29 28.68v2.695h8.044a.422.422 0 0 0 .42-.472L31.49 19.838zM20.48 25.87a2.963 2.963 0 1 1 0-5.926 2.963 2.963 0 0 1 0 5.926z" fill="#fff"/></svg>