<svg width="41" height="41" viewBox="0 0 41 41" fill="none" xmlns="http://www.w3.org/2000/svg"><path d="M0 20.5C0 9.178 9.178 0 20.5 0S41 9.178 41 20.5 31.822 41 20.5 41 0 31.822 0 20.5z" fill="#F3B500"/><path d="M15.307 15.031a3.515 3.515 0 1 0 0-7.031 3.515 3.515 0 0 0 0 7.031zm11.537 0a3.516 3.516 0 1 0 0-7.031 3.516 3.516 0 0 0 0 7.031z" fill="#fff"/><path fill-rule="evenodd" clip-rule="evenodd" d="M15.126 16.03h1.122a4.17 4.17 0 0 1 2.891 1.186 4.795 4.795 0 0 1 1.423 2.957l1.179 11.101a.454.454 0 0 1-.098.331.397.397 0 0 1-.133.105.37.37 0 0 1-.161.037H9.394a.37.37 0 0 1-.16-.037.396.396 0 0 1-.134-.105.433.433 0 0 1-.097-.33l1.179-11.102a4.796 4.796 0 0 1 1.422-2.957 4.17 4.17 0 0 1 2.891-1.185h.63z" fill="#fff"/><path fill-rule="evenodd" clip-rule="evenodd" d="M26.87 16.03h1.121a4.17 4.17 0 0 1 2.891 1.186 4.796 4.796 0 0 1 1.423 2.957l1.179 11.101a.454.454 0 0 1-.098.331.397.397 0 0 1-.133.105.37.37 0 0 1-.161.037H21.138a.37.37 0 0 1-.162-.037.396.396 0 0 1-.133-.105.433.433 0 0 1-.097-.33l1.179-11.102a4.795 4.795 0 0 1 1.422-2.957 4.17 4.17 0 0 1 2.891-1.185h.631z" fill="#fff"/></svg>