<svg width="22" height="22" viewBox="0 0 22 22" xmlns="http://www.w3.org/2000/svg" xmlns:xlink="http://www.w3.org/1999/xlink"><title>UI-Icons/Location-Pin-Dark@1x</title><defs><path d="M8.36 18.99a24.399 24.399 0 0 0 2.087-2.2c1.855-2.227 2.958-4.433 2.958-6.415a5.53 5.53 0 1 0-11.06 0c0 1.982 1.103 4.188 2.958 6.414a24.399 24.399 0 0 0 2.572 2.64c.152-.133.314-.28.485-.44zm6.485-8.615c0 2.393-1.24 4.875-3.292 7.336a25.822 25.822 0 0 1-2.94 2.986 13.43 13.43 0 0 1-.288.24.72.72 0 0 1-.9 0 23.332 23.332 0 0 1-1.018-.895 25.822 25.822 0 0 1-2.21-2.331C2.146 15.25.905 12.768.905 10.375a6.97 6.97 0 1 1 13.94 0zm-3.133-7.477a.72.72 0 1 1-.629-1.296 6.97 6.97 0 0 1 10.012 6.273c0 2.393-1.24 4.875-3.292 7.336a25.822 25.822 0 0 1-2.94 2.986 13.43 13.43 0 0 1-.288.24.72.72 0 1 1-.9-1.124 21.9 21.9 0 0 0 .935-.824 24.399 24.399 0 0 0 2.087-2.2c1.855-2.226 2.958-4.432 2.958-6.414a5.53 5.53 0 0 0-7.943-4.977zM7.875 13.595a3.22 3.22 0 1 0 0-6.44 3.22 3.22 0 0 0 0 6.44zm0-1.44a1.78 1.78 0 1 1 0-3.56 1.78 1.78 0 0 1 0 3.56z" id="a"/></defs><g fill="none" fill-rule="evenodd"><mask id="b" fill="#fff"><use xlink:href="#a"/></mask><use fill="#444" fill-rule="nonzero" xlink:href="#a"/><g mask="url(#b)" fill="#181818"><path d="M1 1h20v20H1z"/></g></g></svg>