<svg width="20" height="20" viewBox="0 0 20 20" xmlns="http://www.w3.org/2000/svg" xmlns:xlink="http://www.w3.org/1999/xlink"><title>UI-Icons/Phone-Dark@1x</title><defs><path d="M12.721 14.769l2.384-2.385a.476.476 0 0 1 .674 0l4.082 4.082a.476.476 0 0 1 0 .673l-2.722 2.722a.475.475 0 0 1-.336.139C7.523 20 0 12.477 0 3.197c0-.126.05-.247.14-.336L2.86.139a.476.476 0 0 1 .674 0l4.082 4.082a.476.476 0 0 1 0 .674L5.23 7.279l7.49 7.49zm.337 1.01a.476.476 0 0 1-.674 0L4.221 7.616a.476.476 0 0 1 0-.674l2.384-2.384L3.197 1.15.954 3.393c.104 8.598 7.055 15.55 15.653 15.653l2.243-2.243-3.408-3.408-2.384 2.384z" id="a"/></defs><g fill="none" fill-rule="evenodd"><mask id="b" fill="#fff"><use xlink:href="#a"/></mask><use fill="#111" fill-rule="nonzero" xlink:href="#a"/><g mask="url(#b)" fill="#181818"><path d="M0 0h20v20H0z"/></g></g></svg>