<svg width="20" height="20" viewBox="0 0 20 20" xmlns="http://www.w3.org/2000/svg" xmlns:xlink="http://www.w3.org/1999/xlink"><title>UI-Icons/Post-Dark@1x</title><defs><path d="M10 12.558l9.14-4.874a.5.5 0 0 1 .735.441v10a1.75 1.75 0 0 1-1.75 1.75H1.875a1.75 1.75 0 0 1-1.75-1.75v-10a.5.5 0 0 1 .735-.441L10 12.558zm8.875-3.6l-8.64 4.608a.5.5 0 0 1-.47 0l-8.64-4.608v9.167c0 .414.336.75.75.75h16.25a.75.75 0 0 0 .75-.75V8.958zM3.625 1.125V6.25a.5.5 0 0 1-1 0V.625a.5.5 0 0 1 .5-.5h13.75a.5.5 0 0 1 .5.5V6.25a.5.5 0 1 1-1 0V1.125H3.625zm3.25 3.75a.5.5 0 0 1 0-1h6.25a.5.5 0 1 1 0 1h-6.25zm0 3.75a.5.5 0 0 1 0-1h6.25a.5.5 0 1 1 0 1h-6.25z" id="a"/></defs><g fill="none" fill-rule="evenodd"><mask id="b" fill="#fff"><use xlink:href="#a"/></mask><use fill="#111" fill-rule="nonzero" xlink:href="#a"/><g mask="url(#b)" fill="#181818"><path d="M0 0h20v20H0z"/></g></g></svg>