<svg width="20" height="18" viewBox="0 0 20 18" xmlns="http://www.w3.org/2000/svg" xmlns:xlink="http://www.w3.org/1999/xlink"><title>UI-Icons/Search-Light@1x</title><defs><path d="M14.273 11.939a.6.6 0 0 1 .2.127l4.965 4.727a.603.603 0 1 1-.831.873l-4.964-4.728a.602.602 0 0 1-.112-.144 7.703 7.703 0 0 1-5.43 2.202C3.937 14.996.55 11.769.55 7.774.549 3.78 3.937.553 8.101.553c4.165 0 7.553 3.226 7.553 7.221a6.973 6.973 0 0 1-1.381 4.165zM8.1 13.79c3.512 0 6.347-2.7 6.347-6.016S11.612 1.758 8.1 1.758c-3.511 0-6.347 2.7-6.347 6.016S4.59 13.79 8.101 13.79z" id="a"/></defs><g fill="none" fill-rule="evenodd"><mask id="b" fill="#fff"><use xlink:href="#a"/></mask><use fill="#FFF" fill-rule="nonzero" xlink:href="#a"/><g mask="url(#b)" fill="#F4F4F4"><path d="M0 0h20v18H0z"/></g></g></svg>