<svg width="20" height="14" viewBox="0 0 20 14" xmlns="http://www.w3.org/2000/svg" xmlns:xlink="http://www.w3.org/1999/xlink"><title>UI-Icons/Social-Youtube-Dark@1x</title><defs><path d="M19.833 3S19.667 1.583 19 1c-.75-.833-1.583-.833-2-.833C14.167 0 10 0 10 0S5.833 0 3 .167C2.583.25 1.75.25 1 1c-.583.583-.833 2-.833 2S0 4.583 0 6.25v1.5C0 9.333.167 11 .167 11s.166 1.417.833 2c.75.833 1.75.75 2.167.833C4.75 14 10 14 10 14s4.167 0 7-.25c.417-.083 1.25-.083 2-.833.583-.584.833-2 .833-2S20 9.333 20 7.667v-1.5C20 4.583 19.833 3 19.833 3zM7.917 9.583V4l5.416 2.833-5.416 2.75z" id="a"/></defs><g fill="none" fill-rule="evenodd"><mask id="b" fill="#fff"><use xlink:href="#a"/></mask><use fill="#111" fill-rule="nonzero" xlink:href="#a"/><g mask="url(#b)" fill="#181818"><path d="M0-4h20v20H0z"/></g></g></svg>