<svg width="20" height="16" viewBox="0 0 20 16" xmlns="http://www.w3.org/2000/svg" xmlns:xlink="http://www.w3.org/1999/xlink"><title>UI-Icons/Social-Twitter-Light@1x</title><defs><path d="M19.216 4.042a7.897 7.897 0 0 1-2.264.619 3.946 3.946 0 0 0 1.734-2.176 7.906 7.906 0 0 1-2.504.955 3.942 3.942 0 0 0-2.878-1.242 3.938 3.938 0 0 0-3.84 4.828 11.202 11.202 0 0 1-8.126-4.108 3.928 3.928 0 0 0 1.22 5.25 3.934 3.934 0 0 1-1.786-.492v.05a3.937 3.937 0 0 0 3.162 3.855 3.96 3.96 0 0 1-1.78.067 3.945 3.945 0 0 0 3.683 2.731A7.924 7.924 0 0 1 .94 16.063c-.318 0-.632-.02-.94-.055a11.18 11.18 0 0 0 6.043 1.766c7.252 0 11.218-5.992 11.218-11.188 0-.17-.004-.34-.012-.509a8 8 0 0 0 1.967-2.035z" id="a"/></defs><g transform="translate(0 -2)" fill="none" fill-rule="evenodd"><mask id="b" fill="#fff"><use xlink:href="#a"/></mask><use fill="#000" fill-rule="nonzero" xlink:href="#a"/><g mask="url(#b)" fill="#F4F4F4"><path d="M0 0h20v20H0z"/></g></g></svg>