<svg width="20" height="20" viewBox="0 0 20 20" xmlns="http://www.w3.org/2000/svg" xmlns:xlink="http://www.w3.org/1999/xlink"><title>UI-Icons/Social-Instagram-Dark@1x</title><defs><path d="M10 1.802c2.67 0 2.987.01 4.04.058 1.14.052 2.195.28 3.008 1.093.812.812 1.04 1.868 1.092 3.006.048 1.054.058 1.371.058 4.041 0 2.67-.01 2.987-.058 4.04-.052 1.14-.28 2.195-1.093 3.008-.812.812-1.868 1.04-3.006 1.092-1.054.048-1.371.058-4.041.058-2.67 0-2.987-.01-4.04-.058-1.14-.052-2.195-.28-3.007-1.093-.813-.812-1.041-1.868-1.093-3.006-.048-1.054-.058-1.371-.058-4.041 0-2.67.01-2.987.058-4.04.052-1.14.28-2.195 1.093-3.007.812-.813 1.868-1.041 3.006-1.093C7.013 1.812 7.33 1.802 10 1.802zM10 0C7.284 0 6.943.012 5.877.06 4.252.134 2.824.532 1.678 1.678.533 2.824.134 4.252.06 5.877.012 6.943 0 7.284 0 10s.012 3.057.06 4.123c.074 1.625.472 3.053 1.618 4.199 1.146 1.146 2.574 1.544 4.199 1.618 1.066.048 1.407.06 4.123.06s3.057-.012 4.123-.06c1.625-.074 3.053-.473 4.199-1.618 1.146-1.146 1.544-2.574 1.618-4.199.048-1.066.06-1.407.06-4.123s-.012-3.057-.06-4.123c-.074-1.625-.473-3.053-1.618-4.199C17.176.533 15.748.134 14.123.06 13.057.012 12.716 0 10 0zm0 4.865a5.135 5.135 0 1 0 0 10.27 5.135 5.135 0 0 0 0-10.27zm0 8.468a3.333 3.333 0 1 1 0-6.667 3.333 3.333 0 0 1 0 6.667zm5.338-7.471a1.2 1.2 0 1 1 0-2.4 1.2 1.2 0 0 1 0 2.4z" id="a"/></defs><g fill="none" fill-rule="evenodd"><mask id="b" fill="#fff"><use xlink:href="#a"/></mask><use fill="#111" fill-rule="nonzero" xlink:href="#a"/><g mask="url(#b)" fill="#181818"><path d="M0 0h20v20H0z"/></g></g></svg>