<svg width="20" height="20" viewBox="0 0 20 20" xmlns="http://www.w3.org/2000/svg" xmlns:xlink="http://www.w3.org/1999/xlink"><title>UI-Icons/Social-Facebook-Light@1x</title><defs><path d="M18.333 0H1.667C.746 0 0 .746 0 1.667v16.666C0 19.254.746 20 1.667 20h9.166v-7.5h-2.5V9.167h2.5V7.01c0-2.583 1.578-3.99 3.883-3.99 1.104 0 2.052.082 2.329.119v2.7h-1.598c-1.254 0-1.496.597-1.496 1.47v1.857h3.7l-.834 3.333h-2.866V20h4.382c.921 0 1.667-.746 1.667-1.667V1.667C20 .746 19.254 0 18.333 0z" id="a"/></defs><g fill="none" fill-rule="evenodd"><mask id="b" fill="#fff"><use xlink:href="#a"/></mask><use fill="#111" fill-rule="nonzero" xlink:href="#a"/><g mask="url(#b)" fill="#F4F4F4"><path d="M0 0h20v20H0z"/></g></g></svg>