<svg width="20" height="12" viewBox="0 0 20 12" xmlns="http://www.w3.org/2000/svg" xmlns:xlink="http://www.w3.org/1999/xlink"><title>UI-Icons/Social-TripAdvisor-Dark@1x</title><defs><path d="M5.651 6.49c0 .216-.08.401-.239.555a.792.792 0 0 1-.568.23.802.802 0 0 1-.578-.23.742.742 0 0 1-.238-.556c0-.211.08-.394.238-.547a.802.802 0 0 1 .578-.23c.22 0 .41.077.568.23.16.153.239.336.239.547zm10.017-.01c0 .218-.08.403-.238.556a.802.802 0 0 1-.578.23.802.802 0 0 1-.577-.23.742.742 0 0 1-.239-.555c0-.217.08-.401.24-.551a.81.81 0 0 1 .576-.226.81.81 0 0 1 .578.226.73.73 0 0 1 .238.55zm-9.027.01c0-.44-.164-.82-.49-1.137a1.64 1.64 0 0 0-1.186-.476 1.65 1.65 0 0 0-1.185.472c-.327.315-.49.695-.49 1.14 0 .446.163.826.49 1.14.327.315.722.472 1.185.472.463 0 .858-.157 1.185-.472.327-.314.49-.694.49-1.14zm10.008-.01c0-.445-.163-.825-.49-1.14a1.647 1.647 0 0 0-1.185-.471c-.457 0-.85.157-1.18.472-.33.314-.495.694-.495 1.14 0 .445.163.825.49 1.14a1.65 1.65 0 0 0 1.185.472 1.65 1.65 0 0 0 1.185-.472c.327-.315.49-.695.49-1.14zm-9.27.01c0 .645-.236 1.195-.708 1.649-.472.453-1.04.68-1.706.68a2.374 2.374 0 0 1-1.714-.685c-.472-.456-.708-1.004-.708-1.645 0-.64.238-1.187.712-1.64a2.386 2.386 0 0 1 1.71-.682c.666 0 1.234.227 1.706.681.472.454.707 1 .707 1.641zm10.017-.01c0 .641-.236 1.188-.708 1.642a2.382 2.382 0 0 1-1.714.68 2.371 2.371 0 0 1-1.706-.68c-.471-.454-.707-1-.707-1.641 0-.64.236-1.187.707-1.641a2.371 2.371 0 0 1 1.706-.68c.671 0 1.243.226 1.714.68.472.454.708 1 .708 1.64zm-8.368.026c0-1.064-.392-1.972-1.176-2.727-.785-.754-1.73-1.132-2.835-1.132a4.02 4.02 0 0 0-2.005.518c-.613.345-1.1.815-1.458 1.408a3.667 3.667 0 0 0-.538 1.933c0 .696.179 1.34.538 1.933a3.922 3.922 0 0 0 1.458 1.408 4.02 4.02 0 0 0 2.005.517c1.106 0 2.05-.377 2.835-1.131.784-.755 1.176-1.664 1.176-2.727zm5.798-4.786C13.356 1.102 11.748.793 10 .793c-1.846 0-3.504.307-4.974.92.677 0 1.322.126 1.936.38a4.984 4.984 0 0 1 1.584 1.022c.443.429.796.938 1.059 1.529A4.52 4.52 0 0 1 10 6.506c0-.64.126-1.251.378-1.833a4.705 4.705 0 0 1 1.024-1.508 5.102 5.102 0 0 1 1.54-1.027 4.953 4.953 0 0 1 1.884-.418zm4.158 4.786c0-1.064-.39-1.972-1.172-2.727-.78-.754-1.724-1.132-2.83-1.132-1.105 0-2.05.378-2.834 1.132-.784.755-1.176 1.663-1.176 2.727 0 1.063.392 1.972 1.176 2.727.785.754 1.73 1.131 2.835 1.131s2.048-.377 2.83-1.131c.78-.755 1.171-1.664 1.171-2.727zm-2.309-4.727H20a4.42 4.42 0 0 0-.651.956 3.57 3.57 0 0 0-.347.956 4.55 4.55 0 0 1 .955 2.815c0 .868-.223 1.67-.669 2.405a4.838 4.838 0 0 1-1.814 1.742 5.031 5.031 0 0 1-2.491.638c-.77 0-1.49-.155-2.162-.467a4.87 4.87 0 0 1-1.701-1.295c-.272.312-.645.81-1.12 1.495a6.983 6.983 0 0 0-.464-.689 10.564 10.564 0 0 0-.647-.814 4.904 4.904 0 0 1-1.706 1.299 5.059 5.059 0 0 1-2.166.471 5.031 5.031 0 0 1-2.491-.638A4.838 4.838 0 0 1 .712 8.91a4.554 4.554 0 0 1-.669-2.405A4.55 4.55 0 0 1 .998 3.69a3.592 3.592 0 0 0-.347-.956A4.42 4.42 0 0 0 0 1.78h3.168C4.031 1.222 5.058.786 6.25.472A14.64 14.64 0 0 1 10 0c1.296 0 2.514.156 3.655.468 1.14.311 2.147.749 3.02 1.31z" id="a"/></defs><g fill="none" fill-rule="evenodd"><mask id="b" fill="#fff"><use xlink:href="#a"/></mask><use fill="#FFF" fill-rule="nonzero" xlink:href="#a"/><g mask="url(#b)" fill="#181818"><path d="M0-4h20v20H0z"/></g></g></svg>