<svg width="187" height="49" viewBox="0 0 187 49" fill="none" xmlns="http://www.w3.org/2000/svg"><g clip-path="url(#a)" fill="#CBA25B"><path d="M120.315 43.284a.53.53 0 0 0-.453-.248h-1.622a.53.53 0 0 0-.453.248l-2.226 5.276c-.014.028-.014.041-.014.069 0 .096.083.178.179.178h1.278a.167.167 0 0 0 .165-.11l.522-1.264h2.033l.495 1.265a.18.18 0 0 0 .165.11h1.965a.181.181 0 0 0 .178-.18c0-.027 0-.054-.013-.068l-2.199-5.276zm-2.267 3.325l.769-2.047.619 2.047h-1.388zm-2.212-2.446c.11-.096.192-.302.192-.536 0-.247-.082-.453-.192-.55-.028-.027-.069-.04-.124-.04h-4.864c-.055 0-.096.013-.124.054-.11.096-.192.303-.192.536 0 .248.082.454.192.55.028.027.069.041.124.041h1.388v4.425c0 .096.082.178.178.178h1.732a.182.182 0 0 0 .178-.178v-4.425h1.388c.055-.014.096-.027.124-.055zm-8.753-1.127h-4.865c-.055 0-.096.014-.123.055-.11.096-.193.303-.193.536 0 .248.083.454.193.55.027.027.068.041.123.041h1.388v4.425c0 .096.083.178.179.178h1.731a.182.182 0 0 0 .179-.178v-4.425h1.388c.055 0 .096-.014.123-.041.11-.096.193-.302.193-.536 0-.247-.083-.453-.193-.55-.027-.04-.068-.055-.123-.055zm-6.816.248a.53.53 0 0 0-.453-.248h-1.622a.531.531 0 0 0-.453.248l-2.226 5.276c-.014.028-.014.041-.014.069 0 .096.083.178.179.178h1.278a.166.166 0 0 0 .165-.11l.522-1.264h2.033l.495 1.265a.18.18 0 0 0 .165.11h1.965a.182.182 0 0 0 .179-.18c0-.027 0-.054-.014-.068l-2.199-5.276zM98 46.609l.77-2.047.618 2.047H98zm53.425-1.237h-2.378a.126.126 0 0 0-.096.041c-.096.083-.151.262-.151.468 0 .22.069.398.151.48a.126.126 0 0 0 .096.042h.715v1.635c-.069.028-.192.055-.467.055-1.045 0-1.677-.577-1.677-2.171 0-1.58.646-2.116 1.581-2.116.535 0 .975.206 1.25.398a.518.518 0 0 0 .289.096c.151 0 .343-.027.577-.26a.518.518 0 0 0 .178-.33c0-.083-.082-.165-.165-.22a4.338 4.338 0 0 0-2.281-.646c-2.047 0-3.71 1.21-3.71 3.064 0 1.841 1.663 3.078 3.71 3.078.866 0 1.677-.275 2.323-.687.137-.096.247-.247.247-.426v-2.336a.195.195 0 0 0-.192-.165zm7.612 3.188l-2.226-5.276a.53.53 0 0 0-.453-.248h-1.622a.53.53 0 0 0-.453.248l-2.226 5.276c-.014.028-.014.041-.014.069 0 .096.082.178.179.178h1.277a.165.165 0 0 0 .165-.11l.522-1.264h2.034l.495 1.265a.18.18 0 0 0 .165.11h1.965a.181.181 0 0 0 .178-.18c.028-.013.028-.04.014-.068zm-4.493-1.951l.769-2.047.619 2.047h-1.388zm-10.402-3.573h-1.402a.181.181 0 0 0-.178.179v3.312l-2.089-3.133c-.137-.193-.316-.358-.646-.358h-1.649a.181.181 0 0 0-.178.179v5.414c0 .096.082.178.178.178h1.402a.182.182 0 0 0 .179-.178v-2.927l1.965 2.886a.52.52 0 0 0 .425.233h2.007a.182.182 0 0 0 .178-.178v-5.414c-.013-.11-.096-.193-.192-.193zm-14.991 4.59c-.742-.976-1.127-1.21-1.938-1.47 0 0 1.704.013 1.704-1.567 0-1.127-1.058-1.553-2.762-1.553h-2.377a.517.517 0 0 0-.509.509v5.084c0 .096.083.178.179.178h1.731a.182.182 0 0 0 .179-.178v-4.713h.481c.096 0 .921.027.921.88 0 .879-.619 1.002-.893 1.085-.179.055-.207.233.164.865.33.564.866 1.32 1.182 1.622.11.11.206.233.371.316.316.206 1.003.316 1.567.288.824-.04.879-.274.879-.357-.014-.151-.234-.137-.879-.99zm4.273-4.768c-1.965 0-3.531 1.223-3.531 3.064 0 1.869 1.58 3.078 3.531 3.078 1.965 0 3.531-1.21 3.531-3.078 0-1.855-1.566-3.064-3.531-3.064zm0 5.153c-.962 0-1.278-1.1-1.278-2.268 0-1.181.563-1.965 1.278-1.965.715 0 1.292.77 1.292 1.965 0 1.168-.33 2.268-1.292 2.268zm-26.396-23.305h4.012v10.746h1.099V24.706h4.013v-.99h-9.124v.99zm3.16-8.01h-5.482V5.95h-1.1v11.748h6.568v-1.003h.014zM93.768 5.95h-1.1v11.748h1.1V5.95zm32.621 10.415a4.69 4.69 0 0 0 1.113-1.291c.274-.467.467-.92.591-1.347.123-.426.206-.824.247-1.168.027-.343.055-.59.055-.742a7.12 7.12 0 0 0-.055-.742 5.297 5.297 0 0 0-.247-1.168 6.626 6.626 0 0 0-.591-1.346 5.123 5.123 0 0 0-1.113-1.292c-.468-.385-1.058-.7-1.773-.948-.714-.248-1.566-.371-2.583-.371h-3.628v11.748h3.628c1.017 0 1.882-.123 2.583-.37.701-.262 1.292-.578 1.773-.963zm-4.645.33h-2.253V6.94h2.253c.77 0 1.498.096 2.171.289a4.945 4.945 0 0 1 1.759.893c.495.398.893.907 1.182 1.511.288.619.426 1.347.426 2.185 0 .838-.138 1.567-.426 2.185a4.032 4.032 0 0 1-1.182 1.511 4.949 4.949 0 0 1-1.759.894 7.89 7.89 0 0 1-2.171.288zm-41.442-.357h-.028L77.306 5.936h-1.388L72.95 16.338h-.027L70.01 5.936h-1.127l3.422 11.748h1.346L76.62 7.242h.028l2.968 10.444h1.346l3.422-11.749h-1.127l-2.954 10.402zm.467 13.246a3.02 3.02 0 0 0 .975-.508c.29-.22.536-.523.729-.893.192-.372.288-.825.288-1.388 0-.509-.082-.935-.247-1.292a2.69 2.69 0 0 0-1.498-1.415 4.876 4.876 0 0 0-.948-.261 6.923 6.923 0 0 0-.866-.097c-.26-.013-.48-.013-.632-.013h-3.09v11.735h1.099v-5.58h2.034l3.297 5.58h1.25l-3.42-5.634a5.828 5.828 0 0 0 1.03-.234zm-4.177-.7v-4.178h2.322c.577 0 1.044.069 1.401.22.358.137.633.316.839.536.192.206.33.44.412.673.069.247.11.467.11.66 0 .192-.041.426-.11.66a1.521 1.521 0 0 1-.412.673c-.193.206-.481.384-.839.535-.357.138-.824.22-1.401.22h-2.322zm16.475 1.002h5.703v-.989h-5.703V24.72h6.087v-.99h-7.186v11.722h7.447v-.99h-6.348v-4.576zm68.059-6.17L156 35.467h1.141l1.333-3.12h6.224l1.278 3.12h1.223l-4.947-11.75h-1.126zm-2.213 7.627l2.735-6.43 2.652 6.43h-5.387zm14.071-6.637h4.012v10.746h1.1V24.706h4.012v-.99h-9.124v.99zm-43.119 4.878c.357-.11.673-.275.976-.508.288-.22.536-.523.728-.893.192-.372.289-.825.289-1.388 0-.509-.083-.935-.248-1.292a2.689 2.689 0 0 0-1.498-1.415 4.877 4.877 0 0 0-.948-.261 6.932 6.932 0 0 0-.865-.097c-.261-.013-.481-.013-.632-.013h-3.092v11.735h1.099v-5.58h2.034l3.298 5.58h1.25l-3.421-5.634a5.828 5.828 0 0 0 1.03-.234zm-4.177-.7v-4.178h2.322c.577 0 1.044.069 1.402.22a2.2 2.2 0 0 1 .838.536c.192.206.33.44.412.673.069.247.11.467.11.66 0 .192-.041.426-.11.66a1.525 1.525 0 0 1-.412.673c-.193.206-.481.384-.838.535-.358.138-.825.22-1.402.22h-2.322zm54.606-12.189V12.12h5.703v-.989h-5.703V6.94h6.087v-.99h-7.186v11.748h7.447v-.99h-6.348v-.013zm-16.956.99h1.099v-5.566h5.524v-.989h-5.524V6.94h5.936v-.99h-7.035v11.734zm-19.306-.99h-5.469V5.95h-1.099v11.748h6.568v-1.003zm8.368.99h1.099V5.95H152.4v11.735zm-10.251 12.201h5.703v-.989h-5.703V24.72h6.088v-.99h-7.187v11.722h7.448v-.99h-6.349v-4.576zM67.605 40.824c-.605-.288-2.79-.934-4.63-1.882-2.227-1.155-6.047-4.466-6.047-4.466-1.95-1.622-3.531-.7-3.586-.66-1.14.55-1.484 1.512-1.525 2.46-.028 1.21.467 2.363.522 2.487.082.179.069.22.014.234-.839.192-1.113.398-1.14 1.305-.014 3.078 7.378 6.747 10.868 7.09 1.663.165 3.174-.137 4.562-1.429 2.803-2.57 2.281-4.52.962-5.139zm-17.533-2.899c-.289.536-1.237.604-2.103.137-.865-.467-1.332-1.291-1.044-1.827.289-.55 1.237-.605 2.102-.138.866.454 1.347 1.278 1.045 1.828zM47.063 41.8a19.83 19.83 0 0 1-11.543 3.669c-10.69 0-19.278-8.437-19.91-19.004-.014-.275.316-.509.618-.33 1.21.742 3.902 2.281 7.241 2.528.303.028.715 0 .88.454.192.48.756 2.034 4.548 4.507.193.124.247.179.22.316 0 0-.165.7-1.264.522-1.745-.26-2.707-1.759-3.243-2.089-.192-.137-.453-.123-.618-.082-.591.124-3.147.893-2.817 3.724.165 1.401 1.429 4.108 5.73 5.208.838.233 5.675.838 9.357-2.006.316-.234.783-.578 2.061.04.413.207 3.71 1.76 8.149 1.636l.645-.028c.207 0 .372.07.399.261.028.22-.124.426-.453.674zm4.094-20.735c-.096.453-.082.577.165.907.412.494 1.69 2.088 2.432 3.998.096.22.248.151.344.014.33-.44 1.14-2.24.563-4.837C52.89 12.435 44.424 5.95 35.521 5.95c-3.738 0-8.644 1.525-11.612 3.71-.165.123-.316.233-.467.357-.357.302-.7.618.11.687 1.168.096 2.9.151 4.63.275 3.477.247 7.31 1.017 9.77 1.937 4.081 1.54 5.62 2.9 6.637 3.642.234.178.316.192.385.15.082-.068.096-.26-.014-.59-.096-.33-.508-1.03-1.566-1.882-.55-.44-.468-.591-.151-.866.26-.234.961-.728 2.13-.728 1.044 0 3.064.412 4.479 1.854 0 0 2.28 2.075 1.305 6.569z"/><path d="M31.288 12.696a41.212 41.212 0 0 0-3.106-.343c-1.662-.124-4.48-.261-4.48-.261-8.395-.536-13.562-7.901-14.908-9.317-3.38-3.86-5.909-2.817-7.228-2.02C-.138 1.8-.083 3.572.068 4.535c.687 4.273 4.04 6.91 6.802 8.395 3.147 1.676 6.238 2.253 6.266 2.267 2.927.563 3.078 2.157 3.092 2.157.15 1.47.865 2.075.99 2.281.205.248.095.344-.235.22-2.212-.77-3.215-2.446-3.229-2.487-.233-.37-.357-.33-.577-.275-.865.234-1.456.66-1.731 1.264-.55 1.223.151 2.515.343 2.817 3.216 4.865 11.378 5.675 17.657 5.497 6.651-.193 12.642-1.484 12.958-1.567.234-.041.302.096.11.261-.605.509-3.655 1.608-6.637 2.501l-.178.055.178.069c8.987 3.531 14.991.206 15.06.178.316-.15.77-.412.536-.893-3.476-6.939-11.226-13.328-20.185-14.579z"/></g><defs><clipPath id="a"><path fill="#fff" d="M0 0h186.642v49H0z"/></clipPath></defs></svg>