<?xml version="1.0" standalone="no"?>
<!DOCTYPE svg PUBLIC "-//W3C//DTD SVG 1.1//EN" "http://www.w3.org/Graphics/SVG/1.1/DTD/svg11.dtd" >
<svg xmlns="http://www.w3.org/2000/svg">
<metadata></metadata>
<defs>
<font id="taronga_headlineregular" horiz-adv-x="663" >
<font-face units-per-em="2048" ascent="1638" descent="-410" />
<missing-glyph horiz-adv-x="331" />
<glyph horiz-adv-x="0" />
<glyph horiz-adv-x="682" />
<glyph unicode=" "  horiz-adv-x="331" />
<glyph unicode="&#x09;" horiz-adv-x="331" />
<glyph unicode="&#xa0;" horiz-adv-x="331" />
<glyph unicode="!" horiz-adv-x="417" d="M109 1333q0 16 12 27t29 8q18 -4 37 -4.5t44 1t37 1.5q4 0 15 0.5t17 0.5t13.5 -2t12.5 -7q4 -4 4.5 -13t-0.5 -17t0 -15q1 -10 -11 -84q-8 -45 -10 -70q-2 -13 -2 -38t-2 -38q-2 -10 -3 -31.5t-3 -31.5q-3 -16 -5.5 -54.5t-6.5 -58.5q-5 -7 -4.5 -60t0.5 -61 q0 -35 -7 -75q-2 -13 -2 -39t-2 -39q-1 -7 0 -45.5t-6 -44.5q3 -6 3 -14t-1.5 -18t-1.5 -15v-80v-27q-4 -4 -0.5 -13.5t0.5 -13.5q-2 -3 -1.5 -14t-2.5 -12q-32 -12 -55 -12q-2 0 -12 1.5t-15 0.5q-14 -5 -16 -4q-2 2 -6 3t-6 3t0 6v10q0 2 3 8.5t3 7.5q0 6 1.5 22t1.5 29 t-3 21q-3 9 -3.5 22.5t0.5 33.5t1 26q0 41 -4 64q-7 41 -8.5 124t-8.5 125q-6 30 -10 95q0 9 -2 26.5t-2 26.5q5 47 4 59q-2 27 -2 76l4 4q0 9 -5.5 39t-2.5 43q2 4 1.5 18t-3.5 17t-2.5 17.5t-1.5 19.5q-4 11 -4 65zM124.5 135q11.5 44 39.5 70q1 11 18.5 17t18.5 9 q2 6 12 6.5t23 -2t14 -2.5q48 5 80 -45h-4q5 -8 5.5 -19.5t-1 -25t-0.5 -20.5q1 -9 0 -18.5t-3 -21t-3 -17.5q0 -6 -7 -21.5t-6 -24.5q-6 -3 -14 -11t-14 -11q-33 -14 -80 -2q-48 15 -74 61q-16 34 -4.5 78z" />
<glyph unicode="&#x22;" d="M87.5 1227q3.5 46 18.5 78q16 41 35 57q10 9 31.5 14.5t36.5 3.5q3 -1 12 -5t15 -3q3 1 6 -1t5.5 -4t6 -6t4.5 -5q27 -24 33 -64l2 -26q2 -10 2 -27q0 -9 1.5 -37t0.5 -43q0 -4 -2.5 -14.5t-1.5 -16.5q0 -8 -2 -12q-1 -2 -4 -4t-4 -4q-2 -3 -9 -39q-1 -8 -3 -24.5 t-3 -24.5q-2 -13 -5 -39.5t-5 -40.5q-2 -12 -9.5 -37.5t-8.5 -40.5q-1 -14 -5.5 -43t-5.5 -43q0 -16 -6 -24q-2 -3 -7.5 -4t-10 -2t-4.5 -3h-4q-29 6 -33 5q-1 0 -6 -1t-8 -0.5t-5 3.5q-5 9 -7 21.5t-1 23.5t0 24q-6 57 -26 166q-21 112 -23 162q-4 34 -0.5 80zM361 1143 q-5 49 0 89.5t18 78.5q16 40 37 61q6 6 13.5 8t12.5 2t16.5 -2t14.5 -2q42 -3 62 -26h-3q11 -11 20.5 -31.5t8.5 -34.5q-1 -8 -2.5 -21.5t-2.5 -24.5t-1 -21q-5 -73 -8 -82q-8 -28 -12 -64q0 -6 -5 -31q-1 -7 -2 -21.5t-2 -21.5q-10 -122 -10 -149q0 -29 2 -41 q1 -6 -0.5 -17t-1.5 -14t-1 -9t-1 -9v-15q-2 -4 -5.5 -5t-9.5 0t-7 1q-3 0 -27 -6q-14 -2 -31 8q-4 14 -8 41t-6 37q-29 127 -35 160q-10 55 -14.5 84t-9.5 78z" />
<glyph unicode="#" d="M12 465q2 14 2 43q0 9 5.5 12t13.5 0q4 -2 10.5 -2t15 1t11.5 1q2 0 20 -2t30 -1t13 7q1 12 4 46.5t6 54.5q10 79 9 98t7 60.5t9 56.5q-13 2 -48 -1.5t-48 1.5q-12 3 -16 7t-4.5 14.5t-2.5 15.5q-5 22 -2 34q0 1 1.5 4t2 5t2 4.5t2.5 4t3 3t4 1.5t4.5 -1t5.5 -4 q2 -1 7 -0.5t12 1.5l7 1l47 -2q3 0 13.5 -2t15 0t4.5 10q0 11 4 31.5t4 23.5q9 124 29 234q1 7 4 30t6 35q2 8 3.5 22t4.5 24.5t9 17.5q-1 4 0.5 7t5.5 5t8 3.5t10.5 2.5t11.5 1.5t12 0.5h10.5h9.5h7q17 0 23 -13.5t2 -31.5q0 -4 -4 -12q-2 -4 -1.5 -11.5t-0.5 -11.5 q-1 -2 -1.5 -15t-2.5 -15q-8 -5 -8 -50q0 -6 -11 -45q-9 -47 -12 -94q0 -5 -1 -16.5t-1 -16.5t-5 -25.5t-3 -27.5q4 -12 -4 -37t-6 -34q57 2 75 2h97q-3 74 20 178q3 19 6 53t4 45q2 10 8 37.5t7 42.5q1 7 1.5 19.5t1.5 23t3 18.5q6 27 35 27q7 -1 22.5 1.5t25 3t16.5 -7 t5 -24.5q-3 -17 4 -24t-4 -41q-12 -24 -6 -35q3 -7 -1 -33t-11 -30q1 -13 0.5 -20t-3 -21.5t-3.5 -18.5q-4 -88 -15 -129q-4 -24 -4 -35q0 -5 -1 -11.5t-1 -8.5t1.5 -4.5t5.5 -3t12 -0.5q2 0 10.5 -1t14 -1.5t9.5 0.5h1q1 -1 4 -1.5t6 -0.5h6.5h5h2.5q1 -4 4.5 -10.5t5 -12 t0.5 -10.5l-6 2q0 -2 1 -10t1 -14t-2 -9q-2 1 -15.5 -12t-21.5 -11q-6 1 -21 0.5t-20 -2.5q-4 -1 -13 1t-13 1q-6 -18 -6 -53q-4 -1 -7 -6t-4.5 -13t-1.5 -9q-1 -8 0 -21t-1 -27.5t-7 -17.5q2 -18 -0.5 -40t-8 -51.5t-7.5 -41.5l-4 -29q-1 -13 14.5 -15.5t26.5 1.5q8 2 26 2 q17 0 22.5 -3t12.5 -18q-3 -13 2 -32q2 -5 -8 -7.5t-10 -7.5q0 -1 -10 -4.5t-15 -3.5q-6 -1 -19.5 -1t-19.5 -1q-4 -1 -16.5 -1.5t-18 -4t-2.5 -12.5q2 -7 -2.5 -25t-3.5 -22q1 -5 0 -9.5t-3 -8.5t-3 -7q-1 -4 -1 -14t-1 -15q0 -6 -3 -28t-1 -35q3 -9 -4 -19q-1 -2 0.5 -6 t1.5 -8q1 -6 0 -13.5t-3 -16t-3 -13.5t-0.5 -23t-1.5 -20q-4 -7 -5.5 -30.5t-5.5 -32.5q-2 -6 -5 -17t-5 -16q-8 -23 -14 -25q-54 -22 -62 8q-4 14 -5 33t-0.5 30t4 36.5t3.5 29.5q6 47 20 134.5t19 121.5q3 14 0 22t-18 5q-3 -1 -6.5 -1t-8 0.5t-6.5 0.5q-20 0 -61 -2 t-62 -2q-2 0 -9.5 1.5t-10.5 0.5q-6 0 -6 -35q-1 -10 -3 -31.5t-3 -31.5l-8 -60q-11 -69 -11 -77q0 -39 -10 -91q-3 -13 -1 -42t-1 -42q-2 -8 -9.5 -12t-12.5 -4.5t-17.5 0t-13.5 0.5q-7 0 -19 4q-3 1 -11 1.5t-13 6.5q-8 9 -2 49q1 14 4 41.5t4 40.5q2 34 14 93t15 79 q1 9 7 40.5t7 48.5q0 1 0.5 5t1.5 7.5t1 7t-2 6t-5 2.5q-4 1 -12.5 1t-12.5 1q-10 1 -30.5 -0.5t-26.5 -1.5q-15 0 -21.5 6t-3.5 25zM217 516q-1 -3 2.5 -4.5t9.5 -1.5t11.5 0.5t11.5 1t8 0.5q51 4 74 2q18 -2 55 -2q7 0 11 4.5t4.5 9t1 13.5t0.5 12l-3 4q4 47 16.5 140.5 t16.5 140.5h-12q-21 -1 -115 4h-6q-6 1 -12.5 1h-13t-11 -1.5t-4.5 -3.5q-5 -4 -4.5 -27t-3.5 -27t-5 -15t-0.5 -24.5t-0.5 -17.5q-11 -51 -12 -57q-4 -55 -11 -84q-4 -18 -8 -68z" />
<glyph unicode="$" d="M43 289q0 1 1.5 12t2.5 20.5t0 10.5q-2 1 -2 16q9 3 19 4t22.5 1t19.5 1q3 0 13.5 3t19.5 5t11 0q3 -4 7 -6q1 -1 0 -6q-1 -1 -1 -2q-4 -14 -2 -22q1 -3 -0.5 -30t2.5 -28q-3 -9 2 -26t4 -23q-2 -16 12 -45q5 -9 16.5 -16t16.5 -13q15 -19 49 -36q25 -13 82 -13 q39 0 55 31q2 4 10.5 19t11.5 21t8 18t7 22.5t2 21.5q0 124 -41 207q-32 65 -69 119q-45 67 -97 125q-5 6 -15 18.5t-15 18.5q-8 12 -27 30.5t-27 30.5q-9 14 -20 39q-2 4 -7 19.5t-9.5 28t-8.5 14.5q-4 1 -9 14.5t-5 19.5q-1 10 -5 30t-5 30q-13 81 20 188q7 27 35 80 q18 37 29 43q8 5 22.5 18.5t22.5 18.5q3 2 13 10t18.5 13t15.5 6q4 26 0 53q-1 7 0.5 25.5t-0.5 25.5t-0.5 29.5t-1.5 29.5q-5 15 10 16t25 -3q4 -1 21.5 0.5t32.5 0.5t19 -7v-2q-2 -33 -2 -35q2 -3 0 -14t0 -15q3 -4 4 -15t1 -24t1 -18q0 -21 2 -29q1 -2 0.5 -5.5t1.5 -5 t7 -1.5t11 -2.5t9 -3.5q49 -6 51 -7q48 -18 60 -32q30 -36 46 -63t21 -66q2 -8 4.5 -28.5t1.5 -23.5q-3 -3 1.5 -18.5t3.5 -19.5q-1 -2 2 -21t2 -20q-3 -2 -5.5 -8.5t-1.5 -12.5q-18 -10 -39.5 -9.5t-36 17.5t-7.5 43q7 31 -7 78q-1 2 -6 4q-7 3 2 8q4 3 -1 22t-9 28 q-15 40 -70 51q-29 7 -32 10q-1 1 -8.5 -0.5t-8.5 0.5q-5 4 -14 2t-21.5 -7t-15.5 -5q-18 -1 -37.5 -35t-23.5 -55q-1 -4 -5.5 -25t-5.5 -30t-3 -26.5t-1 -31t4 -25.5q1 -4 3.5 -12t3.5 -12q1 -2 2.5 -14.5t3.5 -14.5q15 -18 20 -55q1 -8 8 -18l3 -2q3 -2 4.5 -3.5t3 -4 t-1.5 -5.5l18 -18q3 -3 10 -9t12 -11.5t9 -10.5l34 -51q6 -10 25 -29q1 0 11.5 -11.5t17.5 -12.5q3 -7 11 -14.5t20 -16.5l16 -12q1 -1 9 -10.5t14.5 -16t9.5 -6.5q26 -20 63 -76q9 -13 15.5 -28.5t15 -41t10.5 -30.5l-2 4q5 -13 8.5 -28t5 -27.5t2 -31t0.5 -28.5 t-1.5 -31.5t-2 -28.5t-3.5 -31t-3 -28q0 -12 -8 -24q-1 -3 -4 -12.5t-6 -14.5q-5 -8 -13.5 -37.5t-19.5 -38.5q1 -4 -6.5 -15.5t-7.5 -12.5q-2 -7 -18.5 -22.5t-16.5 -20.5t-19 -12.5t-20 -12.5t-41 -18q-23 -10 -47 -13q-3 -1 -14 -1.5t-17 -2.5q2 -12 2 -37q0 -17 4 -49 l-1 -15q-1 -15 1 -15q2 -5 2.5 -19t-2.5 -18q-1 -1 -2 -6t-2 -7q-2 -1 -8 -3t-8 -3h-41q-2 0 -7 -0.5t-7.5 0t-6 1t-5.5 3t-3 6.5q0 1 -3.5 6t-4.5 9q-2 7 -3 23t-3 24q-2 9 -2.5 29t-1.5 26v31q0 3 0.5 8t0.5 7.5t-1 5.5t-3.5 4.5t-7.5 3.5q-64 19 -81 43q-4 6 -16 16.5 t-13 11.5q-2 2 -8.5 10t-12 14t-8.5 7q-8 2 -13.5 28.5t-12.5 28.5q-1 0 -7 15.5t-6 17.5q-12 27 -12 72z" />
<glyph unicode="%" horiz-adv-x="1150" d="M39 958q1 17 4 53.5t4 55.5q0 33 6 68q1 2 2.5 12t3.5 18t4 9q6 5 9.5 27.5t9.5 27.5q7 6 17.5 30.5t11.5 26.5q5 11 15 22t23 23.5t19 18.5q4 5 25.5 10.5t23.5 11.5q8 -1 38 -1.5t46 -6.5q12 -4 47 -29q2 -2 9 -5t10 -5q2 -1 7.5 -8.5t10.5 -7.5q4 0 10.5 -6t10.5 -7 q0 -8 7 -23t7 -16q2 -10 10 -30.5t10 -28.5q13 -43 23 -98q14 -83 8 -178v-25q0 -14 -4 -18q-2 -4 -1.5 -10.5t2 -17t1.5 -13.5q0 -9 -2.5 -25.5t-3.5 -21.5q-4 -48 -17 -74q-7 -14 -16 -45t-16 -45q-2 -3 -4 -11t-4 -10q-3 -2 -16 -22.5t-21 -20.5h-7q-4 0 -10.5 -6 t-7.5 -6q-7 -5 -21.5 -10t-17.5 -6q-14 -7 -16 -9q-2 -3 -16.5 -4.5t-16.5 -3.5q-7 -9 -59 17q-28 7 -62 45q-36 46 -61 106.5t-25 114.5q0 24 -5.5 76.5t-4.5 80.5zM198.5 923.5q0.5 -6.5 2.5 -17t2 -13.5t-2 -10.5t-2 -10.5q0 -2 2 -30t4 -43q2 -11 5 -38.5t6.5 -46.5 t8.5 -36q3 -10 12 -31.5t13 -34.5q15 -42 35 18q17 51 18 52q3 5 2.5 10t-2.5 13t-2 10v35q1 8 4 28t3.5 29.5t-1.5 26.5q-6 29 -6 98q0 5 -0.5 15.5t-0.5 19t1 16.5l4 39q1 10 -2.5 12t-3.5 6q2 27 2.5 30.5t-2 32t-2.5 30.5q-1 13 -4 41t-4 43q-2 22 -27 50q-31 33 -41 1 l-2 -6q-1 -7 -6.5 -22.5t-8.5 -29t-1 -22.5q2 -25 2.5 -29.5t-2 -30.5t-2.5 -30q-2 -12 2 -37q1 -7 -1 -21.5t-1 -21.5q1 -8 -1 -24.5t-1 -24.5q0 -1 1 -9.5t1.5 -14t-0.5 -9.5q-3 -6 -2.5 -12.5zM344 25q5 20 8 26q9 21 27 92q0 2 2 15t4 20q0 1 11 28t12 38q1 22 16 66 t16 48q3 11 7.5 32.5t7.5 31.5q10 50 12 51q3 2 4 6t1 9.5t1 7.5q1 6 4 17t4 17q2 8 12 39t11 47q1 20 22 84q7 29 15 37q5 4 7.5 21t8.5 22q4 4 6 11.5t4 18t2 11.5q2 14 29 113q3 14 11.5 39.5t11.5 38.5q0 1 8 25t8 34q0 11 10 31t12 28q1 8 8.5 26t8.5 26q2 19 21 68.5 t18 76.5q0 23 22 31q7 2 40.5 7.5t33.5 2.5q0 -1 2 -3.5t4.5 -5.5t3.5 -5q3 -9 -0.5 -23.5t-1.5 -19.5q-3 0 -6 -10.5t-5.5 -24t-2.5 -14.5q-3 -13 -11 -34.5t-10 -29.5q-1 -3 -5.5 -13.5t-7 -19t-1.5 -12.5q1 -5 -4.5 -17t-5.5 -18q0 -9 -12 -51l-7 -2q-7 -22 -17 -66.5 t-17 -66.5q-4 -15 -16 -51t-17 -56q-3 -9 -18 -54.5t-19 -70.5q-1 -6 -7.5 -25t-6.5 -30q-7 -9 -12 -23.5t-8.5 -33.5t-6.5 -27q-18 -61 -33 -123q-1 -3 -7 -25t-7 -34q0 -2 -3.5 -13.5t-6.5 -22t-2 -11.5q-13 -51 -15 -53q-6 -5 -8.5 -28.5t-3.5 -25.5q-9 -31 -25.5 -94.5 t-25.5 -93.5q-11 -33 -23 -37q-10 -4 -16 2q-4 4 -13.5 3t-13.5 -3q-8 -4 -18 -4q-4 0 -9.5 -3t-9.5 -3q-2 2 -4 5t-5.5 11.5t-2.5 16.5zM684 358q-7 180 45 330q15 43 47 90q17 22 31 25q23 6 43 22l2 2q47 6 49 0q2 -5 4.5 -7t5.5 -3t13 -2q4 -1 12 -4t12 -4 q34 -10 53 -29l25 -24q10 -10 14 -21q0 -7 7 -14q4 -4 7 -13.5t5.5 -22.5t3.5 -17q12 -32 12 -84q0 -10 10 -60q9 -33 9 -90l4 -4q3 -109 -23 -238q-1 -3 -3 -19t-4 -25t-6.5 -20t-10.5 -17q-3 -3 -11 -19q-3 -5 -20 -22q-4 -5 -16.5 -21t-23 -26.5t-22.5 -14.5 q-30 -12 -77 -8q-44 3 -86 45q-10 9 -27 36.5t-27 35.5q-15 12 -26 63q-3 14 -9.5 43.5t-10 47t-7 43t-4.5 46.5zM820 342q2 -27 7 -39q4 -11 6 -26.5t2 -36t1 -27.5q3 -35 14 -90q2 -7 4.5 -12.5t8.5 -11t7.5 -7.5t11.5 -8.5t11 -7.5q17 -11 33 0q8 5 12 18t8 17 q10 10 10 84l5 4q1 14 5.5 49.5t4.5 56.5q-2 74 -13 182q-2 15 -6.5 43t-7.5 50.5t-4 42.5q-1 8 -5 28t-5 31q-1 17 -5 23.5t-16 15.5q-4 4 -12 8q-9 4 -13 4.5t-6 0.5t-7.5 -4t-10.5 -7q-1 -10 -11 -27t-11 -26q-1 -17 -6.5 -48.5t-6.5 -41.5q-9 -51 -4 -76q7 -30 0 -37 q-1 -3 -0.5 -10t1.5 -17.5t1 -11.5q-1 -6 -0.5 -22.5t-1.5 -22.5q-3 -14 -1 -41z" />
<glyph unicode="&#x26;" horiz-adv-x="747" d="M8 250q0 63 2 94q2 17 10 53.5t9 55.5q3 24 22 57q25 42 25 49q1 9 11.5 21t12.5 18q7 22 31 66q7 10 21 26.5t18 22.5q2 3 9.5 10t9.5 10t5.5 11.5t-1.5 13.5q-11 22 -13 22q-3 1 -7.5 10t-9 21t-5.5 14q-1 3 -5 14t-7.5 19.5t-6.5 9.5q-6 1 -22 66q-18 66 -21 86 q-23 140 4 215q4 10 9 20t9 16.5t11.5 16t10.5 14t13 15t13 14.5q14 19 46 34t58 17q7 0 31 2.5t31 -0.5q18 -4 50.5 -13.5t35.5 -10.5q24 -5 50 -19.5t34 -31.5q1 -1 20 -27q3 -6 4.5 -13.5t3.5 -11.5q3 -7 10.5 -20t12.5 -24t4 -19q-1 -12 3.5 -36t4.5 -34q0 -34 -20 -104 q-3 -11 -13.5 -33t-13.5 -29q-14 -32 -29 -45q-4 -3 -8 -9.5t-6 -8.5l-16 -16q-11 -11 -15 -13q-4 -1 -8 -8.5t-8 -9.5q-15 -6 -28.5 -23t-16.5 -34q2 -10 10 -29t10 -29q1 -10 17 -41q1 -2 7 -20.5t11 -28.5q2 -4 10.5 -20.5t10.5 -24.5q3 -9 12.5 -29t13.5 -20 q2 -10 8.5 -24t16 -30t12.5 -22q25 -50 25 -59q7 -1 13.5 -22t12.5 -23h2q4 7 7.5 30.5t3.5 32.5q0 8 1 17t2.5 19.5t2.5 16.5t1 17.5t1 20.5t4 16q1 2 12 53l6 31q1 4 3.5 12t3.5 12q1 3 0 9.5t0 9.5q13 19 22.5 21.5t30.5 -1.5q3 0 12.5 -0.5t13.5 -1.5t8.5 -5t4.5 -11 q1 -16 0 -31.5t-3 -33.5t-3 -28q0 -22 -4 -26q-5 -4 -4 -17.5t-3 -17.5q-3 -3 -4.5 -20t-5.5 -19q-2 -1 -4.5 -12t-4.5 -25t-3 -16t-3.5 -17.5t-5.5 -29t-5 -15.5q-7 -5 -12.5 -34t-8.5 -35q-1 -3 -5.5 -7t-6.5 -8t0 -8q1 -3 14.5 -27.5t22 -44.5t4.5 -24q7 -12 27.5 -41.5 t29.5 -48.5q1 -1 8 -12t8 -17q5 0 16 -8t11 -12l-6 -2q-1 -4 0.5 -12.5t-0.5 -14.5q-4 -4 -22 -4t-23 -2q-47 6 -92 6q-6 0 -18 2t-17 2q-3 0 -10.5 4.5t-10.5 3.5q-2 3 -7 12t-9.5 14t-9.5 9q-11 7 -17 25q-2 9 -7 13t-13 -1q-14 -9 -16 -18q-3 -2 -5 -3t-3 -3t-3 -5 q-4 0 -23 -13.5t-22 -16.5q-3 0 -33 -15q-3 -1 -15 -4t-22 -6.5t-14 -7.5q-5 -5 -18 -7t-25 -2t-29 0.5t-20 0.5q-53 0 -92 16q-70 30 -113.5 98.5t-46.5 147.5zM197 299q4 -84 39 -127q59 -71 120 -66q47 4 66 19h4q2 1 7.5 5t9 6.5t9.5 7t8.5 8t6.5 8.5t3.5 8t-1.5 8 q-3 5 -10 20t-12 24.5t-12 20.5t-13 15q-2 2 -6.5 14t-5.5 15l-29 53q-2 4 -16.5 31t-20.5 41q-1 2 -22 39t-27 59q-1 4 -10.5 23t-19.5 37.5t-13 17.5l-6 -6q-3 -6 -19 -54t-16 -63q-1 -10 -8.5 -71t-5.5 -93zM221 1262q1 -10 2 -39.5t6 -44.5q1 -2 2.5 -12t3.5 -18t5 -9 q1 0 3.5 -8t5 -17t3.5 -10q5 -27 10 -33t8.5 -22t3.5 -17q3 -8 15 -39.5t20 -48.5l6 -16q6 -17 12 -25.5t11 -3.5q18 18 24 39q4 14 11 20q3 4 3.5 13t2.5 12q38 92 45 143q4 28 0 88q0 3 0.5 10t0.5 13t-1 10q-1 2 -6.5 12t-5.5 13q0 17 -43 43q-16 10 -56 22q-5 1 -14 -2 t-20.5 -8.5t-12.5 -5.5q-6 -2 -13 -12t-13 -13l-7 -4z" />
<glyph unicode="'" horiz-adv-x="382" d="M94 1231q0 7 1 21.5t1 21.5q0 46 21 76q12 18 61 26h6q31 0 60 -18q33 -17 43 -49q4 -11 8 -37l2 -4q1 -5 -2 -12.5t-2 -12.5q3 -17 -2 -76q-1 -17 -23 -155q-10 -62 -10 -74q0 -28 -4 -82q-4 -52 0 -76q3 -19 -2 -35q-5 -15 -21 -20q-7 -2 -17.5 1t-14.5 3q-3 0 -7 -0.5 t-6.5 -0.5t-6 1t-7.5 4q-14 14 -14 25q4 24 -2 41q-11 36 -33 145q-8 51 -10 74q-5 62 -9 82q-4 13 -5 27.5t-0.5 32.5t-0.5 28q-4 28 -4 43z" />
<glyph unicode="(" horiz-adv-x="417" d="M52.5 495.5q-3.5 52.5 0.5 71.5q1 11 6 72.5t11 91.5q3 14 6 42.5t6 43.5q2 10 5 21.5t7 25t6 21.5q3 12 6.5 35t6.5 34q4 15 13.5 53.5t18.5 66t21 50.5q7 12 17.5 41t17.5 41q4 7 16.5 37t23.5 55t15 29t7.5 16t6.5 15q2 2 8 12.5t11.5 20.5t7.5 10q3 0 29 26 q3 9 32 6.5t35 -1.5q19 -15 -4 -56q-1 -3 -5 -9t-6.5 -10.5t-2.5 -8.5q0 -5 -10 -45q-3 -12 -14.5 -38t-14.5 -40q-3 -15 -13.5 -42t-13.5 -42q-2 -10 -9 -31.5t-9 -26.5q-2 -8 -6 -21.5t-6.5 -24t-4.5 -19.5q-2 -8 -10 -22.5t-10 -22.5q-2 -9 -12 -47t-13 -58 q-12 -75 -12 -80h-2q-6 -20 -9 -58t-5 -50q-12 -47 -8 -62q-4 -4 -4.5 -12.5t0.5 -21t1 -13.5q1 -6 0 -24t0 -23q2 -10 0 -28t0 -27q3 -13 3.5 -40t3.5 -40q4 -15 8.5 -52t1.5 -44q0 -7 6.5 -45.5t9.5 -42.5q6 -8 10 -22t7.5 -35t5.5 -27q3 -11 10 -33t10 -33 q6 -27 25.5 -77.5t25.5 -73.5q11 -33 13 -37q18 -55 26 -57q-1 -4 6 -24.5t13.5 -38.5t5.5 -19q-6 -3 -4.5 -9.5t0.5 -7.5q-7 5 -53 -4q-33 -6 -48 27q-6 12 -23.5 44.5t-25.5 51.5q-9 22 -31.5 73.5t-34.5 80t-27.5 71.5t-24.5 80q-22 85 -39 187q-1 7 -6.5 31t-7.5 40 t-1 31q1 19 -2.5 71.5z" />
<glyph unicode=")" horiz-adv-x="417" d="M10 -272q-1 3 1.5 4.5t2.5 3.5q7 16 9 16q4 4 7.5 14.5t6.5 25.5t4 18q6 22 19.5 61.5t17.5 52.5q39 127 67 379q0 23 15 115q4 25 4 74q0 59 2 61q3 2 4.5 12.5t1.5 25.5t-0.5 29.5t-1 28.5t-0.5 17q0 34 -4 108q-5 113 -33 258q-5 27 -22 92q-1 4 -6 15.5t-5 17.5 q-2 17 -18 60q-19 47 -25 73q-2 6 -9.5 49.5t-18.5 61.5q-17 25 18 36t59 5q12 -9 27 -35q1 -2 8 -21t14 -35.5t11 -17.5q4 0 20 -49q3 -10 23 -45q3 -4 9.5 -22.5t14 -40.5t9.5 -27q14 -32 16 -45q3 -20 12.5 -55.5t12.5 -55.5q17 -106 20 -188q0 -4 -1 -14.5t-1 -19 t2 -13.5l2 -8q4 -10 5 -24t0 -36t-1 -24q-1 -16 -2 -46.5t-2 -46.5q-8 -130 -33 -315q-9 -64 -24 -121q-38 -153 -45 -160q-4 -4 -9.5 -20t-11 -36.5t-6.5 -22.5q-5 -13 -14.5 -34.5t-11.5 -27.5q-1 -2 -9 -18.5t-10 -24.5q0 -1 -2 -12t-4 -18.5t-6 -10.5t-8.5 -13t-8.5 -13 q-20 -15 -41 -15q-31 0 -36 4q-1 1 -7.5 5t-7.5 8z" />
<glyph unicode="*" horiz-adv-x="628" d="M49 1020q5 6 19.5 10t17.5 6q9 4 19.5 9t23 10t18.5 8q8 3 24 10.5t29 12.5t25 8q-3 4 -14 6.5t-14 5.5q-3 4 -11.5 7t-19.5 6.5t-14 4.5q-35 11 -56 23q-2 1 -18.5 6t-18.5 8q-5 10 -5.5 11.5t4 8.5t5.5 13q2 12 14.5 33.5t14.5 25.5q4 8 10.5 26.5t10.5 27.5 q20 20 24 14q2 -2 12 -3t11 -7q1 -5 19 -18.5t20 -20.5q5 -6 15 -17.5t15 -17.5q20 -25 37 -31q3 1 2 11.5t-2.5 18t-4.5 18t-3 12.5q-1 3 -4.5 17.5t-7.5 21.5q-1 3 -4 11.5t-5.5 15.5t-5.5 9q-5 4 -5.5 8.5t0.5 11.5t1 9q9 -3 15 10q3 5 4.5 5.5t4 -0.5t5.5 -1l16 -4 q3 0 9.5 -3.5t10.5 -4t9 3.5q4 0 12.5 -3t12.5 -3q5 0 15 1t15 1q8 0 35 2.5t35 -0.5q10 0 10 -39q0 -15 -4 -43q-4 -32 -4 -55q0 -7 -4.5 -24.5t-3.5 -24.5q6 0 17 13.5t16 15.5q26 20 30 26q31 41 41 43q1 0 6 5t13 1q17 -6 14 -14q8 -23 10 -25q5 -5 13 -28q7 -31 18 -56 q4 -9 0 -22q-2 -8 -6 -8q-4 -1 -8 -4q-7 -6 -19 -11t-22.5 -8.5t-25.5 -7.5t-21 -6q-8 -2 -23.5 -9.5t-23.5 -9.5q6 -7 32 -14t29 -8q4 -1 8.5 -4t5.5 -4q4 -2 15.5 -5t20.5 -7t13 -9q5 -6 13 -8q4 -2 8 -7t8 -7q-4 -12 -4 -21q0 -5 -4.5 -21t-5.5 -16q-5 -1 -14 -16.5 t-11 -17.5q-3 -4 -10 -16.5t-14 -21t-13 -8.5q-30 0 -37 15q-2 3 -11.5 10.5t-10.5 15.5q-3 -1 -14 5t-13 8q-9 8 -26.5 26.5t-26.5 26.5q-3 -10 -1 -21t7.5 -33t5.5 -24q12 -46 9 -49q-1 -1 1 -10t1 -17t-9 -8q-6 0 -22.5 -6.5t-20.5 -7.5q-46 -8 -69 -4q-2 1 -9.5 1.5 t-13.5 2t-10 4.5q0 4 -1.5 16.5t-0.5 18.5q2 11 4 32t4 31l12 49q7 28 5 37q-1 0 -10.5 -12t-20.5 -25t-12 -14l-39 -37q-1 -1 -6.5 -5t-10 -8t-4.5 -5t-3 -3t-7.5 -4t-9 -5t-7.5 -4.5t-2 -2.5q-1 3 -8 1.5t-8 -1.5q-6 1 -12 10.5t-8 10.5q-7 6 -33 51q-16 23 -17 29 q0 3 -5.5 14.5t-4.5 13.5z" />
<glyph unicode="+" horiz-adv-x="798" d="M2 719q0 4 2 5t5.5 1.5t4.5 1.5q2 0 5.5 2t5.5 2q4 1 12 0t12 0h41q7 0 21.5 1t21.5 1h76q88 5 113 2q2 0 5 0.5t5 -0.5q3 -1 5 0.5t2.5 4.5t0.5 6v5v3q1 9 1 27t1 26q1 11 3 32.5t3 32.5q1 13 -0.5 46t0.5 45q2 10 2 32q0 5 -1.5 17t-1.5 22t3 17q2 4 2.5 16t3.5 16 q3 3 33 9q6 1 18.5 -0.5t14.5 -1.5q10 0 22 -3q1 0 4 -2t5 -2q12 -1 16.5 -7.5t4 -13t-3.5 -18t-3 -14.5v-33q3 -1 1.5 -14t-1.5 -14v-41q0 -21 -1.5 -87.5t-0.5 -101.5q5 -2 9.5 -1.5t12.5 2t11 1.5h22h62q78 -3 155 0q4 0 17.5 -3t19.5 -1q7 3 10 2q8 -4 9.5 -16.5 t-0.5 -24t0 -20.5q2 -5 -2 -16q0 -2 3 -2.5t3 -2.5l8 -22q1 -4 -5 -7l-5 -3q-1 -4 -4.5 -6t-9.5 -2.5t-11 0t-10.5 1t-7.5 0.5q-11 -1 -34 1t-32 2q-10 0 -35 -3t-39 -2q-7 0 -29.5 3t-29.5 2.5t-29 -3.5q-7 -2 -43 -2q-12 0 -12 -18q0 -37 -2 -53q-2 -10 -2 -35 q0 -4 -1 -11.5t-1 -11.5q0 -1 -1.5 -7.5t-2.5 -12t0 -6.5q3 -3 4.5 -10.5t-0.5 -10.5q-8 -16 -4 -32v-11q-6 -29 -4 -51q0 -3 1.5 -18.5t2 -22t-0.5 -17.5t-5 -18q-8 -7 -18.5 -9t-25 -2t-22.5 -1q-1 0 -6.5 -1t-7.5 -1l-11 4q-5 0 -7.5 0.5t-4.5 3t-2.5 3.5t-1 6t-0.5 6 q-14 56 -4 63q2 2 2 35l-1 29q-1 30 1 30q3 11 0.5 67.5t-2.5 67.5v43q0 2 0.5 7t0 6.5t-2.5 3.5t-6 2q-7 -1 -24.5 -3t-24 -2t-25.5 1q-4 1 -26.5 -3t-24.5 3q-4 3 -15 3t-24 -1.5t-16 -1.5q-8 0 -30.5 2.5t-33.5 1.5q-4 -1 -18 -1t-25 -1t-14 -4q-7 -8 -16 1.5t-9 18.5 q0 3 1 12.5t0.5 16.5t-3.5 12q-7 15 -4 31z" />
<glyph unicode="," horiz-adv-x="382" d="M86 -209q-17 14 18 49q9 9 23.5 31.5t13.5 30.5q4 1 8.5 15t4.5 20q0 4 6 21.5t4 23.5q0 -1 -18.5 4.5t-22.5 7.5q-19 16 -29 43q-11 30 -6 51q1 5 1 17t1 16q15 57 27 69q24 20 41 27q9 4 30 7t29 7q27 13 62 -5t40 -46l-2 6q1 -6 5.5 -34.5t4 -35.5t-2.5 -36 q-6 -26 -37 -100q-18 -44 -45 -66q-2 -1 -39 -45q-9 -10 -28 -26.5t-25 -22.5q-44 -44 -64 -29z" />
<glyph unicode="-" horiz-adv-x="454" d="M83.5 565.5q-0.5 4.5 0 10.5t1 10.5t2.5 8t5 3.5q2 1 7 4.5t10 3.5q4 0 12 1t12 1l115 -4h55q0 1 15.5 1t32.5 -1t22 -4h2v-20q6 -36 6 -39l4 -64q0 -4 -8 -9t-12 -5q-12 -4 -17 -4q-2 0 -10.5 1.5t-15.5 1.5t-11 -3q-2 -1 -11.5 0.5t-10.5 1.5l-43 -2h-45 q-7 -2 -15.5 -2t-18 1t-13.5 1q-1 0 -12.5 -1.5t-19.5 -1t-11 4.5l-9 9t-9 11t-5 13q-8 38 -4 57v5.5t-0.5 9z" />
<glyph unicode="." horiz-adv-x="382" d="M78 66q-25 51 4 110q10 15 12 17q3 3 12.5 10.5t14.5 13.5q16 16 35 16q1 0 23.5 4.5t33.5 2.5v12q23 -7 45 -19q22 -13 27 -20q8 -8 14 -20l4 -13q0 -8 2 -10q8 -8 8 -25q0 -4 -1 -12t-1 -12t1 -12.5t1 -12.5l-6 -24q-4 -18 -8 -23q-2 -3 -8.5 -11.5t-9.5 -12t-9 -9 t-13 -9t-15 -5.5q-42 -12 -84 0q-5 2 -18 4.5t-22.5 6.5t-15.5 10q-5 5 -9.5 12t-9.5 17z" />
<glyph unicode="/" horiz-adv-x="819" d="M35 -189q1 4 2 7t3 8.5t3 7.5q1 4 3 17t4.5 23.5t6.5 12.5q6 4 11.5 14t11 26t6.5 18q33 80 57 149l27 78q1 2 3.5 13.5t5 19t6.5 16.5t8 12q5 3 16 34.5t8 37.5q-1 2 6 19t15.5 37t9.5 24l28 80q53 139 78 194q84 186 105 269q10 42 43 127q1 3 5 17t7 20q3 4 4.5 15.5 t5.5 16.5q5 6 8 13t5 16t4 14q10 25 10 41q8 3 10 24t8 23q4 2 7.5 15t7 28.5t4.5 18.5q3 8 8 21.5t9 25t7 22.5q2 8 8.5 26t8.5 26q8 25 4 37q9 -3 32.5 10t30.5 14q8 1 30.5 0.5t29.5 1.5l2 -10q7 3 27.5 0.5t25.5 -10.5q-2 -19 -16 -51q-5 -13 -9.5 -28t-8.5 -33.5 t-7 -27.5q-1 -5 -6 -19t-6 -24q-2 -18 -15 -47t-16 -43q-7 -32 -41 -104.5t-41 -112.5q-4 -22 -20 -61q-1 -3 -4 -13.5t-6 -18.5t-7 -11q-8 -6 -13 -31t-13 -31q-8 -7 -13.5 -30t-9.5 -29q-5 -8 -9.5 -20t-10 -31.5t-7.5 -24.5q-16 -37 -16 -43q0 -9 -8 -27.5t-10 -25.5 q-3 -15 -13.5 -42.5t-13.5 -37.5q-13 -37 -43.5 -106t-42.5 -103q-13 -36 -36.5 -104.5t-38.5 -111t-39.5 -101t-49.5 -105.5q-11 -17 -14 -28q0 -2 2 -9t2 -8q-8 -2 -17 -16t-10 -15q-5 -6 -12.5 -8.5t-13 -2.5t-18 0.5t-17.5 0.5q-6 0 -23.5 -1.5t-31.5 -1t-25 4.5 q-5 2 -7 5t-1 7z" />
<glyph unicode="0" horiz-adv-x="706" d="M25 731q-2 47 4 113q14 164 24 203q22 95 72 196q18 36 37 55l37 41q8 8 26.5 18.5t24.5 14.5q37 25 104 17q27 -3 47 -13q30 -20 33 -20q-1 -5 6 -8.5l14 -7t7 -7.5t8 -11.5t18.5 -15.5t12.5 -10q3 -3 9 -11t11.5 -14t9.5 -7q5 -2 9.5 -7.5t8 -13.5t5.5 -10q4 -4 18 -39 q3 -7 6 -18t7 -25l6 -21q1 -5 2.5 -14.5t3.5 -17.5t6 -15q4 -8 10 -49q2 -14 11 -51q1 -4 2 -13t2 -12q1 -4 1 -14t1 -14q0 -1 8 -17l4 -22q1 -4 1.5 -18t2.5 -21q3 -7 2.5 -29.5t3.5 -29.5v-29q0 -17 -2 -19q-1 -2 -0.5 -7.5t1.5 -13.5l1 -7q0 -36 -2 -41q-1 -5 2 -17 t2 -18l-10 -2q-1 -4 0.5 -15.5t-0.5 -17.5l-2 -20q2 -14 -4 -64q-1 -7 -1.5 -27.5t-2.5 -33.5q-2 -10 -9 -31.5t-8 -34.5q-2 -29 -14.5 -75.5t-15.5 -59.5q-5 -31 -33 -92q-19 -32 -21 -39q-3 -7 -13 -20.5t-13 -20.5q-8 -20 -41 -53q-19 -19 -25 -17q-2 -2 -8.5 -5 t-12 -5.5t-5.5 -3.5q-1 -6 -18 -7.5t-40 1t-38.5 5t-22.5 3.5q-59 15 -96 49q-6 6 -25 20.5t-27 24.5q-6 9 -15.5 26.5t-14.5 25.5q-54 82 -76 213q-6 34 -7 102t-3 94q-1 6 1 19.5t1 19.5q-5 22 -2 49q1 12 0 25.5t-3 30t-3 26.5zM221 842q2 -3 2 -39q1 -7 1 -23t1 -24 q2 -22 1 -65.5t1 -63.5q2 -18 2 -54q0 -7 3 -31.5t1 -33.5q-1 -2 1 -10t2 -9v-49q0 -28 4 -82q1 -13 4 -36t4 -31q5 -59 8 -70q17 -75 29 -98q2 -4 7 -15.5t9 -17.5q8 -10 29.5 -10t38.5 6q9 4 14.5 12.5t7.5 15.5t4.5 23t3.5 21q16 74 9 90q-7 5 -2 40t4 42q-1 19 4.5 63 t3.5 64q0 2 3.5 22.5t4 34t-3.5 21.5q-3 6 -2.5 18.5t2.5 32t2 22.5v148l-8 -4q1 10 -0.5 50t2.5 52q5 20 2 23q-4 34 -4 36q2 11 -0.5 29.5t-1.5 26.5q1 6 -5.5 35.5t-0.5 37.5q4 7 -5 64q-4 28 -16 92q-1 6 -3.5 20t-4.5 22t-6.5 18.5t-10.5 17.5q-26 31 -53 24.5 t-37 -47.5q-2 -9 -12.5 -33.5t-11.5 -39.5q-3 -26 -15 -62l-6 -53q-2 -68 -4 -78q-2 -7 -2 -49v-18q3 -5 3 -16t-1.5 -24.5t-1.5 -17.5v-20z" />
<glyph unicode="1" horiz-adv-x="479" d="M20 1159q5 15 5 27q1 1 7.5 2t14.5 2t10 2q10 5 20 13t21 17.5t17 14.5q8 6 16 15t17 20.5t12 15.5q8 8 22.5 36.5t28.5 37.5l2 2q3 0 6 -5t10 -5q11 -1 33 0.5t29 1.5q6 0 23 1t24 0t18 -4t17 -11.5t8 -22.5q3 -17 1 -49t1 -47q1 -5 -1 -18t-1 -17q3 -20 -2 -37 q0 -1 -2 -11.5t-3.5 -20t-3 -20t-1 -18.5t3.5 -10q4 -3 4 -61q6 -54 6 -56q-4 -54 -4 -84q0 -18 1.5 -77.5t0.5 -90.5q-4 -117 2 -176q5 -45 5.5 -92t-0.5 -115t-1 -92q0 -63 6 -127q6 -79 6 -80l4 -6q2 -1 0.5 -4.5t-5.5 -6.5l-3 -3q-2 -1 -8 -1.5t-11 -1t-5 -1.5 q-8 -1 -37 0.5t-39 -2.5q-7 -2 -20.5 -1.5t-20.5 3.5q-5 2 -17.5 3t-19.5 7q-4 3 -5 5.5t-0.5 6.5t-0.5 7q0 1 -6 59q-1 12 -5.5 44t-4.5 50q-5 242 0 322q1 22 -0.5 63.5t-1.5 54.5l-3 170v115q0 15 -1 43t-1 43q0 36 2 39q3 4 3 25q1 11 -1 34.5t-2 32.5q0 66 3 88 q-9 -1 -22.5 -25t-16.5 -26q-4 -3 -16.5 -12.5t-20.5 -14.5q-50 -31 -66 -28q-6 1 -14 7t-10 7q-2 0 -5 20t-2 23z" />
<glyph unicode="2" horiz-adv-x="673" d="M33 49q-14 38 0 88q5 19 12 58.5t12 58.5q5 18 22 54.5t21 56.5q2 9 13.5 34t15.5 25t12.5 21t12.5 24q2 -1 15.5 19t27 42t14.5 27q1 7 13 23l12 16l24 39q9 16 29 43.5t26 36.5l33 47q14 19 21 24q3 18 20 35q3 3 27 39l7 8q7 8 10 14t3 11q0 8 9.5 25t11.5 22 q2 8 10 23.5t10 19.5q25 51 27 90q0 30 -8 51q-1 3 -3.5 14.5t-5 20.5t-6.5 12q-5 4 -9 17l-5 14q-3 7 -16 29q-15 21 -43 37q-18 9 -39 16q-2 1 -7 3t-9 3.5t-7 1.5h-12h-13.5t-13.5 -0.5t-14.5 -1t-13 -1.5t-14 -3t-12 -5t-11.5 -6.5t-9 -8.5q-51 -55 -59 -105 q-1 -4 -6 -35t-6 -49q-1 -8 -3 -21.5t-3 -24.5t0 -21q0 -4 0.5 -9.5t1 -8.5t-1.5 -7t-6 -8q-15 -12 -41 -12q-17 0 -41 -4q-5 1 -8 7t-7 7q-26 10 -6 98q12 48 12 55q0 8 5.5 27t9.5 23q7 7 15.5 29t10.5 26q1 1 7.5 14.5t11.5 18.5t14 20t17 21q24 20 36 28l25 15 q1 4 9.5 8t18.5 6t21 4t12 2q43 11 117 -8q39 -9 107 -57q5 -3 18.5 -10.5t20.5 -14.5q5 -5 13.5 -13t16 -15t13.5 -15q14 -17 29.5 -54.5t23.5 -49.5q7 -11 7 -36.5t3 -33.5l-20 -4q3 -8 3.5 -41.5t-3.5 -38.5q-5 -4 -13 -59q-8 -46 -18 -66q-1 -3 -6 -12t-6 -15l-11 -28 q-3 -13 -10 -23q-1 -2 -4 -7t-6 -9.5t-6 -7.5q-8 -7 -16.5 -32t-16.5 -32q-7 -5 -21 -33q-2 -4 -7.5 -10.5t-6.5 -9.5q-4 0 -12 -11.5t-8 -15.5q-3 -12 -21 -30q0 2 -4 -4l-4 -7l-10 -18q-6 -11 -14 -22t-17 -23t-14 -19q-10 -17 -33 -48.5t-29 -39.5q-5 -7 -17 -21.5 t-20 -27t-12 -24.5q-2 -7 -12.5 -22.5t-16.5 -18.5q-8 -5 -22 -27.5t-14 -32.5q0 -7 -19 -26q-2 -3 -4.5 -9.5t-7.5 -9.5q-3 -5 -8.5 -15.5t-8.5 -15.5q-1 -1 -5.5 -7.5t-4.5 -8.5q3 -25 0 -49q80 0 92 2q3 0 90 6q54 6 56 6q4 0 12 -1t15 -1t12 2q10 3 39 4.5t36 -2.5 q3 -2 20.5 -2.5t20.5 -1.5q10 -2 31 -2q8 -1 11 -3t4.5 -6.5t5.5 -8.5q4 -13 2 -34.5t-19 -25.5q-40 -10 -47 -10q-2 0 -22.5 -1.5t-33.5 -2t-18 1.5q-6 3 -16.5 2t-27 -3.5t-19.5 -2.5q-2 0 -16.5 -1t-25.5 -0.5t-15 3.5q-3 2 -12 -1t-11 -3q-3 0 -10 2.5t-11 3.5t-8 -2 q-5 -2 -12 -1.5t-19.5 2t-15.5 1.5q-52 -4 -82 -8q-53 -8 -82 12l-6 4t-4.5 2.5t-3 3.5t-2.5 9q-4 14 -10 24z" />
<glyph unicode="3" horiz-adv-x="692" d="M16 262q0 6 2 17t2 18q0 8 5 33q1 4 2 6t2.5 2t3.5 1t4 3h57q11 -1 14.5 -7.5t3 -20t-0.5 -15.5q1 -5 1 -19.5t1.5 -25.5t5.5 -18q3 -7 5 -30.5t9 -29.5q8 -7 33 -47q10 -16 37 -29t33 -20q10 -11 38.5 -11t44.5 7q24 8 46 39q2 3 5.5 11.5t7 14.5t7.5 9q3 3 8 12.5 t8 11.5q5 4 7.5 13.5t3.5 23t1 24t-0.5 24t-0.5 15.5q1 17 5.5 52.5t5 53.5t-4.5 52q-3 14 -6 42t-4 36q-2 22 -29 70q-11 20 -38.5 36t-55.5 23q-10 2 -37 2q-5 0 -18 -4.5t-19 -1.5q-5 2 -8.5 5t-5 7.5t-2 6.5t-1.5 10t-1 10q-1 4 -3.5 15.5t-2.5 16t1 15.5q0 2 3 8t2 10 q-2 9 34 9q8 1 26.5 1.5t31.5 3.5t24 11q14 14 25 14q5 0 20 23q25 27 37 69q2 6 8.5 34t12.5 52t8 25v121q0 10 -3.5 46t-6.5 36t-6 10t-6.5 21.5t-4.5 13.5q-23 35 -57.5 54t-69.5 7q-34 -11 -64.5 -38.5t-37.5 -57.5q-1 -4 -11 -33t-6 -43q1 -7 0.5 -16.5t-1.5 -23 t-1 -15.5q0 -5 5 -35q-9 -3 -20 -7t-30 -9t-30 -2t-9 14q0 8 -3.5 31.5t-2.5 34.5q15 102 21 127q7 24 21.5 48t25.5 37.5t35 40.5q9 -1 21 3.5t26.5 13t19.5 10.5q19 8 45 8q2 0 13 -1t20 -1t12 2q7 7 74 -4q7 -1 22.5 -6.5t24.5 -5.5q19 -1 45 -15.5t41 -29.5 q51 -51 68 -84q7 -13 11 -27.5t6 -33t3 -30t1.5 -34t0.5 -29.5q0 -6 1.5 -21t1 -27t-4.5 -21q-8 -13 -8 -43q0 -4 -4 -12t-4 -11q0 -9 -5.5 -25.5t-6.5 -23.5q-8 -34 -19 -57q-5 -13 -14 -26.5t-20.5 -29.5t-16.5 -24q-12 -17 -35 -33q-1 -1 -10 -5l-18 -8t-9 -5q0 -4 8 -9 t19 -10t12 -6q11 -7 45 -41q10 -2 25 -15t16 -14q25 -18 31 -39q3 -13 13.5 -38.5t11.5 -38.5h-15q1 -17 10.5 -56.5t8.5 -60.5q0 -2 -2.5 -11t-1.5 -12q1 -12 0.5 -19.5t-3.5 -22t-4 -19.5l-8 -49q-2 -17 -16 -43.5t-17 -34.5l-8 -16q-38 -74 -100 -127q-9 -4 -12 -11 q-2 -4 -13 -4t-14 -2q-45 -25 -133 -18q-97 10 -135 41q-8 6 -24 17t-27.5 20.5t-20.5 21.5q-3 4 -10.5 14.5l-12.5 17.5t-10.5 17t-8.5 18.5t-3 16.5q0 9 -8.5 29.5t-9.5 25.5q0 1 -3.5 13.5t-3.5 19.5z" />
<glyph unicode="4" horiz-adv-x="688" d="M16 371q3 10 9.5 29.5t9.5 29.5q1 3 0.5 11.5t1.5 11.5q1 3 3 6.5t3.5 6t2.5 6t1 7.5q0 7 12 37q1 2 5 18.5t8 20.5q3 1 9.5 17.5t6.5 19.5q1 15 18 45t17 45q0 5 3.5 13.5t9 19t7.5 14.5q29 77 29 78q4 9 13.5 42t17.5 48q14 26 41 104q4 10 16 36.5t16 41.5 q38 119 74 215q2 5 8 16.5t9.5 21t3.5 16.5q5 4 16 11t16 11t46 4q8 1 30 0.5t29 1.5q30 8 37 4q4 -2 6 -5t2.5 -5t0 -7t-0.5 -7q5 -2 11.5 -9t2.5 -10q-1 -1 -2.5 -4.5t-2 -6.5t0.5 -3q-3 -1 -1 -29t-1 -32q4 -7 4.5 -17t-1 -23.5t-1.5 -17.5q0 -8 2 -24.5t2 -24.5 q0 -15 -5 -52.5t-3 -58.5q5 -42 2 -57q-1 -8 -1 -25.5t-1 -25.5q-6 -27 2 -66q2 -7 1 -26.5t-5 -24.5q3 -4 3.5 -10t-0.5 -15.5t-1 -11.5q0 -63 -4 -94q0 -2 4 -38t-4 -36q-4 -1 -4 -49q-2 -25 -2 -73q0 -3 -2 -15t-2.5 -19t2.5 -14q3 -4 10 -5t18.5 0t12.5 1q10 0 30.5 -1 t30.5 -1l-4 -2q21 -102 -12 -102q-4 0 -9 -2t-10.5 -4.5t-7.5 -3.5l-12 2q-12 2 -16 2q-1 0 -10.5 1.5t-16.5 1t-8 -4.5q-3 -3 -0.5 -33.5t2.5 -34.5v-82q-1 -13 -1 -40t-1 -40q0 -7 -2 -23t-2 -24q0 -18 -2 -20q4 2 -2 -29q-46 6 -105 2q-2 0 -9.5 -0.5t-12 0t-10.5 1.5 t-10.5 3.5t-6.5 7.5q-8 12 -6 21q1 7 -3 16t-5 12l6 27q3 3 3 10t-1.5 15.5t-1.5 9.5q-3 9 -0.5 59t2.5 60v67q0 13 -31 13l-62 2q-61 2 -61 -2q-10 -1 -30.5 0.5t-26.5 1.5q-57 0 -72 4q-6 1 -24 2.5t-29 3.5t-19 10.5t-4 24.5zM139 428q57 3 125 -4q16 -1 33.5 0t40 3 t33.5 3q6 1 8.5 3t2.5 4.5t-0.5 8.5t-0.5 9v34l4 68q2 33 -2 98q-2 34 -0.5 120t0.5 120q0 5 3.5 47t-1.5 47q-1 4 -1 24.5t-1.5 38t-5.5 19.5v-4q-2 -9 -16 -34t-13 -40q1 -10 -3 -22t-11.5 -28.5t-9.5 -20.5q-14 -28 -17 -37q-1 -4 -5.5 -13.5t-7.5 -18t-3 -13.5 q-2 -5 -8.5 -37t-14.5 -45q-32 -50 -37 -88q-1 -12 -5 -26.5t-7.5 -24t-10 -26t-9.5 -24.5l-27 -65q-2 -4 -6 -15.5t-8 -21t-8 -14.5q-8 -7 -11 -25z" />
<glyph unicode="5" d="M35 272q9 27 22 31q56 17 72 8q14 -6 17 -22.5t0 -32t1 -29.5q6 -16 3 -32q-1 -6 0 -14t3 -17.5t3 -13.5q6 -32 30 -60q39 -45 101 -59q50 -12 84 63q14 27 20 56q2 10 9 34t10.5 42t3.5 34q0 24 2 67.5t2 79t-4 68.5q0 1 -3 24t-2.5 26.5t3.5 23.5q3 6 -1.5 24 t-11.5 40.5t-8 25.5q-9 43 -35 76q-3 4 -10 11t-10 11q-4 5 -16 13t-15 12q-12 14 -55 14q-18 3 -39.5 1.5t-36.5 -11.5q-8 -6 -36 -7.5t-32 -2.5q-6 -2 -10.5 0.5t-6 9.5t-1.5 11v11v3q1 24 -0.5 82.5t0.5 82.5q1 25 -4 152q0 6 -1.5 34.5t-2 41t0.5 33.5t5 38q1 4 6 36.5 t12 47.5q8 17 78 17h129q19 0 54 1.5t64 1.5t54 -3l21 -2q5 -1 24.5 -0.5t24.5 -1.5q0 -1 0.5 -2.5l1.5 -4.5t2 -5t2 -1q4 4 7 -1.5t4 -17.5t1 -18.5v-13.5q0 -17 -25.5 -18t-35.5 4q-33 3 -72 0l-37 -2q-2 0 -12.5 -2.5t-13.5 -1.5h-25q-2 0 -14.5 -1.5t-21 -1t-11.5 4.5 q-4 -10 -5.5 -21.5t-2 -20t-1.5 -22t-1 -20.5l-2 -33q0 -5 -2.5 -21.5t-1.5 -25.5q3 -10 -2 -47q-1 -10 -2 -31t-2 -31q-1 -8 -3.5 -55.5t-7.5 -71.5q7 -3 17.5 -3t23 1.5t17.5 1.5q31 0 55 -6q31 -9 43 -14q1 -1 7.5 -2t11.5 -2.5t6 -3.5q5 -6 22.5 -12.5t22.5 -10.5 q43 -32 43 -47q16 -6 41 -43q10 -17 26 -70q4 -17 6.5 -50t5.5 -46q5 -23 5 -59q0 -3 -2.5 -14.5t-3.5 -19.5t1 -13l-4 -4q7 -7 -2 -25q-3 -6 -3.5 -16.5t0.5 -25t1 -17.5q-5 -74 -8 -88q0 -2 -3.5 -21.5t-7.5 -32t-9 -18.5q-6 -6 -13 -33q-10 -26 -24 -51q-5 -8 -15 -41 q-4 -12 -10 -18q-4 -4 -9.5 -13t-10.5 -14q-10 -12 -47 -33q-23 -14 -41 -14q-13 -1 -39.5 -5t-40.5 -5q-12 0 -34 1t-34 1q-9 0 -25 5t-24 5q-41 2 -104 57q-37 32 -58 90q-4 10 -14 49q-2 10 -1.5 28t-0.5 28q0 1 -1.5 11t-0.5 15z" />
<glyph unicode="6" horiz-adv-x="716" d="M45 641q-1 33 6.5 100t7.5 95q0 8 3.5 24.5t3.5 24.5q2 48 22 133q15 72 43 141q31 73 72 127q51 73 100 76q11 1 34.5 10t27.5 10q10 3 22.5 3t21 -1.5t23 -4t19.5 -3.5q27 -3 59.5 -19.5t50.5 -35.5l7 -5q6 -6 10 -10.5t4 -7.5t2.5 -6t6.5 -6.5t5 -5.5q2 -3 7.5 -14.5 t10 -21t7.5 -9.5q5 -1 11 -15.5t11 -33.5t6 -21q6 -15 6 -37q0 -6 2 -20t2 -21v-24q0 -7 -1.5 -11t-6 -9.5t-6.5 -8.5q0 1 -0.5 1.5t-2.5 1.5t-5 -1q-1 -1 -5.5 -1.5l-9 -1t-4.5 -1.5q-5 -5 -18.5 -4t-21.5 4q-4 1 -13.5 7t-15.5 5q0 1 2 3q1 3 0 4q0 3 -3.5 8t1.5 8 q5 5 7 14t1 16.5t0 16.5q1 10 0 22t-3 26t-3 20q-6 40 -29 69q-1 1 -5 7t-7.5 10.5t-8 10t-9 8.5t-7.5 3q-7 0 -24 7.5t-25 7.5q-31 0 -47 -2q-5 -1 -14 -8.5t-13 -6.5q3 -10 -22 -35q-16 -16 -25 -61q-1 -5 -3.5 -21t-5.5 -28.5t-7 -16.5q-5 -4 -7 -18t-1 -26t0 -21 q-1 -10 -6.5 -40t-7.5 -51t-1 -40v-51q-5 -27 9 -29q4 -5 6.5 -5.5t10 3.5t9.5 4q30 10 80 6q8 -1 24.5 -3t24.5 -3q31 0 35 -4q3 -3 10.5 -5.5t17 -5t13.5 -3.5q10 -3 39 -27q34 -30 41 -47q8 -21 31 -55l-4 8q9 -14 15.5 -33t10 -31.5t5.5 -39t3 -34.5t1.5 -40.5 t0.5 -34.5q0 -9 0.5 -28t0.5 -31t-1 -28t-4 -28q-2 -9 -4 -52.5t-14 -60.5q-1 -3 -1 -6.5t-1 -5.5q-1 -3 -1.5 -7.5t-1.5 -8.5t-3 -8q-2 -5 -5.5 -21.5t-9.5 -24.5t-14 -29t-14 -30q-20 -31 -33 -47q-3 -4 -11 -17.5t-16.5 -21.5t-19.5 -8q-61 -44 -127 -41q-11 0 -28 -1 t-29 -1q-10 0 -20 2t-21.5 5.5t-18.5 4.5q-10 3 -20.5 9t-17 10.5t-18.5 14.5t-16 13q-3 3 -13.5 18t-16.5 19q-44 36 -66 121q-5 19 -16.5 63t-16.5 68q-10 44 -13.5 99.5t-2 100.5t-0.5 99zM272 326q3 -71 19 -125q2 -5 2.5 -11.5t3.5 -13.5q2 -4 4 -13t4 -13 q5 -11 18 -24.5t23 -8.5q25 -31 64 -17q7 2 16.5 14.5t11.5 14.5q4 3 7 10.5t6 17.5t4 13q13 44 16 106v-4q4 107 0 158q-2 31 -2 98q0 9 -2 28.5t-2 35t4 26.5q3 10 3 24.5t-1.5 32t-1.5 25.5q0 15 -25 60q-18 34 -54 37t-65 -20t-32 -56q-1 -12 -1 -32.5t-1 -29.5l-2 -24 q0 -3 -2.5 -16.5t-1.5 -18.5q0 -2 0.5 -32t-0.5 -31q-2 -12 -2 -43q0 -2 1.5 -15t1.5 -23.5t-3 -13.5q-2 -2 -2 -21.5t-2 -23.5q-2 -5 -3 -15.5t-2 -12.5q-2 -12 -2 -43z" />
<glyph unicode="7" horiz-adv-x="632" d="M59 1344q0 8 2.5 13t8.5 5t21.5 -1t27 -0.5t22.5 3.5q8 1 25 -0.5t20 -1.5q12 1 37 0t39 0q75 5 90 4q8 -1 20 -3t22 -3t20 0l78 6q11 1 31.5 -0.5t27.5 -1.5q4 0 14 3t13 3q3 -2 9.5 -1.5t6.5 3.5q0 1 6.5 -1.5t13.5 -6.5l-8 2q12 -38 -4 -76q-1 -3 -3 -9.5t-4 -11.5 t-5 -9q-1 -2 -8 -10.5t-7 -14.5q-1 -8 -8 -25t-8 -22q-6 -21 -22.5 -57.5t-22.5 -55.5q-5 -15 -19 -49.5t-18 -50.5q-1 -3 -18 -43q-48 -142 -56 -182q-1 -6 -12.5 -49.5t-13.5 -65.5q-3 -20 -15.5 -66.5t-13.5 -72.5q-1 -21 -10.5 -66t-9.5 -70q0 -15 -5 -41t-6 -36 l-6 -105l-4.5 -63t-3.5 -76q0 -1 -2 -6t-3.5 -10t-0.5 -5q-6 -4 -29.5 -5t-25.5 -1q-44 -4 -62 -8q-15 -6 -49 -2.5t-35 23.5q0 3 -3 9t-3 9q-2 16 -2 49v49q6 70 8 80q4 16 3.5 47t2.5 47q3 12 7.5 37.5t7.5 38.5q3 15 4.5 44t3.5 40q0 3 18 76q17 69 29 96q22 55 33 127 q2 22 13 61t13 46q20 80 37 112q5 13 13.5 42t13.5 42q0 1 3 9t6 14t5 6q1 0 7.5 16.5t13.5 36t10 23.5q2 4 14 33t15 32q10 9 -14 15l-12 3q-4 1 -5 1q-11 2 -24 2t-28.5 -1t-23.5 -1q-20 -1 -61 -1t-62 -1q-28 0 -30 2q-2 -1 -9 -3.5t-12 -2.5q-13 1 -19 16.5t-6 30.5 q0 1 -1 8l-2 14t-1 15z" />
<glyph unicode="8" horiz-adv-x="681" d="M27 300.5q-1 31.5 0 53t4 58t4 55.5q1 20 14.5 51t16.5 43q2 8 11.5 22.5t12.5 20.5q7 16 35 53q44 63 68 91q-2 3 -13.5 8t-13.5 6q-3 2 -15 11t-18 11t-12 14.5t-8 14.5q-9 7 -18 38t-17 38q-5 4 -8.5 16t-4.5 22t-2.5 26t-1.5 18q-10 66 2 123q6 24 15 51q2 4 5.5 16 t7 20t7.5 13q12 12 15 23q3 9 8 17t12 17.5t10 14.5q26 43 58 57q5 3 20 14t25 13q4 1 12 1t12 1q5 1 22.5 7t26.5 7q64 11 146 -16q38 -12 86 -60q3 -3 10.5 -9.5t13 -12.5t9.5 -11q3 -4 7 -13t7 -13l6 -19q3 -1 3.5 -16.5t2.5 -17.5q8 -8 8 -35l5 -13q4 -7 -2 -30 q0 -1 -3 -28.5t-4 -46.5t2 -26q1 0 -7.5 -23t-18 -49t-10.5 -30q-2 -11 -18 -31t-17 -22q-7 -13 -25.5 -30t-33.5 -27.5t-17 -10.5q-1 -1 -3.5 -2.5t-4.5 -3.5t-2 -4q-1 -2 1 -4t5.5 -4t6.5 -3.5t6.5 -3t4.5 -1.5q28 -16 43 -37q39 -57 52 -99q1 -4 5.5 -10.5t6.5 -9.5 q12 -37 14 -39q1 -5 9 -18.5t5 -22.5q-1 -3 3.5 -22.5t1.5 -22.5q-3 -7 10 -33l-12 -10q4 -8 4 -18l-2 -13q0 -35 -5 -55q0 -12 -4 -14q-3 -2 -5.5 -15.5t-5.5 -31.5t-3 -19q-2 -6 -8.5 -23t-7.5 -26q-2 -26 -23 -74q-17 -37 -30.5 -59.5t-39.5 -48t-57 -33.5 q-51 -15 -57 -16q-59 -6 -111 2q-69 10 -112 38q-94 63 -121 222q-5 27 -6 58.5zM229 337q1 -22 9 -38q2 -3 0.5 -24t-0.5 -27q8 -57 20 -101q1 -3 9 -23.5t9 -23.5q6 -2 20.5 -15t27.5 -15q28 -3 55 14q1 1 9.5 7t10.5 9l9 17q3 1 5.5 11t4.5 23t2 15q5 19 2 43 q-4 26 -4 57t2 68.5t2 56.5v2q0 43 -8 125q-1 6 -1.5 23t-1.5 29.5t-5 21.5q-3 8 -7 30t-9 39.5t-13 22.5q-25 15 -31 16q-25 5 -29 5q-13 2 -19 0.5t-13 -9.5q-2 -2 -10.5 -15.5t-14.5 -18.5q-5 -3 -14 -72l-6 -45q-13 -87 -9 -121q1 -14 -1 -39.5t-1 -47.5zM233 1112 q-2 -16 0.5 -47.5t2.5 -40.5l2 -57q0 -3 -1 -20.5t0 -29.5t5 -18q1 -2 7.5 -25.5t18.5 -27.5q-3 -9 13.5 -23.5t31.5 -23.5q24 -15 66 2h-2q50 17 65 131q13 114 -2 223q-8 46 -14 51q-2 2 -3.5 13.5t-2.5 13.5q-8 29 -23 37q-37 21 -80 12l-18 -6q-15 -10 -23 -12 q0 -3 -9 -15t-13 -16q-5 -5 -11.5 -33.5t-0.5 -32.5q4 -9 2.5 -16.5t-6 -21.5t-5.5 -17z" />
<glyph unicode="9" horiz-adv-x="681" d="M51 924q-2 50 8 118q2 13 10 72.5t17 91.5q9 35 66 105q31 38 59 51q35 17 35 18q4 6 15.5 8.5t21.5 2.5t24.5 -1t16.5 -1q52 0 96 -21q7 -3 21.5 -15.5t21.5 -15.5q16 -8 31 -20q42 -32 68.5 -77t23.5 -93q-1 -10 4 -29.5t6 -25.5q1 -5 6.5 -71t7.5 -87l17 -193 q3 -10 0.5 -61.5t-2.5 -61.5v-69q0 -11 -3.5 -33t-3.5 -33q1 -20 -1.5 -44t-5.5 -41t-9 -45t-8 -42q-2 -11 -5 -36t-5.5 -40.5t-9.5 -35t-19 -33.5q-2 -2 -3 -5t-1.5 -7.5t-1.5 -6.5t-3.5 -5.5t-2.5 -8.5q-1 -19 -12.5 -36.5t-22 -26.5t-31.5 -25q-5 -4 -14 -12.5t-14 -12.5 t-16.5 -8t-16.5 -8q-7 -5 -30 -9.5t-26 -0.5q-2 2 -47.5 0.5t-48.5 1.5q-3 5 -17 7t-16 3q-6 2 -18 7t-18 7q-13 3 -30.5 18.5t-23.5 29.5q-8 16 -25 46.5t-24 43.5q-15 29 -24 65q-5 18 -5 29q-1 3 3 9.5t8 12.5l4 5q9 -2 39.5 5.5t40.5 -5.5q1 -3 1.5 -15.5t2.5 -17.5 q2 -4 7 -11.5t7 -11.5q3 -7 9 -22t8 -21q14 -40 55 -76q12 -11 45 -12t47 6q23 9 41 62q28 71 29 94q1 17 0 49.5t0 48.5q4 58 4 88v78q-4 -1 -10.5 -8.5t-10.5 -9.5l-33 -19q-9 -5 -21.5 -6.5t-21 -1.5t-24.5 2t-21 2q-10 1 -28.5 9t-26.5 8q-9 0 -20.5 7.5t-16.5 8.5 q-18 4 -42 34t-29 52q-1 4 -4 10t-7.5 13t-5.5 10q-16 27 -20 69q-1 11 -9 45t-8 54q1 23 -4 127zM74 279v2v-2zM247 911.5q0 -11.5 2.5 -31t2.5 -22.5q0 -25 5 -78t5 -80q0 -37 12 -57q7 -7 7 -12q3 -1 5 -1t5 -5q1 -2 2 -5.5t1.5 -5.5t2.5 -4.5t5.5 -3.5t8.5 -2 q41 -3 72 25q2 1 10.5 10.5t16 19t6.5 9.5q-5 86 -2 106q3 25 -1.5 74.5t-4.5 64.5q0 14 -2.5 91t0.5 92q1 37 1 81.5t-19 85.5t-56 48q-20 4 -28 -0.5t-17 -24.5q-6 -13 -9.5 -27.5t-7 -35.5t-4.5 -29q-6 -51 -4 -64q3 -23 -3.5 -67.5t-4.5 -65.5q0 -2 0.5 -10.5t0.5 -16.5 v-17t-1.5 -15t-3.5 -8q-3 -7 -3 -18.5z" />
<glyph unicode=":" horiz-adv-x="382" d="M63 145q0 50 21 76q3 4 20 21q3 3 13 9t12 9q13 22 74 10q2 0 7.5 -1t8.5 -1.5t7 -3t7 -6.5t13.5 -9.5t13.5 -10.5l14 -25q2 -4 8 -6.5t7 -5.5t2 -4t3 -1t3 -1l8 -7q3 -1 6.5 -12.5t3.5 -15.5q0 -6 -3.5 -15.5t-4.5 -13.5q-1 -5 -4.5 -20.5t-3.5 -22.5q0 -6 -9.5 -12 t-10.5 -8q-9 -9 -25 -17q-10 -5 -43 -16q-42 -9 -74 0q-28 11 -33 18q-2 3 -8.5 12t-9.5 11q-23 20 -23 69zM63 862q-6 6 5 37.5t20 32.5q1 0 3 2.5t4 5.5t3 4q16 21 25 25l18 6q2 0 18 2t21 4q7 6 39.5 2.5t36.5 -14.5q11 1 19 -7t10 -20q26 -9 34 -33q13 -53 9 -57l-4 4 q-6 -3 -2.5 -24t0.5 -27q-10 -26 -17 -31q-2 -2 -11 -8.5t-11 -9.5q-11 -15 -49 -23t-62 -6q-52 3 -88 61q-1 3 -3 10.5t-3 10.5q-1 4 -10 27q-1 2 -2 13t-3 13z" />
<glyph unicode=";" horiz-adv-x="382" d="M57 -238q1 8 2.5 14t6 10.5t7 6.5t11 7t12.5 7q24 15 33 43q5 12 15.5 32.5t16.5 37.5t7 35q0 11 4 35q3 5 1 8.5t-2 4t-5 1.5t-8 2l-15 6q-18 8 -34 27l-23 33q-9 5 -8 35.5t4 39.5q9 37 16 48q16 37 58 63l6 -2q33 19 72 9.5t65 -38.5q51 -58 35 -112q-3 -9 -6 -29 t-6 -29l-25 -75q-13 -44 -29 -62q-10 -10 -10 -22q0 -2 -2 -5.5t-4.5 -8t-3.5 -5.5q-4 -9 -25 -22q-7 -5 -17.5 -21t-17.5 -22q-8 -6 -23.5 -22.5t-25.5 -22.5l-20 -15q-3 -2 -10.5 -2t-10.5 -2q-2 -4 -9.5 -2.5t-11 3t-11 6t-9.5 5.5zM74 879h4q-1 9 0.5 17.5t5 19.5 t4.5 16v24q-1 4 7.5 9t18.5 10t11 6q21 18 49 18q10 0 30.5 3t33.5 2q17 -1 34 -14t25 -29q3 -5 8.5 -11.5t9 -13t4.5 -14.5q0 -14 3 -23q1 -2 6.5 -8.5t5.5 -11.5q0 -12 -3 -34t-11.5 -46t-20.5 -23l-16 -18q-3 -10 -43 -10q-79 0 -105 18q-14 10 -30.5 28t-16.5 29 q-10 17 -14 56z" />
<glyph unicode="&#x3c;" d="M11 689.5q1 11.5 5.5 25.5t8.5 16q10 5 31 14t30 13q5 3 19 13t22 13q52 26 57 31q3 3 17.5 10.5t17.5 10.5q91 56 215 125q2 1 15 6.5t22.5 11t13.5 10.5t19 11.5t20 11.5q3 3 14 8.5t24.5 11t15.5 6.5t9.5 5.5t13 7t14.5 6t13.5 3t10.5 -2.5q0 -1 -1 -7.5t-1.5 -11 t0.5 -6.5q3 -2 5 -6.5t-1 -7.5q-1 -1 -1.5 -6.5t-2 -10.5t-4.5 -4t-6.5 -1t-7.5 -5t-5 -4q-23 -16 -63 -37q-9 -5 -27.5 -16t-27.5 -16q-5 -3 -16.5 -9.5t-16.5 -9.5q-5 -2 -16 -12.5t-19 -12.5t-35 -22q-18 -15 -37 -23l-15 -7.5t-19 -10.5t-13 -10q-6 -6 -28.5 -19.5 t-24.5 -11.5q-33 -22 -59 -35q-8 -3 -15 -10q-2 -2 -7.5 -4.5t-10 -5t-4.5 -4.5q-1 -4 -15 -10.5t-16 -10.5q1 -3 15 -8.5t18 -5.5q7 0 28 -21q6 -5 19 -10q16 -8 22 -14q3 -3 16 -10t28 -15t18 -10t15 -7.5t18 -10.5q4 -2 18.5 -7.5t20.5 -9.5q12 -12 32 -20 q5 -2 53.5 -29.5t51.5 -28.5q2 0 22 -14l33 -16q25 -15 31 -17q3 -1 12.5 -7.5t15.5 -6.5q4 0 10.5 -6.5t8.5 -7.5h14l-4 4l-2 2l2 -2l6 -6l-2 2q4 -9 0 -31q-4 -18 -8 -21q-13 -7 -35 2q-9 4 -19 9.5t-22 13t-18 10.5q-3 2 -14.5 6.5t-19.5 8.5t-11 8q-10 10 -31 14 q-16 5 -37 18q-3 2 -62.5 31t-66.5 35q-7 7 -24 14t-23 11q-33 21 -123 65q-4 2 -11 6t-11 6q-3 1 -14 4.5t-19.5 6.5t-9.5 6l-29 12q-9 3 -18.5 13.5t-10.5 19.5q-2 2 -1 13.5z" />
<glyph unicode="=" d="M47 823v13q1 6 4.5 9.5t10 4.5t11 1t12 -0.5t9.5 -0.5q49 -2 148 -2q16 0 105 2.5t104 -0.5l65 -4q9 -1 27.5 -1t27.5 -1l23 -2h6h8q4 0 4 -4l2 -7q2 -6 2 -18v-25q0 -31 2 -45v-6q-125 0 -141 -4q-13 -4 -44 -1.5t-46 -0.5q-11 -3 -26.5 -3t-34.5 1.5t-27 1.5 q-12 0 -32.5 -1t-28.5 -1q-87 0 -109 6q-6 2 -39 2q-12 0 -18 2l4 -12q-2 0 -6 4l-11 4l-2 2l-6 31q-2 10 -2 31zM66.5 615.5q-0.5 5.5 1.5 11.5t6 8l4 2q24 6 49 6q8 0 24.5 -2t24.5 -2l135 -4q101 -4 150 0q49 3 98 0q43 -5 53 -12l6 -7l7 -12q2 -8 2 -24q0 -8 -1 -25 t-1 -25v9q0 -18 -9 -25l-28 -8q0 2 -47 2h-97h-57q-11 1 -25.5 1t-32 -0.5t-26.5 -0.5h-90q-19 0 -57 1t-56 1q-12 0 -18 4q-4 2 -5.5 4t-2.5 5t-2 5l-2 4v7l-2 53q0 2 -0.5 10t-1 13.5z" />
<glyph unicode="&#x3e;" d="M10 367q1 2 7 8.5t6 11.5q7 -3 26 6q4 2 15 8.5t18 8.5q49 22 55 24q21 8 43 21l17 8q2 1 12.5 6t13.5 8q2 2 11 6t12 6q11 11 18 11q3 0 6.5 2t7.5 4.5t5 3.5q26 17 32 16q3 0 12 5.5t11 7.5q10 9 29 16q5 2 18.5 8.5t20.5 9.5q3 1 9 5.5t9 5.5q4 1 14 7.5t15 6.5 q2 0 7 5t7 5q4 0 12 8q1 1 5 3.5t5 3.5q4 2 12.5 6.5t12.5 7.5q11 7 37 29q7 4 10 8q0 3 -7 5.5t-11 2.5q-3 2 -15.5 7t-15.5 9q-3 3 -16 9.5t-15 11.5q-16 0 -30 14q-3 3 -8.5 6t-13 7t-11.5 6q-20 14 -60.5 37.5t-50.5 29.5q-3 2 -16.5 8t-16.5 11q-1 2 -10 5t-10 5 q-1 3 -5.5 7t-9.5 6t-11.5 5t-8.5 4q-4 2 -53 29q-5 3 -15.5 9.5t-15.5 9.5q-1 0 -15.5 7t-19.5 13q-10 10 -14 10q-4 -1 -21.5 11t-19.5 16q-3 4 -11 7t-11 7q-5 7 -5 25l5 39q5 0 9 7t11 7q0 -5 4 -9.5t7.5 -7t10.5 -6l9 -4.5q5 -4 16 -11t16 -11l23 -12q1 -3 14 -6t13 -7 q5 0 11 -3t13.5 -8.5t9.5 -6.5l29 -17q4 -2 13.5 -8t16 -9.5t15 -7.5t15.5 -5q1 -4 8.5 -9.5t17.5 -10.5t12 -7l35 -18q31 -15 74 -39q6 -3 16.5 -11.5t20.5 -13.5t20 -6q27 -14 27 -16q1 -3 8 -6.5t16 -7.5t11 -5q1 0 6.5 -4t7.5 -4q8 0 12 -4h11q6 -2 16.5 -10.5 t15.5 -10.5t37 -18q2 -1 6 -2.5t6.5 -2.5t6 -3.5t3.5 -5t-1 -6.5l6 -7l-4 -6q5 -6 2 -18q-4 -12 -6 -16.5t-8 -11t-15 -11.5q-4 -1 -31 -6q-9 -2 -22 -12.5t-19 -12.5q-14 -5 -35 -18.5t-32 -18.5q-7 -4 -29 -16.5t-33 -17.5q-11 -4 -31 -16.5t-28 -16.5q-31 -17 -53 -31 q-4 -3 -31 -13.5t-35 -19.5q-8 2 -32 -14l-31 -16q-11 -6 -35 -14.5t-35 -14.5q-43 -27 -57 -31q-22 -8 -25 -10q-4 -4 -12 -4l-6 -2l-6 -6q-6 0 -7 10.5t-2 11.5q0 2 -4.5 10.5t-5.5 8.5z" />
<glyph unicode="?" horiz-adv-x="628" d="M71.5 1022.5q-1.5 17.5 0.5 24.5q1 5 2 16t2 16q3 14 7.5 48t10 56t15.5 40q84 151 198 149q89 -3 154 -35q4 -2 11.5 -5t12 -5t10 -6t9.5 -10q1 -2 16.5 -18t16.5 -25q2 -11 12.5 -32t13.5 -30q12 -41 15 -82l2 -41q1 -4 0.5 -20.5t1.5 -18.5l2 -12q2 -4 -2 -20.5 t-2 -18.5q1 -2 0.5 -8t-2.5 -8q-3 -3 -3 -14q0 -25 -14 -39q-4 -4 -6.5 -22t-5.5 -23q-1 -2 -4 -11t-6 -12q-4 -5 -8 -25t-13 -26q1 -4 -8 -22t-14 -21q-4 -2 -15 -25q-2 -3 -14 -17.5t-14 -25.5q-1 -6 -4 -11.5t-5.5 -8.5t-8 -9t-7.5 -8q-1 -6 -4 -12t-7.5 -13t-6.5 -11 q-1 -1 -5.5 -8.5t-8.5 -14t-3 -6.5q-1 0 -3 -4.5l-4 -9t-3 -5.5q-9 -28 -12 -30q-12 -12 -19 -39q-2 -5 -9 -18t-9 -21q-1 -3 -1.5 -15.5t-2.5 -17.5q-8 -16 -8 -41q0 -22 -7 -43q-1 -2 -3 -7t-3.5 -9t-1.5 -6q-52 -18 -63 49q-16 99 -17 119q0 48 9 98q10 45 10 59 q2 18 12.5 48.5t20.5 37.5q5 4 9 12.5t7.5 19.5t5.5 15q1 3 10 25t15 33q24 44 45 90q34 75 45 108q19 47 22 66q1 5 6 17t5 20q0 34 2 39q1 4 -3 11l-4 7q1 5 0 11t-3 12.5t-3 9.5t-2 7.5t-1.5 6.5t-1.5 5.5t-1.5 5t-2 4.5t-3 5t-4 4.5t-5.5 5t-7 5.5q-27 22 -68 24 t-72 -14q-58 -26 -82 -102q-2 -6 -7 -18.5t-7 -18.5q0 -2 -1.5 -11t-3 -16t-5.5 -10q2 -10 -1 -31.5t-3 -27.5v-31q0 -4 -0.5 -7.5t-1.5 -5t-4 -2.5l-4.5 -1.5t-7 -1t-7.5 -0.5q-49 -7 -57 -4q-5 1 -6.5 18.5zM191 112q0 11 6 15q2 2 1 13.5t7 15.5q4 2 8.5 7.5t7 10.5t6 13 t4.5 10q10 0 42.5 6.5t33.5 11.5h4q1 0 9.5 -3t13.5 -3q0 -2 3.5 -7t4.5 -5q2 -1 9.5 -6.5t13.5 -6.5q18 -4 24 -14q4 -4 4 -20q0 -1 7 -13t-1 -18h2q5 -45 5 -49q-1 -6 -6 -17t-5 -12q-18 -43 -39 -47q-62 -14 -91 -8q-9 2 -17 6q-20 9 -36 33t-15 45q0 4 -3 17.5t-3 24.5z " />
<glyph unicode="@" horiz-adv-x="942" d="M63 618q-1 27 2 78.5t3 73.5q0 35 14 145q2 10 8.5 36.5t7.5 39.5t12 35.5t13 28.5q2 11 11.5 30.5t12.5 28.5q2 8 12.5 22.5t12.5 22.5q7 29 42 74.5t38 50.5q35 62 76 92q2 1 10 8.5t14 12.5t14 9.5t13 4.5q0 1 14.5 12t18.5 13q-1 7 29.5 10t60.5 2t41 -2 q115 -17 159 -39q22 -13 31 -31q2 -5 14.5 -19t14.5 -22q49 -78 55 -90q0 -1 10.5 -23.5t17.5 -39.5t7 -23q0 -8 5 -28.5t7 -22.5q3 -4 2.5 -19t1.5 -18q0 -12 7 -32.5t8 -24.5q2 -10 4 -30.5t4 -31.5q6 -25 6 -82v-84h-4q0 -83 -4 -106q-1 -5 -3 -24t-7 -29 q-3 -9 -8.5 -28.5t-8.5 -27.5q0 -1 -4 -18.5t-8 -24.5q-2 -5 -4 -16t-4 -16q0 -1 -3 -8.5t-6 -13.5t-6 -7q9 -10 -4 -26t-32.5 -32.5t-22.5 -21.5q-8 -20 -51 -26.5t-72 -2.5q-11 1 -20.5 6t-20.5 14.5t-16 12.5q-4 2 -14.5 14t-14.5 13h-2q-5 -1 -21 -16t-18 -19 q-3 -4 -17.5 -9t-21.5 -5q-7 -11 -51 -11q-11 0 -19.5 2.5t-19 8.5t-16.5 8q-5 4 -18 13.5t-22.5 18t-13.5 17.5q-4 10 -13 28.5t-13 28.5q-2 4 -3.5 18.5t-3.5 27t-5 14.5q-6 7 -5 19.5t3.5 31t1.5 22.5l4 42q4 41 4 53q0 79 12 86q-4 9 9.5 46.5t21.5 49.5q2 4 18 43 l17 39q39 73 110 82q54 5 72 -15q2 -2 14.5 -13t14.5 -19q3 -13 8 7q2 10 2 13q1 5 2 8.5t1.5 5.5t2.5 4.5t2.5 3t4.5 3.5t5 4q4 4 19.5 4t23.5 -2q5 -1 26 0.5t25 -2.5q6 -2 8.5 -8t3 -10t0 -13.5t-0.5 -11.5q-5 -2 -8.5 -15t-5 -32.5t-1.5 -20.5q-4 -22 -14 -68.5 t-14 -68.5q0 -2 -1.5 -19.5t-4.5 -31.5t-7 -17q-3 -2 -5 -20t-2.5 -39.5t-2.5 -26.5q-15 -78 -20 -127q-2 -5 -1.5 -37t5.5 -36t13 -11.5t15 -12t17 -7.5q4 -1 7.5 -1h5.5t4 2t2.5 3t3 4.5t3.5 5.5t8 9t9 12q6 12 24 39.5t25 44.5q24 56 33 178q0 4 2 18.5t2.5 23t-2.5 15.5 q-2 4 0.5 22.5t1.5 22.5q-2 8 -0.5 32t0.5 32q-1 7 -4 25.5t-4 31.5q0 8 -4.5 27t-8.5 22q-2 1 -9 32t-9 34q-4 6 -6.5 23.5t-7.5 23.5q-9 9 -15.5 25t-14 45t-7.5 30q-21 68 -58 86q-22 11 -34 23q-7 10 -56 10q-18 2 -39.5 -3.5t-49 -17t-38.5 -14.5q-18 -6 -45 -26 t-33 -23q-6 -4 -33 -48.5t-32 -47.5t-21 -44.5t-20 -47.5q-16 -24 -16 -43q0 -14 -11 -41.5t-12 -38.5q-2 -22 -15 -74.5t-12 -81.5q0 -2 -3 -11.5t-3 -10.5v-13q-8 -45 -4 -135q1 -12 5 -39.5t5 -42t-2 -37.5q-4 -24 7 -51q2 -3 9 -33t16.5 -68t14.5 -54q1 -3 5 -20.5 t8 -31.5t8 -20q2 -4 8 -11t9.5 -13.5t2.5 -12.5q-4 -35 83 -79q3 -2 5 -3q7 -4 30 -18t33.5 -19.5t29.5 -13t37 -10.5q47 -6 129 24q48 19 53 23q6 4 12.5 11.5t13.5 17t11 14.5q28 35 45 63q3 4 10 23t15 34.5t14 16.5q5 1 8.5 23t7.5 26q4 3 5.5 11t1.5 18t1 12 q7 22 25 19q4 -1 6.5 -2.5t4 -4t2 -4t1 -6t0.5 -6.5q2 -5 2.5 -15.5t-0.5 -13.5q-2 -1 -16 -43q-2 -5 -5.5 -23.5t-8.5 -33.5t-11 -20q-11 -9 -23 -37.5t-18 -36.5q-4 -7 -15.5 -29t-19.5 -31q-31 -31 -49 -45q-4 -3 -22.5 -20t-30.5 -23q-67 -30 -82 -34q-110 -28 -201 22 q-86 50 -122 90q-9 10 -38.5 39.5t-47.5 51.5t-29 46q-16 38 -31 103q-35 133 -22 203q2 8 -1.5 28.5t1.5 28.5q2 4 1.5 8t-2 11t-1.5 10zM428 618q1 -5 3.5 -46t17.5 -58q19 -24 38 -20q8 2 17.5 13.5t9.5 18.5t18 43q3 8 0 19q-1 16 -1 22.5t2.5 21.5l3.5 21 q17 170 18 181q4 50 10 77l4 19q1 5 -1.5 9t-2.5 9q0 3 -3.5 10l-4.5 9q-7 22 -43 22q-24 -2 -45 -65q-1 -5 -7 -17.5t-7 -21.5q-3 -20 -11 -43q-6 -19 -7.5 -55.5t-2.5 -43.5q-4 -29 -4 -88q0 -3 -1.5 -17.5t-0.5 -19.5z" />
<glyph unicode="A" horiz-adv-x="628" d="M20 27l7 57l4 44t6 52q2 13 4 39.5t4 38.5q14 63 14 90q0 24 15 101q4 23 10 68t10 67q2 9 2.5 27.5t1.5 23.5q1 6 6 25.5t5 29.5q0 48 8 72q3 7 3.5 23t2.5 22q4 8 4 22q0 17 4 33q2 8 3 27.5t3 28.5q3 18 7.5 54t7.5 54q3 16 8 47.5t8 46.5q11 55 12 66q1 13 6.5 36.5 t6.5 30.5q1 4 3 14.5t3 18.5t0 14q0 15 6 27q5 24 14 33q1 2 47 8q10 2 58 2l-17 -2q1 0 15 1t20 1l29 -2q6 0 16 -10q2 -2 2.5 -7.5t1.5 -7.5q6 -12 6 -20q-2 -11 2 -31q2 -10 8.5 -39.5t8.5 -48.5q2 -17 5.5 -60t8.5 -67q12 -75 12 -84t5.5 -30t5.5 -31q1 -13 4 -27.5 t7.5 -33t6.5 -27.5q11 -46 21 -107q15 -93 16 -110q0 -9 8 -37q8 -32 8 -47q0 -16 6 -37l13 -70q0 -2 3 -26.5t9 -34.5q2 -4 1.5 -18t0.5 -21q4 -18 12 -72q9 -56 9 -76q1 -7 4.5 -21t5.5 -26t2 -26q0 -15 6 -39q8 -28 9 -37q1 -23 -11 -31t-41 -10q-43 -4 -59 -4h-5 q-9 1 -25 0h-12h-16q-12 2 -20 8q-5 4 -7 8.5t-2.5 10t-1 19.5t-2.5 28q-6 48 -6 57q-4 4 -4 25l-2 22q0 8 -1 24t-1 25t-4 37q0 18 -10 25q-4 3 -12.5 3.5t-22 -0.5t-16.5 -1q-5 0 -18.5 1t-18.5 1t-22.5 -2t-22.5 -2q-62 4 -82 4q-13 4 -20.5 -1t-4.5 -22l-4 -35 q0 -37 -2 -47q-2 -13 -12 -141q-1 0 -1.5 -5.5t-2 -11.5t-4.5 -8q0 -5 -5 -10q-7 -3 -10 0q-15 -10 -37 -10q-12 0 -14 4q-5 5 -12 2q-2 4 -5.5 8t-5 7.5t-0.5 9.5zM150 428q9 0 27 0.5t33.5 0.5t31.5 -1q53 -3 82 -3q17 0 26 1q1 3 1 8q1 8 -3 24q-6 24 -6 36q0 3 -5 34 t-5 45q-2 18 -6 39t-7.5 34t-7.5 26l-4 14q-1 6 -4 44t-4 44q-1 4 -9 29.5t-9 34.5l-11 57q-1 9 -6.5 25t-7.5 24t-2.5 26t-1.5 23q-2 4 -2 29v2v16q0 2 -0.5 1.5t-1.5 -2.5q-2 -8 -2 -17l-4 -35q-1 -8 -9.5 -43.5t-9.5 -40.5q-2 -15 -8 -43t-8 -43q-3 -36 -8 -69l-3 -12 q-3 -11 -3 -17t-2.5 -16.5t-2.5 -16.5t-3.5 -26t-4.5 -29q-4 -24 -4 -37q0 -7 -3 -20t-3 -19q-2 -8 -4 -24.5t-4 -22.5q-12 -35 -12 -80z" />
<glyph unicode="B" d="M49 43l4 16t2 11q-5 11 -5 27q0 19 7 44q-4 36 -4.5 71.5t4.5 70.5q-3 14 -3 31q0 22 5 51q-3 15 -6 59.5t0 58.5q-2 29 -2.5 32.5t2 34t2.5 32.5q-2 13 -2 25q0 25 8 48q1 11 1 25q0 28 -5 68q-3 34 -3 60q0 34 5 58q-4 18 -4 41q0 33 8 76q0 9 -3.5 36.5t1.5 33.5 q0 7 -1 17t-1.5 14.5t0.5 9.5q-1 11 0.5 29t1.5 20q-6 9 2 26q-6 3 -4 31.5t2 32.5q-5 37 0 51q-9 21 -11.5 44t7.5 34q6 0 16.5 1t16.5 1q21 0 27 -4q4 2 37 2q8 0 22 1t25 1t20 -2q10 3 23 3q17 0 41 -5q42 -10 80 -10q11 0 23.5 -3.5t21 -6.5t23.5 -10.5t19.5 -10.5 t21 -13.5t18.5 -11.5q11 -6 29 -23.5t18 -25.5q0 -4 16 -20q3 -5 9 -15.5t9 -15.5q1 -1 3 -7t4 -10.5t4 -5.5q4 -4 8 -21t6 -22q6 -11 12 -69q2 -20 2 -49.5t-2 -69.5l8 10q0 -4 -2.5 -9.5t-3.5 -8.5q-1 -4 -1 -11.5t-1 -11.5l-14 -53q-1 -4 -3.5 -15.5t-4 -16.5t-4.5 -14.5 t-5.5 -15.5t-7 -13.5t-10.5 -14.5q-59 -68 -112 -70q-16 -2 -15 -9q1 -5 8 -5q2 0 11 -1.5l12 -2t11 -2.5t11.5 -4t8.5 -5t8 -7.5t4 -10.5q1 -1 7 -3.5t10.5 -5.5t11 -9.5t10.5 -14.5q0 -1 12 -8t13 -18q1 -15 10.5 -36.5t11.5 -31.5l4.5 -13.5t4.5 -16t-1 -13.5 q-2 -3 -1 -7.5t3 -12t2 -10.5q0 -27 10 -52q-6 -13 0 -39q2 -11 2 -20q0 -15 -6 -25q4 -16 -4 -57q-4 -24 -6 -27q2 -9 -8 -24q-4 -55 -35 -86q-7 -20 -22 -35.5t-29 -20.5q-4 -3 -15.5 -13t-15.5 -13q-20 -14 -37 -14q-6 -10 -23 -15.5t-30 -3.5q-36 -9 -77 -9q-24 0 -50 3 q-29 -3 -61 -3q-20 0 -41 1q-16 -5 -30 -5t-28 5q-4 0 -12 2t-12 2q-7 -1 -12 4t-5 10q-7 -1 -10 3q-3 3 -3 9q0 7 3 17zM256 213v-19q0 -21 1 -52t1 -52v-18q6 0 18 -0.5t19.5 -0.5t17.5 1t17 4q6 2 15.5 11.5t14.5 10.5q8 3 20.5 26t16.5 36q23 81 23 194h2q0 13 -1 40 t-1 42q-1 22 -0.5 40t-1.5 39.5t-8 37.5q-27 69 -70 76q-9 1 -26.5 1t-26.5 1q-15 1 -19 -2t-4 -17l-2 -41q-1 -28 -1 -75v-52.5v-52.5q0 -48 -1 -76zM266 721q2 0 16 -3q8 -2 14 -2q4 0 7 1q24 8 41 8q13 1 30 21t25 36q20 37 27.5 76.5t9 95t4.5 78.5l-2 -2q2 32 1.5 49.5 t-3.5 52t-4 50.5q-3 43 -43 71q-9 7 -27.5 15t-25.5 12q-10 5 -36 10q-11 2 -18 2q-10 0 -12 -4l-6 -198q0 -16 1 -48t1 -47v-73q0 -2 0.5 -9t0.5 -15v-16.5t-0.5 -14.5t-2.5 -7v-35v-49l-2 -16q-2 -12 -2 -23q0 -16 6 -16z" />
<glyph unicode="C" horiz-adv-x="649" d="M43 621v39q0 196 27 360q22 124 49 172q13 44 35 63q9 22 22 35q10 25 38 48.5t54 31.5q40 12 68 12l2 2q57 0 88 -2q32 -2 86 -41l8 -3q7 -2 14.5 -6t10.5 -9q4 6 12 -11q2 -3 2 -5q5 0 8.5 -2t7 -7.5t5.5 -7.5q-1 -5 4.5 -13t5.5 -9q3 -8 9 -20.5t9.5 -23t3.5 -22.5 q0 -3 6 -45q0 -3 2.5 -16.5t1.5 -18.5q4 -8 3 -41q0 -11 4 -27t2 -36q-4 -4 -18 -4t-31 2t-19 2h-14q-3 0 -7.5 2t-6.5 2q-13 0 -17 18q-3 11 -8 66q-4 65 -12 98q-6 28 -24.5 50.5t-43.5 33.5q-17 8 -34 8q-16 0 -30 -6q-32 -12 -44 -41q-9 -18 -9 -63q0 -33 -2 -45 q-6 -23 -6 -54q0 -8 -1 -18.5t-2.5 -24.5t-2.5 -22q-1 -4 -1 -10t0.5 -11.5t0.5 -7.5q0 -45 -2 -51q-5 -23 -5 -70q0 -24 1 -53v-13q-1 -24 -3 -60q-4 -48 -3 -68q0 -7 -4 -19l-2 -14q0 -28 -2 -33q4 -5 4 -59q-2 -22 -2 -38.5t2 -27.5q2 -8 -2 -24v-19l2 -12q2 -6 2 -18 q0 -11 -4 -31q-5 -25 -5 -31q0 -26 3.5 -56.5t7.5 -33.5q-9 -6 4 -57q2 -20 18 -47q11 -22 19.5 -34.5t23.5 -25.5t33 -18q33 -8 56.5 16t33.5 56q2 8 17 38q4 10 8 30.5t6 27.5q4 9 8 35q1 6 2 17.5t2 16.5q0 3 -0.5 20.5t2 28.5t10.5 11q18 2 39.5 -1t28.5 -3q2 0 8.5 0.5 t11 0.5t10 -1t8 -4t1.5 -9l-6 -36q2 -10 -4 -30t-5 -24q0 -6 -12 -45q-6 -24 -8 -28q-3 -6 -8 -23.5t-8 -23.5q-7 -16 -28 -44.5t-26 -37.5q-13 -23 -73 -48q-24 -12 -62 -22q-6 -2 -37 -2h-49q-9 -1 -17 -1q-58 0 -110 58q-91 101 -110 242q-14 30 -19.5 59t-6.5 73t-1 50 q-4 49 -4 144z" />
<glyph unicode="D" horiz-adv-x="733" d="M68 154q-2 34 -2 79q0 90 8 224q5 88 5 164q0 33 -1 63v22q0 30 2 76q2 64 2 86q-3 125 -3 195q0 42 1 65q1 15 1 38.5t-1 56t-1 56.5t1 40q0 41 6 47q4 0 15.5 -1t15.5 -1q7 0 22 1t21 1l51 -4q6 0 17 3t16 3q4 0 11 -3t11 -3h21q41 -6 45 -8q3 -2 35 -8.5t34 -12.5 q1 -5 21 -9t22 -5q4 -3 18.5 -8.5t18.5 -10.5q3 -4 16.5 -11t18.5 -7q12 0 35 -39q5 -7 13.5 -17.5t13.5 -17.5q24 -32 47 -80q22 -48 28 -84q3 -16 11.5 -45t11.5 -45q3 -15 4.5 -44.5t3.5 -39.5l-4 9q4 -6 1 -56t-3 -55t-3.5 -19.5t-2.5 -21.5q4 -15 4 -63q0 -12 -2 -33 t-2 -33q0 -1 1 -13t1 -22t-2 -12q-4 -4 -4 -23t-4 -65q-1 -10 -8 -42t-7 -50v-6q0 -7 -4 -19q-3 -8 -4 -22.5t-4 -22.5q-15 -41 -16 -47q-3 -19 -19 -49.5t-20 -40.5q-2 -6 -17 -31q-3 -4 -10 -11t-10 -11q-18 -27 -25 -29q-6 -1 -20 -14t-17 -15q-21 -12 -45 -18 q-9 -2 -55 -14.5t-72 -16.5q-10 0 -30.5 -2t-30.5 -2l-51 -2q-10 0 -31 1t-31 1q-43 0 -51 4q-6 3 -9 14.5t-1 18.5q-2 1 -3.5 6t-1.5 11.5v13t0.5 13t0.5 7.5q0 20 -4 66zM242 256v-9q0 -10 1 -22q1 -18 1 -22q0 -39 2 -39q2 -3 2.5 -21.5t-0.5 -21.5q-4 -8 2 -25 q3 -12 26 -12q9 0 21 2q33 4 55 12q4 2 9 6.5t10 11t8 9.5q30 25 33 49q1 7 14 39q27 69 27 127q0 28 6 88t6 90q0 21 -2 61t-2 72.5t4 59.5q3 17 3 43q0 21 -2 48t-2 48q0 26 3 41l-2 4q1 8 1 26t1 27q3 29 3 50q0 11 -1 20l-6 55q-4 28 -4 43q0 4 -2 13t-2 12 q2 24 -9 52.5t-28 41.5q-1 1 -11.5 11t-20.5 19t-21 14.5t-17 0.5q-6 -6 -45 8q-21 7 -31 8q-10 0 -12 -6q0 -48 2 -139t2 -135q0 -66 -6 -127q-2 -20 -2 -64q0 -4 -2.5 -18.5t-1.5 -18.5q2 -5 2 -18q0 -19 -4 -55q0 -20 2 -23q-3 -3 -3.5 -20t1.5 -21t-0.5 -28t2.5 -25 q4 -3 -0.5 -27t0.5 -28q1 -2 0.5 -7.5t-1.5 -13.5l-1 -8q-2 -9 -2 -20t1 -25t1 -20q-2 -10 -2 -41l-2 -86v-43q-4 -9 -4 -23z" />
<glyph unicode="E" horiz-adv-x="659" d="M49 719.5q0 3.5 1 8t1 5.5l-2 19q0 12 2 18l2 8l2 17q0 7 -1 21.5t-1 21.5q0 8 -1 24.5t-1 24.5q0 21 2 31q2 18 2 57q0 10 1 30.5t1 30.5l-2 23v14q0 27 4 51q2 8 1.5 23t0.5 24q1 7 -1.5 30t1.5 30q2 6 2 24q0 7 -1 21t-1 18v21q0 14 7 28q1 2 2 5.5t1 6t2.5 4t6.5 1.5 t16 4q8 2 25 2q8 0 24 -1t23 -1l65 2q11 0 33 -2t33 -2q15 0 47 3t47 3q13 0 39 -1t39 -1q3 0 14.5 -1.5t19 -2t13.5 1.5l6 2q3 0 27 -8h6q3 0 11 1t12 1q14 0 18 -12q4 -24 4 -35l-14 10q0 -3 2 -10t2 -12t-4 -9q-2 -1 -2.5 -8t-1.5 -8q-6 -2 -18 -4t-13 -2h-43h-2 q-4 0 -18.5 -1.5t-20.5 -0.5q-6 2 -23 2q-9 0 -28 -2t-27 -2h-31h-49h-24q-13 0 -13 -31q2 -7 2 -28q0 -17 -2 -43q-2 -58 -2 -72q0 -43 -4 -129q0 -7 -4 -43t0 -39l2 -11q0 -4 -1 -11.5t-1 -10.5v-25q2 -2 2 -10q0 -7 -3.5 -25.5t-2.5 -23.5v-19q6 -2 17 -2.5t14 -1.5 q6 -2 20 -2q7 0 21.5 -1t21.5 -1q1 0 25.5 -2.5t26.5 0.5q28 9 47 6q3 -1 13 -2t15 -2q1 -3 4.5 -6t1.5 -10v-6q0 -15 -2 -17t-2 -8q0 -5 4 -21t2 -20q-5 -10 -22 -10h-33q-8 -1 -53 -0.5t-78.5 1t-40.5 -0.5q1 -14 -2 -42.5t-2 -43.5q0 -4 -1 -15t-1 -16l2 -76q-2 -2 -2 -8 t1.5 -17t2.5 -20t0 -12q-3 -12 -3 -27t1.5 -34t1.5 -29v-18q0 -10 1 -31t1 -31t-3 -31.5t-3 -33.5l2 -17v-6q0 -9 2 -9.5t12 -0.5h54q6 0 20 -1t21 -1l20 2q75 6 78 6q52 0 88 -8q10 -3 10 -35q0 -7 -1 -18t-1 -13q-1 -20 -6.5 -25.5t-24.5 -7.5q-22 0 -26 -6q-2 -2 -6 -2 q-2 0 -9.5 1.5t-9.5 0.5t-8 1.5t-10 -1.5q-6 -4 -39 -4q-12 2 -37 2q-17 0 -53 -2t-53 -2q-12 0 -34 -2t-32 -2q-7 0 -23 2t-24 2q-6 0 -20 -2q-10 -2 -18 -2h-5h-33q-12 0 -18 2q-6 0 -9 10q-1 4 -4 12.5t-4 12.5q-2 12 -2 37l2 37l2 37v34v9v6v18l2 37v47q0 9 -1 27.5 t-1 27.5q0 3 1 8t1 7q0 3 -1 9t-1 9q-5 26 0 33q2 4 2 18q0 10 -2 30t-2 24l-2 30q0 17 2 25v10q0 6 -3 25.5t-1 29.5l2 13q0 5 -1 15t-1 15v56q-2 1 -2 4.5z" />
<glyph unicode="F" horiz-adv-x="559" d="M49 397v45v8q-1 20 3 54q3 29 4 50q0 9 -1 15q-2 14 -2 35t2 49q0 1 -2 22t-2 38t4 20q3 2 1 17t1 18q2 2 2 8.5t-1 14t-1 8.5q0 34 2 37q4 3 1.5 24t-1.5 25v45q0 15 -2 44.5t-2 53.5t4 43q2 8 0.5 31t-0.5 31q2 22 1.5 43.5t-1.5 42.5q-1 15 -1 28q0 27 5 47q2 3 6 27 t3 25t1.5 8.5t4.5 7.5q6 2 22 4t17 2v-2q24 4 43.5 4t34.5 -4q12 -4 36 -4q6 0 19.5 -2.5t21.5 -1.5q20 2 59.5 2t57.5 2q6 2 24.5 2t48.5 -2q60 -4 70 -4q19 0 19 -47q0 -13 -4 -37q0 -10 -2 -14l-2 -5l-6 -6l-9 -4q0 2 -4 2q-3 2 -13 2.5t-13 -0.5q-10 -4 -30.5 -3 t-31.5 3q-2 1 -9 1q-18 0 -69 -5q-35 0 -53 2l-26 4q-2 -2 -2 -9t-1 -9q-1 -5 0.5 -25.5t-0.5 -21.5q-3 -3 -4.5 -38t2.5 -40q3 -6 2.5 -15.5t-2.5 -24t-2 -15.5q0 -11 1 -34t1 -34v-190q-1 -11 0.5 -15t5 -4.5t9 -0.5t14.5 -1q8 -2 27 -2q7 0 26 0.5t32.5 0.5t25.5 -3 q6 -2 22.5 -1.5t22.5 -2.5q4 -1 5.5 -3.5t1.5 -4.5t-0.5 -6.5t-0.5 -6.5q0 -5 -1.5 -16t-1.5 -19.5t3 -13.5q3 -8 -4.5 -12.5t-21 -5.5t-28.5 -1.5t-27 0t-17 -0.5q-9 -2 -29 -4t-29 -4q-3 -1 -11 0t-13.5 1.5t-10.5 -2t-6 -8.5q-1 -17 1 -49t1 -47q-2 -17 -0.5 -58.5 t0.5 -58.5v-59v-35q0 -4 -1 -15.5t-1 -21t2 -14.5v-33q1 -14 0.5 -52t1.5 -52q2 -15 4 -41t-2 -35q-3 -2 0 -27t0 -28q-1 -1 -1 -6t-1 -7q-1 -3 -2 -4t-2.5 -0.5t-3.5 1t-4 -0.5q-2 0 -5 -5t-7 -3q-1 3 -4 1.5t-4 -1.5q-4 -1 -17.5 1.5t-15.5 -1.5q-5 -4 -12.5 -4t-16.5 2 t-14 2q-7 -1 -19 -3t-22 -3h-10h-9t-14.5 3t-13.5 3h-4q-7 0 -10.5 0.5t-6.5 3t-2 8.5q0 1 2 6t2 7q1 14 1 31q0 34 -3 81q-1 28 -2.5 79.5t-2.5 93.5t-1 79z" />
<glyph unicode="G" horiz-adv-x="714" d="M51 502q1 11 3 33.5t3 41.5t0 35q-1 19 2 56t2 55v113q0 52 7 84q4 19 6 64.5t10 68.5q3 10 8.5 35.5t11.5 39.5q1 3 5 19t8 30t8 15t11 16.5t7 20.5q0 14 31 45q4 4 16 17.5t17 18l15 13.5t19.5 14.5t20.5 10.5q2 1 13 7t18 7q5 1 12 9t12 9q10 2 32 1t32 1h6.5h8.5 q8 -1 18.5 -3t15.5 -3q52 -5 113 -45q31 -21 35 -33q2 -7 12 -20.5t12 -20.5q23 -72 25 -102q1 -10 2 -29.5t2 -29.5q1 -12 6 -35.5t6 -36.5q-4 -4 -10.5 -6t-17 -3t-13.5 -1q-7 -1 -22 0t-23 0t-10.5 4t-9.5 4q2 14 2 100q0 63 -23 117q-32 64 -57 64q-4 0 -21.5 0.5 t-27 0.5t-22.5 -3.5t-21 -10.5q-6 -6 -23 -18t-25 -21q-22 -22 -22 -45q0 -7 -4 -21.5t-4 -21.5q0 -41 -2 -49q-1 -1 -2 -11t-2.5 -19t-3.5 -9q4 -8 4 -21.5t-2 -30t-2 -22.5q0 -48 -5 -61q-7 -25 -7 -75.5t-1 -61.5q0 -2 0.5 -27t-4.5 -26q-6 -4 -4.5 -29t0.5 -31 q-2 -8 -2 -59q0 -3 1.5 -19.5t0.5 -23.5q-9 -27 -2 -37q2 -4 2 -41q-2 -23 6 -61v-25q0 -2 1 -7t1 -7q-2 -1 -0.5 -10.5t0.5 -10.5q-3 -5 2.5 -26t3.5 -27q-3 -16 7 -41q1 -6 6 -30.5t10 -35.5q2 -5 3.5 -21.5t0.5 -17.5t12 -26q6 -18 21 -43q4 -6 28 -25q10 -8 34.5 -13 t31.5 5q0 1 6 3t12.5 5t8.5 6q2 2 5.5 5t6 5.5t5.5 5t5 6t4 7.5q12 28 19 70q1 5 16 57q12 47 12 73v7q-1 9 0 20.5t3 26.5t3 21q2 32 2 57t-2 41q-1 5 3 32t3 47.5t-12 20.5q-15 0 -40.5 -3t-32.5 -3h-11.5h-16.5t-16.5 0.5t-17.5 2.5t-13.5 5t-8.5 8q-4 6 -4 33 q0 24 10 51q1 2 20.5 2t44.5 -1t27 -1q17 -1 48 1.5t42 2.5q4 0 22 4.5t25 2.5q3 0 16.5 -6t16.5 -7q2 0 10.5 -3.5t9.5 -4.5q8 -9 5 -43t2 -45l-13 -2q2 -5 1.5 -9.5t-2 -12.5t-1.5 -11q1 -15 -0.5 -44t-1.5 -38q0 -28 -4 -86q0 -6 -1 -20.5t-1.5 -24t-3 -21t-6.5 -18.5 q-2 -4 -1.5 -15t-2.5 -13q-1 -2 -11 -41q-7 -31 -18 -56q-2 -5 -5 -15t-5 -15q-1 -1 -4.5 -10.5t-6.5 -17t-4 -7.5q-5 -2 -11 -11t-12 -21.5t-7 -14.5q-5 -11 -22.5 -30t-24.5 -19q1 -2 -3.5 -5.5t-12 -6.5t-14.5 -5.5t-13 -5t-7 -2.5q-39 -11 -90 -14h-3q-12 0 -32 8 q-22 8 -34 8q-17 0 -45 23q-43 34 -101 116q-26 39 -26 56q0 13 -9 26q-2 3 -5.5 14t-6.5 17q-3 5 -9 28.5t-11 45.5t-4 22q-3 0 -7 19.5t-4 23.5q0 2 -1 9t-1 8q1 2 -2.5 14t0.5 14q2 2 2 8.5t-1 14t-1 8.5q0 5 -2 16t-2 15z" />
<glyph unicode="H" horiz-adv-x="722" d="M66 84q0 3 -1 7q-1 11 1 23q2 18 2 23v6q0 19 4 68q1 14 0 43t0 45q8 92 8 179q0 60 -4 118q-6 99 -6 195q0 11 2.5 65.5t-0.5 63.5q-2 15 -1.5 43.5t-0.5 44.5v10q0 29 4 112q0 6 -2 48t-2 73.5t4 34.5q8 5 8 45q0 12 3 19.5t8 11t13.5 5t15.5 1.5t18.5 -1t17.5 -1 q2 0 35 1t34 -1q5 0 11 2q2 1 5 0q4 0 7 -2l14 -6h2q1 0 3 3.5t7 2.5q0 -1 3.5 -7.5t3.5 -8.5q1 -5 1 -16q0 -18 -3 -52q-2 -25 -3 -71.5t-2 -57.5q0 -4 2 -39.5t1 -42.5q0 -2 -1 -6.5t-1.5 -7t1.5 -4.5t7 -2q-3 -8 -3 -28t-1 -24q-4 -55 -7 -71q-3 -23 -3 -60q1 -14 1 -30 v-36q0 -33 -2 -54q-3 -10 -1.5 -16.5t12.5 -6.5h32q8 0 31.5 -1.5t36.5 -0.5q1 0 11 -1t16.5 -1.5t9.5 0.5q6 7 14 3.5t15.5 -3.5t7.5 12v58v135q-1 9 0.5 28.5t1.5 24.5q-3 60 -3 99q0 20 1 34q0 2 -1.5 21t-1 33.5t4.5 17.5q-7 28 -4 53v49q0 27 2 39q2 11 14 16.5 t14 10.5q24 2 42 2q25 0 40 -4q10 -3 34.5 -2.5t31.5 6.5q4 1 7 0t8 -4t7 -4q3 -1 10.5 -1.5t10.5 -1.5q1 -3 1 -10t1 -10q2 -4 2 -12q0 -9 -2 -23q-6 -26 -6 -31l6 5v-43q0 -2 -2 -7t-2 -8.5t4 -5.5v-6q0 -11 -2 -37q-2 -36 -4 -43q-3 -14 -4 -41t-4 -41q-2 -10 -2 -30.5 t-1 -26.5q0 -21 3 -39q0 -1 -1 -9t-2 -14t0 -8q5 -5 5 -47q-8 -46 -5 -53q1 -3 0 -10t-2 -9q-2 -3 -2 -45q-1 -5 -6 -75q0 -2 -1 -19t-1 -30t2 -15q2 -1 2.5 -8t0 -14t-1.5 -14l-1 -7q-3 -8 -3 -20.5t1.5 -27.5t1.5 -20v-67q2 -13 2 -52q-1 -10 -1 -20q0 -56 -0.5 -95.5 t1.5 -53.5q2 -4 0.5 -18t-0.5 -19q3 -4 0.5 -32t-2.5 -32q0 -7 -1 -18.5t-1 -21t2 -17.5q2 -12 -12 -31q-4 -5 -12.5 -6t-20 0t-16.5 0q-19 0 -43 -4q-5 -1 -16.5 -1t-16.5 -1q-2 0 -10 -6q-7 -5 -11 -4h-2l-10 4q-6 2 -13.5 8t-10.5 8q1 4 -4 19t-5 18v31q-3 9 -3 39.5 t3 32.5q-2 3 -2 7.5t1 10t1 8.5q0 6 -1.5 24.5t-0.5 28.5q7 79 7 140q0 19 1 56t1 54l3 41q2 41 2 67t-3 36q-7 4 -19 5t-26.5 0.5t-20.5 0.5q-10 1 -29.5 -0.5t-25.5 -1.5h-33q-34 0 -40 -7q-2 -2 1 -4q1 -2 0.5 -8t-1.5 -15.5t-1 -10.5q1 -6 2 -67.5t2 -68.5q2 -13 2 -71 q-1 -15 -0.5 -57t-1.5 -54q-1 -10 1.5 -30.5t2.5 -28.5l2 -68v-45q0 -3 2.5 -28t-0.5 -27q-1 -3 -1 -9t-1 -8q-3 -5 -8 -4.5t-10 -1.5q-8 -8 -14 2q-3 4 -8 3q-4 -1 -7 -1q-6 -1 -19 -1q-21 0 -61 3q-7 1 -21.5 -2.5t-21.5 0.5q-2 1 -8 2t-10.5 2t-5.5 3l-6 8q-7 5 0 33 q-4 5 -4 18z" />
<glyph unicode="I" horiz-adv-x="382" d="M85 95.5v16.5t0.5 15.5t0.5 9.5l2 103q0 8 1.5 26t1.5 32.5t-3 25.5q-2 4 -2.5 17t2.5 17q1 2 0.5 6.5t-1.5 11t-1 7.5v47q-1 32 -1 65q0 79 5 171q0 2 -0.5 17.5t-0.5 31v32.5t1.5 28t3.5 11q2 5 -2.5 32t2.5 32q2 2 1.5 16.5t0.5 18.5t1 14.5t1 15.5q1 6 0.5 21.5 t1.5 19.5v29v27q-2 6 -2 32t2 27q4 4 1.5 30.5t0.5 33.5v43q-2 4 -1.5 13t2 22.5t1.5 15.5q1 11 5 45.5t4 52.5q0 4 -2.5 11.5t-2 13.5t6.5 10q2 1 7 6t7 6q5 -3 15.5 -3.5t24.5 0.5t17 1h17q27 0 39 -2q8 -1 24.5 -6.5t26.5 -5.5q0 -2 4.5 -12.5t5.5 -10.5q3 -2 3 -9 q0 -2 1 -5q0 -6 -1 -13l-1 -10q1 -15 -0.5 -42.5t-1.5 -36.5q-1 42 -1 -1v-94q1 -120 1 -172q-1 -16 1 -64q1 -29 1 -50v-25l-8 -2v-19q1 -18 1 -54v-29q0 -34 -3 -45q-3 -18 -2 -58.5t-2 -60.5q-1 -5 -1 -15.5t-1 -15.5v-10q0 -6 -6 -6q0 -3 3 -7.5t3 -7.5q0 -1 -1.5 -21 t-2 -33.5t1.5 -18.5q3 -2 3 -13t-1.5 -25t-1.5 -16l-6 -22q4 -4 4.5 -11.5t-1 -17.5t-1.5 -12q-1 -5 -1.5 -21t-1.5 -24q-2 -9 0 -31.5t0 -32.5q-10 -35 -11 -74q0 -12 1 -24q1 -6 0.5 -25.5t1.5 -25.5q1 -4 -3 -8t-9 -7l-6 -4q-6 -8 -32 -10h-16q-14 0 -20 2 q-5 1 -6.5 -0.5t-7.5 -1.5q-31 0 -61 6q-1 4 -10.5 17.5t-8.5 23.5q-1 1 -2.5 6.5t-2 9.5t0.5 5q-2 1 -2.5 7t-0.5 14.5z" />
<glyph unicode="J" horiz-adv-x="518" d="M-12 213q0 11 3.5 34t8.5 23q41 10 53 -4q2 -3 8.5 -7t8.5 -7q3 -7 3.5 -8.5t-2 -7t-3.5 -9.5q-2 -8 -1.5 -38.5t5.5 -34.5l16 -48q-3 -3 7.5 -14.5t13.5 -11.5l14 -8q3 -3 13.5 -3.5t18 0t9.5 -0.5q0 -1 9 1t18 5.5t10 5.5t8.5 6t9.5 10q9 25 10 33q8 25 11 59 q7 40 4 50q-4 14 -5 29.5t-1.5 38.5t-1.5 32q-1 17 0 52.5t0 53.5v52q0 32 4 36v4q-3 35 0 35q-1 2 -0.5 15.5t1.5 29.5l1 15q3 3 1.5 15.5t-5.5 15.5t-4.5 15.5t1 29.5t1.5 18q1 11 2.5 31t2.5 36t1 31v47q0 66 -2 164q-2 137 -2 191q0 8 1 27.5t1 30.5t-2.5 26t-8.5 26 q-5 4 -0.5 15t4.5 14q0 7 85 10h45q47 0 61 -4q1 -1 8.5 -3.5t13.5 -5t7 -3.5q6 -12 16 -17q7 -4 8.5 -11.5t0 -18.5t-0.5 -15q3 -29 3 -48.5t-3 -28.5q-3 -13 -1 -38t-1 -36q-2 -9 0.5 -32.5t-0.5 -31.5q-3 -21 -3 -31.5t3 -36t4 -32.5q2 -27 3 -57.5t1.5 -66.5t1.5 -56 v-96l-4 -7q1 -15 -3.5 -42.5t-4.5 -41.5q0 -15 -7 -62q-3 -26 -3 -45q0 -15 2 -26q4 -32 4 -39q0 -8 -2.5 -29.5t-1.5 -31.5t-4 -57q-1 -3 -1 -15.5t-1.5 -24t-5.5 -14.5q-3 -2 -4.5 -9t-2.5 -15t-2 -10l-10 -35q-4 -22 -8 -31q-1 -2 -5.5 -9t-7.5 -13.5t-3 -10.5 q0 -7 -17 -41q-1 -2 -7.5 -11.5t-12 -17.5t-4.5 -10q-7 -6 -20 -20.5t-25.5 -23.5t-28.5 -11q-52 -8 -81 -10q-8 -1 -15 -1q-25 0 -58 6q-43 8 -75 32q-12 9 -23 23t-16.5 23.5t-15.5 29t-13 24.5q-5 14 -7 26.5t-2.5 31.5t-0.5 26zM434 287q2 0 2 2q-2 0 -2 -2z" />
<glyph unicode="K" horiz-adv-x="716" d="M35 68q2 32 2 34q-1 10 -1 22t0.5 27t0.5 23q0 6 -1 19t-1 20q2 18 2 55q0 1 -1 9t-1 15t2 9q2 1 2.5 7.5t0.5 15.5v17.5t-0.5 17t-0.5 10.5q1 16 1 42q0 31 -2 75q-1 30 -1 55q0 41 4 63q0 3 6 96q0 5 1.5 25t0.5 29q-1 10 4 27.5t6 23.5q1 9 -4 47q-4 58 -4 86 q0 37 4 111l8 129q1 7 -1 30.5t-1 42.5t7 27q4 4 4.5 31t-2.5 30q-7 5 2.5 14t15.5 9q4 0 12 1t11 1q17 -2 49 1t43 3q47 0 67 -6q4 -1 9.5 -8.5t4.5 -12.5q1 -6 -1 -21t-2 -20q0 -4 2 -13t1 -13q1 -7 0 -18.5t0 -18.5v-49q-9 -175 -8 -234q0 -20 -5 -58t-5 -56 q0 -9 -2 -29.5t-2 -30.5q0 -1 -1 -13.5t-1.5 -21t0.5 -10.5q4 2 8 8.5t8.5 17t4.5 11.5q1 2 6 10t8.5 15.5t3.5 11.5q1 13 19.5 38.5t19.5 37.5q1 13 16.5 37.5t18.5 33.5q6 17 39 76q10 18 21 56t16 51q7 16 22.5 45.5t22.5 44.5q4 10 21.5 42t23.5 50q10 29 24 39 q3 2 9.5 5t9.5 5h2q2 0 10 -2q10 -2 12 0q2 0 4 -3t6 -1h13q4 1 10.5 -3t9.5 1q2 2 5 0.5t6 -4.5l2 -2q2 0 -0.5 -6t-5.5 -12l-3 -5l-35 -65q-53 -97 -73 -158q-4 -13 -19 -40t-18 -44q-3 -19 -15 -45t-24 -39q-9 -11 -18 -39q-15 -46 -25 -53q-2 -2 -3.5 -5t-3.5 -8t-3 -8 q-9 -16 -4 -38l6 -35q1 -2 2.5 -10t3.5 -14.5t4 -8.5q6 -5 10 -15.5t6.5 -23.5t4.5 -18q12 -37 59 -160q7 -18 26 -56.5t27 -60.5q6 -18 24 -60.5t25 -64.5q1 -3 19 -45.5t20 -64.5q4 -4 8.5 -13t8.5 -20t6 -15q18 -37 22 -51l-20 -6q1 -5 8.5 -21t7.5 -26q-9 -3 -22 -2.5 t-25 -1.5q-4 -1 -8 -1q-13 0 -27 7q-18 9 -22 25q-8 29 -37 67q-13 19 -29 54q-14 33 -39 107.5t-43 113.5q-4 10 -14 31t-16 34.5t-13 32t-10 33.5q-4 16 -17.5 44.5t-15.5 33.5q-2 4 -11.5 33.5t-18.5 41.5q-4 -3 -23 -41q-3 -4 -7.5 -16.5t-8.5 -19.5q-10 -14 -27 -48 q-8 -18 -23 -41q0 -4 2 -23.5t1 -25.5q-5 -20 -5 -32q0 -5 1.5 -19t0.5 -22q-2 -18 -1 -52.5t-1 -52.5q-2 -23 -2.5 -40.5t2.5 -28.5q2 -9 2.5 -29.5t-2.5 -28.5q-6 -10 2 -57q3 -24 -6 -58q-10 -12 -17 -13.5t-22 1.5q-18 0 -22 -2q-24 -4 -39 -4q-9 -1 -33.5 2.5 t-32.5 1.5q-17 -6 -23 12q-4 13 -4 34q0 7 1 16z" />
<glyph unicode="L" horiz-adv-x="571" d="M49 1133v106v64q0 1 1 13.5t1 23t-2 12.5q-1 1 -1 2q0 4 8 10q11 8 18 10q4 1 8 1t6 -1q6 -2 11 -6.5t10 -5.5q7 -2 20 -1.5t21 -0.5q9 -1 34.5 -0.5t34.5 -1.5q6 -1 17 0.5t14 1.5q2 0 22 -4q3 -3 4 -12.5t1 -18t-0.5 -18.5t-0.5 -11q-1 -15 2 -42t3 -37q0 -1 -0.5 -61 t0.5 -60q1 -17 1 -39q0 -44 -3 -109q-1 -8 -5 -53q-3 -31 -3 -52q0 -9 1 -16q1 -10 -0.5 -30t-1.5 -27q0 -72 -6 -94q-8 -14 -2 -58t4 -61q-1 -11 -1 -27q0 -28 4 -70q4 -36 4 -62q0 -22 -3 -36q-2 -10 1.5 -24.5t2.5 -22.5q-1 -12 -1 -34t-1 -33q-1 -8 -1 -17t0.5 -20.5 t0.5 -17.5v-33q1 -2 0.5 -15.5t-2.5 -15.5q-7 -12 2 -16t23 -4q6 -1 65 -5q41 -3 68 -2h21q9 1 40.5 -1.5t40.5 1.5l15 -10q8 -26 8 -50q0 -13 -2 -26q0 -4 -5 -10.5t-9 -3.5q-1 4 -14.5 0t-16.5 -4l-105 6q-12 0 -25 -1t-29 -2.5t-25 -2.5h-14q-16 0 -42 1q-38 2 -59 1 q-55 0 -68 2l-15 3q-14 3 -23.5 5.5t-10.5 5.5q-8 18 -8 54q0 13 -4 36.5t-4 28.5l-2 25q0 2 -1 12.5t-1 19.5t2 13q2 1 2 23t-2 24q-4 2 -4 27q0 44 -2 67l-7 131v76q0 50 -4 68q-2 5 -2.5 30t2.5 29q2 2 2 41q-2 39 -2 115q1 36 1 73q0 110 -7 224z" />
<glyph unicode="M" horiz-adv-x="962" d="M51 162v8q0 10 1 22q2 20 1 27q0 2 1.5 9.5t2 12t-1.5 9.5v24q5 32 4 41q-3 10 -3.5 28t1.5 28v47q-1 16 -1 46.5t-1 45.5q-1 33 -1 56v19q0 25 3 74.5t4 75.5q0 3 -2 15.5t-2 22.5t4 13v41q0 11 2.5 34t2.5 34q0 21 3 62t3 61v108q0 9 -2 29t-2 36.5t4 27.5 q2 5 0.5 25.5t-0.5 27.5q0 4 -0.5 35.5t4.5 35.5q2 3 2 10.5t1.5 13.5t4.5 7q32 4 92 8q15 0 51 -4q23 0 23 11q2 2 4 2t4 -1q5 -2 9.5 -4.5t4.5 -1.5q1 0 2.5 -4.5t8.5 -5.5q6 -2 12 -10q5 -6 3.5 -12.5t0.5 -12.5q14 -28 8 -43q-1 -3 2 -6.5t1 -7.5q0 -2 9 -18 q3 -5 7.5 -22.5t1.5 -20.5q-1 -1 8.5 -35.5t11.5 -36.5q5 -4 12 -37q1 -2 3 -14t4 -21.5t4 -11.5q4 -4 7 -16t5.5 -26.5t3.5 -18.5q6 -19 14.5 -59t14.5 -60q7 -25 17 -74.5t13 -62.5l11 -46q1 -2 1.5 -7.5t2 -10t4.5 -6.5q2 -1 3.5 -10t2.5 -18t2 -9q6 -2 8.5 -28.5 t3.5 -28.5q4 -7 7.5 -22t5.5 -21q2 2 4.5 14t4.5 25.5t3 15.5q2 7 6 37t10 43q10 23 20 72.5t13 60.5q12 42 12 47q1 11 8 32.5t7 31.5q1 14 9.5 40.5t10.5 38.5q1 6 8.5 33.5t6.5 42.5v7q0 19 8 57q2 7 5 21.5t5 21.5q1 2 2 11.5t3 17t5 10.5q5 4 7.5 20.5t7.5 20.5 q1 1 3.5 16t2.5 18q1 3 1.5 13.5t2 18t4.5 9.5q4 3 8 17l2 10q9 3 12 12q1 0 7.5 3t11.5 5t6 0q2 -4 5.5 -6.5t9 -3t10 -1t11.5 0t9 0.5q25 0 61 -4l52 -4q7 -1 8.5 -6t-0.5 -10t0 -9l-2 -24q-1 -4 1.5 -16.5t-1.5 -16.5q2 -42 2 -72q0 -43 -4 -65q-1 -2 1 -15.5t-3 -15.5 q3 -3 4.5 -15t-0.5 -16q-1 -3 0.5 -9.5t1.5 -8.5q-8 -39 -2 -47q1 -1 1 -12v-22t1 -11q-2 -1 -2 -14.5t1 -30.5l1 -17v-125v-77q2 -23 2 -72v-59l-10 14q-2 -17 -2.5 -52.5t-1.5 -45.5l-2 -41q6 -15 4.5 -46.5t-4.5 -46.5q-4 -19 -4.5 -58.5t-0.5 -45.5q-1 -11 1 -61.5 t-3 -61.5q-8 -29 -2 -55q2 -10 -4 -27q0 -3 0.5 -6.5t1 -5t-0.5 -4t-5 -4.5l-4 -8q0 -1 -1 -1l-1 3q-3 7 -16 7.5t-32 -2.5t-24 -3q-78 0 -94 2q-17 0 -32 9q-5 4 -3 7q3 6 2.5 11t-2.5 15t-2 15q1 21 3 73q2 37 1 62v17q-1 14 -0.5 56t-1.5 56q-4 48 -4 90t4 76q2 20 2 62 q0 1 -1 15t-0.5 24t3.5 14q2 2 2 11t-1 20t-1 12q0 2 2.5 27t-0.5 26q-5 3 -1 28.5t4 28.5l4 68q0 7 3 35t2.5 35.5t-3.5 33.5q-4 -3 -8.5 -15.5t-8 -30.5t-4.5 -21q-11 -51 -20 -78q-13 -39 -17 -57q-1 -8 -8 -24t-8 -23q3 -3 -1 -17.5t-7 -19.5q-11 -27 -11 -31t-3.5 -26 t-4.5 -23q-4 -4 -9 -32.5t-5 -35.5q0 -10 -4.5 -29t-5.5 -24q-3 -15 -6.5 -30t-8.5 -33.5t-8 -30.5q-5 -20 -13 -62t-13 -63q-1 -2 -4.5 -10.5t-4.5 -10.5q-3 -4 -4 -12t-4 -12q-1 -16 -4 -34t-7.5 -40t-6.5 -33q-2 -14 -13 -32q-3 -4 -4 -15.5t-4 -15.5q-6 -7 -29.5 -4.5 t-29.5 10.5q-16 20 -29 78q-1 2 -2.5 17.5t-4 29t-5.5 16.5t-6.5 23.5t-3.5 25.5q0 6 -4 18l-5 15q0 39 -6 45q-3 3 -4.5 11t-2 17.5t-1.5 12.5q-1 7 -7 32t-7 38q-6 50 -21 96q-12 41 -32 127q-3 14 -11.5 36t-11.5 34q-5 23 -16 61q-1 3 -7.5 18t-10 26t-3.5 18 q0 6 -3.5 24t-6.5 19q-5 4 -6 23t-6 24q-6 -6 -6 -22t6 -42q2 -9 2.5 -26.5t1.5 -22.5q1 -11 1 -27q1 -20 -1 -46q-2 -34 -2 -55v-15q2 -9 2 -75v-81q-2 -143 -2 -156q0 -18 -4 -83t-4 -84q-1 0 -1 -27t-0.5 -57.5t-1.5 -36.5q-1 -12 -2.5 -17.5t-7 -12t-16.5 -9.5 q-21 -6 -41 -2q-20 0 -25 6q-3 4 -3.5 10t0.5 14.5t1 10.5q1 19 1 36q0 29 -3 54z" />
<glyph unicode="N" horiz-adv-x="753" d="M68 1212q4 85 4 114v9q3 3 7 10t6 9.5t7.5 4t13.5 -4.5q2 -1 12 3q8 3 13 3h2q49 -7 75 -7t28 7h4q15 0 36 -14q7 -4 25 -48q15 -31 40 -99.5t40 -100.5q9 -18 21 -52.5t18 -48.5q9 -19 14 -47q2 -8 9.5 -25.5t9.5 -25.5q13 -44 20 -61q29 -72 29 -84q0 -6 2 -10 q3 -8 7 -17.5t5 -11.5q2 -4 8 -13t9.5 -17t3.5 -13q1 -12 15.5 -36t14.5 -36h2q2 10 0.5 28.5t-4 42t-2.5 25.5q-1 18 -5.5 64t-4.5 71q0 7 -1.5 33t-0.5 39q3 41 3 68q0 14 -1 24v78q0 63 -2 76q-5 46 -2 59q2 13 0 37.5t0 36.5q1 7 -1 26.5t1.5 31.5t17.5 16q7 2 21 1 t20 1q11 4 20 4q19 0 23 -19q7 3 6 -33q-1 -8 -2 -23v-9q0 -8 -0.5 -59t4.5 -60q1 -7 -0.5 -21t-1.5 -18q0 -7 3 -18t4 -15q3 -17 3.5 -34.5t-0.5 -41.5t-1 -34q0 -12 1.5 -48.5t0.5 -56.5q-2 -29 -2 -58t2 -58q2 -38 2 -104v-48v-48q0 -67 2 -105q8 -125 8 -281 q0 -14 1 -42.5t1 -43.5l2 4q0 -1 1 -23q0 -11 0.5 -20t-0.5 -15q-1 -14 -5 -14q-11 0 -29.5 -2t-31 -2.5t-26.5 1.5t-25.5 10.5t-20.5 23.5q-35 62 -64 136t-60.5 165t-51.5 141q-41 100 -92 240q-35 102 -46 148q-2 9 -9 27.5t-9 27.5q-13 50 -22 65q-3 -8 -2.5 -29 t3.5 -54t3 -37l-2 -109q0 -22 3 -69t3 -72v-160q-2 -35 -2 -71t2 -72q0 -8 -2 -26t-2 -26v-43q-2 -10 -2.5 -29.5t2.5 -49.5q4 -50 4 -71v-7t-4.5 -23.5t0.5 -21.5q2 -7 2 -11t-6 -8t-10.5 -6.5t-11 -4.5t-7.5 -3q-4 -2 -15 -2q-8 0 -20 1q-28 3 -31 11q-8 20 -8 64 q-4 167 -4 223v18v9q0 29 -5 83.5t-5 84.5v10v12q0 21 -2 54t-2 53v12q2 50 2.5 143.5t1.5 122.5q0 25 -3 75t-3 76q0 11 1 32t1 38t-2 31q-2 11 -2 67z" />
<glyph unicode="O" horiz-adv-x="735" d="M36 511q0 6 -1 10q0 20 2 28q2 18 2 55q0 72 2 107q6 99 6 102v8q0 21 4 58t4 58v7q-3 26 4 55q4 25 9 37q6 12 6 27q-1 6 5.5 22.5t6.5 18.5q2 10 8 29.5t8 29.5q16 62 66 125q40 54 88 74q32 16 39 18q10 2 31 2l24 2h6l-6 -6q4 0 12.5 -1t12.5 -1q8 0 24 -4 q30 -5 35 -6q38 -13 39 -14q1 -2 13.5 -7t13.5 -6q4 -1 14.5 -8t11.5 -8q7 -2 26.5 -18.5t17.5 -22.5q0 -3 11 -17t15 -14q3 -6 9.5 -20.5t8.5 -18.5q3 -5 10 -25t13 -26q2 -1 4 -6t3.5 -11t2.5 -7q1 -4 2 -16.5t3.5 -23t6.5 -12.5q-2 -5 4 -37.5t9 -33.5q2 -1 4 -11.5 t3.5 -23.5t2.5 -16q5 -27 6.5 -54t2.5 -71t1 -54v-98q0 -2 0.5 -7.5t0.5 -11.5v-12t-1.5 -10.5t-3.5 -5.5l4 -25q0 -107 -20 -194q-2 -8 -3 -25.5t-3 -27.5q-3 -9 -7 -37q-1 -6 -5 -16t-5 -15q-15 -61 -39 -100q-1 -1 -9.5 -25.5t-18.5 -30.5q-11 -7 -12 -22q0 -5 -12 -17.5 t-13 -13.5q-35 -40 -43 -47q-9 -9 -15 -12q-3 -2 -9 -5.5t-9 -5.5l-4 -8q-57 -26 -110 -26q-39 0 -76 14q-13 3 -31 14l-14 8q-13 9 -21 16.5t-8 12.5q0 4 -17 23.5t-22 23.5q-3 2 -14 15.5t-11 17.5q-19 31 -35 68q-16 27 -16 34q0 5 -2.5 18.5t-5.5 14.5q-3 2 -4.5 10.5 t-2 18.5t-1.5 12q-14 41 -17 58q-12 59 -12 61q0 49 -4 53q-5 4 -5 32zM223 726q0 -11 1 -25.5t1 -20.5q0 -153 4 -231q4 -108 19 -162q1 -6 3 -18.5t3 -18.5l2 -21q0 -4 1 -11t1 -11q0 -3 5.5 -33t6.5 -33l11 -12l3 -6q4 -6 7 -10t10.5 -10.5t17.5 -12.5q8 -5 27 -10 q3 -1 8.5 -3t7.5 -3q2 -2 8 -2h2q4 0 7 2q26 7 43 30q8 10 13.5 22.5t8.5 22t5 25t2.5 23.5t1 26.5t0.5 24.5q6 165 6 172q0 205 -2 246q0 7 -1 23t-1 22q0 8 -1 24t-1 23q0 2 -1 11.5t-1.5 15t0.5 8.5q2 4 0.5 13t-3.5 22t-2 16q0 7 -1 21t-1 20q1 21 -1.5 58t-2.5 52v43 q0 1 1 19t0.5 32t-3.5 19t-3 16t1.5 24t1.5 17q0 15 -4 43q-1 4 -2.5 18.5t-3.5 21.5t-6.5 17t-11.5 15v4q-22 15 -46 15q-6 0 -12 -1q-30 -5 -53 -28q-7 -6 -16 -35q-4 -10 -7 -21.5t-5.5 -26t-4.5 -22.5q-2 -9 -4 -28t-4 -29q-2 -8 -4 -24.5t-4 -24.5q-1 -4 -1.5 -19 t-2.5 -22q-5 -14 -7 -46.5t-3 -39.5t-6 -31t-5.5 -33.5t0.5 -29.5q5 -17 5 -46.5t-5 -46.5q-2 -8 -2 -19z" />
<glyph unicode="P" d="M82 922q-1 19 -1 31q0 18 1 26q1 1 0.5 13t-0.5 22q0 3 -1 6q0 5 1 6q4 0 4 94l2 176q0 63 16 74q15 -1 63 -2.5t85 -2.5t45 -3q63 -10 74 -10q53 -8 121 -41q67 -38 71 -56q6 -5 13.5 -21t13.5 -22q-2 -3 4 -26t10 -27t8 -18t4 -21q0 -8 8 -52.5t9 -51.5l-2 4 q3 -17 3 -30q0 -17 -5 -25q-6 -15 -6 -74q0 -9 -4.5 -26.5t-4.5 -26.5q0 -8 -24 -80q-6 -36 -45 -103q-12 -22 -19 -33.5t-21 -26.5t-30 -24q-59 -34 -147 -51q-14 -2 -37 -2q-4 0 -6.5 -3t-3 -8t-1 -9.5t0 -11t0.5 -7.5q-5 -62 -5 -71q0 -40 3 -80q1 -11 -1.5 -46t1.5 -46 q4 -14 4 -84q0 -25 2 -39q4 -24 4 -41q8 -28 14 -37q2 -3 -1.5 -14.5t-6.5 -12.5q-8 -3 -27 -1t-26 -1q-18 -4 -24 -4q-1 0 -2 -1q-6 0 -22 3q-18 3 -26 4q-31 0 -59 8q-9 3 -11 10t-0.5 19.5t0.5 17.5q-4 28 -6 62t-1.5 59t1 65t0.5 60v148q0 8 -2.5 44.5t0.5 41.5 q2 6 2 29.5t-2 31.5q-3 11 -3.5 24.5t0.5 32t1 25.5v72q0 2 -2 61t-4 103zM281 644q0 -13 2 -17q2 -3 1 -9.5t1 -9.5q4 -2 28 -2h4q13 0 29 6q18 6 27 17q42 53 47 82l-2 2q25 121 25 212q0 16 -1 31q0 8 -2.5 52.5t-3.5 62.5t-5.5 50.5t-10.5 58.5q-10 35 -47 65 q-9 7 -45 16q-19 5 -28 5q-8 0 -9 -4q1 -5 1.5 -13t1.5 -27.5t-1 -23.5q-3 -12 2 -31q1 -9 -1.5 -22.5t-2.5 -20.5q1 -14 -2.5 -54t0.5 -54q1 -3 -1 -12.5t-1 -12.5q1 -4 1 -16.5t-1 -16.5q-3 -6 -3 -15.5t1.5 -21t1.5 -16.5q-4 -94 -4 -141v-70q0 -3 -1 -20t-1 -30z" />
<glyph unicode="Q" horiz-adv-x="733" d="M47 586q0 113 2 170q3 114 17 221q2 13 8 37t8 35q1 7 9.5 26t8.5 29q0 24 19 53q18 24 18 41q0 4 6 15t9 14q4 6 13 20.5t13 20.5q4 7 33 41q4 4 19.5 16.5t21.5 20.5q1 3 8 6t14 5t7 3q16 14 57 14l61 -2q56 0 64 -10q3 -1 14.5 -10t18.5 -9q2 0 18 -8q32 -21 41 -35 q9 -12 34 -45t38 -53q1 -2 3 -8t3 -8q2 -2 5 -10t5.5 -15.5t3.5 -7.5q11 -5 19 -47q15 -92 16 -113q0 -6 5 -37.5t9 -59t2 -28.5q-1 0 0 -31.5t2 -65.5l2 -34l13 -4q1 -8 1 -17t-1 -18q-1 -20 -3 -44l-3 -36q-1 -10 -7 -79.5t-6 -104.5q0 -150 -61 -252q-17 -28 -17 -39 q-2 0 -5.5 -4t-7.5 -9.5t-5 -6.5q-3 -4 -10 -11.5t-12 -14t-9 -11.5q-14 -21 -36.5 -39t-43.5 -24q-8 -3 -24.5 -9.5t-24.5 -9.5q-9 -4 -18 -5.5t-22.5 -3.5t-20.5 -3q-16 -3 -32 -3q-49 0 -91 31q-10 7 -20.5 16.5t-23.5 21.5t-19 18q-27 24 -46 55q-25 43 -38 92 q-2 7 -11 21.5t-10 23.5q-1 3 -1.5 15.5t-2 22.5t-4.5 13q-2 2 -2 17q-1 4 -4 17t-6 20q-5 14 -8 42t-7 40q-3 9 -4 19.5t-1 18t0.5 20t0.5 19.5q0 9 -1 27.5t-1 26.5zM192 -204.5q0 9.5 1 18.5q1 10 12 30t18 27q3 3 8 12t11 11q4 2 9 6t11 11t8 9q13 13 45 21 q13 2 36.5 -0.5t27.5 -10.5q2 -4 13.5 -6t15.5 -6t18.5 -8.5t19.5 -9.5q6 -6 22.5 -16.5t23.5 -10.5q4 0 15.5 -7.5t16.5 -8.5q9 -3 21 -11q4 -4 10 -6t13.5 -3.5t11.5 -2.5q12 -3 36 6t29 10q15 -10 17 -12h-7q4 -2 4.5 -6.5t-1 -11t-1.5 -8.5q-1 -6 -4 -12.5t-6 -10 t-8.5 -10t-7.5 -8.5q-18 -23 -28 -34t-27 -22.5t-37 -17.5q-14 -4 -28.5 -4t-26 2.5t-27.5 8.5t-24.5 10.5t-25 13.5t-22.5 12q-24 12 -51 24q-7 3 -18 12t-21.5 13t-22.5 0q-5 -2 -11.5 -9t-12.5 -9q-5 -2 -18 0.5t-17 1.5q-11 -1 -16 6t-5 16.5zM270 524q0 -2 2 -10t3 -13 t-1 -9q-1 -1 3 -35t6 -41q2 -11 2.5 -33t1.5 -29q0 -2 2 -13.5t3 -19.5t-1 -12q-2 -5 0 -29t4 -30q4 -22 16 -74q11 -42 25 -63q4 -7 22 -16t19 -15q5 0 17 -3q6 -2 12 -2q3 0 6 1q24 6 28 8q42 23 49 51q17 55 21 211l10 -2q0 6 2.5 17.5t1.5 17.5l-4 35q2 6 2 41 q0 3 0.5 9t0.5 11t-1 8q-2 11 -2.5 33t-1.5 29q-6 27 0 33q0 30 -2 32t-2 18t2 19q1 2 0.5 4.5t-1.5 7t-1 5.5q-2 20 -2 61l6 219q0 12 1 35t1 35q0 2 -1.5 13.5t-2 19.5t1.5 12q2 5 0.5 15.5t-4 25t-2.5 16.5q0 8 1.5 32.5t0.5 33.5q-11 71 -53 94q-2 1 -10.5 6t-15 7.5 t-13.5 2.5q-4 0 -9 -1t-11 -2.5t-9 -2.5q-12 -3 -24 0q-3 -3 -7.5 -12t-7.5 -12q-24 -49 -28 -72q-1 -5 -6.5 -24t-8.5 -34t0 -24q-3 -1 -5.5 -14.5t-4 -30t-2.5 -18.5q-7 -48 -10 -84q-1 -7 -3 -28t-2 -28t1 -26q3 -22 -4 -47q-1 -4 1.5 -21t-1.5 -20q-2 -3 -2 -12.5t1 -22 t1 -15.5q0 -49 -2 -51q-5 0 -4 -14t1 -16q-3 0 -2 -14l2 -15q0 -3 -3 -13t-3 -12q1 0 1.5 -2t0.5 -6t0.5 -8.5t0 -9.5t-0.5 -9.5v-7.5v-4q0 -5 -1 -18t-1 -19z" />
<glyph unicode="R" horiz-adv-x="698" d="M56 40q2 14 3 17q4 66 4 95q0 21 2 76q1 37 1 62v23l-3 70q0 2 2 17t3 24.5t-2 15.5q-4 0 -3 17.5t0 19.5q-3 10 -3.5 23.5t0.5 31t1 23.5q0 17 3.5 52t3.5 52q0 41 -2.5 122.5t-2.5 121.5q0 19 1.5 58t1.5 59q0 130 6 174q4 1 2 62.5t-2 62.5q0 2 -1 8.5t-1.5 12t0 11 t3.5 9t9 2.5t18 0.5t15 1.5q64 4 92 8q4 1 10 1q11 -1 29 -3q28 -4 41 -2q4 0 28 -6q9 -3 31 -4.5t33 -5.5q6 -3 19.5 -8.5t19.5 -8.5l12 -12q8 -6 25.5 -11.5t23.5 -8.5q27 -13 47 -37q4 -4 15 -19t10 -16q-2 -2 9.5 -19t23.5 -36t12 -23l6 -18q3 -5 7 -17t7 -18 q4 -9 5.5 -28.5t5.5 -29.5q3 -9 3 -27t1 -22q4 -46 3 -71q0 -36 -1 -50q-1 -2 -1.5 -18.5t-2.5 -31t-6 -17.5q-8 -7 -12.5 -33.5t-8.5 -32.5q-2 -3 -7 -13.5t-10.5 -19t-9.5 -12.5q-5 -4 -14.5 -17.5t-13.5 -17.5q-4 -5 -16 -20.5t-19 -22.5q-5 -10 -4.5 -16.5t5 -20.5 t5.5 -20q1 -8 3.5 -17.5t6 -21t4.5 -16.5q14 -65 27 -113l12 -45q1 -4 4.5 -13.5t5.5 -17t1 -12.5q-1 -7 2 -18.5t8 -25.5t6 -17l12 -56q2 -8 8.5 -21t8.5 -22q8 -42 18 -59q1 0 4 -9l6 -18t4 -10h-6q6 -4 6 -12.5t-6 -14.5l-6 -6l2 1v-3q-1 -3 -6 -3.5t-13 0.5l-7 1 q-7 0 -22 -2q-11 -2 -18 -2h-5l-33 4q-1 -2 -6 -2t-11.5 1t-7.5 1q-16 2 -22.5 6.5t-10.5 18.5q-3 7 -11 23t-11 26q-2 7 -15 41t-14 51q0 7 -4.5 18.5t-5.5 14.5q-2 5 -4.5 23t-5.5 26q-5 12 -9 36t-8 34q-3 9 -4.5 27.5t-3.5 25.5l-8 37q-3 16 -16 58t-15 65q-4 20 -14 37 q-5 -1 -18.5 -1t-20.5 -2q-3 -1 -8.5 0t-9 2t-6.5 -0.5t-3 -7.5q2 -21 -2 -63q-8 -70 -8 -105l4 -139q0 -7 1 -21.5t1 -21.5q0 -4 -2.5 -31.5t0.5 -33.5q2 -14 2 -27q0 -22 -6 -37q-3 -12 -1 -25.5t-0.5 -28t-12.5 -18.5q-18 -8 -41 -8.5t-50 2.5t-40 2q-5 -1 -15 -4 t-15.5 -3.5t-16.5 1.5q-10 4 -13 11q-2 4 -2 10q0 5 1 11zM266 649q2 -2 7 -2q3 -1 11 1q16 2 19 3q3 3 8.5 7t5.5 1q31 9 39 17q7 7 20 26.5t19 24.5t11 17.5t10 31t6 21.5q16 38 18 45q9 29 10.5 85t4.5 74l2 -2q2 12 2 28q0 29 -6 73q-3 50 -17 78q-7 14 -16.5 24.5 t-16 15.5t-23.5 15.5t-24 15.5q-8 4 -24 10.5t-21 8.5q-3 2 -13.5 4t-14.5 4q-4 0 -4 -47v-37q0 -26 -3 -29q5 -3 4 -30t-1 -31q2 -39 2 -117q5 -48 5 -80q0 -25 -3 -39q-2 -10 -1.5 -32.5t-0.5 -34.5q0 -27 -5 -45q-1 -2 0.5 -22.5t-2.5 -20.5q-6 -10 -5.5 -29t3.5 -27 q-6 0 -6 -6z" />
<glyph unicode="S" horiz-adv-x="696" d="M39 313v31l2 12l6 17q1 4 2 7.5t1.5 5.5t1 3t1.5 2q4 8 4 12q5 5 18 3t33 -6.5t21 -4.5q9 -1 11.5 -34t0.5 -48q-2 -12 -2 -39q1 -17 9.5 -50t9.5 -48q1 -26 31 -54t57 -36q5 -2 19 -8t22 -8t24 -2q22 0 68 12q23 5 47 21.5t33 35.5q7 14 15.5 39.5t4.5 32.5 q-1 1 -1.5 14t-1 27.5t-1.5 17.5q-2 8 -7 24.5t-7 24.5q-2 10 -10.5 23.5t-10.5 19.5q-13 62 -65 132q-25 30 -29 36q-28 46 -61 84q-6 7 -33 31.5t-35 42.5q-4 10 -14.5 21.5t-24 24t-18.5 18.5q-28 31 -47 65q-35 58 -52 123q-6 26 -6 113q0 37 15 67q8 20 8 41 q0 9 9.5 29.5t8.5 30.5q7 4 15 13t17.5 21.5t12.5 16.5q40 50 74 69q60 33 102 37q12 2 37 2h8q53 0 121 -20q18 -5 42 -21t34 -20q21 -11 31 -23q28 -42 28 -47q1 -6 9.5 -18.5t9.5 -18.5q6 -6 18 -47q9 -31 9 -50v-7q-2 -10 -2 -31v-12q0 -12 -3 -27q0 -20 -18 -20h-25 h-10q-43 0 -43 26q0 3 2.5 22.5t-0.5 22.5q-2 8 -5 33t-9 39q-15 34 -25 52t-30.5 41t-46.5 34q-3 2 -14.5 2.5t-14.5 3.5q-6 6 -33 6q-8 0 -20.5 -1t-14.5 -1q-11 -1 -29 -10.5t-26 -17.5q-2 -2 -9 -7t-12 -9.5t-6 -8.5q-1 -5 -11.5 -22.5t-10.5 -18.5q-3 -4 -6.5 -24 t-3.5 -23q-1 -4 -3.5 -14.5t-3.5 -14.5q-2 -8 -2 -24q0 -15 9 -51q15 -50 20 -58l12 -30q2 -4 8.5 -11.5t8.5 -11.5q4 -9 18 -27t21 -18q6 0 14 -8t16 -20t11 -15q31 -31 71 -78q2 -2 8.5 -7t11.5 -10t7 -9q2 -7 13.5 -18t13.5 -13q27 -33 30 -35q33 -32 57.5 -81.5 t34.5 -96.5q25 -105 26 -182q0 -63 -15 -115q-16 -58 -53 -108t-87 -74q-2 -1 -17.5 -7t-25.5 -11t-14 -9q-3 -3 -12 -5t-21 -3.5t-14 -1.5q-33 -8 -82 -8q-83 0 -172 77q-62 54 -72 109q-12 70 -12 90v6v19z" />
<glyph unicode="T" horiz-adv-x="569" d="M0 1350q1 3 2.5 4.5t4.5 3.5t5 4l23 10q2 0 10 -8h25q37 -4 57 -2q11 2 32.5 2.5t28.5 1.5h11q21 0 54 -2q43 -4 60 -4q77 0 154 6q4 0 16 -1.5t21 -1t14 4.5q4 3 7 -1.5t7 -4.5q10 1 13 -7.5t1 -19t-1 -20.5t8 -12v4l-2 6q4 -1 2 -6l2 -4h-2l-10 -17q-1 -1 -6.5 -3 t-11 -3t-5.5 0q-1 -3 -24 -4t-50 -1t-32 -1q-20 -4 -31 -4q-5 -53 -5 -170t-7 -180q-3 -22 -4 -47.5t-1 -57.5t-2 -49v-40.5v-57t1 -56.5t-1 -41q0 -21 -4 -99q-4 -71 -5 -96q1 -4 1 -6q0 -22 2 -100q2 -29 2 -82q0 -6 -1 -18.5t-1 -23t2 -17.5q2 -6 0.5 -23t-0.5 -22 q1 -3 1 -11t1 -10h2q-1 -2 -2 -10q-1 -6 -0.5 -9t2.5 -8.5t3 -8.5q1 -5 -4.5 -8.5t-14 -5.5t-17 -2.5t-18 -1.5t-12.5 -1h-8h-17q-18 2 -22 2l-31 2q-3 0 -13 -2q-7 -2 -12 -2h-3q-6 1 -10 5t-6 7.5t-3.5 10.5t-2 11t-1 13.5t-0.5 12.5q-3 34 0 63q1 7 -0.5 26.5t0.5 26.5 q3 9 3 22t-1.5 30t-1.5 24q0 19 -2 58.5t-2 60.5q0 69 -3.5 195t-4.5 167q0 53 -2 80q-1 12 -1 27q0 32 3 76q4 68 4 90q0 2 -1.5 15.5t-1.5 24.5t3 13l2 49q-3 2 -3.5 13.5t0.5 24l2 25t1 13.5q0 2 0.5 10t0.5 15.5t-0.5 16t-2 13.5t-4.5 6q-40 4 -58 4q-2 0 -18 -2 t-26 -2.5t-17 2.5q-7 7 -27 7q-8 0 -8.5 2t2 6t0.5 6q-6 21 -4 37q2 7 -2 19q-2 8 -3 13q0 3 1 5z" />
<glyph unicode="U" horiz-adv-x="694" d="M53 934q4 126 4 194q0 142 2 160l1 14q2 13 3 21t4 19t7 17t10 5q18 -1 51.5 0.5t42.5 1.5q1 0 39 -1t39 1h8q7 1 12 0.5t12 -1.5t10.5 -3.5t2.5 -7.5v-19q4 -38 2 -55q-1 -14 2 -43t2 -43l-4 -84q-4 -66 -4 -98q0 -14 3 -40t3 -40q0 -82 2 -98q2 -12 2 -97 q0 -4 -1 -26.5t-1 -26.5q2 -12 0.5 -43t-0.5 -43l4 -98q1 -36 11 -191q0 -3 2 -24.5t2 -34.5q0 -9 2 -18.5t4 -16.5t2 -8q0 -33 16 -55q12 -17 32.5 -29t45 -12t39.5 18q8 9 19 29.5t16 27.5q4 5 6 15t3 23t1 16l8 55q4 25 4 85t6 91q4 21 6 63t5 60q3 12 3 45v29 q-1 34 -1 54v19q1 23 1 62v42.5v42.5q0 39 1 62q4 57 4 74v6q0 6 -1 66t-1 63q4 29 4 54q0 17 -2 32q-4 22 -4 42q0 24 6 42l-4 14q-1 3 4 19q1 6 24.5 10t36.5 4l9 -2q17 0 26 -6q11 -10 19 -53q2 -5 2 -19t-2 -38q-4 -48 -4 -58q0 -13 -2 -54t-1 -63v-57q0 -4 1 -13.5 t1 -18t-2 -15.5q-4 -19 -3 -59.5t-3 -59.5q-5 -10 -3 -53t1 -53q-4 -36 -4 -52q0 -27 -3 -85t-3 -87q0 -117 -8 -174q-12 -87 -12 -92q0 -13 -10.5 -39t-12.5 -35q-2 -14 -10 -30t-10 -23q-5 -13 -17 -29t-22 -22q-11 -7 -48.5 -40.5t-64.5 -41.5q-34 -10 -64 -10 q-13 0 -26 2q-59 9 -88 29q-6 4 -26.5 16t-33.5 22t-22 23q-4 6 -21.5 28t-27.5 39.5t-11 34.5q0 11 -12 41q-6 15 -9 46t-5 40q-2 8 -9 34t-8.5 37t0.5 34q3 23 3 33t-3 34.5t-4 34.5q0 12 -0.5 30.5t0.5 43.5t1 43.5t-1 30.5q-1 17 -2 51t-2 51q-1 16 1.5 45t2.5 41 q0 14 -3 38t-3 38z" />
<glyph unicode="V" horiz-adv-x="655" d="M3 1317q-1 12 -1 19q0 9 2 10q3 9 13 15.5t20 6.5q11 -1 39 -0.5t39 -1.5q14 -2 31 0t35.5 0.5t23.5 -8.5q4 -6 4.5 -23.5t5.5 -21.5q6 -3 6 -21q5 -52 4 -63q-4 -31 2 -53q5 -22 9 -54q0 -4 1 -17t2 -21.5t3.5 -19.5t5.5 -17q7 -13 9.5 -43t4.5 -37q6 -37 12 -78 l25 -180q1 -9 4 -28t4 -28q4 -43 2 -63v-12q0 -33 13 -74q7 -22 10 -69.5t10 -69.5q4 0 17 50.5t16 65.5q1 2 2 12t3 17.5t5 9.5q4 3 6 16t2.5 27.5t1.5 16.5q4 22 27 144.5t39 186.5q14 54 29 154t20 127q11 58 20 92q0 1 2 10t3.5 16t4 13.5t5.5 7.5q1 10 0.5 16.5t0.5 11 t6 7.5t17 6q3 1 17 -0.5t25.5 -0.5t13.5 7q3 -2 13 -5t15 -9h-8q1 -8 1 -16q0 -28 -11 -56q-20 -50 -23 -104q-1 -26 -13.5 -77t-14.5 -62q-3 -17 -9.5 -50t-9.5 -49q-2 -12 -3.5 -41t-4.5 -45q-3 -14 -20 -85.5t-23 -110.5q-6 -43 -33 -170q-8 -39 -25.5 -117t-25.5 -117 q-2 -13 -6 -46t-8 -50q-25 -92 -27 -113q-4 -9 -2 -17t-1.5 -15t-16.5 -9h-2q-7 0 -18 5q-13 6 -21 6q-2 0 -24 -3t-42 -6q-15 -2 -19 -2h-1q1 3 -1.5 4t-6 1t-7.5 1t-6 3q-14 14 -18 24q-13 27 -15 33q-4 19 -8.5 41t-8.5 48.5t-7 41.5q-14 31 -14 104v7q0 38 -19 106 q-22 82 -22 137q0 50 -17 150q-6 42 -6 43q-2 41 -23 141q-3 18 -8 60.5t-10 64.5q-5 20 -10.5 73t-14.5 79q-3 6 -5 14.5t-4 19t-3 15.5q-2 10 -2 63q0 2 -3 29z" />
<glyph unicode="W" horiz-adv-x="921" d="M10 1219v8q0 15 2 39q4 32 2 51q-2 11 1 17.5t10 8t13.5 1.5t17.5 -1.5t16 -1.5q6 0 19.5 1t25.5 1t22 -2q15 -3 30 -3q20 0 38 5q7 2 11 -8.5t6 -26.5l1 -16q1 -4 4.5 -19.5t4.5 -24t-1 -19.5q-6 -15 1.5 -48.5t7.5 -35.5q1 -24 24 -318q1 -10 1 -34t1.5 -42.5 t5.5 -33.5q6 -23 7 -69.5t6 -65.5q5 -23 5 -46q0 -12 -1 -24q-1 -4 1.5 -14t2.5 -13q0 -27 2 -39q2 -9 2 -28.5t2 -28.5q2 -12 4 -37t4 -37q2 0 3 4.5t1.5 13t1 18t0.5 20.5v19v16v8q1 14 3.5 39t3.5 39q4 61 36 251q5 33 9 70.5t7.5 82.5t6.5 71q3 39 16 133q5 42 9 57 q2 8 4 24.5t4 24.5l14 74q1 3 2.5 18.5t3.5 29t4 15.5q1 1 4 2.5t4 2.5q8 10 56 0q4 -1 9 -2l7.5 -1.5t6 -1.5t5.5 -1.5t4.5 -2t3.5 -3t2.5 -4t2.5 -6t2 -7.5q1 -2 1.5 -12.5t1.5 -20t3 -10.5q3 -2 4.5 -11t2 -20t1.5 -14q0 -2 1 -7t1 -7q0 -23 3.5 -65t4.5 -56q1 -31 5 -63 t11.5 -77l10.5 -63q2 -15 12 -83t17 -105q4 -20 6.5 -62t7.5 -65q3 -16 8.5 -57.5t11.5 -63.5q1 -3 7 -66q2 -13 8 -41t8 -43q4 3 4 45q0 10 4.5 34t3.5 36v6q0 26 8 72q8 51 9 65q8 139 28 234q2 7 11 75t8 68q16 148 18 160q13 59 23 133q4 32 4 47q0 7 3 22t3 21 q0 5 2.5 11.5t6.5 13.5t5 10q-5 0 -11 -1l-5 -1l18 8q0 -4 -2 -6q13 0 23 -0.5t22 -2t17.5 -5t1.5 -9.5q4 -11 4 -35q0 -16 -2 -38t-5 -64t-5 -63q-5 -43 -16.5 -122t-14.5 -99q-2 -15 -8.5 -42t-8.5 -42q-12 -47 -2 -54l-14 -73q1 -3 -3.5 -27.5t-6.5 -28.5q-3 -7 -4 -16 t-1 -19.5t-1 -15.5t-4.5 -19t-3.5 -22q0 -6 2 -18.5t2 -18.5q-1 -10 -3 -21.5t-5.5 -24.5t-4.5 -19q-2 -14 -14.5 -60.5t-13.5 -72.5q-1 -29 -10.5 -86t-10.5 -84q0 -28 -4 -86q0 -6 -9 -30t-13 -24q-2 0 -8 -4.5t-13 -3.5q-4 -6 -25 -6.5t-48 2t-29 2.5q-25 0 -29 8l-2 4v7 l-6 18q-2 7 -7.5 20.5t-7.5 20.5q-3 13 -5 38.5t-5 37.5q-6 26 -12 77t-12 76q-22 106 -27 150q-1 3 -1.5 17.5t-2.5 26.5t-6 15q-2 2 -1.5 14t-0.5 17q-3 14 -7.5 41.5t-7.5 40.5q-5 20 -8.5 67t-9.5 70q-1 0 -2.5 -12.5t-3 -27t-2.5 -17.5q-5 -22 -10.5 -64.5t-6.5 -48.5 q-1 -9 -4 -41.5t-6 -48.5q-3 -10 -4 -20.5t-1 -22t-1 -18.5q0 -7 -4.5 -41.5t-3.5 -53.5v-5q1 -23 -7 -62q-8 -44 -10 -53q-1 -14 2 -39t3 -35q-1 -14 -9.5 -42.5t-9.5 -43.5q-6 -74 -35 -78q-14 -2 -42.5 0.5t-41.5 1.5q-1 0 -6 -4q-4 -3 -7 -2h-1q-8 2 -20 10 q-17 10 -21 39q-1 5 0 15.5t0 15.5q0 2 -6 8q-1 2 -5 52t-5 54q-4 27 -12.5 81t-12.5 81q-11 92 -14 105q-2 8 -4 26t-4 25t-6 35.5t-1 31.5q2 6 0.5 16.5t-4 25t-2.5 16.5q-4 59 -10 86q-6 25 -10.5 53t-8 62.5t-6.5 52.5q-16 112 -20 131q-6 25 -13 72t-10 63q-4 20 -8 66 z" />
<glyph unicode="X" horiz-adv-x="593" d="M-37 7q-2 3 -2.5 7t2.5 9q2 4 9 23t13.5 34t10.5 16q1 0 10.5 25.5t9.5 28.5q-1 8 9 21.5t12 18.5q3 15 18 54q32 77 43 114q68 201 95 277q6 18 8 20q-8 19 -15 43q-9 25 -20 72q-5 22 -18.5 65.5t-18.5 65.5q-24 102 -41 154q-6 24 -8 28q-2 3 -2.5 16.5t-3.5 16.5 t-11 25t-8 28q0 20 -22 64q-5 9 -8.5 29t-4.5 22q-1 3 -4.5 12.5t-3.5 12.5q0 1 1 9t1 9q-3 8 2.5 20t14.5 15q3 1 10.5 2t11.5 2h31q10 1 23 1q26 0 65 -3q3 0 9.5 0.5t11 1t10 -0.5t8.5 -3q9 -4 10 -11t-1 -13t1 -15q5 -12 9.5 -26.5t9 -33.5t6.5 -28q5 -19 13 -55.5 t13 -55.5q3 -11 10.5 -32.5t10.5 -34.5q1 -6 18 -62q0 -2 1.5 -11t3 -16.5t4.5 -15t6 -10.5q3 4 5.5 16t4.5 15l4 16t5.5 21t6.5 12q5 4 10 15t10.5 28.5t6.5 19.5q6 17 18 44.5t17 39.5l32 84q20 56 29 72q1 1 9 12l16 21q0 3 26.5 5.5t38.5 2.5q0 -2 3.5 -6.5t4.5 -5.5 l2 -15q0 -2 -3.5 -10t-4.5 -10q-2 -5 -5 -13.5t-5 -13.5q-3 -9 -11 -26.5t-11 -26.5l-21 -61q-18 -62 -27 -80q-4 -7 -12.5 -28.5t-15.5 -31.5q-6 -9 -13 -31t-10 -28q-6 -14 -21.5 -47.5t-23.5 -52.5q-4 -10 -6.5 -32.5t-5.5 -31.5q-1 -5 -5 -11.5t-4.5 -9t1.5 -12.5 q4 -10 8 -30t6 -27l21 -63q0 -14 11 -40.5t13 -37.5q10 -60 12 -66q17 -51 19 -55q1 -3 4 -20t6.5 -32t7.5 -18q5 -2 17 -51q2 -13 10 -35t10 -31l21 -75q26 -105 38 -148l3 -4q1 -3 4.5 -12t5.5 -17q1 -4 1 -7t-1 -5q-3 -10 -15 -14.5t-22.5 -4.5t-26.5 1.5t-20 1.5 q-10 0 -68 10q-6 1 -10 0.5t-8 1t-8 6.5l-15 23q-18 28 -24 57q-6 41 -35 117l-49 135q-18 47 -19 53q-1 4 -3 24.5t-5.5 38t-9.5 21.5q-2 -2 -6 -13l-4 -11q-4 -18 -17 -47q-11 -25 -25.5 -82t-27.5 -84q-11 -24 -20 -52q-3 -10 -14.5 -26.5t-14.5 -24.5t-12 -34 t-17.5 -44.5t-19.5 -33.5l-33 -31q-5 1 -15 0t-22.5 0t-23 3t-15.5 8z" />
<glyph unicode="Y" horiz-adv-x="634" d="M-1 1346q0 1 1 2q0 1 1.5 4t4.5 6q12 12 30 12q10 0 23 -4q19 2 39 2t41 -2q10 2 18 2q6 0 11 -1q11 -3 18 -19q8 -20 14 -43.5t12.5 -53.5t10.5 -45q7 -28 13 -55q8 -28 8 -39q8 -16 8 -35q0 -10 16 -82q8 -44 15 -65q8 -24 17.5 -68.5t14.5 -62.5q1 -5 3.5 -15.5 t3.5 -15.5l4 -16q5 -11 6 -11q4 -4 7 1t3 8l10 24q2 7 6.5 21.5t6.5 21.5q16 48 16 64q0 9 8 27t8 26q1 15 15.5 48t13.5 50q-1 15 12 41t15 37q2 10 7 27.5t7 23.5q10 57 16 62q4 6 8 15t7.5 19.5t5.5 14.5q2 6 5 17.5t6 21t7 16.5q0 11 8 23q3 -1 6 -1t7 0.5t6 0.5l24 4 q17 4 29 2q4 0 12 -4q7 -7 7 -21q0 -3 -1.5 -9t-1.5 -9l-4 -25q0 -12 -6 -12q-12 -39 -12 -43q-1 -13 -21 -62q-5 -13 -10 -37t-10 -36q-1 -2 -2.5 -13.5t-3.5 -21t-6 -10.5q-3 -7 -12 -36.5t-11 -33.5q-2 -6 -4 -19.5t-2 -15.5q-15 -52 -51.5 -149t-50.5 -142q0 -1 -2.5 -7 t-5 -11t-5.5 -6q1 -7 -6 -43q-1 -6 1 -22.5t1 -22.5q-3 -8 -3 -26.5t-1 -22.5q0 -23 -4 -27q-2 -2 -1.5 -27.5t-0.5 -29.5q-4 -19 -4.5 -44.5t1 -58.5t1.5 -47q0 -61 2 -74q2 -14 -1 -37t-1 -34q5 -22 0 -60q-1 -8 1 -24t1 -23q-1 -3 0 -5.5t-1 -4.5t-7 -2l-68 2h-86 q-8 0 -13 3t-8 6t-5.5 9.5t-3 10.5t-1.5 13.5t-2 12.5q-4 26 -5 58t-0.5 51.5t2 61t1.5 53.5q1 23 1 54q0 61 -3 156q0 11 1 33t1 33q0 2 -1.5 12t-0.5 15q2 15 1.5 22t-3.5 21t-4 20q0 10 -18 70q-15 46 -28.5 96.5t-29.5 116.5t-24 98q-3 12 -9.5 36.5t-9.5 37.5 q-1 7 -6 22t-8 28t-2 21q0 4 -5 21.5t-7 21.5q-7 7 -15 62q-1 3 -5.5 15t-7.5 23t-1 15q-1 1 -2.5 4.5t-1.5 4.5z" />
<glyph unicode="Z" horiz-adv-x="593" d="M-8 74q0 3 1 9l1.5 9t-0.5 6q-3 10 8 47q7 25 14 41q13 29 21 56q9 29 24.5 87t24.5 87q7 22 20.5 65t20.5 64l8 24q1 2 4 15t7 21.5t8 12.5q-5 13 8 42.5t14 35.5q3 25 19 69.5t20 63.5q6 27 16 56t23 64.5t20 54.5l21 61q1 3 6.5 25.5t11.5 29.5t11 23.5t6 19.5 q14 37 16 56q1 4 4 10.5t5.5 12t3.5 11t-2 8.5t-11 3l-78 -2q-126 -5 -139 -7q-5 -1 -28 0.5t-25 -2.5q-6 -3 -18 6.5t-15 8.5q5 21 0 26q-2 2 0 13t0 14q-2 8 -2 10t3.5 8.5t4.5 8.5q0 4 2 6.5t6 4t8.5 2.5t10.5 1h10.5h9.5h6q27 -2 54.5 -2t56.5 2q7 2 28 2q17 0 45 -2 q62 -2 74 -2q18 0 55 2t56 2h51l25 16h12q2 -2 2 -8q1 -5 3.5 -10.5t7 -11.5t6.5 -9q12 -18 12 -41q0 -59 -12 -63q-6 -2 -10.5 -15t-7 -31.5t-3.5 -21.5q-3 -11 -10 -33.5t-10 -33.5q-25 -86 -68 -176q-9 -19 -20 -54t-15 -45q-12 -29 -28 -94q-6 -23 -23.5 -65t-20.5 -52 q-2 -5 -11 -31.5t-13 -41.5q-2 -11 -10.5 -32t-10.5 -28q-17 -57 -18 -59q-9 -20 -23.5 -63.5t-23.5 -63.5q-7 -18 -19.5 -58t-19.5 -57q-3 -8 -7.5 -25.5t-9.5 -32t-10 -22.5q-1 -4 2.5 -6t9.5 -2.5t12 -0.5t14 0.5t12 0.5h63q23 0 68 3t67 3q52 0 68 -14q11 -8 11 -27.5 t-7 -31.5q-2 -6 -5 -9.5t-6 -5t-7 -2.5t-6.5 -1t-8 0.5t-8.5 0.5h-31q-39 -10 -43 -6q-11 5 -34.5 4.5t-37.5 -2.5q-53 -6 -104 -6h-18q-25 0 -71 -1q-20 -1 -36 -1q-40 0 -53 4q-21 3 -33 31q-7 12 -12 41z" />
<glyph unicode="[" horiz-adv-x="417" d="M89.5 682q-0.5 48 2.5 143q1 17 -1.5 52t-0.5 55q3 28 1.5 79t0.5 79q4 58 4 86q0 13 3 53t1 61q-2 12 -2 37q0 4 2.5 32t-0.5 30q-2 10 2 26t15 17t34 6.5t37 5.5q6 0 28.5 -1.5t33.5 -0.5q18 2 53 2q8 0 24.5 1.5t30.5 1.5t25 -3v-37q1 -6 -0.5 -14.5t-1.5 -12.5 q0 -10 -2 -18q-1 -4 -6.5 -7t-7.5 -5h-64q-3 0 -16 1.5t-19 0.5q-3 -1 -5 -2t-3.5 -1.5t-2.5 -2.5t-2 -3t-1 -3.5v-4v-5v-5.5q0 -7 -2 -22t-2 -21q-2 -39 2 -109.5t4 -95.5q0 -7 -2 -21.5t-2 -21.5v-71q-2 -6 -2 -14t1 -17t1 -14q0 -14 1.5 -60.5t0.5 -71.5 q-17 -296 -12 -417q0 -4 -1.5 -22t-0.5 -25q14 -76 6 -234q-2 -24 -0.5 -84t0.5 -84q-5 -84 -4 -102q33 0 49 2q6 1 28 4.5t33 3.5q5 0 12 -5t11 -5q1 3 5 -11l3 -10q8 -13 4 -41q-1 -13 -15 -10t-20 0q-6 -8 -24.5 -9.5t-34.5 0t-27 -0.5q-14 -3 -44 -2t-44 -2l-24 -6 q-6 2 -23 2q-5 0 -9 4t-5 4q-8 27 -11.5 58t-5.5 72.5t-4 59.5q-3 36 2 104.5t4 96.5q-2 45 -2 270q-1 47 -4.5 142t-4 143z" />
<glyph unicode="\" horiz-adv-x="819" d="M-39 1482q0 5 3.5 10.5t12.5 4.5l9 4q16 -1 46 -1t46 -1q42 0 50 -10q2 -3 -1 -6q-3 -4 4.5 -9.5t5.5 -9.5q-6 -8 10 -24q-1 -4 2 -11t6.5 -14.5t4.5 -9.5q18 -32 22 -45q9 -22 11 -33q1 -5 8.5 -19t7.5 -20q0 -7 7.5 -23.5t12.5 -23.5q2 -1 2 -13t2 -14q3 -3 6.5 -13.5 t6.5 -14.5q1 -1 8 -23l14 -35q4 -6 11.5 -34.5t15.5 -36.5q7 -8 12 -23t10 -35.5t7 -27.5l26 -74q5 -13 15.5 -39.5t15.5 -40.5q6 -16 22 -45t21 -45q11 -31 32.5 -95t32.5 -95q9 -23 39 -89.5t41 -105.5q1 -3 7 -16t10.5 -25.5t1.5 -17.5q5 -11 9.5 -23.5t10 -30t8.5 -26.5 q5 -13 25 -68t29 -78t27 -63t36 -70q4 -7 11.5 -22.5t11.5 -22.5q1 -1 6.5 -10.5t7.5 -11.5l10 -11q1 -3 3 -9.5t3.5 -11t4.5 -7.5q6 -7 -1 -11.5t-23 -5.5t-22 -1.5t-14 -0.5q-22 -2 -54.5 1.5t-37.5 15.5q-6 15 -25 44t-24 48q-5 14 -16.5 40.5t-14.5 33.5 q-14 30 -40.5 90.5t-39.5 91.5l-28 67q-21 42 -21 50q-1 19 -18 52t-19 40q-7 21 -49 123q-6 12 -19.5 48t-23.5 54t-22.5 57.5t-22.5 57.5q-2 3 -10 17t-12.5 24.5t-4.5 19.5q-14 20 -10 31q1 3 -1 6t-5 6l-4 4q-15 63 -19 74q-2 4 -12 24.5t-12 32.5q-1 8 -8 24t-8 21 l-13 37q-1 3 -8 17.5t-8 23.5q0 5 -7.5 17.5t-7.5 13.5q-1 4 -4 10t-4 10q-2 6 -6 17t-7 20t-5 17q-4 14 -17.5 40t-17.5 40q-20 79 -27 81l-20 43q1 4 -11 33t-14 29q-3 1 -6.5 10.5t-3.5 11.5q-2 9 -2 14z" />
<glyph unicode="]" horiz-adv-x="417" d="M12 1427q5 5 15.5 7.5t24.5 3.5t20 2q16 7 80.5 6t80.5 0q15 0 42 -4t28 -12q-1 -4 4 -26.5t2 -25.5q4 -1 4 -92q-3 -30 1.5 -85t4.5 -73q0 -20 -1 -58t-1 -58q0 -126 -6 -252l-4 -23q-8 -42 -2 -71q5 -17 1.5 -59.5t-1.5 -59.5q7 -86 4 -156q0 -3 3.5 -31.5t-1.5 -29.5 q-2 -5 -2 -13t1 -17t1 -13l-6 -187q-4 -78 -4 -116q0 -14 8.5 -62t1.5 -74q-2 -6 -2 -14.5t1 -18.5t1 -14q0 -10 -4 -26q0 -1 2.5 -6t-0.5 -7h-7t-5.5 2t-5.5 3q-5 1 -13 -2.5t-14 -2.5q-10 2 -31 -2q-10 -2 -34 2t-33 2h-31l-27 -2q-26 -1 -26 2q-10 2 -29 -2q-3 0 -4.5 4 t-3.5 5q0 2 -4.5 8.5t-5.5 9.5v18q0 2 -2 6t-2 8.5t4 8.5q6 7 13.5 8.5t19 -0.5t16.5 -2t23.5 -3t27.5 -1q8 2 33 2q1 9 -1.5 28t-2.5 25q0 3 1.5 13.5t1.5 19t-3 12.5q-4 6 -4.5 21.5t1 36t1.5 24.5q-1 30 -1 93.5t-1 95.5q-7 234 0 393q0 3 -2 47t-2 77.5t4 33.5 q0 6 -1 17t-1 20l2 65q0 7 -1 23.5t-1 29t2 21.5q4 16 4.5 33.5t-1 41.5t-1.5 35l6 111q1 29 -2.5 92.5t-1.5 97.5v5q1 4 1 7t-2.5 4.5t-6.5 0.5h-41h-2q-2 1 -4.5 1t-5 0.5t-5.5 0.5h-5t-3.5 -1t-1.5 -3q-7 -1 -21.5 -2t-21.5 -2q-19 -3 -27 14q-10 23 -6 61z" />
<glyph unicode="^" d="M26.5 652.5q1.5 5.5 6.5 16.5t6 15q12 42 12 55l19 43q-1 0 3 10t8.5 21t4.5 14q1 14 6 30.5t14 39t11 29.5q19 52 26 80q2 10 6.5 22t11 25.5t9.5 19.5q4 11 11.5 29t13.5 32.5t10 28.5q26 90 51 152q2 4 6.5 20t7 21.5t11 13.5t20.5 12q4 1 15.5 -2.5t15.5 -3.5 q6 0 18 -1t17 -1q6 0 14 -4q3 -2 11.5 -2t13.5 -2q12 -33 14 -41q1 -9 9 -31t9 -32q1 -19 16.5 -53t16.5 -50q0 -9 8.5 -26l9.5 -19q14 -43 11 -49q-2 -4 0 -11t5.5 -15.5t4.5 -10.5q3 -12 11 -34t11 -33q12 -33 17 -54q1 -5 8.5 -19t7.5 -20q0 -8 8.5 -26.5t8.5 -26.5 q0 -2 5.5 -12t9.5 -19t1 -12q-3 -4 9.5 -20.5t27.5 -33.5t16 -20v-6q6 -16 -12 -30q-4 -4 -9.5 -5.5t-12.5 -3t-11 -2.5q-1 0 -6 -0.5t-9 -1t-8 0.5t-5 3q-1 6 -13.5 16t-15.5 13q-9 11 -62 92q-23 37 -30 49l-11 16q-12 16 -12 23q0 4 -10 24.5t-12 20.5q-5 1 -16 28.5 t-11 33.5q0 8 -9.5 24t-10.5 17q-7 16 -18.5 46t-18.5 46q-6 -5 -11.5 -29.5t-7.5 -28.5q-2 -3 -5.5 -10.5t-7 -12.5t-7.5 -9q1 -5 -2 -11.5t-7.5 -13.5t-5.5 -10q-10 -19 -14 -25q0 -1 -3.5 -9t-6.5 -15t-6 -8t-7.5 -9t-9.5 -18l-6 -12q-3 -4 -8.5 -18.5t-11.5 -18.5 q-8 -7 -18 -35t-23 -33q-2 -12 -19 -35q-1 -2 -6 -10t-8.5 -15t-3.5 -11q0 -9 -33 -50q-21 -27 -43 -22q-13 2 -17.5 8t-3 11.5z" />
<glyph unicode="_" horiz-adv-x="1024" d="M8 -234.5q0 7.5 2 17t2 12.5v37q0 4 -3 17.5t1 17.5q4 0 12.5 3t12.5 3q19 0 59 -4q98 -4 148 -4q176 0 262 -8q116 -11 262 -4q11 1 129 -5q43 0 66 -4q32 0 36 -8l-2 8q14 -20 19 -46.5t-6 -49.5q-1 -1 -2 -5.5t-3 -8t-6 -2.5q-7 2 -14 0.5t-12 -0.5q-4 1 -35.5 -4 t-32.5 2q-4 1 -14 0.5t-24.5 -1.5t-16.5 -1l-86 2q-107 5 -137 2q-12 -2 -33 -2q-2 0 -12.5 1t-17.5 1.5t-11 -0.5q-2 -2 -35 -2q-3 0 -16.5 1.5t-18.5 0.5q-23 -8 -104 -8h-90h-103q-14 -1 -46 2.5t-50 1.5q-8 -1 -16 0t-18 3l-15 3q-6 1 -10.5 4t-9 8t-7.5 8q-4 4 -4 11.5 z" />
<glyph unicode="`" horiz-adv-x="2048" />
<glyph unicode="a" horiz-adv-x="628" d="M20 27l7 57l4 44t6 52q2 13 4 39.5t4 38.5q14 63 14 90q0 24 15 101q4 23 10 68t10 67q2 9 2.5 27.5t1.5 23.5q1 6 6 25.5t5 29.5q0 48 8 72q3 7 3.5 23t2.5 22q4 8 4 22q0 17 4 33q2 8 3 27.5t3 28.5q3 18 7.5 54t7.5 54q3 16 8 47.5t8 46.5q11 55 12 66q1 13 6.5 36.5 t6.5 30.5q1 4 3 14.5t3 18.5t0 14q0 15 6 27q5 24 14 33q1 2 47 8q10 2 58 2l-17 -2q1 0 15 1t20 1l29 -2q6 0 16 -10q2 -2 2.5 -7.5t1.5 -7.5q6 -12 6 -20q-2 -11 2 -31q2 -10 8.5 -39.5t8.5 -48.5q2 -17 5.5 -60t8.5 -67q12 -75 12 -84t5.5 -30t5.5 -31q1 -13 4 -27.5 t7.5 -33t6.5 -27.5q11 -46 21 -107q15 -93 16 -110q0 -9 8 -37q8 -32 8 -47q0 -16 6 -37l13 -70q0 -2 3 -26.5t9 -34.5q2 -4 1.5 -18t0.5 -21q4 -18 12 -72q9 -56 9 -76q1 -7 4.5 -21t5.5 -26t2 -26q0 -15 6 -39q8 -28 9 -37q1 -23 -11 -31t-41 -10q-43 -4 -59 -4h-5 q-9 1 -25 0h-12h-16q-12 2 -20 8q-5 4 -7 8.5t-2.5 10t-1 19.5t-2.5 28q-6 48 -6 57q-4 4 -4 25l-2 22q0 8 -1 24t-1 25t-4 37q0 18 -10 25q-4 3 -12.5 3.5t-22 -0.5t-16.5 -1q-5 0 -18.5 1t-18.5 1t-22.5 -2t-22.5 -2q-62 4 -82 4q-13 4 -20.5 -1t-4.5 -22l-4 -35 q0 -37 -2 -47q-2 -13 -12 -141q-1 0 -1.5 -5.5t-2 -11.5t-4.5 -8q0 -5 -5 -10q-7 -3 -10 0q-15 -10 -37 -10q-12 0 -14 4q-5 5 -12 2q-2 4 -5.5 8t-5 7.5t-0.5 9.5zM150 428q9 0 27 0.5t33.5 0.5t31.5 -1q53 -3 82 -3q17 0 26 1q1 3 1 8q1 8 -3 24q-6 24 -6 36q0 3 -5 34 t-5 45q-2 18 -6 39t-7.5 34t-7.5 26l-4 14q-1 6 -4 44t-4 44q-1 4 -9 29.5t-9 34.5l-11 57q-1 9 -6.5 25t-7.5 24t-2.5 26t-1.5 23q-2 4 -2 29v2v16q0 2 -0.5 1.5t-1.5 -2.5q-2 -8 -2 -17l-4 -35q-1 -8 -9.5 -43.5t-9.5 -40.5q-2 -15 -8 -43t-8 -43q-3 -36 -8 -69l-3 -12 q-3 -11 -3 -17t-2.5 -16.5t-2.5 -16.5t-3.5 -26t-4.5 -29q-4 -24 -4 -37q0 -7 -3 -20t-3 -19q-2 -8 -4 -24.5t-4 -22.5q-12 -35 -12 -80z" />
<glyph unicode="b" d="M49 43l4 16t2 11q-5 11 -5 27q0 19 7 44q-4 36 -4.5 71.5t4.5 70.5q-3 14 -3 31q0 22 5 51q-3 15 -6 59.5t0 58.5q-2 29 -2.5 32.5t2 34t2.5 32.5q-2 13 -2 25q0 25 8 48q1 11 1 25q0 28 -5 68q-3 34 -3 60q0 34 5 58q-4 18 -4 41q0 33 8 76q0 9 -3.5 36.5t1.5 33.5 q0 7 -1 17t-1.5 14.5t0.5 9.5q-1 11 0.5 29t1.5 20q-6 9 2 26q-6 3 -4 31.5t2 32.5q-5 37 0 51q-9 21 -11.5 44t7.5 34q6 0 16.5 1t16.5 1q21 0 27 -4q4 2 37 2q8 0 22 1t25 1t20 -2q10 3 23 3q17 0 41 -5q42 -10 80 -10q11 0 23.5 -3.5t21 -6.5t23.5 -10.5t19.5 -10.5 t21 -13.5t18.5 -11.5q11 -6 29 -23.5t18 -25.5q0 -4 16 -20q3 -5 9 -15.5t9 -15.5q1 -1 3 -7t4 -10.5t4 -5.5q4 -4 8 -21t6 -22q6 -11 12 -69q2 -20 2 -49.5t-2 -69.5l8 10q0 -4 -2.5 -9.5t-3.5 -8.5q-1 -4 -1 -11.5t-1 -11.5l-14 -53q-1 -4 -3.5 -15.5t-4 -16.5t-4.5 -14.5 t-5.5 -15.5t-7 -13.5t-10.5 -14.5q-59 -68 -112 -70q-16 -2 -15 -9q1 -5 8 -5q2 0 11 -1.5l12 -2t11 -2.5t11.5 -4t8.5 -5t8 -7.5t4 -10.5q1 -1 7 -3.5t10.5 -5.5t11 -9.5t10.5 -14.5q0 -1 12 -8t13 -18q1 -15 10.5 -36.5t11.5 -31.5l4.5 -13.5t4.5 -16t-1 -13.5 q-2 -3 -1 -7.5t3 -12t2 -10.5q0 -27 10 -52q-6 -13 0 -39q2 -11 2 -20q0 -15 -6 -25q4 -16 -4 -57q-4 -24 -6 -27q2 -9 -8 -24q-4 -55 -35 -86q-7 -20 -22 -35.5t-29 -20.5q-4 -3 -15.5 -13t-15.5 -13q-20 -14 -37 -14q-6 -10 -23 -15.5t-30 -3.5q-36 -9 -77 -9q-24 0 -50 3 q-29 -3 -61 -3q-20 0 -41 1q-16 -5 -30 -5t-28 5q-4 0 -12 2t-12 2q-7 -1 -12 4t-5 10q-7 -1 -10 3q-3 3 -3 9q0 7 3 17zM256 213v-19q0 -21 1 -52t1 -52v-18q6 0 18 -0.5t19.5 -0.5t17.5 1t17 4q6 2 15.5 11.5t14.5 10.5q8 3 20.5 26t16.5 36q23 81 23 194h2q0 13 -1 40 t-1 42q-1 22 -0.5 40t-1.5 39.5t-8 37.5q-27 69 -70 76q-9 1 -26.5 1t-26.5 1q-15 1 -19 -2t-4 -17l-2 -41q-1 -28 -1 -75v-52.5v-52.5q0 -48 -1 -76zM266 721q2 0 16 -3q8 -2 14 -2q4 0 7 1q24 8 41 8q13 1 30 21t25 36q20 37 27.5 76.5t9 95t4.5 78.5l-2 -2q2 32 1.5 49.5 t-3.5 52t-4 50.5q-3 43 -43 71q-9 7 -27.5 15t-25.5 12q-10 5 -36 10q-11 2 -18 2q-10 0 -12 -4l-6 -198q0 -16 1 -48t1 -47v-73q0 -2 0.5 -9t0.5 -15v-16.5t-0.5 -14.5t-2.5 -7v-35v-49l-2 -16q-2 -12 -2 -23q0 -16 6 -16z" />
<glyph unicode="c" horiz-adv-x="649" d="M43 621v39q0 196 27 360q22 124 49 172q13 44 35 63q9 22 22 35q10 25 38 48.5t54 31.5q40 12 68 12l2 2q57 0 88 -2q32 -2 86 -41l8 -3q7 -2 14.5 -6t10.5 -9q4 6 12 -11q2 -3 2 -5q5 0 8.5 -2t7 -7.5t5.5 -7.5q-1 -5 4.5 -13t5.5 -9q3 -8 9 -20.5t9.5 -23t3.5 -22.5 q0 -3 6 -45q0 -3 2.5 -16.5t1.5 -18.5q4 -8 3 -41q0 -11 4 -27t2 -36q-4 -4 -18 -4t-31 2t-19 2h-14q-3 0 -7.5 2t-6.5 2q-13 0 -17 18q-3 11 -8 66q-4 65 -12 98q-6 28 -24.5 50.5t-43.5 33.5q-17 8 -34 8q-16 0 -30 -6q-32 -12 -44 -41q-9 -18 -9 -63q0 -33 -2 -45 q-6 -23 -6 -54q0 -8 -1 -18.5t-2.5 -24.5t-2.5 -22q-1 -4 -1 -10t0.5 -11.5t0.5 -7.5q0 -45 -2 -51q-5 -23 -5 -70q0 -24 1 -53v-13q-1 -24 -3 -60q-4 -48 -3 -68q0 -7 -4 -19l-2 -14q0 -28 -2 -33q4 -5 4 -59q-2 -22 -2 -38.5t2 -27.5q2 -8 -2 -24v-19l2 -12q2 -6 2 -18 q0 -11 -4 -31q-5 -25 -5 -31q0 -26 3.5 -56.5t7.5 -33.5q-9 -6 4 -57q2 -20 18 -47q11 -22 19.5 -34.5t23.5 -25.5t33 -18q33 -8 56.5 16t33.5 56q2 8 17 38q4 10 8 30.5t6 27.5q4 9 8 35q1 6 2 17.5t2 16.5q0 3 -0.5 20.5t2 28.5t10.5 11q18 2 39.5 -1t28.5 -3q2 0 8.5 0.5 t11 0.5t10 -1t8 -4t1.5 -9l-6 -36q2 -10 -4 -30t-5 -24q0 -6 -12 -45q-6 -24 -8 -28q-3 -6 -8 -23.5t-8 -23.5q-7 -16 -28 -44.5t-26 -37.5q-13 -23 -73 -48q-24 -12 -62 -22q-6 -2 -37 -2h-49q-9 -1 -17 -1q-58 0 -110 58q-91 101 -110 242q-14 30 -19.5 59t-6.5 73t-1 50 q-4 49 -4 144z" />
<glyph unicode="d" horiz-adv-x="733" d="M68 154q-2 34 -2 79q0 90 8 224q5 88 5 164q0 33 -1 63v22q0 30 2 76q2 64 2 86q-3 125 -3 195q0 42 1 65q1 15 1 38.5t-1 56t-1 56.5t1 40q0 41 6 47q4 0 15.5 -1t15.5 -1q7 0 22 1t21 1l51 -4q6 0 17 3t16 3q4 0 11 -3t11 -3h21q41 -6 45 -8q3 -2 35 -8.5t34 -12.5 q1 -5 21 -9t22 -5q4 -3 18.5 -8.5t18.5 -10.5q3 -4 16.5 -11t18.5 -7q12 0 35 -39q5 -7 13.5 -17.5t13.5 -17.5q24 -32 47 -80q22 -48 28 -84q3 -16 11.5 -45t11.5 -45q3 -15 4.5 -44.5t3.5 -39.5l-4 9q4 -6 1 -56t-3 -55t-3.5 -19.5t-2.5 -21.5q4 -15 4 -63q0 -12 -2 -33 t-2 -33q0 -1 1 -13t1 -22t-2 -12q-4 -4 -4 -23t-4 -65q-1 -10 -8 -42t-7 -50v-6q0 -7 -4 -19q-3 -8 -4 -22.5t-4 -22.5q-15 -41 -16 -47q-3 -19 -19 -49.5t-20 -40.5q-2 -6 -17 -31q-3 -4 -10 -11t-10 -11q-18 -27 -25 -29q-6 -1 -20 -14t-17 -15q-21 -12 -45 -18 q-9 -2 -55 -14.5t-72 -16.5q-10 0 -30.5 -2t-30.5 -2l-51 -2q-10 0 -31 1t-31 1q-43 0 -51 4q-6 3 -9 14.5t-1 18.5q-2 1 -3.5 6t-1.5 11.5v13t0.5 13t0.5 7.5q0 20 -4 66zM242 256v-9q0 -10 1 -22q1 -18 1 -22q0 -39 2 -39q2 -3 2.5 -21.5t-0.5 -21.5q-4 -8 2 -25 q3 -12 26 -12q9 0 21 2q33 4 55 12q4 2 9 6.5t10 11t8 9.5q30 25 33 49q1 7 14 39q27 69 27 127q0 28 6 88t6 90q0 21 -2 61t-2 72.5t4 59.5q3 17 3 43q0 21 -2 48t-2 48q0 26 3 41l-2 4q1 8 1 26t1 27q3 29 3 50q0 11 -1 20l-6 55q-4 28 -4 43q0 4 -2 13t-2 12 q2 24 -9 52.5t-28 41.5q-1 1 -11.5 11t-20.5 19t-21 14.5t-17 0.5q-6 -6 -45 8q-21 7 -31 8q-10 0 -12 -6q0 -48 2 -139t2 -135q0 -66 -6 -127q-2 -20 -2 -64q0 -4 -2.5 -18.5t-1.5 -18.5q2 -5 2 -18q0 -19 -4 -55q0 -20 2 -23q-3 -3 -3.5 -20t1.5 -21t-0.5 -28t2.5 -25 q4 -3 -0.5 -27t0.5 -28q1 -2 0.5 -7.5t-1.5 -13.5l-1 -8q-2 -9 -2 -20t1 -25t1 -20q-2 -10 -2 -41l-2 -86v-43q-4 -9 -4 -23z" />
<glyph unicode="e" horiz-adv-x="659" d="M49 719.5q0 3.5 1 8t1 5.5l-2 19q0 12 2 18l2 8l2 17q0 7 -1 21.5t-1 21.5q0 8 -1 24.5t-1 24.5q0 21 2 31q2 18 2 57q0 10 1 30.5t1 30.5l-2 23v14q0 27 4 51q2 8 1.5 23t0.5 24q1 7 -1.5 30t1.5 30q2 6 2 24q0 7 -1 21t-1 18v21q0 14 7 28q1 2 2 5.5t1 6t2.5 4t6.5 1.5 t16 4q8 2 25 2q8 0 24 -1t23 -1l65 2q11 0 33 -2t33 -2q15 0 47 3t47 3q13 0 39 -1t39 -1q3 0 14.5 -1.5t19 -2t13.5 1.5l6 2q3 0 27 -8h6q3 0 11 1t12 1q14 0 18 -12q4 -24 4 -35l-14 10q0 -3 2 -10t2 -12t-4 -9q-2 -1 -2.5 -8t-1.5 -8q-6 -2 -18 -4t-13 -2h-43h-2 q-4 0 -18.5 -1.5t-20.5 -0.5q-6 2 -23 2q-9 0 -28 -2t-27 -2h-31h-49h-24q-13 0 -13 -31q2 -7 2 -28q0 -17 -2 -43q-2 -58 -2 -72q0 -43 -4 -129q0 -7 -4 -43t0 -39l2 -11q0 -4 -1 -11.5t-1 -10.5v-25q2 -2 2 -10q0 -7 -3.5 -25.5t-2.5 -23.5v-19q6 -2 17 -2.5t14 -1.5 q6 -2 20 -2q7 0 21.5 -1t21.5 -1q1 0 25.5 -2.5t26.5 0.5q28 9 47 6q3 -1 13 -2t15 -2q1 -3 4.5 -6t1.5 -10v-6q0 -15 -2 -17t-2 -8q0 -5 4 -21t2 -20q-5 -10 -22 -10h-33q-8 -1 -53 -0.5t-78.5 1t-40.5 -0.5q1 -14 -2 -42.5t-2 -43.5q0 -4 -1 -15t-1 -16l2 -76q-2 -2 -2 -8 t1.5 -17t2.5 -20t0 -12q-3 -12 -3 -27t1.5 -34t1.5 -29v-18q0 -10 1 -31t1 -31t-3 -31.5t-3 -33.5l2 -17v-6q0 -9 2 -9.5t12 -0.5h54q6 0 20 -1t21 -1l20 2q75 6 78 6q52 0 88 -8q10 -3 10 -35q0 -7 -1 -18t-1 -13q-1 -20 -6.5 -25.5t-24.5 -7.5q-22 0 -26 -6q-2 -2 -6 -2 q-2 0 -9.5 1.5t-9.5 0.5t-8 1.5t-10 -1.5q-6 -4 -39 -4q-12 2 -37 2q-17 0 -53 -2t-53 -2q-12 0 -34 -2t-32 -2q-7 0 -23 2t-24 2q-6 0 -20 -2q-10 -2 -18 -2h-5h-33q-12 0 -18 2q-6 0 -9 10q-1 4 -4 12.5t-4 12.5q-2 12 -2 37l2 37l2 37v34v9v6v18l2 37v47q0 9 -1 27.5 t-1 27.5q0 3 1 8t1 7q0 3 -1 9t-1 9q-5 26 0 33q2 4 2 18q0 10 -2 30t-2 24l-2 30q0 17 2 25v10q0 6 -3 25.5t-1 29.5l2 13q0 5 -1 15t-1 15v56q-2 1 -2 4.5z" />
<glyph unicode="f" horiz-adv-x="559" d="M49 397v45v8q0 20 3 54q4 30 4 50q0 8 -1 15q-2 14 -2 35t2 49q0 1 -2 22t-2 38t4 20q3 2 1 17t1 18q2 2 2 8.5t-1 14t-1 8.5q0 34 2 37q4 3 1.5 24t-1.5 25v45q0 15 -2 44.5t-2 53.5t4 43q2 8 0.5 31t-0.5 31q1 21 1 43t-1 43q-1 15 -1 28q0 27 5 47q2 3 6 27t3 25 t1.5 8.5t4.5 7.5q6 2 22 4t17 2v-2q23 4 43 4t35 -4q12 -4 36 -4q6 0 19.5 -2.5t21.5 -1.5q20 2 59.5 2t57.5 2q7 2 25 2t48 -2q60 -4 70 -4q19 0 19 -47q0 -13 -4 -37q0 -10 -2 -14l-2 -5l-6 -6l-9 -4q0 2 -4 2q-3 2 -13 2.5t-13 -0.5q-10 -4 -30.5 -3t-31.5 3q-2 1 -9 1 q-18 0 -69 -5q-35 0 -53 2l-26 4q-2 -2 -2 -9t-1 -9q-1 -5 0.5 -25.5t-0.5 -21.5q-3 -3 -4.5 -38t2.5 -40q3 -6 2.5 -15.5t-2.5 -24t-2 -15.5q0 -11 1 -34t1 -34v-190q-1 -11 0.5 -15t5 -4.5t9 -0.5t14.5 -1q8 -2 27 -2q7 0 26 1t32.5 0.5t25.5 -3.5q6 -2 22.5 -1.5 t22.5 -2.5q4 -1 5.5 -3.5t1.5 -4.5t-0.5 -6.5t-0.5 -6.5q0 -5 -1.5 -16t-1.5 -19.5t3 -13.5q3 -8 -4.5 -12.5t-21 -5.5t-28.5 -1.5t-27 0t-17 -0.5q-9 -2 -29 -4t-29 -4q-3 -1 -11 0t-13.5 1.5t-10.5 -2t-6 -8.5q-1 -17 1 -49t1 -47q-2 -17 -0.5 -58.5t0.5 -58.5v-59v-35 q0 -4 -1 -15.5t-1 -21t2 -14.5v-33q1 -14 0.5 -52t1.5 -52q2 -15 4 -41t-2 -35q-3 -2 0 -27t0 -28q-1 -1 -1 -6t-1 -7q-1 -3 -2 -4t-2.5 -0.5t-3.5 1t-4 -0.5q-2 0 -5 -5t-7 -3q-1 3 -4 1.5t-4 -1.5q-4 -1 -17.5 1.5t-15.5 -1.5q-5 -4 -12.5 -4t-16.5 2t-14 2q-7 -1 -19 -3 t-22 -3h-10h-9t-14.5 3t-13.5 3h-4q-7 0 -10.5 0.5t-6.5 3t-2 8.5q0 1 2 6t2 7q1 14 1 31q0 34 -3 81q-1 28 -2.5 79.5t-2.5 93.5t-1 79z" />
<glyph unicode="g" horiz-adv-x="714" d="M51 502q1 11 3 33.5t3 41.5t0 35q-1 19 2 56t2 55v113q0 52 7 84q4 19 6 64.5t10 68.5q3 10 8.5 35.5t11.5 39.5q1 3 5 19t8 30t8 15t11 16.5t7 20.5q0 14 31 45q4 4 16 17.5t17 18l15 13.5t19.5 14.5t20.5 10.5q2 1 13 7t18 7q5 1 12 9t12 9q10 2 32 1t32 1h6.5h8.5 q8 -1 18.5 -3t15.5 -3q52 -5 113 -45q31 -21 35 -33q2 -7 12 -20.5t12 -20.5q23 -72 25 -102q1 -10 2 -29.5t2 -29.5q1 -12 6 -35.5t6 -36.5q-4 -4 -10.5 -6t-17 -3t-13.5 -1q-7 -1 -22 0t-23 0t-10.5 4t-9.5 4q2 14 2 100q0 63 -23 117q-32 64 -57 64q-4 0 -21.5 0.5 t-27 0.5t-22.5 -3.5t-21 -10.5q-6 -6 -23 -18t-25 -21q-22 -22 -22 -45q0 -7 -4 -21.5t-4 -21.5q0 -41 -2 -49q-1 -1 -2 -11t-2.5 -19t-3.5 -9q4 -8 4 -21.5t-2 -30t-2 -22.5q0 -48 -5 -61q-7 -25 -7 -75.5t-1 -61.5q0 -2 0.5 -27t-4.5 -26q-6 -4 -4.5 -29t0.5 -31 q-2 -8 -2 -59q0 -3 1.5 -19.5t0.5 -23.5q-9 -27 -2 -37q2 -4 2 -41q-2 -23 6 -61v-25q0 -2 1 -7t1 -7q-2 -1 -0.5 -10.5t0.5 -10.5q-3 -5 2.5 -26t3.5 -27q-3 -16 7 -41q1 -6 6 -30.5t10 -35.5q2 -5 3.5 -21.5t0.5 -17.5t12 -26q6 -18 21 -43q4 -6 28 -25q10 -8 34.5 -13 t31.5 5q0 1 6 3t12.5 5t8.5 6q2 2 5.5 5t6 5.5t5.5 5t5 6t4 7.5q12 28 19 70q1 5 16 57q12 47 12 73v7q-1 9 0 20.5t3 26.5t3 21q2 32 2 57t-2 41q-1 5 3 32t3 47.5t-12 20.5q-15 0 -40.5 -3t-32.5 -3h-11.5h-16.5t-16.5 0.5t-17.5 2.5t-13.5 5t-8.5 8q-4 6 -4 33 q0 24 10 51q1 2 20.5 2t44.5 -1t27 -1q17 -1 48 1.5t42 2.5q4 0 22 4.5t25 2.5q3 0 16.5 -6t16.5 -7q2 0 10.5 -3.5t9.5 -4.5q8 -9 5 -43t2 -45l-13 -2q2 -5 1.5 -9.5t-2 -12.5t-1.5 -11q1 -15 -0.5 -44t-1.5 -38q0 -28 -4 -86q0 -6 -1 -20.5t-1.5 -24t-3 -21t-6.5 -18.5 q-2 -4 -1.5 -15t-2.5 -13q-1 -2 -11 -41q-7 -31 -18 -56q-2 -5 -5 -15t-5 -15q-1 -1 -4.5 -10.5t-6.5 -17t-4 -7.5q-5 -2 -11 -11t-12 -21.5t-7 -14.5q-5 -11 -22.5 -30t-24.5 -19q1 -2 -3.5 -5.5t-12 -6.5t-14.5 -5.5t-13 -5t-7 -2.5q-39 -11 -90 -14h-3q-12 0 -32 8 q-22 8 -34 8q-17 0 -45 23q-43 34 -101 116q-26 39 -26 56q0 13 -9 26q-2 3 -5.5 14t-6.5 17q-3 5 -9 28.5t-11 45.5t-4 22q-3 0 -7 19.5t-4 23.5q0 2 -1 9t-1 8q1 2 -2.5 14t0.5 14q2 2 2 8.5t-1 14t-1 8.5q0 5 -2 16t-2 15z" />
<glyph unicode="h" horiz-adv-x="722" d="M66 84q0 3 -1 7q-1 11 1 23q2 18 2 23v6q0 19 4 68q1 14 0 43t0 45q8 92 8 179q0 60 -4 118q-6 99 -6 195q0 11 2.5 65.5t-0.5 63.5q-2 15 -1.5 43.5t-0.5 44.5v10q0 29 4 112q0 6 -2 48t-2 73.5t4 34.5q8 5 8 45q0 12 3 19.5t8 11t13.5 5t15.5 1.5t18.5 -1t17.5 -1 q2 0 35 1t34 -1q5 0 11 2q2 1 5 0q4 0 7 -2l14 -6h2q1 0 3 3.5t7 2.5q0 -1 3.5 -7.5t3.5 -8.5q1 -5 1 -16q0 -18 -3 -52q-2 -25 -3 -71.5t-2 -57.5q0 -4 2 -39.5t1 -42.5q0 -2 -1 -6.5t-1.5 -7t1.5 -4.5t7 -2q-3 -8 -3 -28t-1 -24q-4 -55 -7 -71q-3 -23 -3 -60q1 -14 1 -30 v-36q0 -33 -2 -54q-3 -10 -1.5 -16.5t12.5 -6.5h32q8 0 31.5 -1.5t36.5 -0.5q1 0 11 -1t16.5 -1.5t9.5 0.5q6 7 14 3.5t15.5 -3.5t7.5 12v58v135q-1 9 0.5 28.5t1.5 24.5q-3 60 -3 99q0 20 1 34q0 2 -1.5 21t-1 33.5t4.5 17.5q-7 28 -4 53v49q0 27 2 39q2 11 14 16.5 t14 10.5q24 2 42 2q25 0 40 -4q10 -3 34.5 -2.5t31.5 6.5q4 1 7 0t8 -4t7 -4q3 -1 10.5 -1.5t10.5 -1.5q1 -3 1 -10t1 -10q2 -4 2 -12q0 -9 -2 -23q-6 -26 -6 -31l6 5v-43q0 -2 -2 -7t-2 -8.5t4 -5.5v-6q0 -11 -2 -37q-2 -36 -4 -43q-3 -14 -4 -41t-4 -41q-2 -10 -2 -30.5 t-1 -26.5q0 -21 3 -39q0 -1 -1 -9t-2 -14t0 -8q5 -5 5 -47q-8 -46 -5 -53q1 -3 0 -10t-2 -9q-2 -3 -2 -45q-1 -5 -6 -75q0 -2 -1 -19t-1 -30t2 -15q2 -1 2.5 -8t0 -14t-1.5 -14l-1 -7q-3 -8 -3 -20.5t1.5 -27.5t1.5 -20v-67q2 -13 2 -52q-1 -10 -1 -20q0 -56 -0.5 -95.5 t1.5 -53.5q2 -4 0.5 -18t-0.5 -19q3 -4 0.5 -32t-2.5 -32q0 -7 -1 -18.5t-1 -21t2 -17.5q2 -12 -12 -31q-4 -5 -12.5 -6t-20 0t-16.5 0q-19 0 -43 -4q-5 -1 -16.5 -1t-16.5 -1q-2 0 -10 -6q-7 -5 -11 -4h-2l-10 4q-6 2 -13.5 8t-10.5 8q1 4 -4 19t-5 18v31q-3 9 -3 39.5 t3 32.5q-2 3 -2 7.5t1 10t1 8.5q0 6 -1.5 24.5t-0.5 28.5q7 79 7 140q0 19 1 56t1 54l3 41q2 41 2 67t-3 36q-7 4 -19 5t-26.5 0.5t-20.5 0.5q-10 1 -29.5 -0.5t-25.5 -1.5h-33q-34 0 -40 -7q-2 -2 1 -4q1 -2 0.5 -8t-1.5 -15.5t-1 -10.5q1 -6 2 -67.5t2 -68.5q2 -13 2 -71 q-1 -15 -0.5 -57t-1.5 -54q-1 -10 1.5 -30.5t2.5 -28.5l2 -68v-45q0 -3 2.5 -28t-0.5 -27q-1 -3 -1 -9t-1 -8q-3 -5 -8 -4.5t-10 -1.5q-8 -8 -14 2q-3 4 -8 3q-4 -1 -7 -1q-6 -1 -19 -1q-21 0 -61 3q-7 1 -21.5 -2.5t-21.5 0.5q-2 1 -8 2t-10.5 2t-5.5 3l-6 8q-7 5 0 33 q-4 5 -4 18z" />
<glyph unicode="i" horiz-adv-x="382" d="M85 95.5v16.5t0.5 15.5t0.5 9.5l2 103q0 8 1.5 26t1.5 32.5t-3 25.5q-2 4 -2.5 17t2.5 17q1 2 0.5 6.5t-1.5 11t-1 7.5v47q-1 32 -1 65q0 79 5 171q0 2 -0.5 17.5t-0.5 31v32.5t1.5 28t3.5 11q2 5 -2.5 32t2.5 32q2 2 1.5 16.5t0.5 18.5t1 14.5t1 15.5q1 6 0.5 21.5 t1.5 19.5v29v27q-2 6 -2 32t2 27q4 4 1.5 30.5t0.5 33.5v43q-2 4 -1.5 13t2 22.5t1.5 15.5q1 11 5 45.5t4 52.5q0 4 -2.5 11.5t-2 13.5t6.5 10q2 1 7 6t7 6q5 -3 15.5 -3.5t24.5 0.5t17 1h17q27 0 39 -2q8 -1 24.5 -6.5t26.5 -5.5q0 -2 4.5 -12.5t5.5 -10.5q3 -2 3 -9 q0 -2 1 -5q0 -6 -1 -13l-1 -10q1 -15 -0.5 -42.5t-1.5 -36.5q-1 42 -1 -1v-94q1 -120 1 -172q-1 -16 1 -64q1 -29 1 -50v-25l-8 -2v-19q1 -18 1 -54v-29q0 -34 -3 -45q-3 -18 -2 -58.5t-2 -60.5q-1 -5 -1 -15.5t-1 -15.5v-10q0 -6 -6 -6q0 -3 3 -7.5t3 -7.5q0 -1 -1.5 -21 t-2 -33.5t1.5 -18.5q3 -2 3 -13t-1.5 -25t-1.5 -16l-6 -22q4 -4 4.5 -11.5t-1 -17.5t-1.5 -12q-1 -5 -1.5 -21t-1.5 -24q-2 -9 0 -31.5t0 -32.5q-10 -35 -11 -74q0 -12 1 -24q1 -6 0.5 -25.5t1.5 -25.5q1 -4 -3 -8t-9 -7l-6 -4q-6 -8 -32 -10h-16q-14 0 -20 2 q-5 1 -6.5 -0.5t-7.5 -1.5q-31 0 -61 6q-1 4 -10.5 17.5t-8.5 23.5q-1 1 -2.5 6.5t-2 9.5t0.5 5q-2 1 -2.5 7t-0.5 14.5z" />
<glyph unicode="j" horiz-adv-x="518" d="M-12 213q0 11 3.5 34t8.5 23q41 10 53 -4q2 -3 8.5 -7t8.5 -7q3 -7 3.5 -8.5t-2 -7t-3.5 -9.5q-2 -8 -1.5 -38.5t5.5 -34.5l16 -48q-3 -3 7.5 -14.5t13.5 -11.5l14 -8q3 -3 13.5 -3.5t18 0t9.5 -0.5q0 -1 9 1t18 5.5t10 5.5t8.5 6t9.5 10q9 25 10 33q8 25 11 59 q7 40 4 50q-4 14 -5 29.5t-1.5 38.5t-1.5 32q-1 17 0 52.5t0 53.5v52q0 32 4 36v4q-3 35 0 35q-1 2 -0.5 15.5t1.5 29.5l1 15q3 3 1.5 15.5t-5.5 15.5t-4.5 15.5t1 29.5t1.5 18q1 11 2.5 31t2.5 36t1 31v47q0 66 -2 164q-2 137 -2 191q0 8 1 27.5t1 30.5t-2.5 26t-8.5 26 q-5 4 -0.5 15t4.5 14q0 7 85 10h45q47 0 61 -4q1 -1 8.5 -3.5t13.5 -5t7 -3.5q6 -12 16 -17q7 -4 8.5 -11.5t0 -18.5t-0.5 -15q3 -29 3 -48.5t-3 -28.5q-3 -13 -1 -38t-1 -36q-2 -9 0.5 -32.5t-0.5 -31.5q-3 -21 -3 -31.5t3 -36t4 -32.5q2 -27 3 -57.5t1.5 -66.5t1.5 -56 v-96l-4 -7q1 -15 -3.5 -42.5t-4.5 -41.5q0 -15 -7 -62q-3 -26 -3 -45q0 -15 2 -26q4 -32 4 -39q0 -8 -2.5 -29.5t-1.5 -31.5t-4 -57q-1 -3 -1 -15.5t-1.5 -24t-5.5 -14.5q-3 -2 -4.5 -9t-2.5 -15t-2 -10l-10 -35q-4 -22 -8 -31q-1 -2 -5.5 -9t-7.5 -13.5t-3 -10.5 q0 -7 -17 -41q-1 -2 -7.5 -11.5t-12 -17.5t-4.5 -10q-7 -6 -20 -20.5t-25.5 -23.5t-28.5 -11q-52 -8 -81 -10q-8 -1 -15 -1q-25 0 -58 6q-43 8 -75 32q-12 9 -23 23t-16.5 23.5t-15.5 29t-13 24.5q-5 14 -7 26.5t-2.5 31.5t-0.5 26zM434 287q2 0 2 2q-2 0 -2 -2z" />
<glyph unicode="k" horiz-adv-x="716" d="M35 68q2 32 2 34q-1 10 -1 22t0.5 27t0.5 23q0 6 -1 19t-1 20q2 18 2 55q0 1 -1 9t-1 15t2 9q2 1 2.5 7.5t0.5 15.5v17.5t-0.5 17t-0.5 10.5q1 16 1 42q0 31 -2 75q-1 30 -1 55q0 41 4 63q0 3 6 96q0 5 1.5 25t0.5 29q-1 10 4 27.5t6 23.5q1 9 -4 47q-4 58 -4 86 q0 37 4 111l8 129q1 7 -1 30.5t-1 42.5t7 27q4 4 4.5 31t-2.5 30q-7 5 2.5 14t15.5 9q4 0 12 1t11 1q17 -2 49 1t43 3q47 0 67 -6q4 -1 9.5 -8.5t4.5 -12.5q1 -6 -1 -21t-2 -20q0 -4 2 -13t1 -13q1 -7 0 -18.5t0 -18.5v-49q-9 -175 -8 -234q0 -20 -5 -58t-5 -56 q0 -9 -2 -29.5t-2 -30.5q0 -1 -1 -13.5t-1.5 -21t0.5 -10.5q4 2 8 8.5t8.5 17t4.5 11.5q1 2 6 10t8.5 15.5t3.5 11.5q1 13 19.5 38.5t19.5 37.5q1 13 16.5 37.5t18.5 33.5q6 17 39 76q10 18 21 56t16 51q7 16 22.5 45.5t22.5 44.5q4 10 21.5 42t23.5 50q10 29 24 39 q3 2 9.5 5t9.5 5h2q2 0 10 -2q10 -2 12 0q2 0 4 -3t6 -1h13q4 1 10.5 -3t9.5 1q2 2 5 0.5t6 -4.5l2 -2q2 0 -0.5 -6t-5.5 -12l-3 -5l-35 -65q-53 -97 -73 -158q-4 -13 -19 -40t-18 -44q-3 -19 -15 -45t-24 -39q-9 -11 -18 -39q-15 -46 -25 -53q-2 -2 -3.5 -5t-3.5 -8t-3 -8 q-9 -16 -4 -38l6 -35q1 -2 2.5 -10t3.5 -14.5t4 -8.5q6 -5 10 -15.5t6.5 -23.5t4.5 -18q12 -37 59 -160q7 -18 26 -56.5t27 -60.5q6 -18 24 -60.5t25 -64.5q1 -3 19 -45.5t20 -64.5q4 -4 8.5 -13t8.5 -20t6 -15q18 -37 22 -51l-20 -6q1 -5 8.5 -21t7.5 -26q-9 -3 -22 -2.5 t-25 -1.5q-4 -1 -8 -1q-13 0 -27 7q-18 9 -22 25q-8 29 -37 67q-13 19 -29 54q-14 33 -39 107.5t-43 113.5q-4 10 -14 31t-16 34.5t-13 32t-10 33.5q-4 16 -17.5 44.5t-15.5 33.5q-2 4 -11.5 33.5t-18.5 41.5q-4 -3 -23 -41q-3 -4 -7.5 -16.5t-8.5 -19.5q-10 -14 -27 -48 q-8 -18 -23 -41q0 -4 2 -23.5t1 -25.5q-5 -20 -5 -32q0 -5 1.5 -19t0.5 -22q-2 -18 -1 -52.5t-1 -52.5q-2 -23 -2.5 -40.5t2.5 -28.5q2 -9 2.5 -29.5t-2.5 -28.5q-6 -10 2 -57q3 -24 -6 -58q-10 -12 -17 -13.5t-22 1.5q-18 0 -22 -2q-24 -4 -39 -4q-9 -1 -33.5 2.5 t-32.5 1.5q-17 -6 -23 12q-4 13 -4 34q0 7 1 16z" />
<glyph unicode="l" horiz-adv-x="571" d="M49 1133v106v64q0 1 1 13.5t1 23t-2 12.5q-1 1 -1 2q0 4 8 10q11 8 18 10q4 1 8 1t6 -1q6 -2 11 -6.5t10 -5.5q7 -2 20 -1.5t21 -0.5q9 -1 34.5 -0.5t34.5 -1.5q6 -1 17 0.5t14 1.5q2 0 22 -4q3 -3 4 -12.5t1 -18t-0.5 -18.5t-0.5 -11q-1 -15 2 -42t3 -37q0 -1 -0.5 -61 t0.5 -60q1 -17 1 -39q0 -44 -3 -109q-1 -8 -5 -53q-3 -31 -3 -52q0 -9 1 -16q1 -10 -0.5 -30t-1.5 -27q0 -72 -6 -94q-8 -14 -2 -58t4 -61q-1 -11 -1 -27q0 -28 4 -70q4 -36 4 -62q0 -22 -3 -36q-2 -10 1.5 -24.5t2.5 -22.5q-1 -12 -1 -34t-1 -33q-1 -8 -1 -17t0.5 -20.5 t0.5 -17.5v-33q1 -2 0.5 -15.5t-2.5 -15.5q-7 -12 2 -16t23 -4q6 -1 65 -5q41 -3 68 -2h21q9 1 40.5 -1.5t40.5 1.5l15 -10q8 -26 8 -50q0 -13 -2 -26q0 -4 -5 -10.5t-9 -3.5q-1 4 -14.5 0t-16.5 -4l-105 6q-12 0 -25 -1t-29 -2.5t-25 -2.5h-14q-16 0 -42 1q-38 2 -59 1 q-55 0 -68 2l-15 3q-14 3 -23.5 5.5t-10.5 5.5q-8 18 -8 54q0 13 -4 36.5t-4 28.5l-2 25q0 2 -1 12.5t-1 19.5t2 13q2 1 2 23t-2 24q-4 2 -4 27q0 44 -2 67l-7 131v76q0 50 -4 68q-2 5 -2.5 30t2.5 29q2 2 2 41q-2 39 -2 115q1 36 1 73q0 110 -7 224z" />
<glyph unicode="m" horiz-adv-x="962" d="M51 162v8q0 10 1 22q2 20 1 27q0 2 1.5 9.5t2 12t-1.5 9.5v24q5 32 4 41q-3 10 -3.5 28t1.5 28v47q-1 16 -1 46.5t-1 45.5q-1 33 -1 56v19q0 25 3 74.5t4 75.5q0 3 -2 15.5t-2 22.5t4 13v41q0 11 2.5 34t2.5 34q0 21 3 62t3 61v108q0 9 -2 29t-2 36.5t4 27.5 q2 5 0.5 25.5t-0.5 27.5q0 4 -0.5 35.5t4.5 35.5q2 3 2 10.5t1.5 13.5t4.5 7q32 4 92 8q15 0 51 -4q23 0 23 11q2 2 4 2t4 -1q5 -2 9.5 -4.5t4.5 -1.5q1 0 2.5 -4.5t8.5 -5.5q6 -2 12 -10q5 -6 3.5 -12.5t0.5 -12.5q14 -28 8 -43q-1 -3 2 -6.5t1 -7.5q0 -2 9 -18 q3 -5 7.5 -22.5t1.5 -20.5q-1 -1 8.5 -35.5t11.5 -36.5q5 -4 12 -37q1 -2 3 -14t4 -21.5t4 -11.5q4 -4 7 -16t5.5 -26.5t3.5 -18.5q6 -19 14.5 -59t14.5 -60q7 -25 17 -74.5t13 -62.5l11 -46q1 -2 1.5 -7.5t2 -10t4.5 -6.5q2 -1 3.5 -10t2.5 -18t2 -9q6 -2 8.5 -28.5 t3.5 -28.5q4 -7 7.5 -22t5.5 -21q2 2 4.5 14t4.5 25.5t3 15.5q2 7 6 37t10 43q10 23 20 72.5t13 60.5q12 42 12 47q1 11 8 32.5t7 31.5q1 14 9.5 40.5t10.5 38.5q1 6 8.5 33.5t6.5 42.5v7q0 19 8 57q2 7 5 21.5t5 21.5q1 2 2 11.5t3 17t5 10.5q5 4 7.5 20.5t7.5 20.5 q1 1 3.5 16t2.5 18q1 3 1.5 13.5t2 18t4.5 9.5q4 3 8 17l2 10q9 3 12 12q1 0 7.5 3t11.5 5t6 0q2 -4 5.5 -6.5t9 -3t10 -1t11.5 0t9 0.5q25 0 61 -4l52 -4q7 -1 8.5 -6t-0.5 -10t0 -9l-2 -24q-1 -4 1.5 -16.5t-1.5 -16.5q2 -42 2 -72q0 -43 -4 -65q-1 -2 1 -15.5t-3 -15.5 q3 -3 4.5 -15t-0.5 -16q-1 -3 0.5 -9.5t1.5 -8.5q-8 -39 -2 -47q1 -1 1 -12v-22t1 -11q-2 -1 -2 -14.5t1 -30.5l1 -17v-125v-77q2 -23 2 -72v-59l-10 14q-2 -17 -2.5 -52.5t-1.5 -45.5l-2 -41q6 -15 4.5 -46.5t-4.5 -46.5q-4 -19 -4.5 -58.5t-0.5 -45.5q-1 -11 1 -61.5 t-3 -61.5q-8 -29 -2 -55q2 -10 -4 -27q0 -3 0.5 -6.5t1 -5t-0.5 -4t-5 -4.5l-4 -8q0 -1 -1 -1l-1 3q-3 7 -16 7.5t-32 -2.5t-24 -3q-78 0 -94 2q-17 0 -32 9q-5 4 -3 7q3 6 2.5 11t-2.5 15t-2 15q1 21 3 73q2 37 1 62v17q-1 14 -0.5 56t-1.5 56q-4 48 -4 90t4 76q2 20 2 62 q0 1 -1 15t-0.5 24t3.5 14q2 2 2 11t-1 20t-1 12q0 2 2.5 27t-0.5 26q-5 3 -1 28.5t4 28.5l4 68q0 7 3 35t2.5 35.5t-3.5 33.5q-4 -3 -8.5 -15.5t-8 -30.5t-4.5 -21q-11 -51 -20 -78q-13 -39 -17 -57q-1 -8 -8 -24t-8 -23q3 -3 -1 -17.5t-7 -19.5q-11 -27 -11 -31t-3.5 -26 t-4.5 -23q-4 -4 -9 -32.5t-5 -35.5q0 -10 -4.5 -29t-5.5 -24q-3 -15 -6.5 -30t-8.5 -33.5t-8 -30.5q-5 -20 -13 -62t-13 -63q-1 -2 -4.5 -10.5t-4.5 -10.5q-3 -4 -4 -12t-4 -12q-1 -16 -4 -34t-7.5 -40t-6.5 -33q-2 -14 -13 -32q-3 -4 -4 -15.5t-4 -15.5q-6 -7 -29.5 -4.5 t-29.5 10.5q-16 20 -29 78q-1 2 -2.5 17.5t-4 29t-5.5 16.5t-6.5 23.5t-3.5 25.5q0 6 -4 18l-5 15q0 39 -6 45q-3 3 -4.5 11t-2 17.5t-1.5 12.5q-1 7 -7 32t-7 38q-6 50 -21 96q-12 41 -32 127q-3 14 -11.5 36t-11.5 34q-5 23 -16 61q-1 3 -7.5 18t-10 26t-3.5 18 q0 6 -3.5 24t-6.5 19q-5 4 -6 23t-6 24q-6 -6 -6 -22t6 -42q2 -9 2.5 -26.5t1.5 -22.5q1 -11 1 -27q1 -20 -1 -46q-2 -34 -2 -55v-15q2 -9 2 -75v-81q-2 -143 -2 -156q0 -18 -4 -83t-4 -84q-1 0 -1 -27t-0.5 -57.5t-1.5 -36.5q-1 -12 -2.5 -17.5t-7 -12t-16.5 -9.5 q-21 -6 -41 -2q-20 0 -25 6q-3 4 -3.5 10t0.5 14.5t1 10.5q1 19 1 36q0 29 -3 54z" />
<glyph unicode="n" horiz-adv-x="753" d="M68 1212q4 85 4 114v9q3 3 7 10t6 9.5t7.5 4t13.5 -4.5q2 -1 12 3q8 3 13 3h2q49 -7 75 -7t28 7h4q15 0 36 -14q7 -4 25 -48q15 -31 40 -99.5t40 -100.5q9 -18 21 -52.5t18 -48.5q9 -19 14 -47q2 -8 9.5 -25.5t9.5 -25.5q13 -44 20 -61q29 -72 29 -84q0 -6 2 -10 q3 -8 7 -17.5t5 -11.5q2 -4 8 -13t9.5 -17t3.5 -13q1 -12 15.5 -36t14.5 -36h2q2 10 0.5 28.5t-4 42t-2.5 25.5q-1 18 -5.5 64t-4.5 71q0 7 -1.5 33t-0.5 39q3 41 3 68q0 14 -1 24v78q0 63 -2 76q-5 46 -2 59q2 13 0 37.5t0 36.5q1 7 -1 26.5t1.5 31.5t17.5 16q7 2 21 1 t20 1q11 4 20 4q19 0 23 -19q7 3 6 -33q-1 -8 -2 -23v-9q0 -8 -0.5 -59t4.5 -60q1 -7 -0.5 -21t-1.5 -18q0 -7 3 -18t4 -15q3 -17 3.5 -34.5t-0.5 -41.5t-1 -34q0 -12 1.5 -48.5t0.5 -56.5q-2 -29 -2 -58t2 -58q2 -38 2 -104v-48v-48q0 -67 2 -105q8 -125 8 -281 q0 -14 1 -42.5t1 -43.5l2 4q0 -1 1 -23q0 -11 0.5 -20t-0.5 -15q-1 -14 -5 -14q-11 0 -29.5 -2t-31 -2.5t-26.5 1.5t-25.5 10.5t-20.5 23.5q-35 62 -64 136t-60.5 165t-51.5 141q-41 100 -92 240q-35 102 -46 148q-2 9 -9 27.5t-9 27.5q-13 50 -22 65q-3 -8 -2.5 -29 t3.5 -54t3 -37l-2 -109q0 -22 3 -69t3 -72v-160q-2 -35 -2 -71t2 -72q0 -8 -2 -26t-2 -26v-43q-2 -10 -2.5 -29.5t2.5 -49.5q4 -50 4 -71v-7t-4.5 -23.5t0.5 -21.5q2 -7 2 -11t-6 -8t-10.5 -6.5t-11 -4.5t-7.5 -3q-4 -2 -15 -2q-8 0 -20 1q-28 3 -31 11q-8 20 -8 64 q-4 167 -4 223v18v9q0 29 -5 83.5t-5 84.5v10v12q0 21 -2 54t-2 53v12q2 50 2.5 143.5t1.5 122.5q0 25 -3 75t-3 76q0 11 1 32t1 38t-2 31q-2 11 -2 67z" />
<glyph unicode="o" horiz-adv-x="735" d="M36 511q0 6 -1 10q0 20 2 28q2 18 2 55q0 72 2 107q6 99 6 102v8q0 21 4 58t4 58v7q-3 26 4 55q4 25 9 37q6 12 6 27q-1 6 5.5 22.5t6.5 18.5q2 10 8 29.5t8 29.5q16 62 66 125q40 54 88 74q32 16 39 18q10 2 31 2l24 2h6l-6 -6q4 0 12.5 -1t12.5 -1q8 0 24 -4 q30 -5 35 -6q38 -13 39 -14q1 -2 13.5 -7t13.5 -6q4 -1 14.5 -8t11.5 -8q7 -2 26.5 -18.5t17.5 -22.5q0 -3 11 -17t15 -14q3 -6 9.5 -20.5t8.5 -18.5q3 -5 10 -25t13 -26q2 -1 4 -6t3.5 -11t2.5 -7q1 -4 2 -16.5t3.5 -23t6.5 -12.5q-2 -5 4 -37.5t9 -33.5q2 -1 4 -11.5 t3.5 -23.5t2.5 -16q5 -27 6.5 -54t2.5 -71t1 -54v-98q0 -2 0.5 -7.5t0.5 -11.5v-12t-1.5 -10.5t-3.5 -5.5l4 -25q0 -107 -20 -194q-2 -8 -3 -25.5t-3 -27.5q-3 -9 -7 -37q-1 -6 -5 -16t-5 -15q-15 -61 -39 -100q-1 -1 -9.5 -25.5t-18.5 -30.5q-11 -7 -12 -22q0 -5 -12 -17.5 t-13 -13.5q-35 -40 -43 -47q-9 -9 -15 -12q-3 -2 -9 -5.5t-9 -5.5l-4 -8q-57 -26 -110 -26q-39 0 -76 14q-13 3 -31 14l-14 8q-13 9 -21 16.5t-8 12.5q0 4 -17 23.5t-22 23.5q-3 2 -14 15.5t-11 17.5q-19 31 -35 68q-16 27 -16 34q0 5 -2.5 18.5t-5.5 14.5q-3 2 -4.5 10.5 t-2 18.5t-1.5 12q-14 41 -17 58q-12 59 -12 61q0 49 -4 53q-5 4 -5 32zM223 726q0 -11 1 -25.5t1 -20.5q0 -153 4 -231q4 -108 19 -162q1 -6 3 -18.5t3 -18.5l2 -21q0 -4 1 -11t1 -11q0 -3 5.5 -33t6.5 -33l11 -12l3 -6q4 -6 7 -10t10.5 -10.5t17.5 -12.5q8 -5 27 -10 q3 -1 8.5 -3t7.5 -3q2 -2 8 -2h2q4 0 7 2q26 7 43 30q8 10 13.5 22.5t8.5 22t5 25t2.5 23.5t1 26.5t0.5 24.5q6 165 6 172q0 205 -2 246q0 7 -1 23t-1 22q0 8 -1 24t-1 23q0 2 -1 11.5t-1.5 15t0.5 8.5q2 4 0.5 13t-3.5 22t-2 16q0 7 -1 21t-1 20q1 21 -1.5 58t-2.5 52v43 q0 1 1 19t0.5 32t-3.5 19t-3 16t1.5 24t1.5 17q0 15 -4 43q-1 4 -2.5 18.5t-3.5 21.5t-6.5 17t-11.5 15v4q-22 15 -46 15q-6 0 -12 -1q-30 -5 -53 -28q-7 -6 -16 -35q-4 -10 -7 -21.5t-5.5 -26t-4.5 -22.5q-2 -9 -4 -28t-4 -29q-2 -8 -4 -24.5t-4 -24.5q-1 -4 -1.5 -19 t-2.5 -22q-5 -14 -7 -46.5t-3 -39.5t-6 -31t-5.5 -33.5t0.5 -29.5q5 -17 5 -46.5t-5 -46.5q-2 -8 -2 -19z" />
<glyph unicode="p" d="M82 922q-1 18 -1 31q0 18 1 26q1 1 0.5 13t-0.5 22q-1 3 -1 6q0 5 1 6q4 0 4 94l2 176q0 63 16 74q15 -1 63 -2.5t85 -3t45 -2.5q63 -10 74 -10q53 -8 121 -41q67 -38 71 -56q6 -5 13.5 -21t13.5 -22q-2 -3 4 -26t10 -27t8 -18t4 -21q0 -8 8 -52.5t9 -51.5l-2 4 q3 -17 3 -30q0 -16 -5 -25q-6 -15 -6 -74q0 -9 -4.5 -26.5t-4.5 -26.5q0 -8 -24 -80q-6 -36 -45 -103q-12 -22 -19 -33.5t-21 -26.5t-30 -24q-59 -34 -147 -51q-14 -2 -37 -2q-4 0 -6.5 -3t-3 -8t-1 -9.5t0 -11t0.5 -7.5q-5 -62 -5 -71q0 -40 3 -80q1 -11 -1.5 -46t1.5 -46 q4 -14 4 -84q0 -25 2 -39q4 -24 4 -41q8 -28 14 -37q2 -3 -1.5 -14.5t-6.5 -12.5q-8 -3 -27 -1t-26 -1q-17 -4 -24 -4q0 -1 -2 -1q-7 0 -22 3q-19 3 -26 4q-31 0 -59 8q-9 3 -11 10t-0.5 19.5t0.5 17.5q-4 28 -6 62t-1.5 59t1 65t0.5 60v148q0 8 -2.5 44.5t0.5 41.5 q2 6 2 29.5t-2 31.5q-3 11 -3.5 24.5t0.5 32t1 25.5v72q0 2 -2.5 61t-3.5 103zM281 644q0 -13 2 -17q2 -3 1 -9.5t1 -9.5q4 -2 28 -2h4q13 0 29 6q18 6 27 17q42 53 47 82l-2 2q25 121 25 212q0 16 -1 31q0 8 -2.5 52.5t-3.5 62.5t-5.5 50.5t-10.5 58.5q-10 35 -47 65 q-9 7 -45 16q-19 5 -28 5t-9 -4q1 -5 1.5 -13t1.5 -27.5t-1 -23.5q-3 -12 2 -31q1 -9 -1.5 -22.5t-2.5 -20.5q1 -14 -2.5 -54t0.5 -54q1 -3 -1 -12.5t-1 -12.5q1 -4 1 -16.5t-1 -16.5q-3 -6 -3 -15.5t1.5 -21t1.5 -16.5q-4 -94 -4 -141v-70q0 -3 -1 -20t-1 -30z" />
<glyph unicode="q" horiz-adv-x="733" d="M47 586q0 113 2 170q3 114 17 221q2 13 8 37t8 35q1 7 9.5 26t8.5 29q0 24 19 53q18 24 18 41q0 4 6 15t9 14q4 6 13 20.5t13 20.5q4 7 33 41q4 4 19.5 16.5t21.5 20.5q1 3 8 6t14 5t7 3q16 14 57 14l61 -2q56 0 64 -10q3 -1 14.5 -10t18.5 -9q2 0 18 -8q32 -21 41 -35 q9 -12 34 -45t38 -53q1 -2 3 -8t3 -8q2 -2 5 -10t5.5 -15.5t3.5 -7.5q11 -5 19 -47q15 -92 16 -113q0 -6 5 -37.5t9 -59t2 -28.5q-1 0 0 -31.5t2 -65.5l2 -34l13 -4q1 -8 1 -17t-1 -18q-1 -20 -3 -44l-3 -36q-1 -10 -7 -79.5t-6 -104.5q0 -150 -61 -252q-17 -28 -17 -39 q-2 0 -5.5 -4t-7.5 -9.5t-5 -6.5q-3 -4 -10 -11.5t-12 -14t-9 -11.5q-14 -21 -36.5 -39t-43.5 -24q-8 -3 -24.5 -9.5t-24.5 -9.5q-9 -4 -18 -5.5t-22.5 -3.5t-20.5 -3q-16 -3 -32 -3q-49 0 -91 31q-10 7 -20.5 16.5t-23.5 21.5t-19 18q-27 24 -46 55q-25 43 -38 92 q-2 7 -11 21.5t-10 23.5q-1 3 -1.5 15.5t-2 22.5t-4.5 13q-2 2 -2 17q-1 4 -4 17t-6 20q-5 14 -8 42t-7 40q-3 9 -4 19.5t-1 18t0.5 20t0.5 19.5q0 9 -1 27.5t-1 26.5zM192 -204.5q0 9.5 1 18.5q1 10 12 30t18 27q3 3 8 12t11 11q4 2 9 6t11 11t8 9q13 13 45 21 q13 2 36.5 -0.5t27.5 -10.5q2 -4 13.5 -6t15.5 -6t18.5 -8.5t19.5 -9.5q6 -6 22.5 -16.5t23.5 -10.5q4 0 15.5 -7.5t16.5 -8.5q9 -3 21 -11q4 -4 10 -6t13.5 -3.5t11.5 -2.5q12 -3 36 6t29 10q15 -10 17 -12h-7q4 -2 4.5 -6.5t-1 -11t-1.5 -8.5q-1 -6 -4 -12.5t-6 -10 t-8.5 -10t-7.5 -8.5q-18 -23 -28 -34t-27 -22.5t-37 -17.5q-14 -4 -28.5 -4t-26 2.5t-27.5 8.5t-24.5 10.5t-25 13.5t-22.5 12q-24 12 -51 24q-7 3 -18 12t-21.5 13t-22.5 0q-5 -2 -11.5 -9t-12.5 -9q-5 -2 -18 0.5t-17 1.5q-11 -1 -16 6t-5 16.5zM270 524q0 -2 2 -10t3 -13 t-1 -9q-1 -1 3 -35t6 -41q2 -11 2.5 -33t1.5 -29q0 -2 2 -13.5t3 -19.5t-1 -12q-2 -5 0 -29t4 -30q4 -22 16 -74q11 -42 25 -63q4 -7 22 -16t19 -15q5 0 17 -3q6 -2 12 -2q3 0 6 1q24 6 28 8q42 23 49 51q17 55 21 211l10 -2q0 6 2.5 17.5t1.5 17.5l-4 35q2 6 2 41 q0 3 0.5 9t0.5 11t-1 8q-2 11 -2.5 33t-1.5 29q-6 27 0 33q0 30 -2 32t-2 18t2 19q1 2 0.5 4.5t-1.5 7t-1 5.5q-2 20 -2 61l6 219q0 12 1 35t1 35q0 2 -1.5 13.5t-2 19.5t1.5 12q2 5 0.5 15.5t-4 25t-2.5 16.5q0 8 1.5 32.5t0.5 33.5q-11 71 -53 94q-2 1 -10.5 6t-15 7.5 t-13.5 2.5q-4 0 -9 -1t-11 -2.5t-9 -2.5q-12 -3 -24 0q-3 -3 -7.5 -12t-7.5 -12q-24 -49 -28 -72q-1 -5 -6.5 -24t-8.5 -34t0 -24q-3 -1 -5.5 -14.5t-4 -30t-2.5 -18.5q-7 -48 -10 -84q-1 -7 -3 -28t-2 -28t1 -26q3 -22 -4 -47q-1 -4 1.5 -21t-1.5 -20q-2 -3 -2 -12.5t1 -22 t1 -15.5q0 -49 -2 -51q-5 0 -4 -14t1 -16q-3 0 -2 -14l2 -15q0 -3 -3 -13t-3 -12q1 0 1.5 -2t0.5 -6t0.5 -8.5t0 -9.5t-0.5 -9.5v-7.5v-4q0 -5 -1 -18t-1 -19z" />
<glyph unicode="r" horiz-adv-x="698" d="M56 40q2 14 3 17q4 66 4 95q0 21 2 76q1 37 1 62v23l-3 70q0 2 2 17t3 24.5t-2 15.5q-4 0 -3 17.5t0 19.5q-3 10 -3.5 23.5t0.5 31t1 23.5q0 17 3.5 52t3.5 52q0 41 -2.5 122.5t-2.5 121.5q0 19 1.5 58t1.5 59q0 130 6 174q4 1 2 62.5t-2 62.5q0 2 -1 8.5t-1.5 12t0 11 t3.5 9t9 2.5t18 0.5t15 1.5q64 4 92 8q4 1 10 1q11 -1 29 -3q28 -4 41 -2q4 0 28 -6q9 -3 31 -4.5t33 -5.5q6 -3 19.5 -8.5t19.5 -8.5l12 -12q8 -6 25.5 -11.5t23.5 -8.5q27 -13 47 -37q4 -4 15 -19t10 -16q-2 -2 9.5 -19t23.5 -36t12 -23l6 -18q3 -5 7 -17t7 -18 q4 -9 5.5 -28.5t5.5 -29.5q3 -9 3 -27t1 -22q4 -46 3 -71q0 -36 -1 -50q-1 -2 -1.5 -18.5t-2.5 -31t-6 -17.5q-8 -7 -12.5 -33.5t-8.5 -32.5q-2 -3 -7 -13.5t-10.5 -19t-9.5 -12.5q-5 -4 -14.5 -17.5t-13.5 -17.5q-4 -5 -16 -20.5t-19 -22.5q-5 -10 -4.5 -16.5t5 -20.5 t5.5 -20q1 -8 3.5 -17.5t6 -21t4.5 -16.5q14 -65 27 -113l12 -45q1 -4 4.5 -13.5t5.5 -17t1 -12.5q-1 -7 2 -18.5t8 -25.5t6 -17l12 -56q2 -8 8.5 -21t8.5 -22q8 -42 18 -59q1 0 4 -9l6 -18t4 -10h-6q6 -4 6 -12.5t-6 -14.5l-6 -6l2 1v-3q-1 -3 -6 -3.5t-13 0.5l-7 1 q-7 0 -22 -2q-11 -2 -18 -2h-5l-33 4q-1 -2 -6 -2t-11.5 1t-7.5 1q-16 2 -22.5 6.5t-10.5 18.5q-3 7 -11 23t-11 26q-2 7 -15 41t-14 51q0 7 -4.5 18.5t-5.5 14.5q-2 5 -4.5 23t-5.5 26q-5 12 -9 36t-8 34q-3 9 -4.5 27.5t-3.5 25.5l-8 37q-3 16 -16 58t-15 65q-4 20 -14 37 q-5 -1 -18.5 -1t-20.5 -2q-3 -1 -8.5 0t-9 2t-6.5 -0.5t-3 -7.5q2 -21 -2 -63q-8 -70 -8 -105l4 -139q0 -7 1 -21.5t1 -21.5q0 -4 -2.5 -31.5t0.5 -33.5q2 -14 2 -27q0 -22 -6 -37q-3 -12 -1 -25.5t-0.5 -28t-12.5 -18.5q-18 -8 -41 -8.5t-50 2.5t-40 2q-5 -1 -15 -4 t-15.5 -3.5t-16.5 1.5q-10 4 -13 11q-2 4 -2 10q0 5 1 11zM266 649q2 -2 7 -2q3 -1 11 1q16 2 19 3q3 3 8.5 7t5.5 1q31 9 39 17q7 7 20 26.5t19 24.5t11 17.5t10 31t6 21.5q16 38 18 45q9 29 10.5 85t4.5 74l2 -2q2 12 2 28q0 29 -6 73q-3 50 -17 78q-7 14 -16.5 24.5 t-16 15.5t-23.5 15.5t-24 15.5q-8 4 -24 10.5t-21 8.5q-3 2 -13.5 4t-14.5 4q-4 0 -4 -47v-37q0 -26 -3 -29q5 -3 4 -30t-1 -31q2 -39 2 -117q5 -48 5 -80q0 -25 -3 -39q-2 -10 -1.5 -32.5t-0.5 -34.5q0 -27 -5 -45q-1 -2 0.5 -22.5t-2.5 -20.5q-6 -10 -5.5 -29t3.5 -27 q-6 0 -6 -6z" />
<glyph unicode="s" horiz-adv-x="696" d="M39 313v31l2 12l6 17q1 4 2 7.5t1.5 5.5t1 3t1.5 2q4 8 4 12q5 5 18 3t33 -6.5t21 -4.5q9 -1 11.5 -34t0.5 -48q-2 -12 -2 -39q1 -17 9.5 -50t9.5 -48q1 -26 31 -54t57 -36q5 -2 19 -8t22 -8t24 -2q22 0 68 12q23 5 47 21.5t33 35.5q7 14 15.5 39.5t4.5 32.5 q-1 1 -1.5 14t-1 27.5t-1.5 17.5q-2 8 -7 24.5t-7 24.5q-2 10 -10.5 23.5t-10.5 19.5q-13 62 -65 132q-25 30 -29 36q-28 46 -61 84q-6 7 -33 31.5t-35 42.5q-4 10 -14.5 21.5t-24 24t-18.5 18.5q-28 31 -47 65q-35 58 -52 123q-6 26 -6 113q0 37 15 67q8 20 8 41 q0 9 9.5 29.5t8.5 30.5q7 4 15 13t17.5 21.5t12.5 16.5q40 50 74 69q60 33 102 37q12 2 37 2h8q53 0 121 -20q18 -5 42 -21t34 -20q21 -11 31 -23q28 -42 28 -47q1 -6 9.5 -18.5t9.5 -18.5q6 -6 18 -47q9 -31 9 -50v-7q-2 -10 -2 -31v-12q0 -12 -3 -27q0 -20 -18 -20h-25 h-10q-43 0 -43 26q0 3 2.5 22.5t-0.5 22.5q-2 8 -5 33t-9 39q-15 34 -25 52t-30.5 41t-46.5 34q-3 2 -14.5 2.5t-14.5 3.5q-6 6 -33 6q-8 0 -20.5 -1t-14.5 -1q-11 -1 -29 -10.5t-26 -17.5q-2 -2 -9 -7t-12 -9.5t-6 -8.5q-1 -5 -11.5 -22.5t-10.5 -18.5q-3 -4 -6.5 -24 t-3.5 -23q-1 -4 -3.5 -14.5t-3.5 -14.5q-2 -8 -2 -24q0 -15 9 -51q15 -50 20 -58l12 -30q2 -4 8.5 -11.5t8.5 -11.5q4 -9 18 -27t21 -18q6 0 14 -8t16 -20t11 -15q31 -31 71 -78q2 -2 8.5 -7t11.5 -10t7 -9q2 -7 13.5 -18t13.5 -13q27 -33 30 -35q33 -32 57.5 -81.5 t34.5 -96.5q25 -105 26 -182q0 -63 -15 -115q-16 -58 -53 -108t-87 -74q-2 -1 -17.5 -7t-25.5 -11t-14 -9q-3 -3 -12 -5t-21 -3.5t-14 -1.5q-33 -8 -82 -8q-83 0 -172 77q-62 54 -72 109q-12 70 -12 90v6v19z" />
<glyph unicode="t" horiz-adv-x="569" d="M0 1350q1 3 2.5 4.5t4.5 3.5t5 4l23 10q2 0 10 -8h25q37 -4 57 -2q11 2 32.5 2.5t28.5 1.5h11q21 0 54 -2q43 -4 60 -4q77 0 154 6q4 0 16 -1.5t21 -1t14 4.5q4 3 7 -1.5t7 -4.5q10 1 13 -7.5t1 -19t-1 -20.5t8 -12v4l-2 6q4 -1 2 -6l2 -4h-2l-10 -17q-1 -1 -6.5 -3 t-11 -3t-5.5 0q-1 -3 -24 -4t-50 -1t-32 -1q-20 -4 -31 -4q-5 -53 -5 -170t-7 -180q-3 -22 -4 -47.5t-1 -57.5t-2 -49v-40.5v-57t1 -56.5t-1 -41q0 -21 -4 -99q-4 -71 -5 -96q1 -4 1 -6q0 -22 2 -100q2 -29 2 -82q0 -6 -1 -18.5t-1 -23t2 -17.5q2 -6 0.5 -23t-0.5 -22 q1 -3 1 -11t1 -10h2q-1 -2 -2 -10q-1 -6 -0.5 -9t2.5 -8.5t3 -8.5q1 -5 -4.5 -8.5t-14 -5.5t-17 -2.5t-18 -1.5t-12.5 -1h-8h-17q-18 2 -22 2l-31 2q-3 0 -13 -2q-7 -2 -12 -2h-3q-6 1 -10 5t-6 7.5t-3.5 10.5t-2 11t-1 13.5t-0.5 12.5q-3 34 0 63q1 7 -0.5 26.5t0.5 26.5 q3 9 3 22t-1.5 30t-1.5 24q0 19 -2 58.5t-2 60.5q0 69 -3.5 195t-4.5 167q0 53 -2 80q-1 12 -1 27q0 32 3 76q4 68 4 90q0 2 -1.5 15.5t-1.5 24.5t3 13l2 49q-3 2 -3.5 13.5t0.5 24l2 25t1 13.5q0 2 0.5 10t0.5 15.5t-0.5 16t-2 13.5t-4.5 6q-40 4 -58 4q-2 0 -18 -2 t-26 -2.5t-17 2.5q-7 7 -27 7q-8 0 -8.5 2t2 6t0.5 6q-6 21 -4 37q2 7 -2 19q-2 8 -3 13q0 3 1 5z" />
<glyph unicode="u" horiz-adv-x="694" d="M53 934q4 126 4 194q0 142 2 160l1 14q2 13 3 21t4 19t7 17t10 5q18 -1 51.5 0.5t42.5 1.5q1 0 39 -1t39 1h8q7 1 12 0.5t12 -1.5t10.5 -3.5t2.5 -7.5v-19q4 -38 2 -55q-1 -14 2 -43t2 -43l-4 -84q-4 -66 -4 -98q0 -14 3 -40t3 -40q0 -82 2 -98q2 -12 2 -97 q0 -4 -1 -26.5t-1 -26.5q2 -12 0.5 -43t-0.5 -43l4 -98q1 -36 11 -191q0 -3 2 -24.5t2 -34.5q0 -9 2 -18.5t4 -16.5t2 -8q0 -33 16 -55q12 -17 32.5 -29t45 -12t39.5 18q8 9 19 29.5t16 27.5q4 5 6 15t3 23t1 16l8 55q4 25 4 85t6 91q4 21 6 63t5 60q3 12 3 45v29 q-1 34 -1 54v19q1 23 1 62v42.5v42.5q0 39 1 62q4 57 4 74v6q0 6 -1 66t-1 63q4 29 4 54q0 17 -2 32q-4 22 -4 42q0 24 6 42l-4 14q-1 3 4 19q1 6 24.5 10t36.5 4l9 -2q17 0 26 -6q11 -10 19 -53q2 -5 2 -19t-2 -38q-4 -48 -4 -58q0 -13 -2 -54t-1 -63v-57q0 -4 1 -13.5 t1 -18t-2 -15.5q-4 -19 -3 -59.5t-3 -59.5q-5 -10 -3 -53t1 -53q-4 -36 -4 -52q0 -27 -3 -85t-3 -87q0 -117 -8 -174q-12 -87 -12 -92q0 -13 -10.5 -39t-12.5 -35q-2 -14 -10 -30t-10 -23q-5 -13 -17 -29t-22 -22q-11 -7 -48.5 -40.5t-64.5 -41.5q-34 -10 -64 -10 q-13 0 -26 2q-59 9 -88 29q-6 4 -26.5 16t-33.5 22t-22 23q-4 6 -21.5 28t-27.5 39.5t-11 34.5q0 11 -12 41q-6 15 -9 46t-5 40q-2 8 -9 34t-8.5 37t0.5 34q3 23 3 33t-3 34.5t-4 34.5q0 12 -0.5 30.5t0.5 43.5t1 43.5t-1 30.5q-1 17 -2 51t-2 51q-1 16 1.5 45t2.5 41 q0 14 -3 38t-3 38z" />
<glyph unicode="v" horiz-adv-x="655" d="M3 1317q-1 12 -1 19q0 9 2 10q3 9 13 15.5t20 6.5q11 -1 39 -0.5t39 -1.5q14 -2 31 0t35.5 0.5t23.5 -8.5q4 -6 4.5 -23.5t5.5 -21.5q6 -3 6 -21q5 -52 4 -63q-4 -31 2 -53q5 -22 9 -54q0 -4 1 -17t2 -21.5t3.5 -19.5t5.5 -17q7 -13 9.5 -43t4.5 -37q6 -37 12 -78 l25 -180q1 -9 4 -28t4 -28q4 -43 2 -63v-12q0 -33 13 -74q7 -22 10 -69.5t10 -69.5q4 0 17 50.5t16 65.5q1 2 2 12t3 17.5t5 9.5q4 3 6 16t2.5 27.5t1.5 16.5q4 22 27 144.5t39 186.5q14 54 29 154t20 127q11 58 20 92q0 1 2 10t3.5 16t4 13.5t5.5 7.5q1 10 0.5 16.5t0.5 11 t6 7.5t17 6q3 1 17 -0.5t25.5 -0.5t13.5 7q3 -2 13 -5t15 -9h-8q1 -8 1 -16q0 -28 -11 -56q-20 -50 -23 -104q-1 -26 -13.5 -77t-14.5 -62q-3 -17 -9.5 -50t-9.5 -49q-2 -12 -3.5 -41t-4.5 -45q-3 -14 -20 -85.5t-23 -110.5q-6 -43 -33 -170q-8 -39 -25.5 -117t-25.5 -117 q-2 -13 -6 -46t-8 -50q-25 -92 -27 -113q-4 -9 -2 -17t-1.5 -15t-16.5 -9h-2q-7 0 -18 5q-13 6 -21 6q-2 0 -24 -3t-42 -6q-15 -2 -19 -2h-1q1 3 -1.5 4t-6 1t-7.5 1t-6 3q-14 14 -18 24q-13 27 -15 33q-4 19 -8.5 41t-8.5 48.5t-7 41.5q-14 31 -14 104v7q0 38 -19 106 q-22 82 -22 137q0 50 -17 150q-6 42 -6 43q-2 41 -23 141q-3 18 -8 60.5t-10 64.5q-5 20 -10.5 73t-14.5 79q-3 6 -5 14.5t-4 19t-3 15.5q-2 10 -2 63q0 2 -3 29z" />
<glyph unicode="w" horiz-adv-x="921" d="M10 1219v8q0 15 2 39q4 32 2 51q-2 11 1 17.5t10 8t13.5 1.5t17.5 -1.5t16 -1.5q6 0 19.5 1t25.5 1t22 -2q15 -3 30 -3q20 0 38 5q7 2 11 -8.5t6 -26.5l1 -16q1 -4 4.5 -19.5t4.5 -24t-1 -19.5q-6 -15 1.5 -48.5t7.5 -35.5q1 -24 24 -318q1 -10 1 -34t1.5 -42.5 t5.5 -33.5q6 -23 7 -69.5t6 -65.5q5 -23 5 -46q0 -12 -1 -24q-1 -4 1.5 -14t2.5 -13q0 -27 2 -39q2 -9 2 -28.5t2 -28.5q2 -12 4 -37t4 -37q2 0 3 4.5t1.5 13t1 18t0.5 20.5v19v16v8q1 14 3.5 39t3.5 39q4 61 36 251q5 33 9 70.5t7.5 82.5t6.5 71q3 39 16 133q5 42 9 57 q2 8 4 24.5t4 24.5l14 74q1 3 2.5 18.5t3.5 29t4 15.5q1 1 4 2.5t4 2.5q8 10 56 0q4 -1 9 -2l7.5 -1.5t6 -1.5t5.5 -1.5t4.5 -2t3.5 -3t2.5 -4t2.5 -6t2 -7.5q1 -2 1.5 -12.5t1.5 -20t3 -10.5q3 -2 4.5 -11t2 -20t1.5 -14q0 -2 1 -7t1 -7q0 -23 3.5 -65t4.5 -56q1 -31 5 -63 t11.5 -77l10.5 -63q2 -15 12 -83t17 -105q4 -20 6.5 -62t7.5 -65q3 -16 8.5 -57.5t11.5 -63.5q1 -3 7 -66q2 -13 8 -41t8 -43q4 3 4 45q0 10 4.5 34t3.5 36v6q0 26 8 72q8 51 9 65q8 139 28 234q2 7 11 75t8 68q16 148 18 160q13 59 23 133q4 32 4 47q0 7 3 22t3 21 q0 5 2.5 11.5t6.5 13.5t5 10q-5 0 -11 -1l-5 -1l18 8q0 -4 -2 -6q13 0 23 -0.5t22 -2t17.5 -5t1.5 -9.5q4 -11 4 -35q0 -16 -2 -38t-5 -64t-5 -63q-5 -43 -16.5 -122t-14.5 -99q-2 -15 -8.5 -42t-8.5 -42q-12 -47 -2 -54l-14 -73q1 -3 -3.5 -27.5t-6.5 -28.5q-3 -7 -4 -16 t-1 -19.5t-1 -15.5t-4.5 -19t-3.5 -22q0 -6 2 -18.5t2 -18.5q-1 -10 -3 -21.5t-5.5 -24.5t-4.5 -19q-2 -14 -14.5 -60.5t-13.5 -72.5q-1 -29 -10.5 -86t-10.5 -84q0 -28 -4 -86q0 -6 -9 -30t-13 -24q-2 0 -8 -4.5t-13 -3.5q-4 -6 -25 -6.5t-48 2t-29 2.5q-25 0 -29 8l-2 4v7 l-6 18q-2 7 -7.5 20.5t-7.5 20.5q-3 13 -5 38.5t-5 37.5q-6 26 -12 77t-12 76q-22 106 -27 150q-1 3 -1.5 17.5t-2.5 26.5t-6 15q-2 2 -1.5 14t-0.5 17q-3 14 -7.5 41.5t-7.5 40.5q-5 20 -8.5 67t-9.5 70q-1 0 -2.5 -12.5t-3 -27t-2.5 -17.5q-5 -22 -10.5 -64.5t-6.5 -48.5 q-1 -9 -4 -41.5t-6 -48.5q-3 -10 -4 -20.5t-1 -22t-1 -18.5q0 -7 -4.5 -41.5t-3.5 -53.5v-5q1 -23 -7 -62q-8 -44 -10 -53q-1 -14 2 -39t3 -35q-1 -14 -9.5 -42.5t-9.5 -43.5q-6 -74 -35 -78q-14 -2 -42.5 0.5t-41.5 1.5q-1 0 -6 -4q-4 -3 -7 -2h-1q-8 2 -20 10 q-17 10 -21 39q-1 5 0 15.5t0 15.5q0 2 -6 8q-1 2 -5 52t-5 54q-4 27 -12.5 81t-12.5 81q-11 92 -14 105q-2 8 -4 26t-4 25t-6 35.5t-1 31.5q2 6 0.5 16.5t-4 25t-2.5 16.5q-4 59 -10 86q-6 25 -10.5 53t-8 62.5t-6.5 52.5q-16 112 -20 131q-6 25 -13 72t-10 63q-4 20 -8 66 z" />
<glyph unicode="x" horiz-adv-x="593" d="M-37 7q-2 3 -2.5 7t2.5 9q2 4 9 23t13.5 34t10.5 16q1 0 10.5 25.5t9.5 28.5q-1 8 9 21.5t12 18.5q3 15 18 54q32 77 43 114q68 201 95 277q6 18 8 20q-8 19 -15 43q-9 25 -20 72q-5 22 -18.5 65.5t-18.5 65.5q-24 102 -41 154q-6 24 -8 28q-2 3 -2.5 16.5t-3.5 16.5 t-11 25t-8 28q0 20 -22 64q-5 9 -8.5 29t-4.5 22q-1 3 -4.5 12.5t-3.5 12.5q0 1 1 9t1 9q-3 8 2.5 20t14.5 15q3 1 10.5 2t11.5 2h31q10 1 23 1q26 0 65 -3q3 0 9.5 0.5t11 1t10 -0.5t8.5 -3q9 -4 10 -11t-1 -13t1 -15q5 -12 9.5 -26.5t9 -33.5t6.5 -28q5 -19 13 -55.5 t13 -55.5q3 -11 10.5 -32.5t10.5 -34.5q1 -6 18 -62q0 -2 1.5 -11t3 -16.5t4.5 -15t6 -10.5q3 4 5.5 16t4.5 15l4 16t5.5 21t6.5 12q5 4 10 15t10.5 28.5t6.5 19.5q6 17 18 44.5t17 39.5l32 84q20 56 29 72q1 1 9 12l16 21q0 3 26.5 5.5t38.5 2.5q0 -2 3.5 -6.5t4.5 -5.5 l2 -15q0 -2 -3.5 -10t-4.5 -10q-2 -5 -5 -13.5t-5 -13.5q-3 -9 -11 -26.5t-11 -26.5l-21 -61q-18 -62 -27 -80q-4 -7 -12.5 -28.5t-15.5 -31.5q-6 -9 -13 -31t-10 -28q-6 -14 -21.5 -47.5t-23.5 -52.5q-4 -10 -6.5 -32.5t-5.5 -31.5q-1 -5 -5 -11.5t-4.5 -9t1.5 -12.5 q4 -10 8 -30t6 -27l21 -63q0 -14 11 -40.5t13 -37.5q10 -60 12 -66q17 -51 19 -55q1 -3 4 -20t6.5 -32t7.5 -18q5 -2 17 -51q2 -13 10 -35t10 -31l21 -75q26 -105 38 -148l3 -4q1 -3 4.5 -12t5.5 -17q1 -4 1 -7t-1 -5q-3 -10 -15 -14.5t-22.5 -4.5t-26.5 1.5t-20 1.5 q-10 0 -68 10q-6 1 -10 0.5t-8 1t-8 6.5l-15 23q-18 28 -24 57q-6 41 -35 117l-49 135q-18 47 -19 53q-1 4 -3 24.5t-5.5 38t-9.5 21.5q-2 -2 -6 -13l-4 -11q-4 -18 -17 -47q-11 -25 -25.5 -82t-27.5 -84q-11 -24 -20 -52q-3 -10 -14.5 -26.5t-14.5 -24.5t-12 -34 t-17.5 -44.5t-19.5 -33.5l-33 -31q-5 1 -15 0t-22.5 0t-23 3t-15.5 8z" />
<glyph unicode="y" horiz-adv-x="634" d="M-1 1346q0 1 1 2q0 1 1.5 4t4.5 6q12 12 30 12q10 0 23 -4q19 2 39 2t41 -2q10 2 18 2q6 0 11 -1q11 -3 18 -19q8 -20 14 -43.5t12.5 -53.5t10.5 -45q7 -28 13 -55q8 -28 8 -39q8 -16 8 -35q0 -10 16 -82q8 -44 15 -65q8 -24 17.5 -68.5t14.5 -62.5q1 -5 3.5 -15.5 t3.5 -15.5l4 -16q5 -11 6 -11q4 -4 7 1t3 8l10 24q2 7 6.5 21.5t6.5 21.5q16 48 16 64q0 9 8 27t8 26q1 15 15.5 48t13.5 50q-1 15 12 41t15 37q2 10 7 27.5t7 23.5q10 57 16 62q4 6 8 15t7.5 19.5t5.5 14.5q2 6 5 17.5t6 21t7 16.5q0 11 8 23q3 -1 6 -1t7 0.5t6 0.5l24 4 q17 4 29 2q4 0 12 -4q7 -7 7 -21q0 -3 -1.5 -9t-1.5 -9l-4 -25q0 -12 -6 -12q-12 -39 -12 -43q-1 -13 -21 -62q-5 -13 -10 -37t-10 -36q-1 -2 -2.5 -13.5t-3.5 -21t-6 -10.5q-3 -7 -12 -36.5t-11 -33.5q-2 -6 -4 -19.5t-2 -15.5q-15 -52 -51.5 -149t-50.5 -142q0 -1 -2.5 -7 t-5 -11t-5.5 -6q1 -7 -6 -43q-1 -6 1 -22.5t1 -22.5q-3 -8 -3 -26.5t-1 -22.5q0 -23 -4 -27q-2 -2 -1.5 -27.5t-0.5 -29.5q-4 -19 -4.5 -44.5t1 -58.5t1.5 -47q0 -61 2 -74q2 -14 -1 -37t-1 -34q5 -22 0 -60q-1 -8 1 -24t1 -23q-1 -3 0 -5.5t-1 -4.5t-7 -2l-68 2h-86 q-8 0 -13 3t-8 6t-5.5 9.5t-3 10.5t-1.5 13.5t-2 12.5q-4 26 -5 58t-0.5 51.5t2 61t1.5 53.5q1 23 1 54q0 61 -3 156q0 11 1 33t1 33q0 2 -1.5 12t-0.5 15q2 15 1.5 22t-3.5 21t-4 20q0 10 -18 70q-15 46 -28.5 96.5t-29.5 116.5t-24 98q-3 12 -9.5 36.5t-9.5 37.5 q-1 7 -6 22t-8 28t-2 21q0 4 -5 21.5t-7 21.5q-7 7 -15 62q-1 3 -5.5 15t-7.5 23t-1 15q-1 1 -2.5 4.5t-1.5 4.5z" />
<glyph unicode="z" horiz-adv-x="593" d="M-8 74q0 3 1 9l1.5 9t-0.5 6q-3 10 8 47q7 25 14 41q13 29 21 56q9 29 24.5 87t24.5 87q7 22 20.5 65t20.5 64l8 24q1 2 4 15t7 21.5t8 12.5q-5 13 8 42.5t14 35.5q3 25 19 69.5t20 63.5q6 27 16 56t23 64.5t20 54.5l21 61q1 3 6.5 25.5t11.5 29.5t11 23.5t6 19.5 q14 37 16 56q1 4 4 10.5t5.5 12t3.5 11t-2 8.5t-11 3l-78 -2q-126 -5 -139 -7q-5 -1 -28 0.5t-25 -2.5q-6 -3 -18 6.5t-15 8.5q5 21 0 26q-2 2 0 13t0 14q-2 8 -2 10t3.5 8.5t4.5 8.5q0 4 2 6.5t6 4t8.5 2.5t10.5 1h10.5h9.5h6q27 -2 54.5 -2t56.5 2q7 2 28 2q17 0 45 -2 q62 -2 74 -2q18 0 55 2t56 2h51l25 16h12q2 -2 2 -8q1 -5 3.5 -10.5t7 -11.5t6.5 -9q12 -18 12 -41q0 -59 -12 -63q-6 -2 -10.5 -15t-7 -31.5t-3.5 -21.5q-3 -11 -10 -33.5t-10 -33.5q-25 -86 -68 -176q-9 -19 -20 -54t-15 -45q-12 -29 -28 -94q-6 -23 -23.5 -65t-20.5 -52 q-2 -5 -11 -31.5t-13 -41.5q-2 -11 -10.5 -32t-10.5 -28q-17 -57 -18 -59q-9 -20 -23.5 -63.5t-23.5 -63.5q-7 -18 -19.5 -58t-19.5 -57q-3 -8 -7.5 -25.5t-9.5 -32t-10 -22.5q-1 -4 2.5 -6t9.5 -2.5t12 -0.5t14 0.5t12 0.5h63q23 0 68 3t67 3q52 0 68 -14q11 -8 11 -27.5 t-7 -31.5q-2 -6 -5 -9.5t-6 -5t-7 -2.5t-6.5 -1t-8 0.5t-8.5 0.5h-31q-39 -10 -43 -6q-11 5 -34.5 4.5t-37.5 -2.5q-53 -6 -104 -6h-18q-25 0 -71 -1q-20 -1 -36 -1q-40 0 -53 4q-21 3 -33 31q-7 12 -12 41z" />
<glyph unicode="{" horiz-adv-x="419" d="M14 561q0 6 2 16.5t2 16.5q0 16 2 24l3 11q2 4 10 4q5 0 15 -1t15 -1q17 0 25 2q8 0 12 2l6 6q1 1 2.5 3t2.5 3q2 1 6.5 4.5t5.5 5.5q2 3 4 10.5t4 10.5q6 10 12 61q4 42 4 183q0 14 -1 41.5t-1 42.5q0 5 -1 15.5t-1 19t2 14.5q8 23 2 32q-1 4 0 10t2 15t1 12q5 89 8 105 q12 85 32 119q5 10 22.5 23.5t23.5 21.5q5 7 10.5 11.5t14 8.5t12 5t16 4.5t14.5 4.5l21 7q6 2 18 2l23 2q12 2 36 2l-22 -6q8 0 12 -2q4 -4 4 -11q0 -3 -1 -9t-1 -9q0 -13 2 -19l2 -8q0 -4 -2 -6t-10 -2q-2 0 -5 -1t-5 -1l-27 -2q-1 0 -7 -1t-8 -1t-7 -1.5t-7 -3t-4.5 -4.5 t-3.5 -7q-2 -6 -2 -21q0 -14 -4 -20l-2 -2q-4 -4 -6 -18.5t0 -22.5q0 -3 -2 -9t-2 -8q0 -18 2 -26q1 -15 0.5 -23.5t-3 -27t-3.5 -23.5q-8 -56 -6 -82q4 -65 -4 -105q-5 -24 -5 -120q0 -3 -2.5 -26.5t-1.5 -29.5q2 -7 -2 -24t-4 -21q-3 -44 -22 -84l-13 -22q-3 -6 -6 -10.5 t-8 -9.5t-7.5 -8t-9 -8t-9 -6.5t-10 -7t-9.5 -6.5q0 -2 8.5 -8t18 -12.5t10.5 -7.5q9 -9 18 -28t15 -27q2 -2 2.5 -19t1.5 -20q8 -28 8 -43q1 -14 2 -40t2 -40q3 -39 4 -102t1 -107.5t-1 -44.5q0 -4 1 -11.5t1 -11.5q0 -3 2.5 -12t1.5 -12q-3 -7 -1 -26.5t-1 -27.5 q0 -1 3 -7.5t3 -8.5q0 -44 9 -68q2 -2 6.5 -12.5t1.5 -13.5q18 -27 18 -29q2 0 15 -9.5t20 -4.5q2 2 16 -2.5t15 -7.5q24 0 32 -7q-4 -4 -4 -30q0 -33 -8 -33q-59 -18 -145 16q-5 2 -10.5 6t-11.5 10.5t-10 10.5t-10.5 12t-8.5 10q-2 3 -5.5 9.5t-5.5 9.5t-5 17t-5 16 q-21 16 -27 94q-1 14 -2 43t-2 43q-1 28 -7 75t-7 76q-1 9 -1.5 38.5t-2.5 43.5v15q0 4 -3 32.5t-1 36.5q4 16 -6 80q-3 21 -4.5 29t-7.5 22t-17 25q-19 23 -43 23q-17 0 -23 6q0 4 -3 10t-3 10z" />
<glyph unicode="|" horiz-adv-x="1024" d="M426 969q0 25 1 53.5t2.5 63.5t2.5 55l2 51q0 2 1 12.5t1.5 17t-0.5 9.5q-2 2 -2 8t1 13t1 8q0 3 -2.5 25.5t0.5 23.5q4 11 4 36.5v30.5q6 48 6 49q0 5 -1.5 16t-0.5 19q2 1 7 3t9 3.5t7 1.5q14 0 18 2q9 5 40.5 3.5t37.5 -7.5h14q5 0 13 -24l4 -8q9 -27 4 -45 q-3 -11 -3.5 -25t0.5 -34t1 -27q0 -13 -1 -36t-1 -36q0 -3 -1.5 -47t1.5 -47q2 -26 -0.5 -78t-1.5 -74q2 -29 1 -89t1 -91q2 -41 2 -119q0 -30 -4 -88t-4 -88q0 -13 1 -40t1 -49t-2 -40q-4 -51 -3.5 -144.5t-2.5 -142.5q0 -5 3 -16.5t3 -16.5t-1 -16t-1 -16v-60v-123 q1 -20 1 -58t1 -69.5t4 -58.5q0 -4 2 -13.5t3 -15.5t1 -15t-3.5 -12.5t-10.5 -6.5t-19 2q-14 1 -20 1t-21 -2.5t-20 -3.5q-7 -1 -23.5 0.5t-21.5 -0.5q-6 36 -6 39q0 49 -2 58q-3 15 -3 69q3 68 3 136q-1 35 -1.5 104.5t-1.5 105.5q0 22 1.5 65t1.5 65v51q0 3 -0.5 11.5 t-0.5 16t1 11.5q5 25 -5 82q-5 64 -2 84q1 10 -1 31t-1 30q4 24 -6 86q-4 31 -4 143q0 32 -2 94t-2 93z" />
<glyph unicode="}" horiz-adv-x="419" d="M-6 -211l8 18q2 9 78 9q18 1 29.5 11t15.5 25.5t6.5 34t1.5 35t0 29.5q3 47 -2 215q-3 114 12 231q3 21 17 90q17 61 30 68q1 3 9.5 12.5t14.5 17t3 9.5q-1 1 -10 7t-16 12t-7 10q-9 1 -19 21t-13 22q-4 4 -8 12.5t-7 21.5t-4 15q-12 43 -16 106q-2 29 -1.5 98.5 t-2.5 96.5q-2 14 -2 29t1 33t1 28q0 82 2 123q6 33 2.5 72t-33.5 59q-7 4 -21.5 5.5t-26 1t-20.5 5t-8 17.5q0 18 -2 28l12 6q2 2 11.5 2.5t11.5 1.5q7 1 21 -0.5t18 -1.5q39 0 47 -2q31 -7 45 -14q15 -6 26.5 -17t17 -21t13.5 -28.5t13 -27.5q7 -14 12 -43q2 -12 2 -37v-39 q4 -4 4.5 -17.5t-1 -31.5t-1.5 -21q-6 -103 -6 -104v-70q0 -3 0.5 -15t0.5 -18.5t-2 -15.5t-5 -14q10 -8 4.5 -44.5t-1.5 -83t25 -52.5q4 -1 11 -10t10 -11q5 -3 14.5 -10t14.5 -10q14 -9 28 -9q3 0 14.5 -3.5t12.5 -4.5v-20q-3 -6 3 -10t7 -7l-12 -14q0 -3 -1.5 -11 t-0.5 -11q0 -2 -2 -13t-2 -12q-2 -2 -15 -6t-14 -4q-2 -1 -8 -3.5t-11 -4.5t-9 -6t-5 -7q-1 -1 -2 -2.5t-3.5 -5t-4 -6t-0.5 -2.5q-5 -1 -11.5 -29.5t-6.5 -36.5q0 -12 -5 -57q-1 -8 -5 -43.5t-3 -54.5q1 -11 -0.5 -33t-1.5 -29q0 -4 -1 -11t-1 -11q0 -1 -1 -11.5 t-1.5 -17.5t0.5 -10q11 -9 0 -66q-8 -65 -10 -100q-3 -65 -25 -123q-2 -4 -10 -19.5t-10 -23.5q-1 -2 -5.5 -12.5t-4.5 -16.5q-2 0 -10 -7.5t-7 -8.5l4 -2q-3 -4 -9 -7t-13.5 -5.5t-9.5 -3.5q-7 -2 -17 -8.5t-14 -8.5q-30 -10 -103 -6q-4 0 -8.5 2t-7.5 2t-4 7.5t-4 8.5v25z " />
<glyph unicode="~" />
<glyph unicode="&#xa1;" horiz-adv-x="417" />
<glyph unicode="&#xa2;" />
<glyph unicode="&#xa3;" d="M14 737.5q-4 21.5 2 24.5q2 5 2.5 6.5t2 2.5t2 0.5t4 -1t6.5 -0.5l20 2q16 2 49 2h60l2 4q0 33 -4 103q-1 17 8 115.5t12 113.5q23 95 31 113q9 20 29 47q6 8 35 40t36 36q4 2 18 12.5t23 13.5q30 12 66 12q77 4 110 -26q5 -5 35.5 -28t38.5 -40q2 -4 8 -17t8 -18 t5.5 -15t5 -19t2.5 -19l4 -63q0 -4 1 -12.5t1 -12.5q0 -16 -4 -22q-3 -3 -33 -15q-12 -3 -25 0l-10 4q-4 2 -8 6l-14 7l-2 4q-9 14 -9 16q-2 14 -2 41q-1 37 -4 60t-16 53t-37 45q-6 4 -20 7.5t-21 0.5l-31 -16q-8 -5 -24 -28.5t-19 -35.5q-10 -39 -12 -57q-9 -53 -2 -115 q1 -11 3 -46t5 -60.5t8 -47.5q13 -50 15 -118q0 -16 9 -18.5t24 1.5q30 3 61 0q1 0 7.5 0.5t10.5 0t9.5 -1.5t8.5 -3.5t3 -7.5l4 -16q1 -4 1 -9.5t-0.5 -12t-0.5 -9.5q0 -17 -2 -25q-1 -4 -5 -11t-5 -11l-2 -4q-2 -4 -11 -4q-8 -1 -24.5 -2t-24.5 -2q-32 0 -37 2q-6 2 -20 2 q-9 0 -10 -6t2 -13q11 -77 0 -268q-4 -64 -13 -88q-8 -19 -10 -31q-16 -78 -26 -88q-4 -3 -8 -17.5t-7 -17.5q-2 -2 -3.5 -4t-2 -4.5t2 -4t7.5 -1.5q14 0 41 -2t39 -2q32 -4 75.5 -1t72.5 19q28 15 55.5 47t28.5 58q1 8 9 13.5t16 3.5t9 -13l9 -2q4 -31 2 -39q-3 -13 -8 -15 q-4 -1 -4.5 -8t-0.5 -8q-3 -7 -6 -21t-6 -20q-2 -4 -12 -12t-12 -15q-3 -6 -21 -24q-5 -4 -17.5 -18.5t-19.5 -18.5q-9 -9 -38.5 -31t-37.5 -22q-5 2 -34 -8q-17 -4 -52 0q-16 1 -82 7.5t-71 6.5q-25 2 -72 2q-6 0 -19 1t-23.5 1t-18.5 -2q-30 -7 -49 12q-8 8 -1 29.5 t19 21.5q16 0 32 11.5t24.5 23t6.5 11.5q2 0 19 34q5 7 6.5 30t7.5 28q-3 2 -0.5 18.5t2.5 18.5q0 98 4 114q3 5 0.5 30t-2.5 30v55l-4 61q-2 17 -2 61.5t2 61.5q1 7 -13 9.5t-32.5 0.5t-34.5 -4t-22 -4q-26 -7 -38 -1t-20 30q-2 8 -2 29q0 5 -4 26.5z" />
<glyph unicode="&#xa5;" horiz-adv-x="704" d="M29 1331q2 3 3 8t3.5 7t9.5 4q50 15 78 4q6 -3 9.5 -6t7.5 -9t7 -10q0 -2 5 -11t6 -9q2 -1 5.5 -10.5t6.5 -20.5t4 -12q20 -38 23 -76q1 -12 8 -34t8 -34q2 -18 15 -55t16 -55t16 -47t16 -45q1 -7 6.5 -20t6.5 -19q4 -29 14 -52q6 1 24.5 0.5t24.5 1.5q4 1 6.5 4t4 9 t2.5 8q2 6 14 53q8 33 16 51q2 6 7 29.5t4 24.5t5.5 24t8.5 27q7 17 14 51q2 12 11 46.5t10 53.5q0 7 2 15.5t5.5 19t4.5 15.5q1 3 3 19t7 22q-2 7 2.5 18t3.5 18q0 12 12 19t21 2q11 -4 38.5 1.5t35.5 4.5t25.5 1t25.5 1q14 -2 14 -6l25 2q2 -1 7.5 -4.5t8.5 -3.5 q-3 -8 -4.5 -27.5t-3.5 -25.5q-2 -8 -5 -26t-5 -26q-10 -35 -10 -41q0 -9 -6 -28t-11 -25q-1 -7 -8 -27.5t-6 -29.5q-7 0 -7.5 -13.5t-6.5 -15.5l-9 -31q0 -8 -10.5 -40t-15.5 -35l-10 -41q-2 -10 -7 -19q-2 -4 -3.5 -17.5t-4.5 -19.5q-5 -7 -6.5 -14t2.5 -11.5t14 -4.5h45 q13 0 13 -11q1 0 6.5 -24t5.5 -29q0 -20 -14 -22q-1 0 -5.5 1t-7.5 1t-4 -2q-3 -4 -14 -4l-55 -3q-14 0 -16.5 -1t-6.5 -13q-2 -6 -6.5 -25.5t-9.5 -29.5q-2 -5 -4 -9.5t-4.5 -11.5t-1 -10t7.5 -2q11 4 65 2.5t58 -10.5q9 -22 12 -43v-14q0 -5 8 -13q-5 -14 -12 -18.5 t-23.5 -6t-25.5 -3.5q-7 -2 -31 0.5t-31 -2.5q-7 -4 -36.5 -1t-32.5 -10q-3 -5 -3.5 -12t0 -11t2 -13t1.5 -11q2 -14 2 -172q10 -57 10 -129q0 -20 -1 -55t-1 -51q0 -2 -1.5 -13t-0.5 -16t-8 -23q1 -8 -3 -12t-4 -8q0 -2 -3 -2.5t-7 0t-8.5 1t-7.5 1.5h-4q-8 1 -24 -1 t-23 -1q-3 1 -10.5 3t-14 3t-10.5 0q-43 -9 -49 37q-1 10 0 31t0 30l-9 82q-4 42 -3.5 120t-2.5 120q-1 13 -1 37.5t-1 38.5q0 2 1.5 7t1.5 8t-3 3q-6 2 -26 2l-74 -4q-10 -1 -32 -1t-34 -1q-8 24 -8 39q0 5 -2 18.5t-1 23t7 15.5q7 7 21 10t34 3.5t27 1.5q14 2 40 2.5 t34 1.5q14 0 7 20q-1 1 -1 2l-2 15q-2 9 -10 25t-10 22q-7 28 -15 28h-26q-11 4 -45 -2q0 -1 -20 -1l-21 1q-2 0 -10 4t-9 4q2 2 -0.5 25.5t-5.5 24.5q-4 2 -4 5.5t2 8t2 6.5q2 14 37 14h72q-2 15 -21 64q-1 2 -4.5 12.5t-6.5 18.5t-7 12q-5 4 -10 17t-9 28t-6 20 q0 2 -5.5 20.5t-6.5 18.5q-4 1 -12.5 32.5t-6.5 33.5q0 7 -14 35q-2 6 -25 71q-5 9 -14.5 42t-5.5 36q-3 3 -8 20.5t-4 20.5z" />
<glyph unicode="&#xa6;" horiz-adv-x="1024" />
<glyph unicode="&#xa7;" />
<glyph unicode="&#xa8;" horiz-adv-x="628" />
<glyph unicode="&#xa9;" horiz-adv-x="1282" />
<glyph unicode="&#xaa;" />
<glyph unicode="&#xab;" horiz-adv-x="593" />
<glyph unicode="&#xac;" />
<glyph unicode="&#xad;" horiz-adv-x="454" d="M83.5 565.5q-0.5 4.5 0 10.5t1 10.5t2.5 8t5 3.5q2 1 7 4.5t10 3.5q4 0 12 1t12 1l115 -4h55q0 1 15.5 1t32.5 -1t22 -4h2v-20q6 -36 6 -39l4 -64q0 -4 -8 -9t-12 -5q-12 -4 -17 -4q-2 0 -10.5 1.5t-15.5 1.5t-11 -3q-2 -1 -11.5 0.5t-10.5 1.5l-43 -2h-45 q-7 -2 -15.5 -2t-18 1t-13.5 1q-1 0 -12.5 -1.5t-19.5 -1t-11 4.5l-9 9t-9 11t-5 13q-8 38 -4 57v5.5t-0.5 9z" />
<glyph unicode="&#xae;" d="M2 995q-8 51 10 121q1 3 3.5 14t4.5 18.5t6 16t7 11.5q5 4 10.5 22t11.5 21t19.5 23t13.5 26q0 7 25 32q4 5 11.5 11.5t8.5 7.5l8 8q6 6 6 14q12 6 15 7q2 4 10 6t21 4t14 2q71 16 102 18q50 3 84 -10q55 -24 68 -27q3 -5 19 -16.5t22 -11.5q5 0 15 -9t13 -10 q7 -4 14 -10t17.5 -17t11.5 -12q15 -15 19 -22q2 -3 5.5 -17.5t4.5 -15.5q7 -5 8 -19t4 -18q3 -3 4 -8.5t1.5 -12t1.5 -9.5q2 -8 5 -27t5 -27q1 -2 5.5 -13.5t4.5 -16.5q0 -3 2.5 -5.5t3.5 -5.5q0 -1 -1 -3t-1 -3q4 -16 4 -28q0 -37 -2 -39l-6 -15q-6 -2 -2 -23.5t2 -25.5 q-4 -8 -7 -29.5t-7 -29.5q-1 -9 -7 -21.5t-8 -17.5q-2 -10 -16.5 -28t-15.5 -27q-1 -11 -16 -25t-17 -21q-10 -1 -26.5 -21t-22.5 -22t-20 -11.5t-21 -12.5q-25 -13 -54 -19q-60 -9 -75 -10q-83 -8 -99 10q-2 4 -41 17q-7 2 -17.5 9.5t-12.5 8.5q-31 21 -31 29 q0 7 -5.5 14.5t-14.5 15.5t-11 11q-26 28 -61 96q-12 24 -17.5 53.5t-9 68t-6.5 56.5zM70 1032q-12 -55 8 -135q1 -4 5 -30t11 -40q3 -5 5 -13t5 -13q7 -8 7 -10t6 -10t6 -9q9 -16 34.5 -38.5t32.5 -31.5q10 -11 30 -23t34 -13q4 0 24 -6.5t31 -4.5q10 3 58 19q2 1 18 5.5 t21.5 7l16.5 7.5t18 10.5t12 12.5l12 16q3 3 7 9.5t7 9.5q3 10 15 22q1 1 5.5 12t8.5 13q-1 3 1.5 8t6 10.5t4.5 7.5q2 9 10.5 26t10.5 23q9 33 16 44q10 20 10 71l-10 6q0 1 -2.5 22.5t-4.5 42t-1 21.5q-12 0 -12 45q0 14 -5 19q-10 10 -10 16q0 2 -22 35q0 1 -10 15.5 t-17.5 24t-11.5 9.5t-17 13.5t-18 15.5q-30 10 -57 22q-21 9 -86 4q-18 -2 -66 -16q-25 -6 -39 -18q-1 -1 -9 -13.5t-13 -13.5q-4 -1 -13.5 -16t-11.5 -21q-12 -23 -14 -35q-1 -4 -10 -17.5t-9 -21.5q-6 -4 -13.5 -24.5t-8.5 -22.5q-4 -7 -5 -27.5t-1 -21.5zM200 863.5v25.5 t1 22q8 106 6 154q-1 19 -1 58t-1 59q0 6 2 18t2 19q3 4 10.5 5.5t17.5 1.5t13 1q24 0 29 0.5t28.5 -3.5t28.5 -5q47 -7 57 -19q2 -2 9.5 -4.5t9.5 -5.5q13 -16 18 -29q6 -12 4 -22q12 -24 12 -49q0 -33 -14.5 -60.5t-40.5 -42.5q-1 -1 -3 -4t-4 -5.5t-3 -2.5v-2 q8 -23 16 -27q0 -9 7 -24.5t8 -20.5q4 -18 10 -31q12 -30 16 -32l-8 2q1 -1 6 -3t8.5 -3.5t4.5 -2.5v-18q0 -3 -3.5 -8t-3.5 -8q-10 -6 -24 -6q-1 0 -6.5 -0.5t-9.5 -0.5t-8 1t-5 4q0 3 -9 10.5t-13 9.5q-8 3 -17.5 14.5t-9.5 18.5t-5.5 22.5t-6.5 20.5q-6 25 -15 70 q-4 1 -7.5 -21t-5 -44.5t-1.5 -31.5v-37q-1 -6 -2 -9.5t-2.5 -4.5t-3.5 -3.5t-4 -4.5q-5 -5 -10.5 -7.5t-18.5 -3.5l-12 -1q-13 -2 -22 3t-13.5 17t-7.5 22.5t-3 28zM301 1054.5q0 -5.5 1 -13.5t5 -12t12 -3h-2q35 3 48.5 19.5t11.5 50.5q-1 18 -11.5 27.5t-31.5 19.5 q-20 10 -21 12q-7 8 -7 -11q0 -5 1 -12v-2q0 -31 -2 -45q0 -3 -2 -14t-2 -16.5z" />
<glyph unicode="&#xaf;" horiz-adv-x="628" />
<glyph unicode="&#xb0;" horiz-adv-x="628" d="M82 1192q10 51 61 135q28 45 52 43q18 -1 46 9.5t44 9.5q106 -6 200 -64q2 -2 17.5 -18.5t19.5 -28.5q2 -7 9.5 -18.5t9.5 -18.5l-4 4q2 -6 -3.5 -19t-1.5 -20q5 -9 -3 -33t-17 -40q-13 -21 -33 -84q-4 -10 -10 -17t-22 -16.5t-17 -9.5q-44 -27 -55 -33q-6 -4 -34.5 -10 t-31.5 -2q-4 4 -41 4q-5 1 -16.5 0.5t-21 0.5t-15.5 5t-31 11t-32 15q-3 4 -19 18t-22 23q-42 77 -29 154zM207 1186q0 -3 1 -5.5t2.5 -6t2.5 -5.5t2 -6t2 -6l14 -37l7 -6l6 -12l12 -12q5 -9 8 -11q4 -3 17 -8q32 -9 59 -4q20 7 22 8q5 5 5 8q6 36 6 37l-2 -8q0 6 2.5 23.5 t1.5 27.5q-1 6 -1 16t-0.5 16t-2.5 15t-6 17q-18 32 -41 45q-14 7 -34 6.5t-34 -6.5q-31 -14 -37 -45q-1 -3 -2 -9.5t-2 -9.5t-4.5 -10.5t-3.5 -11.5z" />
<glyph unicode="&#xb1;" />
<glyph unicode="&#xb2;" horiz-adv-x="489" />
<glyph unicode="&#xb3;" horiz-adv-x="489" />
<glyph unicode="&#xb4;" horiz-adv-x="628" />
<glyph unicode="&#xb5;" horiz-adv-x="593" />
<glyph unicode="&#xb6;" horiz-adv-x="768" />
<glyph unicode="&#xb7;" horiz-adv-x="382" />
<glyph unicode="&#xb8;" horiz-adv-x="628" />
<glyph unicode="&#xb9;" horiz-adv-x="489" />
<glyph unicode="&#xba;" />
<glyph unicode="&#xbb;" horiz-adv-x="593" />
<glyph unicode="&#xbc;" horiz-adv-x="1150" />
<glyph unicode="&#xbd;" horiz-adv-x="1150" />
<glyph unicode="&#xbe;" horiz-adv-x="1150" />
<glyph unicode="&#xbf;" horiz-adv-x="628" />
<glyph unicode="&#xc0;" horiz-adv-x="628" d="M16 18q-1 4 0 9l7 57l4 44t6 52q2 13 4 39.5t4 38.5q14 63 14 90q0 24 15 101q4 23 9 68t9 67q2 10 4 29.5t2 21.5q0 3 4 23.5t4 31.5q0 45 9 72q3 7 3.5 23t2.5 22q6 12 2 20q-2 7 4 31q2 8 3 27t3 28q3 18 7 54.5t7 54.5q3 15 8.5 47t8.5 47q11 55 12 66q1 10 3 21 t5 24.5t4 21.5q1 4 3 14.5t3 18.5t0 14q0 4 3 15t6 14q4 4 6 16.5t6 16.5q3 3 12 5t21 3.5t14 1.5q12 2 57 2l-12 -4h43q2 -6 16 -6q15 0 17 -2t4 -8t2 -7q4 -8 4 -12q-2 -9 4 -37q2 -10 8.5 -39.5t8.5 -48.5q16 -128 18 -137q8 -50 8 -74q0 -9 5 -30t5 -31q1 -17 9.5 -50.5 t9.5 -37.5q7 -29 20 -107q17 -102 17 -110q0 -9 8 -37q4 -15 8 -49q0 -28 6 -31q3 -2 5.5 -12.5t4 -21t3.5 -23.5t2 -15t3 -26.5t9 -34.5q2 -4 1.5 -18t0.5 -21q2 -10 12 -76q8 -50 8 -71q0 -65 13 -72q-2 -13 5.5 -39.5t8.5 -34.5q1 -26 -10.5 -34.5t-40.5 -10.5 q-52 -5 -64 -4q-60 5 -75 14q-7 4 -8.5 18.5t-0.5 28t-2 25.5q-1 6 -2.5 20t-3.5 25.5t-6 15.5v17v14q0 8 -1 24t-1 25q0 7 -3.5 21.5t-4.5 19.5q0 16 -2 19q-2 4 -12 4.5t-25.5 -1t-18.5 -1.5q-4 0 -17 -2.5t-19 -1.5q-20 4 -31 4q-72 5 -96 0q-18 -4 -21 -10q-1 -4 -2 -13 q0 -4 -1 -12t-1 -12q0 -27 -2 -37q-5 -32 -8.5 -94.5t-3.5 -67.5q-1 0 -1.5 -5.5t-2 -11.5t-4.5 -8q1 -9 -2 -11t-9.5 0.5t-7.5 2.5q-30 -12 -39 -10q-10 0 -12 2q-2 4 -5.5 1t-6.5 -3q-2 3 -4.5 7.5t-4 6.5t-2.5 6zM140 1577.5q0 9.5 1 9.5t3 7t4.5 15t3.5 9l8 33 q1 3 4.5 6.5t3.5 5.5l-6 2q3 10 31 -4.5t36 -22.5q9 -9 34 -26.5t34 -28.5l14 -16q3 -4 12 -9.5t13 -9.5q2 -3 4.5 -5.5t6 -5.5t5.5 -5l4 -6q1 -1 4.5 -3t4.5 -3l6 -7q2 -2 2 -10q2 -4 2 -12q-1 -5 -6.5 -12.5t-6.5 -12.5q-3 -7 -6 -8.5t-14 -1.5q-22 0 -92 31 q-10 4 -26 15.5t-23 15.5q-14 6 -37 24q-8 4 -12 8q-2 2 -6 9t-5 8t-1 10.5zM147 434q30 -3 101 0.5t100 -2.5q3 9 -2.5 36.5t-5.5 31.5q-1 12 -6.5 40t-5.5 42q-4 34 -16.5 106t-14.5 82l-8 37q-2 8 -6.5 24.5t-6.5 24.5l-10 51q-2 8 -6 24.5t-6 24.5l-8 41v13l-2 -17 q-1 -8 -9.5 -44.5t-9.5 -41.5q-2 -14 -8 -42.5t-8 -43.5q-3 -43 -8 -69l-6 -29q-1 0 -2 -6t-2.5 -12t-2.5 -7q-4 -8 -5 -18.5t-1.5 -25t-1.5 -19.5q-4 -24 -4 -37l-2 -6q-1 -2 0 -4q1 -4 0 -10q-3 -23 -10 -43q-4 -15 -7 -31.5t-5.5 -37t-4.5 -32.5zM248 1026l2 2q0 2 -1 1 t-1 -3z" />
<glyph unicode="&#xc1;" horiz-adv-x="628" d="M27 11.5q-1 4.5 0 8.5l6 58l4 44t6 52q2 13 4 39.5t4 38.5q15 68 15 90q0 28 14 100q4 22 10 68t10 68q2 10 4 29.5t2 21.5q1 4 5 24.5t4 30.5q0 48 8 72q3 7 3.5 23t2.5 22q6 12 2 20q-2 7 4 31q2 8 3 27t3 28q3 18 7.5 54.5t7.5 54.5q3 16 8 47t8 47q11 55 12 66 q1 13 6.5 36.5t6.5 30.5q1 4 3 14.5t3 18.5t0 14q0 21 8 29q4 4 6 16.5t6 16.5q3 3 12 5t21 3.5t14 1.5q12 2 58 2l-15 -4h43q2 -6 17 -6q14 0 16 -2t4 -8t2 -7q4 -8 4 -12q-2 -9 4 -37q2 -10 8.5 -39.5t8.5 -48.5q16 -128 18 -137q8 -50 8 -74q0 -9 5.5 -30t5.5 -31 q1 -13 4 -27.5t7.5 -33t6.5 -27.5q11 -46 21 -107q15 -93 16 -110q0 -9 8 -37q4 -15 8 -49q0 -27 7 -31q4 -3 6.5 -17t5 -34t2.5 -21q0 -2 3 -26.5t9 -34.5q2 -4 1.5 -18t0.5 -21q2 -10 12 -76q9 -56 9 -72q0 -65 12 -71q-2 -13 5.5 -39.5t8.5 -34.5q1 -26 -10.5 -34.5 t-40.5 -10.5q-51 -5 -63 -4q-61 5 -76 14q-7 4 -8.5 18.5t0 28t-1.5 25.5q-1 5 -2.5 19.5t-4 26t-6.5 15.5v17v14q0 8 -1 24t-1 25q0 7 -3.5 21.5t-4.5 19.5q0 16 -2 19q-2 4 -12 4.5t-25 -1t-18 -1.5q-4 0 -17.5 -3t-19.5 -2q-25 5 -31 5q-72 5 -96 0q-18 -4 -21 -10 q-1 -4 -2 -13q0 -4 -1 -12.5t-1 -12.5q0 -26 -2 -36q-5 -32 -8.5 -94.5t-3.5 -67.5q-1 0 -1.5 -5.5t-2 -11.5t-4.5 -8q1 -9 -2 -11t-9.5 0.5t-7.5 2.5q-30 -12 -39 -10q-10 0 -12 2q-2 4 -5.5 1t-6.5 -3q-2 3 -4.5 7.5t-3.5 6t-2 6zM158 428q30 -3 100.5 0.5t99.5 -2.5 q3 9 -2.5 36.5t-5.5 31.5q-1 12 -6.5 40t-5.5 41q-4 35 -16.5 107t-14.5 82l-8 37q-2 8 -6 24.5t-6 24.5l-11 51q-2 8 -6 24.5t-6 24.5l-8 41v13l-2 -17q-1 -8 -9 -44.5t-9 -41.5q-2 -15 -8.5 -43.5t-8.5 -42.5q-4 -44 -8 -70l-6 -28q-1 0 -2 -6l-2 -12t-2 -7 q-4 -8 -5.5 -18t-2.5 -25.5t-1 -19.5q-4 -24 -4 -37l-2 -6q-1 -2 0 -6t0 -9q-3 -23 -10 -43q-6 -19 -10.5 -56t-5.5 -44zM168 1497q8 12 12 16q4 3 39.5 29.5t52.5 42.5q8 7 27 18.5t27 18.5q32 32 32 33q0 2 5.5 5.5t10.5 5t7 -2.5l4 -4q0 1 5.5 -3.5t11.5 -9.5l6 -4 q1 -1 3 -4t3 -4l14 -18q4 -6 14 -25l7 -10q2 -2 2 -6q0 -1 -3 -3l-6 -4t-4 -3l-12 -15l-18 -18q-28 -25 -60 -33q-6 -2 -24.5 -11.5t-28.5 -10.5q-6 0 -19.5 -6.5t-19.5 -6.5q-3 0 -11.5 -2.5l-17 -5t-17.5 -4t-14.5 0t-5.5 7.5q-20 0 -20 17q1 3 -1.5 9t-0.5 11zM258 1020 l2 2q0 2 -1 1t-1 -3z" />
<glyph unicode="&#xc2;" horiz-adv-x="628" d="M25 11.5q-1 4.5 0 8.5l6 58l4 44t6 52q2 13 4 39.5t4 38.5q14 63 14 90q0 22 15 100q4 22 10 68t10 68q2 10 4 29.5t2 21.5q1 4 5 24.5t4 30.5q0 48 8 72q3 7 3.5 23t2.5 22q6 12 2 20q-2 7 4 31q2 8 3 27t3 28q3 18 7.5 54.5t7.5 54.5q3 16 8 47t8 47q11 55 12 66 q1 13 6.5 36.5t6.5 30.5q1 4 3 14.5t3 18.5t0 14q0 21 8 29q4 4 6 16.5t6 16.5q3 3 12 5t21 3.5t14 1.5q11 2 58 2l-15 -4h43q2 -6 17 -6q14 0 16 -2t4 -8t2 -7q4 -8 4 -12q-2 -9 4 -37q2 -10 8.5 -39.5t8.5 -48.5q16 -128 18 -137q8 -50 8 -74q0 -9 5.5 -30t5.5 -31 q1 -13 4 -27.5t7.5 -33t6.5 -27.5q11 -46 21 -107q15 -93 16 -110q0 -9 8 -37q4 -15 8 -49q0 -28 6 -31q3 -2 5.5 -12.5t4 -21t3.5 -23.5t2 -15t3 -26.5t9 -34.5q2 -4 1.5 -18t0.5 -21q2 -10 12 -76q9 -56 9 -72q0 -65 12 -71q-2 -13 5.5 -39.5t8.5 -34.5q1 -26 -10.5 -34.5 t-40.5 -10.5q-51 -5 -63 -4q-61 5 -76 14q-7 4 -8.5 18.5t0 28t-1.5 25.5q-1 5 -2.5 19.5t-4 26t-6.5 15.5v17v14q0 8 -1 24t-1 25q0 7 -3.5 21.5t-4.5 19.5q0 16 -2 19q-2 4 -12 4.5t-25 -1t-18 -1.5q-4 0 -17.5 -3t-19.5 -2q-25 5 -31 5q-72 5 -96 0q-18 -4 -21 -10 q-1 -4 -2 -13q0 -4 -1 -12.5t-1 -12.5q0 -26 -2 -36q-5 -32 -8.5 -94.5t-3.5 -67.5q-1 0 -1.5 -5.5t-2 -11.5t-4.5 -8q1 -9 -2 -11t-9.5 0.5t-7.5 2.5q-30 -12 -39 -10q-10 0 -12 2q-2 4 -5.5 1t-6.5 -3q-2 3 -4.5 7.5t-3.5 6t-2 6zM115 1522v2l12 18q4 4 8 12q3 6 31 39 l22 25q21 21 64 47q15 11 29 14l2 -4q4 3 9.5 1t7 -2.5t6.5 -4t7 -4.5q2 -2 11 -2q10 -2 30 -10q9 -5 11 -8v-3q0 -2 4 -2q16 -12 22 -20l6 -6q1 -1 4.5 -2t4.5 -2q15 -6 36 -31q24 -29 39 -41l4 -6l7 -6q4 -4 4 -8q0 -2 -7 -9l-4 -10l-6 -12q-16 -10 -43 6q-12 8 -36 22 t-42 26.5t-32 27.5q-12 12 -21 10q-4 0 -8 -4q-43 -30 -68 -55l-8 -9q-2 -1 -10 -7t-10 -7l-11 -6l-12 -6l-10 -4q-8 -4 -16 -4h-7q-4 2 -8 6l-6 10l-6 12l-8 11q-2 2 -2 6zM156 428q30 -3 100.5 0.5t99.5 -2.5q3 9 -2.5 36.5t-5.5 31.5q-1 12 -6.5 40t-5.5 41 q-4 35 -16.5 107t-14.5 82l-8 37q-2 8 -6 24.5t-6 24.5l-11 51q-2 8 -6 24.5t-6 24.5l-8 41v13l-2 -17q-1 -8 -9.5 -44.5t-9.5 -41.5q-2 -15 -8 -43.5t-8 -42.5q-4 -44 -8 -70l-6 -28q-1 0 -2 -6l-2 -12t-2 -7q-4 -8 -5.5 -18t-2.5 -25.5t-1 -19.5q-4 -24 -4 -37l-2 -6 q-1 -2 0 -6t0 -9q-3 -23 -10 -43q-6 -19 -10.5 -56t-5.5 -44zM256 1020l2 2q0 2 -1 1t-1 -3z" />
<glyph unicode="&#xc3;" horiz-adv-x="628" d="M16 14q-1 4 0 9l7 57l4 44t6 52q2 12 4 39t4 39q14 63 14 90q0 22 15 100q4 22 9 68t9 68q2 10 4 29.5t2 21.5q0 3 4 23.5t4 31.5q0 45 9 72q3 7 3.5 23t2.5 22q6 12 2 20q-2 7 4 31q2 8 3 27t3 28q3 18 7 54.5t7 54.5q3 15 8.5 46.5t8.5 47.5q11 55 12 66q1 10 3 21 t5 24.5t4 21.5q1 4 3 14.5t3 18.5t0 14q0 4 3 15t6 14q4 4 6 16.5t6 16.5q3 3 12 5t21 3.5t14 1.5q12 2 57 2l-12 -4h43q2 -6 16 -6q15 0 17 -2t4 -8t2 -7q4 -8 4 -12q-2 -9 4 -37q2 -10 8.5 -39.5t8.5 -48.5q16 -128 18 -137q8 -50 8 -74q0 -9 5 -30t5 -31q1 -17 9.5 -50.5 t9.5 -37.5q7 -29 20 -107q17 -102 17 -110q0 -9 8 -37q4 -15 8 -49q0 -28 6 -31q3 -2 5.5 -12.5t4 -21t3.5 -23.5t2 -15t3 -26.5t9 -34.5q2 -4 1.5 -18t0.5 -21q2 -10 12 -76q8 -50 8 -72q0 -64 13 -71q-2 -13 5.5 -39.5t8.5 -34.5q1 -26 -10.5 -34.5t-40.5 -10.5 q-52 -5 -64 -4q-60 5 -75 14q-7 4 -8.5 18.5t-0.5 28t-2 25.5q-1 6 -2.5 20t-3.5 25.5t-6 15.5v17v14q0 8 -1 24t-1 25q0 7 -3.5 21.5t-4.5 19.5q0 16 -2 19q-2 4 -12 4.5t-25.5 -1t-18.5 -1.5q-4 0 -17 -2.5t-19 -1.5q-20 4 -31 4q-72 5 -96 0q-18 -4 -21 -10q-1 -4 -2 -13 q0 -4 -1 -12t-1 -12q0 -27 -2 -37q-5 -32 -8.5 -94.5t-3.5 -67.5q-1 0 -1.5 -5.5t-2 -11.5t-4.5 -8q1 -9 -2 -11t-9.5 0.5t-7.5 2.5q-30 -12 -39 -10q-10 0 -12 2q-2 4 -5.5 1t-6.5 -3q-2 3 -4.5 7.5t-4 6.5t-2.5 6zM96 1553.5q0 2.5 2 5.5q0 1 2.5 13.5t6.5 22.5t8 11 q3 1 10 9t15.5 18.5t11.5 13.5q31 33 133 12q13 -3 50 -26.5t64 -14.5l13 4l12 6l10 8q6 3 12 9l21 18l2 2h-4l8 4l-4 -4h2l6 -4l19 -12l8 -9l6 -6l8 -10v-2v-2q0 -2 -6 -8l-12 -13q-5 -7 -15 -18t-12 -14q-9 -12 -31.5 -29t-25.5 -20q-37 -34 -125 6q-5 2 -37.5 23.5 t-52.5 23.5q-14 3 -29 -8q-5 -5 -8 -11q-1 -2 -3 -7t-5 -7q-6 -6 -17 -6h-8q-8 0 -12 2l-10 8q-1 1 -4.5 2.5t-4.5 2t-2.5 2.5t-1.5 4.5zM147 430q30 -3 101 0.5t100 -2.5q3 9 -2.5 36.5t-5.5 31.5q-1 12 -6.5 40t-5.5 42q-4 34 -16.5 106t-14.5 82l-8 37q-2 8 -6.5 24.5 t-6.5 24.5l-10 51q-2 8 -6 24.5t-6 24.5l-8 41v13l-2 -17q-1 -8 -9.5 -44.5t-9.5 -41.5q-2 -15 -8 -43t-8 -43q-3 -43 -8 -69l-6 -29q-1 0 -2 -6t-2.5 -12t-2.5 -7q-4 -8 -5 -18.5t-1.5 -25t-1.5 -19.5q-4 -24 -4 -37l-2 -6q-1 -2 0 -6t0 -9q-3 -23 -10 -43q-4 -15 -7 -31 t-5.5 -36.5t-4.5 -32.5zM248 1022l2 2q0 2 -1 1t-1 -3z" />
<glyph unicode="&#xc4;" horiz-adv-x="628" d="M16 18q-1 4 0 9l7 57l4 44t6 52q2 13 4 39.5t4 38.5q14 63 14 90q0 24 15 101q4 23 9 68t9 67q2 10 4 29.5t2 21.5q0 3 4 23.5t4 31.5q0 45 9 72q3 7 3.5 23t2.5 22q6 12 2 20q-2 7 4 31q2 8 3 27t3 28q3 18 7 54.5t7 54.5q3 15 8.5 47t8.5 47q11 55 12 66q1 10 3 21 t5 24.5t4 21.5q1 4 3 14.5t3 18.5t0 14q0 4 3 15t6 14q4 4 6 16.5t6 16.5q3 3 12 5t21 3.5t14 1.5q12 2 57 2l-12 -4h43q2 -6 16 -6q15 0 17 -2t4 -8t2 -7q4 -8 4 -12q-2 -9 4 -37q2 -10 8.5 -39.5t8.5 -48.5q16 -128 18 -137q8 -50 8 -74q0 -9 5 -30t5 -31q1 -17 9.5 -50.5 t9.5 -37.5q7 -29 20 -107q17 -102 17 -110q0 -9 8 -37q4 -15 8 -49q0 -28 6 -31q3 -2 5.5 -12.5t4 -21t3.5 -23.5t2 -15t3 -26.5t9 -34.5q2 -4 1.5 -18t0.5 -21q2 -10 12 -76q8 -50 8 -71q0 -65 13 -72q-2 -13 5.5 -39.5t8.5 -34.5q1 -26 -10.5 -34.5t-40.5 -10.5 q-52 -5 -64 -4q-60 5 -75 14q-7 4 -8.5 18.5t-0.5 28t-2 25.5q-1 6 -2.5 20t-3.5 25.5t-6 15.5v17v14q0 8 -1 24t-1 25q0 7 -3.5 21.5t-4.5 19.5q0 16 -2 19q-2 4 -12 4.5t-25.5 -1t-18.5 -1.5q-4 0 -17 -2.5t-19 -1.5q-20 4 -31 4q-72 5 -96 0q-18 -4 -21 -10q-1 -4 -2 -13 q0 -4 -1 -12t-1 -12q0 -27 -2 -37q-5 -32 -8.5 -94.5t-3.5 -67.5q-1 0 -1.5 -5.5t-2 -11.5t-4.5 -8q1 -9 -2 -11t-9.5 0.5t-7.5 2.5q-30 -12 -39 -10q-10 0 -12 2q-2 4 -5.5 1t-6.5 -3q-2 3 -4.5 7.5t-4 6.5t-2.5 6zM115 1563q0 17 8 33.5t10 23.5q6 22 29 33q4 2 11.5 4 t8.5 2l17 4q2 0 6 4l2 2q8 4 12 4l19 -2q4 -1 12 -4t12 -4t23 -14q14 -11 18 -29q7 -37 4 -45q-1 -3 -2 -12t-2 -13q-6 -16 -29 -39q-32 -28 -51 -32q-4 -1 -13 -1t-13 -1q-31 -4 -43 6q-15 12 -27 36.5t-12 43.5zM147 434q30 -3 101 0.5t100 -2.5q3 9 -2.5 36.5t-5.5 31.5 q-1 12 -6.5 40t-5.5 42q-4 34 -16.5 106t-14.5 82l-8 37q-2 8 -6.5 24.5t-6.5 24.5l-10 51q-2 8 -6 24.5t-6 24.5l-8 41v13l-2 -17q-1 -8 -9.5 -44.5t-9.5 -41.5q-2 -14 -8 -42.5t-8 -43.5q-3 -43 -8 -69l-6 -29q-1 0 -2 -6t-2.5 -12t-2.5 -7q-4 -8 -5 -18.5t-1.5 -25 t-1.5 -19.5q-4 -24 -4 -37l-2 -6q-1 -2 0 -4q1 -4 0 -10q-3 -23 -10 -43q-4 -15 -7 -31.5t-5.5 -37t-4.5 -32.5zM248 1026l2 2q0 2 -1 1t-1 -3zM352 1548q-10 26 13 70q9 22 24 31q3 2 7 7.5t5 6.5q8 8 27 12l-8 2h12q5 -1 14.5 -4t14.5 -4h22q6 0 9 -6l10 -10l8 -8l4 -15 q4 -4 12 -35q4 -24 2 -36q0 -10 -6 -19q-2 -4 -6 -18q-5 -10 -8 -13t-25 -14q-59 -26 -92 0q-25 19 -39 53z" />
<glyph unicode="&#xc5;" horiz-adv-x="628" d="M18 20q-1 4 0 9l7 57l4 44t6 52q2 12 4 39t4 39q14 63 14 90q0 24 15 101q4 22 10 67t10 68q2 10 4 29.5t2 21.5q0 3 4 23.5t4 31.5q0 45 9 72q3 7 3.5 23t2.5 22q6 12 2 20q-2 7 4 31q2 8 3 27t3 28q3 18 7 54.5t7 54.5q3 16 8.5 47t8.5 47q11 55 12 66q1 10 3 21 t5 24.5t4 21.5q1 5 3 14.5t3.5 18t0.5 14.5q0 21 8 29q4 4 6 16.5t6 16.5q3 3 12 5t21 3.5t14 1.5q11 2 57 2l-14 -4h43q2 -6 17 -6q14 0 16 -2t4 -7.5t2 -6.5q4 -8 4 -13q-2 -8 4 -37q2 -10 8.5 -39.5t8.5 -48.5q16 -128 18 -137q8 -50 8 -74q0 -9 5.5 -30t5.5 -31 q1 -13 4 -27.5t7.5 -33t6.5 -27.5q7 -29 20 -107q17 -102 17 -110q0 -9 8 -37q4 -15 8 -49q0 -28 6 -31q3 -2 5.5 -12.5t4 -21t3.5 -23.5t2 -15t3 -26.5t9 -34.5q2 -4 1.5 -18t0.5 -21q2 -10 12 -76q8 -50 8 -71q0 -65 13 -72q-2 -13 5.5 -39.5t8.5 -34.5q1 -26 -10.5 -34.5 t-40.5 -10.5q-52 -5 -64 -4q-60 5 -75 14q-7 4 -8.5 18.5t-0.5 28t-2 25.5q-1 6 -2.5 20t-3.5 25.5t-6 15.5v17v14q0 8 -1 24t-1 25q0 7 -3.5 21.5t-4.5 19.5q0 16 -2 19q-2 4 -12 4.5t-25 -1t-18 -1.5q-4 0 -17.5 -2.5t-19.5 -1.5q-20 4 -31 4q-72 5 -96 0q-18 -4 -21 -10 q-1 -4 -2 -13q0 -4 -1 -12t-1 -12q0 -27 -2 -37q-5 -32 -8.5 -94.5t-3.5 -67.5q-1 0 -1.5 -5.5t-2 -11.5t-4.5 -8q1 -9 -2 -11t-9.5 0.5t-7.5 2.5q-30 -12 -39 -10q-10 0 -12 2q-2 4 -5.5 1t-6.5 -3q-2 3 -4.5 7.5t-4 6.5t-2.5 6zM143 1651q1 4 5 18t4 21q0 3 5 8t5 8 q0 4 4.5 10.5t11.5 14.5t8 10q7 8 19 14.5t18 11.5q20 15 53 15l-4 -2q34 0 58 -8q14 -5 27.5 -12t22 -13t14.5 -11t7 -5q4 -2 13 -11q2 -2 5 -6t5 -6t11 -6.5t11 -9.5q1 -3 3 -6t5.5 -7t4.5 -6q4 -8 4 -12l-4 -8q-3 -6 0.5 -20.5t1.5 -20.5q-6 -36 -6 -37q0 -27 -4 -29 q-2 -2 -13 -24q-6 -8 -12 -31q-14 -53 -92 -45q-4 0 -21.5 2t-24.5 3t-20 3.5t-23.5 7t-19.5 11.5q-56 37 -71 75q-19 54 -11 103zM150 436q30 -3 100.5 0.5t99.5 -2.5q3 9 -2.5 36.5t-5.5 31.5q-1 12 -6.5 40t-5.5 42q-4 34 -16.5 106t-14.5 82l-8 37q-2 8 -6 24.5t-6 24.5 l-11 51q-2 8 -6 24.5t-6 24.5l-8 41v13l-2 -17q-1 -8 -9.5 -44.5t-9.5 -41.5q-2 -14 -8 -42.5t-8 -43.5q-3 -43 -8 -69l-6 -29q-1 0 -2 -6t-2.5 -12t-2.5 -7q-4 -8 -5 -18.5t-1.5 -25t-1.5 -19.5q-4 -24 -4 -37l-2 -6q-1 -1 0 -4q1 -4 0 -10q-3 -23 -10 -43 q-6 -19 -10.5 -56.5t-5.5 -44.5zM231 1632q0 -16 5 -41q2 -9 30 -37q11 -9 36 -12.5t46 8.5q9 7 15 28t4 32q0 12 -7.5 32.5t-17.5 20.5q-4 0 -20 16q-22 15 -48 4v5q-45 -20 -43 -56zM250 1028l2 2q0 2 -1 1t-1 -3z" />
<glyph unicode="&#xc6;" horiz-adv-x="872" />
<glyph unicode="&#xc7;" horiz-adv-x="628" d="M54.5 621.5q1.5 54.5 0.5 76.5q-5 89 0 119q2 14 4.5 53t8.5 60q10 31 6 57q0 5 4 18t4 21q2 23 16 70q9 35 17 39q5 3 9 21t9 22q4 4 10.5 15t6.5 15q0 6 8 17.5t8 17.5q0 10 33 51q49 60 106 78q46 16 60 17l-9 -7q24 2 82 -12q2 -1 20 -4.5t25 -7.5q3 -1 10 -2.5 t11.5 -3.5t7.5 -6q1 -1 9 -5.5t15 -8.5t7 -7q0 -4 28 -18q9 -4 17 -21q6 -8 18 -20q23 -29 23 -45q0 -3 1.5 -7t3.5 -9t3 -7q2 -5 3 -17.5t3 -17.5q10 -24 14 -59l5 -43q0 -13 2 -19q4 -12 2 -18q-1 -3 -4 -5t-7.5 -3.5t-5.5 -1.5l-20 -6q-12 -4 -49 -4q-5 0 -9 4t-6 10.5 t-3 13.5t-1.5 15.5t-0.5 14.5t0.5 13t0.5 8q0 17 -2.5 33t-9.5 42.5t-8 31.5q-15 56 -35 72q-5 4 -13 14t-15 15t-17 5q-56 0 -76 -16q-24 -17 -41 -37q-9 -12 -16.5 -40.5t-5.5 -43.5q1 -6 -3.5 -35.5t-9.5 -55.5t-6 -26q1 -1 -1.5 -29.5t-4.5 -35.5q-3 -6 -4 -15t-1 -20 t-1 -16q-1 -15 -4.5 -45t-5.5 -54.5t-2 -46.5q0 -15 -0.5 -40t-0.5 -44.5t1 -36.5l14 -186q0 -2 2.5 -17t1.5 -18q-3 -4 2 -21.5t4 -21.5q-9 -41 12 -94q3 -9 7.5 -32t10.5 -40t17 -28q7 -7 21 -28t14 -26q3 0 37 -34l-2 -4q3 0 9 -6l7 -7q8 -6 31 0q44 8 65 35q34 43 37 84 q0 3 -2 22.5t-2 36t4 21.5q9 12 2 45q0 4 2 11.5t2 10.5q0 5 2 7t6.5 1.5t6.5 0.5q5 2 16.5 2.5t14.5 1.5q13 1 17 -2t9 -15q3 -1 0.5 -15.5t-2.5 -16.5q0 -15 -4 -43q-1 -9 -2 -28t-2 -28l-2 -24q0 -3 -2.5 -4.5t-3.5 -5.5q-1 -6 -6 -13.5t-7 -11.5q-8 -19 -6 -27 q0 -17 -22 -45q-3 -5 -8.5 -13.5t-6.5 -10.5q-22 -28 -49 -45q-52 -34 -114 -37q-15 0 -20.5 -3t-8.5 -16q-2 -9 8 -12q29 -10 47 -20q2 -2 12 -7t19.5 -11t19 -12.5t15 -12.5t4.5 -11q0 2 18 -32q8 -1 4 -28t-4 -28q6 -42 -6 -59q-9 -11 -12 -35q0 -8 -5 -19t-12 -14 q-1 0 -7.5 -8t-6.5 -10q-7 -10 -26 -10q-3 0 -13 -3t-12 -4q-10 -2 -31 -2q-15 0 -41 15q-6 3 -32 14.5t-39 20.5q-3 2 -17 16q-10 10 -12 18q-3 10 -6 11q-3 2 0 9t9 14.5t9 8.5t7 3t6 2t5.5 -0.5t8.5 -2.5q21 -11 22 -12q1 -2 6.5 -6t6.5 -6q3 -3 11.5 -4.5t10.5 -3.5 q8 -7 31 -2.5t29 12.5q22 26 36 35q4 1 2.5 26.5t-8.5 26.5q-2 1 -10.5 10.5t-11.5 11.5q-4 2 -14.5 10t-15.5 11.5t-14.5 8t-19.5 5.5l-47 6q-11 25 -6 43q2 7 4 22.5t2 16.5q0 3 3.5 15t2 17t-9.5 7q-13 2 -45 23q-8 5 -23.5 17.5t-23.5 17.5q-9 7 -21.5 24t-17.5 21 q-9 7 -17 22.5t-15.5 35t-12.5 28.5q-15 23 -23 61q-11 36 -16 62q-21 98 -31 223q-2 20 -0.5 74.5z" />
<glyph unicode="&#xc8;" horiz-adv-x="659" d="M51 719.5q0 3.5 1 8t1 5.5l-2 19q0 12 2 18l2 8q1 10 -0.5 32.5t-1.5 29.5q-4 50 0 75q2 23 2 74q0 8 1.5 31.5t0.5 36.5q-4 34 4 67q2 8 1.5 23t0.5 24q1 7 -1.5 30t1.5 30q5 20 0 65q-5 32 3 50q1 2 2 5.5t1 5.5t2.5 3.5t6.5 1.5t16 4q10 3 22 3t26 -1.5t20 -1.5l65 2 q12 0 34.5 -3t33.5 -3q14 0 47.5 3.5t50.5 2.5l8 10q23 -2 68 -2q3 0 14.5 -1.5t19 -2t13.5 1.5q4 2 35 -6q3 -1 7 -1t10.5 0.5t9.5 0.5q14 0 18 -12q4 -24 4 -35q0 -3 2 -10t2 -12t-4 -9q-2 -1 -2.5 -8t-1.5 -8q-6 -2 -18 -4t-13 -2h-43q-5 0 -20 -2.5t-21 -1.5 q-21 2 -23.5 2.5t-28 -2t-26.5 -2.5q-26 -2 -79 2h-23q-5 1 -8 -2t-4 -9t-1.5 -10t-0.5 -10q2 -28 -0.5 -80.5t-1.5 -77.5l-6 -117q0 -8 -4 -38.5t-1 -42.5q1 -4 1 -10t-0.5 -13t-0.5 -10v-25q5 -3 0 -29t-4 -30v-19q6 -2 17 -2.5t14 -1.5q6 -2 21 -2q32 -4 49 -4 q2 0 22.5 -2.5t22.5 0.5q28 9 47 6q3 -1 13.5 -1.5t15.5 -2.5q1 -3 4.5 -6t1.5 -10q-1 -2 -0.5 -11.5t-1.5 -11.5q-4 -5 1 -26t3 -25q-4 -8 -14 -9.5t-24.5 0.5t-19.5 1q-8 -1 -53 -0.5t-78.5 1t-40.5 -0.5q1 -14 -2 -43t-2 -43q0 -2 -2.5 -22t0.5 -21l2 -64 q-4 -1 -0.5 -27.5t2.5 -29.5q-4 -9 -1.5 -44t1.5 -46q-1 -14 0.5 -40t1.5 -34q0 -11 -4 -41t-2 -45q0 -5 0.5 -8t-1 -4.5t0 -2.5t3.5 -1h9q10 0 31 1t31 1h51q87 14 164 -2q17 -4 8 -68q-1 -20 -6.5 -25.5t-24.5 -7.5q-22 0 -26 -6q-1 -4 -11 -1.5t-12 1.5t-8 1.5t-10 -1.5 q-6 -4 -39 -4q-9 4 -71.5 1t-71.5 -3q-8 0 -34 -1.5t-40 -0.5q-7 0 -21.5 1t-21.5 1q-5 0 -17.5 -2.5t-19.5 -1.5h-33q-12 0 -18 2q-6 0 -8 10q-1 4 -4.5 12.5t-4.5 12.5q-4 25 0 74l2 36v37v9v6v18v37v47q0 9 -1 27.5t-1 27.5q0 3 1 8t1 7q0 3 -1 9t-1 9q-5 26 0 33 q7 11 -2 72q-4 34 -2 53q2 11 -1 33t-1 34q2 6 2 14t-1 17t-1 14v56q-2 1 -2 4.5zM182 1577.5q0 9.5 2 9.5q1 0 3 7t4.5 15t3.5 9l8 33q1 3 4.5 6.5t3.5 5.5l-6 2q3 10 31 -4.5t36 -22.5q9 -9 34 -26.5t34 -28.5l14 -16q3 -4 12 -9.5t13 -9.5q2 -3 4.5 -5.5t6 -5.5t5.5 -5 l4 -6q1 -1 4.5 -3t4.5 -3l6 -7q2 -2 2 -10q2 -4 2 -12q-1 -5 -6 -12.5t-6 -12.5q-3 -7 -6.5 -8.5t-14.5 -1.5q-22 0 -92 31q-10 4 -26 15.5t-23 15.5q-14 6 -37 24q-8 4 -12 8q-2 2 -6 9t-5 8q-2 1 -2 10.5z" />
<glyph unicode="&#xc9;" horiz-adv-x="659" d="M63 745q0 10 3 19l2 8q1 10 -0.5 32.5t-1.5 29.5q-4 50 0 75q2 23 2 74q0 8 1.5 31.5t0.5 36.5q-4 34 4 67q2 8 1.5 23t0.5 24q1 7 -1.5 30t1.5 30q5 20 0 65q-5 33 2 49q1 2 2 5.5t1 6t2.5 4t6.5 1.5t16 4q10 3 22 3t26 -1.5t20 -1.5l66 2q12 0 34 -3t33 -3q14 0 48 3.5 t51 2.5l8 10q23 -2 67 -2q3 0 14.5 -1.5t19 -2t13.5 1.5q4 2 35 -6q3 -1 7 -1t10.5 0.5t9.5 0.5q14 0 18 -12q4 -24 4 -35q0 -3 2 -10t2 -12t-4 -9q-2 -1 -2.5 -8t-1.5 -8q-4 -2 -9 -3t-11.5 -1.5t-9.5 -1.5h-43q-5 0 -20 -3t-21 -2q-21 2 -23.5 2.5t-28 -2t-26.5 -2.5 q-26 -2 -80 2h-23q-5 1 -8 -2t-4 -9t-1.5 -9.5t-0.5 -9.5q2 -28 -0.5 -80.5t-1.5 -77.5l-6 -117q0 -7 -4.5 -43t0.5 -39v-32v-25q5 -3 0 -29t-4 -30v-19q6 -2 16.5 -2.5t13.5 -1.5q6 -2 21 -2q32 -4 49 -4q2 0 22.5 -2.5t22.5 0.5q28 9 47 6q3 -1 13.5 -1.5t15.5 -2.5 q1 -3 4.5 -6t1.5 -10q-1 -2 -0.5 -11.5t-1.5 -11.5q-4 -5 1 -26t3 -25q-4 -8 -14 -9.5t-24 0.5t-19 1q-8 -1 -53 -0.5t-78.5 1t-40.5 -0.5q1 -14 -2 -43t-2 -43q0 -3 -2.5 -20t-0.5 -23l3 -64q-4 -1 -0.5 -27.5t2.5 -29.5q-4 -9 -1.5 -44t1.5 -46q-1 -14 0.5 -40t1.5 -34 q0 -12 -4.5 -41.5t-2.5 -44.5q2 -6 0.5 -9.5t0 -4.5t4 -1.5t10.5 -0.5q10 0 30.5 1t30.5 1h51q86 13 162 -2q17 -4 8 -68q-2 -20 -6.5 -26t-23.5 -7q-23 0 -27 -6q-1 -4 -10.5 -1.5t-11.5 1.5t-8.5 1.5t-10.5 -1.5q-6 -4 -39 -4q-9 4 -71.5 1t-71.5 -3q-8 0 -34 -1.5 t-40 -0.5q-7 0 -21.5 1t-21.5 1q-5 0 -17.5 -2.5t-19.5 -1.5h-33q-12 0 -18 2q-6 0 -8 10q-1 4 -4 12.5t-4 12.5q-4 24 0 73l2 37v37v8v7v18v37v47q0 9 -1 27.5t-1 27.5q0 3 1 8t1 7q0 3 -1 9t-1 9q-5 26 0 33q7 11 -2 71q-4 35 -2 54q2 11 -1 33t-1 34q2 6 2 14t-1 17 t-1 14v56q-2 1 -2 4.5t1 8t1 5.5zM238 1497q8 12 12 16q4 3 39.5 29.5t52.5 42.5q8 7 26.5 18.5t26.5 18.5q1 1 10 9.5t16 15.5t7 8q0 2 5.5 5.5t10.5 5t7 -2.5l4 -4q0 1 5.5 -3.5t11.5 -9.5l5 -4q1 -1 3 -4t3 -4l15 -18q5 -6 14 -25l6 -10q2 -2 2 -6q0 -1 -2.5 -3t-5.5 -4 t-4 -3l-12 -15q-3 -3 -9.5 -9t-9.5 -9q-29 -25 -59 -33q-6 -2 -24.5 -11.5t-28.5 -10.5q-6 0 -19.5 -6.5t-19.5 -6.5q-3 0 -14 -4.5t-21 -8t-19.5 -2t-11.5 10.5q-2 1 -4 3t-7 5.5t-7.5 6t-1.5 2.5q1 3 -1.5 9t-0.5 11z" />
<glyph unicode="&#xca;" horiz-adv-x="659" d="M57 717.5q0 3.5 1 8t1 5.5l-2 19q0 12 2 18l2 8q1 10 -0.5 32.5t-1.5 29.5q-4 50 0 75q2 23 2 74q0 8 1.5 31.5t0.5 36.5q-4 31 5 67q2 8 1.5 23t0.5 24q1 7 -1.5 30t1.5 30q5 20 0 65q-5 33 2 49q1 2 2 5.5t1 6t2.5 4t6.5 1.5t16 4q10 3 22 3t26 -1.5t20 -1.5l65 2 q11 0 34 -3t34 -3q14 0 47.5 3.5t50.5 2.5l9 10q23 -2 67 -2q3 0 14.5 -1.5t19 -2t13.5 1.5q4 2 35 -6q3 -1 7 -1t10.5 0.5t9.5 0.5q14 0 18 -12q4 -24 4 -35q0 -3 2 -10t2 -12t-4 -9q-2 -1 -2.5 -8t-1.5 -8q-6 -2 -18 -4t-13 -2h-43q-5 0 -20 -2.5t-21 -1.5 q-21 2 -23.5 2.5t-27 -2t-26.5 -2.5q-27 -2 -80 2h-23q-5 1 -8 -2t-4 -9t-1.5 -10t-0.5 -10q2 -28 -0.5 -80.5t-1.5 -77.5l-6 -117q0 -7 -4.5 -43t0.5 -39v-32v-25q5 -6 -0.5 -30.5t-4.5 -28.5v-19q6 -2 17 -2.5t14 -1.5q6 -2 21 -2q32 -4 49 -4q2 0 22.5 -2.5t22.5 0.5 q28 9 47 6q3 -1 13.5 -1.5t15.5 -2.5q1 -3 4.5 -6t1.5 -10q-1 -2 -0.5 -11.5t-1.5 -11.5q-4 -5 1 -26t3 -25q-4 -8 -14 -9.5t-24 0.5t-19 1q-8 -1 -53 -0.5t-79 1t-41 -0.5q1 -14 -2 -42.5t-2 -43.5q0 -2 -2.5 -22t0.5 -21l2 -64q-4 -1 -0.5 -27.5t2.5 -29.5q-4 -9 -1.5 -44 t1.5 -46q-1 -14 0.5 -40t1.5 -34q0 -11 -4 -41t-2 -45q0 -5 0.5 -8t-0.5 -4.5t0.5 -2.5t3.5 -1h9q10 0 30.5 1t30.5 1h51q87 14 164 -2q17 -4 8 -68q-2 -20 -6.5 -26t-23.5 -7q-23 0 -27 -6q-1 -4 -11 -1.5t-12 1.5t-8 1.5t-10 -1.5q-6 -4 -39 -4q-9 4 -71.5 1t-71.5 -3 q-8 0 -34 -1.5t-40 -0.5q-7 0 -21.5 1t-21.5 1q-5 0 -17.5 -2.5t-19.5 -1.5h-33q-12 0 -18 2q-6 0 -8 10q-1 4 -4 12.5t-4 12.5q-4 25 0 74l2 36v37v8v7v18v37v47q0 9 -1 27.5t-1 27.5q0 3 1 8t1 7q0 3 -1 9t-1 9q-5 26 0 33q6 10 -3 72q-4 34 -2 53q2 11 -1 33t-1 34 q2 6 2 14t-1 17t-1 14v56q-2 1 -2 4.5zM94 1538l219 160l222 -160l-74 -76l-148 101l-145 -101z" />
<glyph unicode="&#xcb;" horiz-adv-x="659" d="M53 719.5q0 3.5 1 8t1 5.5l-2 19q0 12 2 18l2 8q1 10 -0.5 32.5t-1.5 29.5q-4 50 0 75q2 23 2 74q0 8 1.5 31.5t0.5 36.5q-4 34 4 67q2 8 2 24.5t1 22.5q1 7 -1.5 30t1.5 30q5 20 0 65q-5 34 2 50q1 2 2 5.5t1 5.5t2.5 3.5t6.5 1.5t16 4q10 3 22 3t26 -1.5t20 -1.5l65 2 q12 0 34.5 -3t33.5 -3q14 0 47.5 3.5t50.5 2.5l8 10q23 -2 68 -2q3 0 14.5 -1.5t19 -2t13.5 1.5q4 2 35 -6h27q14 0 18 -12q4 -24 4 -35q0 -3 2 -10t2 -12t-4 -9q-2 -1 -2.5 -8t-1.5 -8q-6 -2 -18 -4t-13 -2h-43q-5 0 -20 -2.5t-21 -1.5q-21 2 -23.5 2.5t-27 -2t-26.5 -2.5 q-26 -2 -80 2h-23q-5 1 -8 -2t-4 -9t-1.5 -10t-0.5 -10q2 -28 -0.5 -80.5t-1.5 -77.5l-6 -117q0 -8 -4 -38.5t-1 -42.5q1 -4 1 -10t-0.5 -13t-0.5 -10v-25q5 -3 0 -29t-4 -30v-19q6 -2 17 -2.5t14 -1.5q6 -2 21 -2q32 -4 49 -4q2 0 22.5 -2.5t22.5 0.5q28 9 47 6 q3 -1 13.5 -1.5t15.5 -2.5q1 -3 4.5 -6t1.5 -10q-1 -2 -0.5 -11.5t-1.5 -11.5q-4 -5 1 -26t3 -25q-4 -8 -14 -9.5t-24.5 0.5t-19.5 1q-8 -1 -53 -0.5t-78.5 1t-40.5 -0.5q1 -14 -2 -43t-2 -43q0 -2 -2.5 -22t0.5 -21l2 -64q-4 -1 -0.5 -27.5t2.5 -29.5q-4 -9 -1.5 -44 t1.5 -46q-1 -14 0.5 -40t1.5 -34q0 -11 -4 -41t-2 -45q2 -6 0.5 -9.5t0 -4.5t4 -1.5t10.5 -0.5q10 0 30.5 1t30.5 1h51q86 13 162 -2q17 -4 8 -68q-1 -20 -6.5 -25.5t-24.5 -7.5q-22 0 -26 -6q-1 -4 -11 -1.5t-12 1.5t-8 1.5t-10 -1.5q-6 -4 -39 -4q-9 4 -71.5 1t-71.5 -3 q-8 0 -34 -1.5t-40 -0.5q-7 0 -21.5 1t-21.5 1q-5 0 -17.5 -2.5t-19.5 -1.5h-33q-12 0 -18 2q-6 0 -8 10q-1 4 -4.5 12.5t-4.5 12.5q-4 25 0 74l2 36v37v9v6v18v37v47q0 9 -1 27.5t-1 27.5q0 3 1 8t1 7q0 3 -1 9t-1 9q-5 26 0 33q7 11 -2 72q-4 34 -2 53q2 11 -1 33t-1 34 q2 6 2 14t-1 17t-1 14v56q-2 1 -2 4.5zM133 1563q0 17 8.5 33.5t10.5 23.5q6 22 28 33q4 2 12 4t9 2l16 4q2 0 6 4l2 2q8 4 13 4l18 -2q4 -1 12.5 -4t12.5 -4q2 -1 22 -14q16 -12 19 -29q7 -37 4 -45q-1 -3 -2 -12t-2 -13q-6 -16 -29 -39q-32 -28 -51 -32q-4 -1 -13.5 -1 t-13.5 -1q-31 -4 -43 6q-15 12 -27 36.5t-12 43.5zM371 1548q-10 27 12 70q8 21 25 31q3 2 7 7.5t5 6.5q8 9 26 12l-8 2h13q5 -1 14 -4t14 -4h23q5 0 8 -6l10 -10l8 -8l4 -15q6 -6 13 -35q4 -24 2 -36q0 -10 -6 -19q-2 -4 -6 -18q-4 -8 -9 -13q-4 -4 -24 -14q-59 -26 -92 0 q-25 19 -39 53z" />
<glyph unicode="&#xcc;" horiz-adv-x="382" d="M79 93.5v16.5t0.5 15.5t0.5 9.5l2 103q0 8 1.5 26t1.5 32.5t-3 25.5q-2 4 -2.5 17t2.5 17q1 2 0.5 6.5t-1.5 11t-1 7.5v47q-3 107 4 238q0 2 -0.5 17.5t-0.5 31v32.5t1.5 28t3.5 11q2 5 -2.5 32t2.5 32q2 2 1.5 16.5t0.5 18.5t1 14.5t1 15.5q1 6 0.5 21.5t1.5 19.5v29v27 q-2 6 -2 32t2 27q4 4 1.5 30.5t0.5 33.5v43q-2 4 -1.5 13t2 22.5t1.5 15.5q1 9 4.5 44.5t3.5 53.5q0 4 -2.5 11.5t-1.5 13.5t7 10q2 1 7 6t7 6q5 -3 15.5 -3.5t24.5 0.5t17 1h17q27 0 39 -2q8 -1 24.5 -6.5t26.5 -5.5q0 -2 4.5 -12.5t5.5 -10.5q3 -2 3.5 -9t-0.5 -18l-1 -10 q1 -15 -0.5 -42.5t-1.5 -36.5q-1 42 -1 -1v-94q1 -120 1 -172q0 -16 1.5 -64t0.5 -75l-8 -4q-1 -15 0.5 -73.5t-2.5 -73.5q-3 -18 -2 -58.5t-2 -60.5q-1 -5 -1 -15.5t-1 -15.5v-10q0 -6 -7 -6q0 -3 3.5 -7.5t3.5 -7.5q0 -1 -1.5 -21t-2 -33.5t1.5 -18.5q3 -2 3 -13t-1.5 -25 t-1.5 -16l-7 -22q4 -4 4.5 -11.5t-1 -17.5t-1.5 -12q-1 -5 -1.5 -21t-2.5 -24q-2 -9 0 -31.5t0 -32.5q-12 -43 -8 -98q1 -6 0.5 -25.5t1.5 -25.5q1 -4 -3 -8t-9 -7l-6 -4q-7 -8 -32.5 -9.5t-35.5 1.5q-5 1 -6.5 -0.5t-7.5 -1.5q-32 0 -62 6q-1 4 -10 17.5t-8 23.5 q-1 1 -2.5 6.5t-2 9.5t0.5 5q-2 1 -2.5 7t-0.5 14.5zM82 1579.5q0 9.5 2 9.5q1 0 3 7t4 14.5t3 9.5l8 33q1 3 5 6.5t4 5.5q3 10 31 -4.5t36 -22.5q9 -9 34 -26.5t34 -28.5l14 -16q3 -4 12 -9.5t13 -9.5q2 -3 4.5 -5.5t6 -5.5t5.5 -5l4 -6q1 -1 4 -3t4 -3l6 -7q3 -3 3 -10 l-7 2q2 -4 2 -12q-1 -5 -6 -12.5t-6 -12.5q-3 -7 -6 -8.5t-14 -1.5q-22 0 -92 31q-10 4 -26.5 15.5t-23.5 15.5q-14 6 -37 24q-8 4 -12 8q-2 2 -5 8.5t-5 8.5q-2 1 -2 10.5z" />
<glyph unicode="&#xcd;" horiz-adv-x="382" d="M51 1497q8 12 12 16q6 5 41 30.5t52 41.5q8 7 26.5 18.5t26.5 18.5q1 1 10 9.5t16 15.5t7 8q0 2 5.5 5.5t10 5t6.5 -2.5q0 1 6 -3l12 -8l5 -5q1 -1 3 -4.5t3 -4.5l14 -18q7 -10 15 -25l10 -14q2 -2 2 -6q0 -1 -2.5 -3t-5.5 -4t-4 -3l-13 -15l-18 -18q-28 -25 -60 -33 q-6 -2 -24.5 -11.5t-28.5 -10.5q-6 0 -19.5 -6.5t-19.5 -6.5q-3 0 -14 -4.5t-21 -8t-19 -2t-11 10.5l-21 17q1 3 -1.5 9t-0.5 11zM87 89.5v16.5t0.5 15.5t0.5 9.5l2 102q0 4 3 42t-1 42q-2 4 -2.5 17.5t2.5 17.5q1 2 0.5 6.5t-1.5 11t-1 7.5v47q-3 107 4 238q0 2 -0.5 17.5 t-0.5 31v32.5t1.5 28t3.5 11q2 5 -2.5 32t2.5 32q2 2 1.5 16.5t0.5 18.5t1 14.5t1 15.5q1 6 0.5 21.5t1.5 19.5v29v27q-2 6 -2 32t2 27q4 4 1.5 30t0.5 33v44q-2 4 -1 13l2.5 22.5t1.5 15.5q1 9 4.5 44.5t3.5 53.5q0 4 -2.5 11.5t-2 13.5t6.5 10q2 1 7 6t7 6q5 -3 15.5 -3.5 t24.5 0.5t17 1h17q27 0 39 -2q8 -1 24.5 -6.5t26.5 -5.5q0 -2 4.5 -12.5t5.5 -10.5q3 -2 3.5 -9t-0.5 -18l-1 -10q1 -15 -0.5 -43t-1.5 -37q-1 43 -1 -3v-91q1 -120 1 -172q0 -16 1.5 -64t0.5 -75l-8 -4q-1 -15 0.5 -74t-2.5 -74q-3 -18 -2 -58t-2 -60q-1 -5 -1 -15.5 t-1 -15.5v-10q0 -6 -6 -6q0 -3 3 -7.5t3 -7.5q0 -1 -1.5 -21.5t-2 -34t1.5 -18.5q3 -2 3 -13t-1.5 -24.5t-1.5 -15.5l-6 -22q4 -4 4.5 -11.5t-1 -17.5t-1.5 -12q-1 -5 -1.5 -21t-2.5 -24q-2 -9 0 -31.5t0 -32.5q-13 -46 -9 -98q1 -6 0.5 -25.5t1.5 -25.5q1 -4 -3 -8t-9 -7 l-6 -4q-7 -8 -32.5 -9.5t-35.5 1.5q-5 1 -6.5 -0.5t-7.5 -1.5q-31 0 -61 6q-1 4 -10.5 17.5t-8.5 23.5q-1 1 -3 6t-3 10t0 5q-2 1 -2.5 7t-0.5 14.5z" />
<glyph unicode="&#xce;" horiz-adv-x="382" d="M4 1522v2l12 18q6 6 9 12q5 10 30 39l23 25q22 22 63 47q15 11 29 14q10 3 31 -10q2 -2 10 -2q12 -2 31 -10q8 -4 10 -8v-2q0 -2 4 -2q17 -12 23 -21l6 -6q1 -1 4 -2t4 -2q16 -6 37 -31q24 -29 39 -41l4 -6l6 -6l2 -4q4 -4 4 -8q0 -3 -6 -9l-4 -10l-6 -12q-16 -10 -43 6 q-12 8 -36 22t-42.5 26.5t-32.5 27.5q-12 12 -20 10q-5 0 -9 -4q-40 -28 -67 -55l-8 -9q-2 -1 -10.5 -7t-10.5 -7l-10 -6l-12 -6l-11 -4q-8 -4 -16 -4h-6q-4 2 -8 6l-7 10l-6 12l-8 11q-2 2 -2 6zM83 91.5v16.5t0.5 15.5t0.5 9.5l2 103q0 4 3 41.5t-1 41.5q-2 4 -2.5 17.5 t2.5 17.5q1 2 0.5 6.5t-1.5 11t-1 7.5v47q-3 105 4 236q0 2 -0.5 17.5t-0.5 31v32.5t1.5 28t3.5 11q2 5 -2.5 32t2.5 32q2 2 1.5 16.5t0.5 18.5t1 14.5t1 15.5q1 6 0.5 21.5t1.5 19.5v29v27q-2 6 -2 32t2 27q4 4 1.5 30t0.5 33v44q-2 4 -1.5 13t2 22.5t1.5 15.5q1 11 5 45.5 t4 52.5q0 4 -2.5 11.5t-2 13.5t6.5 10q2 1 7 6t7 6q5 -3 15.5 -3.5t24.5 0.5t17 1h17q27 0 39 -2q8 -1 24.5 -6.5t26.5 -5.5q0 -2 4.5 -12.5t5.5 -10.5q3 -2 3.5 -9t-0.5 -18l-1 -10q1 -15 -0.5 -43t-1.5 -37q-1 43 -1 -3v-91q1 -120 1 -172q0 -16 1.5 -64t0.5 -75l-8 -2 q-1 -15 0.5 -74t-2.5 -74q-3 -18 -2 -58t-2 -60q-1 -5 -1 -15.5t-1 -15.5v-10q0 -6 -6 -6q0 -3 3 -7.5t3 -7.5q0 -1 -1.5 -21t-2 -33.5t1.5 -18.5q3 -2 3 -13t-1.5 -25t-1.5 -16l-6 -22q4 -4 4.5 -11.5t-1 -17.5t-1.5 -12q-1 -5 -1.5 -21t-2.5 -24q-2 -9 0 -31.5t0 -32.5 q-13 -46 -9 -98q1 -6 0.5 -25.5t1.5 -25.5q1 -4 -3 -8t-9 -7l-6 -4q-7 -8 -32.5 -9.5t-35.5 1.5q-5 1 -6.5 -0.5t-7.5 -1.5q-31 0 -61 6q-1 4 -10.5 17.5t-8.5 23.5q-1 1 -3 6t-3 10t0 5q-2 1 -2.5 7t-0.5 14.5z" />
<glyph unicode="&#xcf;" horiz-adv-x="382" d="M-25 1567q0 17 8.5 33.5t10.5 23.5q6 22 29 33q4 2 11.5 4t8.5 2l16 4q3 0 7 4l2 2q8 4 12 4l16 -2q4 -1 12.5 -4t12.5 -4q2 -1 22 -14q16 -12 19 -29q7 -37 4 -45q-1 -3 -2 -12t-2 -13q-5 -14 -29 -38h2q-34 -30 -51 -33q-4 -1 -13.5 -1t-13.5 -1q-31 -4 -43 6 q-15 12 -27 36.5t-12 43.5zM77 95.5v16.5t0.5 15.5t0.5 9.5l2 103q0 4 3 42t-1 42q-2 4 -2.5 17t2.5 17q1 2 0.5 6.5t-1.5 11t-1 7.5v47q-3 105 4 236q0 2 -0.5 17.5t-0.5 31v32.5t1.5 28t3.5 11q2 5 -2.5 32t2.5 32q2 2 1.5 16.5t0.5 18.5t1 14.5t1 15.5q1 6 0.5 21.5 t1.5 19.5v29v27q-2 6 -2 32t2 27q4 4 1.5 30.5t0.5 33.5v43q-2 4 -1.5 13t2 22.5t1.5 15.5q1 9 4.5 44.5t3.5 53.5q0 4 -2.5 11.5t-1.5 13.5t7 10q2 1 7 6t7 6q5 -3 15.5 -3.5t24.5 0.5t17 1h17q27 0 39 -2q8 -1 24.5 -6.5t26.5 -5.5q0 -2 4.5 -12.5t5.5 -10.5q3 -2 3.5 -9 t-0.5 -18l-1 -10q1 -15 -0.5 -42.5t-1.5 -36.5q-1 42 -1 -1v-94q1 -120 1 -172q0 -16 1.5 -64t0.5 -75l-8 -2q-1 -15 0.5 -73.5t-2.5 -73.5q-3 -18 -2 -58.5t-2 -60.5q-1 -5 -1 -15.5t-1 -15.5v-10q0 -6 -7 -6q0 -3 3.5 -7.5t3.5 -7.5q0 -1 -1.5 -21t-2 -33.5t1.5 -18.5 q3 -2 3 -13t-1.5 -25t-1.5 -16l-7 -22q4 -4 4.5 -11.5t-1 -17.5t-1.5 -12q-1 -5 -1.5 -21t-2.5 -24q-2 -9 0 -31.5t0 -32.5q-12 -43 -8 -98q1 -6 0.5 -25.5t1.5 -25.5q1 -4 -3 -8t-9 -7l-6 -4q-7 -8 -32.5 -9.5t-35.5 1.5q-5 1 -6.5 -0.5t-7.5 -1.5q-32 0 -62 6 q-1 4 -10 17.5t-8 23.5q-1 1 -3 6t-3 10t0 5q-2 1 -2.5 7t-0.5 14.5zM209 1548q-10 27 12 70q8 21 25 31q3 2 7 7.5t5 6.5q8 8 27 12h12q5 -1 14.5 -4t14.5 -4h22q5 0 8 -6l11 -10q8 -8 8 -9l4 -14q4 -4 12 -35l-8 2q4 -24 2 -36q0 -10 -6 -19q-2 -4 -6 -18q-5 -10 -8 -13 t-25 -14q-59 -26 -92 0q-25 19 -39 53z" />
<glyph unicode="&#xd0;" horiz-adv-x="733" />
<glyph unicode="&#xd1;" horiz-adv-x="768" d="M57 1208q5 102 4 123q3 3 7 10t6 9.5t8.5 4t13.5 -4.5q2 -1 12.5 3t14.5 3q97 -14 102 0q16 2 41 -15q8 -4 25 -47q15 -31 40 -100t40 -100q9 -18 21 -52.5t18 -48.5q9 -19 14 -47q2 -8 9 -25.5t9 -25.5q10 -34 21 -61q33 -81 29 -86q-1 -1 2 -8.5t7 -17t5 -11.5 q2 -3 7.5 -13t9 -17.5t3.5 -12.5q1 -12 16 -36t15 -36h2q2 10 0.5 28.5t-4 42t-2.5 25.5q-1 18 -5.5 64t-4.5 71q0 7 -1.5 33t-0.5 39q4 62 2 92v78q0 63 -2 76q-5 46 -2 59q2 13 0 37.5t0 36.5q1 7 -1 26.5t1.5 31.5t17.5 16q7 2 21 1t20 1q38 12 43 -15q7 3 6 -33 q-1 -8 -2 -23v-9q0 -8 -0.5 -59t4.5 -60q1 -7 -0.5 -21t-1.5 -18q0 -7 3 -18.5t3 -14.5q3 -17 3.5 -34.5t-0.5 -41.5t-1 -34q0 -14 2.5 -50t1.5 -55q-3 -58 0 -116q3 -50 2.5 -152.5t2.5 -153.5q8 -125 8 -280q0 -14 1 -41t1 -41q0 -1 1 -23.5t0 -35.5t-5 -13 q-11 0 -29.5 -2t-31 -2.5t-26.5 1.5t-25.5 10.5t-20.5 23.5q-35 62 -64.5 135.5t-61 165.5t-51.5 141q-41 100 -92 240q-32 94 -45 147q-2 9 -9 28t-9 28q-12 47 -23 65q-3 -8 -2.5 -29t3.5 -54.5t3 -37.5l-2 -108q0 -22 3 -69t3 -72q0 -17 0.5 -49.5t0.5 -59.5t-1 -51 q-3 -71 0 -144q0 -8 -2 -25.5t-2 -25.5q0 -5 0.5 -13.5t0.5 -16t-1 -13.5q-5 -19 0 -78.5t4 -78.5q0 -3 -4 -23.5t0 -21.5q2 -7 2 -11t-6 -8t-10 -6t-10.5 -4.5t-7.5 -3.5q-7 -4 -35 -1t-31 11q-8 20 -8 63q-5 201 -4 242q1 29 -5 92.5t-5 94.5q1 22 -2.5 65.5t-2.5 65.5 q2 51 3 147.5t2 118.5q0 25 -3.5 75t-3.5 76q0 11 1 32t1 38t-2 31q-2 11 -2 67zM156 1545q-2 4 2 7q0 1 2.5 13.5t6 22.5t7.5 11q3 1 10 9t15.5 18.5t11.5 13.5q32 34 133 13q12 -3 50 -26.5t65 -14.5l12 4l12 6l11 8q4 2 12 10l20 19l6 6h7l6 -4l18 -12l8 -9l7 -6l8 -10 v-2v-2q0 -2 -6 -8l-13 -13q-5 -7 -15 -19t-11 -13q-9 -12 -31.5 -29t-26.5 -20q-37 -34 -125 6q-5 2 -37.5 23.5t-52.5 23.5q-14 3 -28 -8q-7 -7 -9 -11q-1 -2 -3 -7t-5 -7q-6 -6 -16 -6h-8q-9 0 -13 2l-18 2q-1 0 -6 2.5t-4.5 2.5t-1.5 4z" />
<glyph unicode="&#xd2;" horiz-adv-x="733" d="M29.5 513q-0.5 28 1.5 38q2 18 2 55q0 72 2 107q6 99 6 102q-1 21 4 65.5t4 65.5q-3 26 4 55q5 29 8 37q7 14 7 27q-1 6 5.5 22.5t6.5 18.5q2 10 8 29.5t8 29.5q16 62 66 125q40 54 88 74q32 16 39 18q10 2 30 2l25 2h6l-6 -6q4 0 12.5 -1t12.5 -1q8 0 24 -4q30 -5 35 -6 q38 -13 39 -14q1 -2 13.5 -7t13.5 -6q4 -1 14.5 -8t11.5 -8q7 -2 26.5 -18.5t18.5 -22.5q0 -3 10.5 -17t14.5 -14q3 -6 9.5 -20.5t8.5 -18.5q3 -5 10 -25t13 -26q2 -1 4 -6t3.5 -11t2.5 -7q1 -4 2 -16.5t3.5 -23t6.5 -12.5q-2 -5 4 -37.5t9 -33.5q2 -1 4 -11.5t3.5 -23.5 t2.5 -16q5 -27 6.5 -54t2.5 -71t1 -54q2 -2 1 -50l-1 -48q0 -2 0.5 -7.5t0.5 -11.5v-12t-1.5 -10.5t-3.5 -5.5l4 -25q0 -107 -20 -194q-2 -7 -3 -25t-4 -28q-1 -4 -6 -37q-1 -6 -5 -16.5t-5 -14.5q-15 -61 -39 -100q0 -1 -9.5 -25.5t-19.5 -30.5q-10 -7 -10 -22 q0 -5 -12.5 -17.5l-13.5 -13.5q-35 -40 -43 -47q-9 -9 -15 -12q-3 -2 -9 -5t-9 -5l-4 -9q-99 -45 -187 -12q-11 3 -30 14l-14 8q-13 9 -21 16.5t-8 12.5q0 4 -17 23.5t-22 23.5q-3 2 -14 15.5t-11 17.5q-19 31 -35 68q-16 27 -16 35q0 5 -2.5 18t-5.5 14q-3 2 -4.5 10.5 t-2 18.5t-1.5 12q-14 40 -17 58q-12 59 -12 61q0 49 -4 53q-5 4 -5.5 32zM217 728.5q0 -11.5 1 -26t1 -20.5q0 -153 4 -231q4 -108 19 -162q1 -6 3 -18.5t3 -18.5l2 -21q0 -4 1 -11t1 -11q0 -3 5.5 -33t6.5 -33l10 -12q18 -28 39 -39q8 -5 27 -10q3 -1 8.5 -3t7.5 -3 t7.5 -1.5t9.5 1.5q26 7 43 30q9 12 15.5 25t9 30.5t3.5 27t1.5 32.5t0.5 29q0 10 3.5 74t3.5 98q0 205 -2 246q0 7 -1 23t-1 22q0 8 -1.5 24t-1.5 23q0 2 -1 11.5t-1.5 15t0.5 8.5q2 5 1 13.5t-3 21.5t-2 16q0 7 -1 21t-1 20q1 21 -1.5 58t-2.5 52v43q0 1 1 19t0.5 32 t-3.5 19t-3 16t1.5 24t1.5 17q0 15 -4 43q0 2 -2.5 18t-4 22.5t-6.5 16.5t-12 15v4q-28 19 -57.5 14t-52.5 -28q-8 -8 -17 -35q-4 -10 -7 -21.5t-5 -25.5t-4 -23t-4 -28t-4 -29q-2 -8 -4 -24.5t-4 -24.5q-1 -4 -1.5 -19t-2.5 -22q-5 -15 -7.5 -47.5t-3.5 -38.5 q-1 -5 -6 -30.5t-5 -34t1 -29.5q5 -17 5 -46t-5 -46q-2 -8 -2 -19.5zM244 1577.5q0 9.5 2 9.5q1 0 3 7t4 14.5t3 9.5l8 33q1 3 4.5 6.5t3.5 5.5l-6 2q3 10 31.5 -4.5t36.5 -22.5q9 -9 33.5 -26.5t33.5 -28.5l15 -16q3 -4 11.5 -9.5t12.5 -9.5q2 -3 8.5 -8.5t8.5 -7.5l4 -6 q1 -1 4 -3t4 -3l6 -7q2 -2 2 -10q2 -4 2 -12q-1 -5 -6 -12.5t-6 -12.5q-3 -7 -6.5 -8.5t-14.5 -1.5q-22 0 -92 31q-10 4 -26 15.5t-23 15.5q-14 6 -37 24q-8 4 -12 8q-2 2 -5 8.5t-5 8.5q-2 1 -2 10.5z" />
<glyph unicode="&#xd3;" horiz-adv-x="733" d="M41.5 507q-0.5 28 1.5 38q2 18 2 55q0 72 2 107q6 99 6 102q-1 20 4 65t4 66q-3 23 5 55q5 29 8 37q6 12 6 27q-1 6 5.5 22.5t6.5 18.5q2 10 8.5 29.5t8.5 29.5q17 64 65 125q40 54 88 74q32 16 39 18q10 2 31 2l24 2h6l-8 -6q4 0 12.5 -1t12.5 -1q8 0 24 -4q30 -5 35 -6 q38 -13 39 -14q1 -2 13.5 -7t13.5 -6q4 -1 14.5 -8t11.5 -8q7 -2 26.5 -18.5t18.5 -22.5q0 -3 10.5 -17t14.5 -14q3 -6 9.5 -20.5t8.5 -18.5q3 -5 10 -25t13 -26q2 -1 4 -6t3.5 -11t2.5 -7q1 -4 2.5 -16.5t4 -23t6.5 -12.5q-2 -5 3.5 -37.5t8.5 -33.5q2 -1 4 -12t3.5 -24 t2.5 -16q5 -27 6.5 -54t2.5 -70.5t1 -53.5v-98q0 -2 0.5 -7.5t0.5 -11.5v-12t-1.5 -10.5t-3.5 -5.5l4 -25q0 -107 -20 -194q-2 -8 -2.5 -26t-3.5 -28q-2 -4 -6 -36q-1 -6 -5.5 -16t-5.5 -15q-15 -61 -39 -100q-1 -1 -9.5 -25.5t-18.5 -30.5q-11 -7 -11 -22q0 -5 -12.5 -17.5 l-13.5 -13.5q-35 -40 -43 -47q-10 -10 -14 -12q-3 -2 -9.5 -5.5t-9.5 -5.5l-4 -8q-99 -45 -186 -12q-15 4 -29 14l-14 8q-13 9 -21 16.5t-8 12.5q0 4 -17 23.5t-22 23.5q-3 2 -14 15.5t-11 17.5q-16 26 -34 68q-17 28 -17 34q0 5 -2.5 18.5t-5.5 14.5q-3 2 -4.5 10.5 t-2 18.5t-1.5 12q-14 42 -17 57q-12 58 -12 62q0 49 -4 53q-5 4 -5.5 32zM227 722q0 -11 1 -25.5t1 -20.5q0 -154 4 -232q4 -107 19 -161q1 -6 3 -18.5t3 -18.5l2 -21q0 -4 1 -11t1 -11q0 -3 5.5 -33t6.5 -33l11 -12q18 -28 39 -39q8 -6 26 -10q3 -1 8.5 -3t7.5 -3t7.5 -1.5 t9.5 1.5q26 7 43 30q8 10 13.5 22.5t8.5 22t5 25t2.5 23.5t1 26.5t0.5 24.5q6 165 6 172q0 205 -2 246q0 7 -1 23t-1 22q0 8 -1 24t-1 23q0 2 -1 11t-1.5 14.5t0.5 8.5q2 5 1 13.5t-3 22t-2 16.5q0 7 -1 21t-1 20q1 20 -2 57.5t-3 52.5v43q0 1 1 19t0.5 32t-3.5 19t-3 16 t1.5 24t1.5 17q0 15 -4 43q-1 4 -2.5 18.5t-3.5 21.5t-6.5 17t-11.5 15v4q-28 19 -58 14t-53 -28q-7 -6 -16 -35q-4 -10 -7 -21.5t-5.5 -26t-4.5 -22.5q-2 -9 -4 -28t-4 -29q-2 -8 -4 -24.5t-4 -24.5q-1 -4 -1.5 -19t-2.5 -22q-5 -14 -7 -46.5t-3 -39.5t-6 -31t-5.5 -33.5 t0.5 -29.5q5 -17 5 -46.5t-5 -46.5q-2 -8 -2 -19zM238 1497q8 12 12 16q4 3 39.5 29.5t52.5 42.5q8 7 26.5 18.5t26.5 18.5q1 1 10 9.5t16 15.5t7 8q0 2 5.5 5.5t10.5 5t7 -2.5l4 -4q0 1 5.5 -3.5t11.5 -9.5l5 -4q1 -1 3 -4t3 -4l15 -18q5 -6 14 -25l6 -10q2 -2 2 -6 q0 -1 -2.5 -3t-5.5 -4t-4 -3l-12 -15q-3 -3 -9.5 -9t-9.5 -9q-29 -25 -59 -33q-6 -2 -24.5 -11.5t-28.5 -10.5q-6 0 -19.5 -6.5t-19.5 -6.5q-3 0 -14 -4.5t-21 -8t-19.5 -2t-11.5 10.5q-2 1 -4 3t-7 5.5t-7.5 6t-1.5 2.5q1 3 -1.5 9t-0.5 11z" />
<glyph unicode="&#xd4;" horiz-adv-x="733" d="M37.5 507q-0.5 28 1.5 38q2 18 2 55q0 72 2 107q6 99 6 102q-1 20 4 65t4 66q-3 26 4 55q4 25 9 37q6 12 6 27q-1 6 5.5 22.5t6.5 18.5q2 10 8 29.5t8 29.5q16 62 66 125q40 54 88 74q32 16 39 18q10 2 31 2l24 2h6l-6 -6q4 0 12.5 -1t12.5 -1q8 0 24 -4q30 -5 35 -6 q38 -13 39 -14q1 -2 13.5 -7t13.5 -6q3 -1 14 -8t12 -8q7 -2 26.5 -18.5t18.5 -22.5q0 -3 10.5 -17t14.5 -14q3 -6 9.5 -20.5t8.5 -18.5q3 -5 10 -25t13 -26q2 -1 4 -6t3.5 -11t2.5 -7q1 -4 2.5 -16.5t4 -23t6.5 -12.5q-2 -5 3.5 -37.5t8.5 -33.5q2 -1 4 -12t3.5 -24 t2.5 -16q5 -27 6.5 -54t2.5 -70.5t1 -53.5v-98q0 -2 0.5 -7.5t0.5 -11.5v-12t-1.5 -10.5t-3.5 -5.5l4 -25q0 -107 -20 -194q-2 -8 -2.5 -26t-3.5 -28q-2 -4 -6 -36q-1 -6 -5.5 -16t-5.5 -15q-15 -61 -39 -100q-1 -1 -9.5 -25.5t-18.5 -30.5q-11 -7 -11 -22q0 -5 -12.5 -17.5 l-13.5 -13.5q-35 -40 -43 -47q-9 -9 -15 -12q-3 -2 -9 -5.5t-9 -5.5l-4 -8q-99 -45 -186 -12q-13 3 -31 14l-14 8q-13 9 -21 16.5t-8 12.5q0 4 -17 23.5t-22 23.5q-3 2 -14 15.5t-11 17.5q-16 26 -34 68q-17 28 -17 34q0 5 -2.5 18.5t-5.5 14.5q-3 2 -4.5 10.5t-2 18.5 t-1.5 12q-14 42 -17 57q-12 58 -12 62q0 49 -4 53q-5 4 -5.5 32zM176 1522v2l12 18q6 6 9 12q5 10 30 39l23 25q22 22 63 47q15 11 29 14l2 -4q10 3 31 -10q2 -2 10 -2q12 -2 31 -10q8 -4 10 -8v-3q0 -2 4 -2q18 -14 23 -20l6 -6q1 -1 4 -2t4 -2q16 -6 37 -31q24 -29 39 -41 l4 -6l6 -6q4 -4 4 -8q0 -3 -6 -9l-4 -10l-6 -12q-16 -10 -43 6q-12 8 -36 22t-42.5 26.5t-32.5 27.5q-12 12 -20 10q-5 0 -9 -4q-40 -28 -67 -55l-8 -9q-2 -1 -10.5 -7t-10.5 -7l-10 -6l-12 -6l-11 -4q-8 -4 -16 -4h-6q-4 2 -8 6l-6 10q-1 2 -3.5 6t-3.5 6l-8 11q-2 2 -2 6z M225 722q0 -11 1 -25.5t1 -20.5q0 -154 4 -232q4 -107 19 -161q1 -6 3 -18.5t3 -18.5l2 -21q0 -4 1 -11t1 -11q0 -3 5.5 -33t6.5 -33l11 -12q18 -28 39 -39q8 -6 26 -10q3 -1 8.5 -3t7.5 -3t7.5 -1.5t9.5 1.5q26 7 43 30q8 10 13.5 22.5t8.5 22t5 25t2.5 23.5t1 26.5 t0.5 24.5q6 165 6 172q0 205 -2 246q0 7 -1 23t-1 22q0 8 -1 24t-1 23q0 2 -1 11t-1.5 14.5t0.5 8.5q2 5 1 13.5t-3 22t-2 16.5q0 7 -1.5 21t-1.5 20q1 21 -1.5 58t-2.5 52v43q0 1 1 19t0.5 32t-3.5 19t-3 16t1.5 24t1.5 17q0 15 -4 43q-1 4 -2.5 18.5t-3.5 21.5t-6.5 17 t-11.5 15v4q-28 19 -58 14t-53 -28q-7 -6 -16 -35q-4 -10 -7 -21.5t-5.5 -26t-4.5 -22.5q-2 -9 -4 -28t-4 -29q-2 -8 -4 -24.5t-4 -24.5q-1 -4 -1.5 -19t-2.5 -22q-5 -14 -7 -46.5t-3 -39.5t-6 -31t-5.5 -33.5t0.5 -29.5q5 -17 5 -46.5t-5 -46.5q-2 -8 -2 -19z" />
<glyph unicode="&#xd5;" horiz-adv-x="733" d="M27.5 509q-0.5 28 1.5 38q2 18 2 55q0 72 2 107q6 99 6 102q-1 20 4 65.5t4 65.5q-3 26 4 55q5 29 8 37q7 14 7 27q-1 6 5.5 22.5t6.5 18.5q2 10 8 29.5t8 29.5q16 62 66 125q40 54 88 74q32 16 39 18q10 2 30 2l25 2h6l-8 -6q4 0 12.5 -1t12.5 -1q8 0 24 -4q30 -5 35 -6 q38 -13 39 -14q1 -2 13 -7t13 -6q4 -1 15 -8.5t12 -7.5q7 -2 26.5 -18.5t18.5 -22.5q0 -3 10.5 -17t14.5 -14q3 -6 9.5 -20t8.5 -19q3 -5 10 -25t13 -26q2 -1 4 -6t3.5 -11t2.5 -7q1 -4 2 -16.5t3.5 -23t6.5 -12.5q-2 -5 4 -37.5t9 -33.5q2 -1 4 -11.5t3.5 -23.5t2.5 -16 q5 -27 6.5 -54t2.5 -71t1 -54q2 -2 1 -50l-1 -48q0 -2 0.5 -7.5t0.5 -11.5v-12t-1.5 -10.5t-3.5 -5.5l4 -25q0 -107 -20 -194q-2 -7 -3 -25t-4 -28q-1 -4 -6 -37q-1 -6 -5 -16.5t-5 -14.5q-15 -61 -39 -100q0 -1 -9.5 -25.5t-19.5 -30.5q-10 -7 -10 -22q0 -5 -12.5 -17.5 l-13.5 -13.5q-35 -40 -43 -47q-9 -9 -15 -12q-3 -2 -9 -5.5t-9 -5.5l-4 -8q-99 -45 -187 -12q-14 4 -28 14l-14 8q-13 9 -21 16.5t-8 12.5q0 4 -17 23.5t-22 23.5q-3 2 -14 15.5t-11 17.5q-19 31 -35 68q-16 27 -16 34q0 5 -2.5 18.5t-5.5 14.5q-3 2 -4.5 10.5t-2 18.5 t-1.5 12q-14 42 -17 57q-12 58 -12 62q0 49 -4 53q-5 4 -5.5 32zM158 1551q0 3 2 8q0 1 2.5 13.5t6 22.5t7.5 11q3 1 10 9t15.5 18.5t11.5 13.5q31 33 133 12q12 -3 50 -26.5t65 -14.5l12 4l12 6l11 8q6 3 12 9l20 18l2 2h-4l9 4l-5 -4h2l7 -4l18 -12l8 -9l6 -6l9 -10v-2v-2 q0 -1 -7 -8l-12 -13q-5 -7 -15 -19t-11 -13q-9 -12 -31.5 -29t-26.5 -20q-37 -34 -125 6q-5 2 -37.5 23.5t-52.5 23.5q-14 3 -29 -8q-5 -5 -8 -11q-1 -2 -3 -7t-5 -7q-6 -6 -16 -6h-8q-9 0 -13 2l-10 8q-12 6 -12 9zM213 724q0 -11 1 -25.5t1 -20.5q0 -154 4 -232 q4 -107 19 -161q1 -6 3 -18.5t3 -18.5l2 -21q0 -4 1 -11t1 -11q0 -3 5.5 -33t6.5 -33l10 -12q18 -28 39 -39q8 -5 27 -10q3 -1 8.5 -3t7.5 -3t7.5 -1.5t9.5 1.5q26 7 43 30q9 12 15.5 25t9 30.5t3.5 27t1.5 32.5t0.5 29q0 10 3.5 74t3.5 98q0 184 -3 246q0 7 -1 23t-1 22 q0 8 -1 24t-1 23q0 2 -1 11.5t-1.5 15t0.5 8.5q2 5 1 13.5t-3 21.5t-2 16q0 7 -1 21t-1 20q1 21 -1.5 58t-2.5 52v43q0 1 1 19t0.5 32t-3.5 19t-3 16t1.5 24t1.5 17q0 15 -4 43q0 2 -2.5 18t-4 22.5t-6.5 16.5t-12 15v4q-28 19 -57.5 14t-52.5 -28q-8 -8 -17 -35 q-4 -10 -7 -21.5t-5 -25.5t-4 -23t-4 -28t-4 -29q-2 -8 -4 -24.5t-4 -24.5q-1 -4 -1.5 -19t-2.5 -22q-5 -15 -7.5 -47.5t-3.5 -38.5q-1 -5 -6 -30.5t-5 -34t1 -29.5q5 -17 5 -46.5t-5 -46.5q-2 -8 -2 -19z" />
<glyph unicode="&#xd6;" horiz-adv-x="733" d="M31.5 513q-0.5 28 1.5 38q2 18 2 55q0 72 2 107q6 99 6 102q-1 21 4 65.5t4 65.5q-3 26 4 55q5 29 8 37q7 14 7 27q-1 6 5.5 22.5t6.5 18.5q2 10 8 29.5t8 29.5q16 62 66 125q40 54 88 74q32 16 39 18q10 2 31 2l24 2h6l-8 -6q4 0 12.5 -1t12.5 -1q8 0 24 -4q30 -5 35 -6 q38 -13 39 -14q1 -2 13.5 -7t13.5 -6q4 -1 14.5 -8t11.5 -8q7 -2 26.5 -18.5t18.5 -22.5q0 -3 10.5 -17t14.5 -14q3 -6 9.5 -20.5t8.5 -18.5q3 -5 10 -25t13 -26q2 -1 4 -6t3.5 -11t2.5 -7q1 -4 2 -16.5t3.5 -23t6.5 -12.5q-2 -5 4 -37.5t9 -33.5q2 -1 4 -11.5t3.5 -23.5 t2.5 -16q5 -27 6.5 -54t2.5 -71t1 -54q2 -2 1 -50l-1 -48q0 -2 0.5 -7.5t0.5 -11.5v-12t-1.5 -10.5t-3.5 -5.5l4 -25q0 -107 -20 -194q-2 -7 -3 -25t-4 -28q-1 -4 -6 -37q-1 -6 -5 -16.5t-5 -14.5q-15 -61 -39 -100q0 -1 -9.5 -25.5t-19.5 -30.5q-10 -7 -10 -22 q0 -5 -12.5 -17.5l-13.5 -13.5q-35 -40 -43 -47q-9 -9 -15 -12q-3 -2 -9 -5t-9 -5l-4 -9q-99 -45 -187 -12q-14 4 -28 14l-14 8q-13 9 -21 16.5t-8 12.5q0 4 -17 23.5t-22 23.5q-3 2 -14 15.5t-11 17.5q-19 31 -35 68q-16 27 -16 35q0 5 -2.5 18t-5.5 14q-3 2 -4.5 10.5 t-2 18.5t-1.5 12q-14 40 -17 58q-12 59 -12 61q0 49 -4 53q-5 4 -5.5 32zM156 1563q0 17 8 33.5t10 23.5q6 22 29 33q4 2 11.5 4t8.5 2l17 4q2 0 6 4l2 2q8 4 12 4l19 -2q4 -1 12 -4t12 -4t23 -14q14 -11 18 -29q7 -37 4 -45q-1 -3 -2 -12t-2 -13q-6 -16 -29 -39 q-32 -28 -51 -32q-4 -1 -13 -1t-13 -1q-31 -4 -43 6q-15 12 -27 36.5t-12 43.5zM217 728.5q0 -11.5 1 -26t1 -20.5q0 -153 4 -231q4 -108 19 -162q1 -6 3 -18.5t3 -18.5l2 -21q0 -4 1 -11t1 -11q0 -3 5.5 -33t6.5 -33l10 -12q18 -28 39 -39q8 -5 27 -10q3 -1 8.5 -3t7.5 -3 t7.5 -1.5t9.5 1.5q26 7 43 30q9 12 15.5 25t9 30.5t3.5 27t1.5 32.5t0.5 29q0 10 3.5 74t3.5 98q0 205 -2 246q0 7 -1 23t-1 22q0 8 -1.5 24t-1.5 23q0 2 -1 11.5t-1.5 15t0.5 8.5q2 5 1 13.5t-3 21.5t-2 16q0 7 -1 21t-1 20q1 21 -1.5 58t-2.5 52v43q0 1 1 19t0.5 32 t-3.5 19t-3 16t1.5 24t1.5 17q0 15 -4 43q0 2 -2.5 18t-4 22.5t-6.5 16.5t-12 15v4q-28 19 -57.5 14t-52.5 -28q-8 -8 -17 -35q-4 -10 -7 -21.5t-5 -25.5t-4 -23t-4 -28t-4 -29q-2 -8 -4 -24.5t-4 -24.5q-1 -4 -1.5 -19t-2.5 -22q-5 -15 -7.5 -47.5t-3.5 -38.5 q-1 -5 -6 -30.5t-5 -34t1 -29.5q5 -17 5 -46t-5 -46q-2 -8 -2 -19.5zM393 1548q-10 26 13 70q9 22 24 31q3 2 7 7.5t5 6.5q8 8 27 12l-8 2h12q5 -1 14.5 -4t14.5 -4h22q5 0 8 -6l11 -10l8 -8l4 -15q4 -4 12 -35q4 -24 2 -36q0 -10 -6 -19q-2 -4 -6 -18q-5 -10 -8 -13 t-25 -14q-59 -26 -92 0q-25 19 -39 53z" />
<glyph unicode="&#xd7;" />
<glyph unicode="&#xd8;" horiz-adv-x="733" />
<glyph unicode="&#xd9;" horiz-adv-x="733" d="M47 936q4 126 4 194q0 142 2 160l1 14q2 13 3 21t4 19t7 17t10 5q18 -1 51.5 0.5t42.5 1.5q1 0 39 -1t39 1h8q7 1 12 0.5t12 -1.5t10.5 -3.5t2.5 -7.5v-19q4 -38 2 -55q-1 -14 2 -43t2 -43l-4 -84q-4 -66 -4 -98q0 -14 3 -40t3 -40q0 -82 2 -98q2 -12 2 -97 q0 -4 -1 -26.5t-1 -26.5q2 -12 0.5 -43t-0.5 -43l4 -98q2 -67 10 -191q0 -3 2 -24.5t2 -34.5q0 -9 2.5 -18.5t4.5 -16.5t2 -8q0 -33 16 -55q12 -17 32.5 -29t45 -12t39.5 18q8 9 19 29.5t16 27.5q4 5 6 15t3 23t1 16l8 55q4 25 4 85t6 91q4 21 6 63t5 60q4 16 2.5 73.5 t-0.5 73.5q2 35 1 104.5t1 104.5q5 68 4 80q0 6 -1 66t-1 63q7 50 2 86q-9 50 2 84l-4 15q-1 3 4 18q1 6 24.5 10t36.5 4l8 -2q18 0 27 -6q10 -9 18 -53q5 -10 0.5 -57.5t-4.5 -57.5q0 -12 -1.5 -53.5t-0.5 -63.5v-57q0 -4 1 -13.5t1 -18t-2 -15.5q-4 -19 -3 -60t-3 -59 q-5 -10 -3 -53t1 -53q-4 -36 -4 -51q0 -27 -3 -85.5t-3 -87.5q0 -117 -8 -174q-1 -10 -4.5 -29t-6 -34.5t-2.5 -28.5t-10 -38.5t-12 -34.5q-2 -14 -10 -30.5t-11 -23.5q-5 -13 -17 -29t-22 -22q-11 -7 -48 -40.5t-64 -41.5q-48 -14 -90 -8q-59 9 -88 29q-6 4 -26.5 16 t-33.5 22t-22 23q-4 6 -21.5 28t-27.5 39.5t-11 34.5q0 11 -12 41q-6 15 -9 46t-5 40q-2 8 -9 34t-8.5 37t0.5 34q3 23 3 33t-3 34.5t-4 34.5q-1 24 0 74t0 74q-1 17 -2 51t-2 51q-1 16 1.5 45t2.5 41q0 14 -3 38t-3 38zM210 1577.5q0 9.5 1 9.5t3 7t4 14.5t3 9.5l8 33 q1 3 5 6.5t4 5.5l-7 2q3 10 31.5 -4.5t36.5 -22.5q9 -9 34 -26.5t34 -28.5l14 -16q3 -4 12 -9.5t13 -9.5q2 -3 4.5 -5.5t6 -5.5t5.5 -5l4 -6q1 -1 4 -3t4 -3l6 -7q2 -2 2 -10q2 -4 2 -12q-1 -5 -6 -12.5t-6 -12.5q-3 -7 -6 -8.5t-14 -1.5q-23 0 -93 31q-10 4 -26 15.5 t-23 15.5q-14 6 -37 24q-8 4 -12 8q-2 2 -5.5 8.5t-4.5 8.5q-1 1 -1 10.5z" />
<glyph unicode="&#xda;" horiz-adv-x="733" d="M57 930q4 126 4 194q0 142 2 160l1 14q2 13 3 21t4 19t7 17t10 5q18 -1 51.5 0.5t42.5 1.5q1 0 39 -1t39 1h8q7 1 12 0.5t12 -1.5t10.5 -3.5t2.5 -7.5v-19q4 -38 2 -55q-1 -14 2 -42.5t2 -43.5l-4 -84q-4 -66 -4 -98q0 -14 3 -40t3 -40q0 -84 2 -99q2 -12 2 -96 q0 -4 -1 -26.5t-1 -26.5q2 -12 0.5 -43t-0.5 -43l4 -98q1 -36 11 -191q0 -3 2 -24.5t2 -34.5q0 -9 2 -18.5t4 -16.5t2 -8q0 -34 16 -56q12 -16 32.5 -28t45 -12t39.5 18q8 9 19 29.5t16 27.5q4 5 6 15t3 23t1 16l8 55q3 25 3.5 85t7.5 91q4 21 5.5 63t4.5 60q4 16 2.5 73.5 t-0.5 73.5q2 35 1 104.5t1 104.5q5 68 4 80q0 6 -1 66t-1 63q7 50 2 86q-9 50 2 84l-4 14q-1 3 4 19q1 6 24.5 10t36.5 4l9 -2q17 0 26 -6q11 -10 19 -53q4 -10 0 -57.5t-4 -57.5q0 -12 -1.5 -53.5t-0.5 -63.5q0 -6 0.5 -18t0.5 -21.5t-1 -17.5q0 -4 1 -13.5t1 -18t-2 -15.5 q-4 -19 -3.5 -60t-3.5 -59q-5 -10 -3 -53t1 -53q-4 -36 -4 -52q0 -27 -3 -85t-3 -87q0 -117 -8 -174q-12 -87 -12 -92q0 -13 -10.5 -39t-12.5 -35q-2 -14 -10 -30t-10 -23q-5 -13 -17 -29t-22 -22q-11 -7 -48.5 -40.5t-64.5 -41.5q-48 -14 -90 -8q-61 9 -88 28 q-5 3 -26.5 16t-34 23t-21.5 23q-3 5 -21 27.5t-27.5 40t-10.5 34.5q0 8 -13 41q-6 15 -9 46t-5 40q-2 8 -9 34t-8 36.5t1 34.5q3 22 2.5 33t-3.5 35t-4 34q-1 24 0 73.5t0 74.5q-1 17 -2 51t-2 51q-1 16 1.5 45t2.5 41q0 14 -3 38t-3 38zM238 1497q8 12 12 16 q4 3 39.5 29.5t52.5 42.5q8 7 26.5 18.5t26.5 18.5q1 1 10 9.5t16 15.5t7 8q0 2 5.5 5.5t10.5 5t7 -2.5l4 -4q0 1 5.5 -3.5t11.5 -9.5l5 -4q1 -1 3 -4t3 -4l15 -18q5 -6 14 -25l6 -10q2 -2 2 -6q0 -1 -2.5 -3t-5.5 -4t-4 -3l-12 -15q-3 -3 -9.5 -9t-9.5 -9q-29 -25 -59 -33 q-6 -2 -24.5 -11.5t-28.5 -10.5q-6 0 -19.5 -6.5t-19.5 -6.5q-3 0 -14 -4.5t-21 -8t-19.5 -2t-11.5 10.5q-2 1 -4 3t-7 5.5t-7.5 6t-1.5 2.5q1 3 -1.5 9t-0.5 11z" />
<glyph unicode="&#xdb;" horiz-adv-x="733" d="M55 932q4 126 4 192q0 142 2 160l1 14q2 13 3 21t4 19t7 17t10 5q18 -1 51.5 0.5t42.5 1.5h78h8q7 1 12 0.5t12 -1.5t10.5 -3.5t2.5 -7.5v-19q4 -38 2 -55q-1 -14 2 -42.5t2 -43.5l-4 -84q-4 -66 -4 -98q0 -14 3 -40t3 -40q0 -84 2 -99q2 -12 2 -96q0 -4 -1 -26.5 t-1 -26.5q2 -12 0.5 -43t-0.5 -43l4 -98q1 -36 11 -191q0 -3 2 -24.5t2 -34.5q0 -9 2 -18.5t4 -16.5t2 -8q0 -34 16 -56q12 -16 32.5 -28t45 -12t39.5 18q8 9 19 29.5t16 27.5q4 5 6 15t3 23t1 16l8 55q4 25 4 85t6 91q4 21 6 63t5 60q4 16 2.5 73.5t-0.5 73.5q2 35 1 104.5 t1 104.5q5 68 4 80q0 6 -1 66t-1 63q7 50 2 86q-9 50 2 84l-4 14q-1 3 4 19q1 6 24.5 10t36.5 4h13q17 0 26 -6q11 -10 19 -53q4 -10 0 -57.5t-4 -57.5q0 -12 -1.5 -53.5t-0.5 -63.5q0 -39 -2 -57q0 -4 1 -13.5t1 -18t-2 -15.5q-4 -19 -3.5 -60t-3.5 -59q-4 -19 -3.5 -53 t-0.5 -53q-4 -36 -4 -52q0 -27 -3 -85t-3 -87q0 -117 -8 -174q-12 -87 -12 -92q0 -13 -10.5 -39t-12.5 -35q-2 -14 -10 -30t-10 -23q-5 -13 -17 -29t-22 -22q-11 -7 -48.5 -40.5t-64.5 -41.5q-48 -14 -90 -8q-59 9 -88 29q-6 4 -26.5 16t-33.5 22t-22 23q-3 5 -21 27.5 t-27.5 40t-10.5 34.5q0 8 -13 41q-6 15 -9 46t-5 40q-2 8 -9 34t-8 36.5t1 34.5q3 22 2.5 33t-3.5 35t-4 34q-1 24 0 73.5t0 74.5q-1 17 -2 51t-2 51q-1 16 1.5 45t2.5 41q0 14 -3 38t-3 38zM176 1522v2l12 18q6 6 9 12q5 10 30 39l23 25q22 22 63 47q15 11 29 14l2 -4 q10 3 31 -10q2 -2 10 -2q12 -2 31 -10q8 -4 10 -8v-3q0 -2 4 -2q18 -14 23 -20l6 -6q1 -1 4 -2t4 -2q16 -6 37 -31q24 -29 39 -41l4 -6l6 -6q4 -4 4 -8q0 -3 -6 -9l-4 -10l-6 -12q-16 -10 -43 6q-12 8 -36 22t-42.5 26.5t-32.5 27.5q-12 12 -20 10q-5 0 -9 -4 q-40 -28 -67 -55l-8 -9q-2 -1 -10.5 -7t-10.5 -7l-10 -6l-12 -6l-11 -4q-8 -4 -16 -4h-6q-4 2 -8 6l-6 10q-1 2 -3.5 6t-3.5 6l-8 11q-2 2 -2 6z" />
<glyph unicode="&#xdc;" horiz-adv-x="733" d="M49 936q4 126 4 194q0 142 2 160l1 14q2 13 3 21t4 19t7 17t10 5q18 -1 51.5 0.5t42.5 1.5h78h8q7 1 12 0.5t12 -1.5t10.5 -3.5t2.5 -7.5v-19q4 -38 2 -55q-1 -14 2 -43t2 -43l-4 -84q-4 -66 -4 -98q0 -14 3 -40t3 -40q0 -82 2 -98q2 -12 2 -97q0 -4 -1 -26.5t-1 -26.5 q2 -12 0.5 -43t-0.5 -43l4 -98q2 -67 10 -191q0 -3 2.5 -24.5t2.5 -34.5q0 -9 2 -18.5t4 -16.5t2 -8q0 -33 16 -55q12 -17 32.5 -29t45 -12t39.5 18q8 9 19 29.5t16 27.5q4 5 6 15t3 23t1 16l8 55q4 25 4 85t6 91q4 21 6 63t5 60q4 16 2.5 73.5t-0.5 73.5q2 35 1 104.5 t1 104.5q5 68 4 80q0 6 -1 66t-1 63q7 50 2 86q-9 50 2 84l-4 15q-1 3 4 18q1 6 24.5 10t36.5 4l8 -2q18 0 27 -6q11 -10 19 -53q3 -21 -1 -62.5t-4 -52.5q0 -12 -1.5 -53.5t-0.5 -63.5v-57q0 -4 1 -13.5t1 -18t-2 -15.5q-4 -19 -3 -60t-3 -59q-5 -10 -3 -53t1 -53 q-4 -36 -4 -51q0 -27 -3 -85.5t-3 -87.5q0 -117 -8 -174q-1 -10 -4.5 -29t-6 -34.5t-2.5 -28.5t-10 -38.5t-12 -34.5q-2 -14 -10 -30.5t-11 -23.5q-5 -13 -16.5 -29t-21.5 -22q-11 -7 -48.5 -40.5t-64.5 -41.5q-48 -14 -90 -8q-59 9 -88 29q-6 4 -26.5 16t-33.5 22t-22 23 q-4 6 -21.5 28t-27.5 39.5t-11 34.5q0 11 -12 41q-6 15 -9 46t-5 40q-2 8 -9 34t-8.5 37t0.5 34q3 23 3 33t-3 34.5t-4 34.5q-1 24 0 74t0 74q-1 17 -2 51t-2 51q-1 16 1.5 45t2.5 41q0 14 -3 38t-3 38zM156 1563q0 17 8 33.5t10 23.5q6 22 29 33q4 2 11.5 4t8.5 2l17 4 q2 0 6 4l2 2q8 4 12 4l19 -2q4 -1 12 -4t12 -4t23 -14q14 -11 18 -29q7 -37 4 -45q-1 -3 -2 -12t-2 -13q-6 -16 -29 -39q-32 -28 -51 -32q-4 -1 -13 -1t-13 -1q-31 -4 -43 6q-15 12 -27 36.5t-12 43.5zM393 1548q-10 26 13 70q9 22 24 31q3 2 7 7.5t5 6.5q8 8 27 12l-8 2h12 q5 -1 14.5 -4t14.5 -4h22q5 0 8 -6l11 -10l8 -8l4 -15q4 -4 12 -35q4 -24 2 -36q0 -10 -6 -19q-2 -4 -6 -18q-5 -10 -8 -13t-25 -14q-59 -26 -92 0q-25 19 -39 53z" />
<glyph unicode="&#xdd;" horiz-adv-x="634" d="M5.5 1339q-0.5 3 0 4.5t2 4.5t4.5 6q18 18 54 8q36 3 79 0l-14 -4q21 6 35.5 3.5t21.5 -20.5q8 -20 14 -43t12.5 -53t10.5 -45q7 -28 13 -55q8 -28 8 -39q8 -16 8 -35q0 -10 16 -82q8 -44 15 -65q8 -24 17.5 -68.5t14.5 -62.5q1 -5 3.5 -15.5t3.5 -15.5l4 -17q5 -9 6 -10 q4 -4 7 0.5t3 7.5l10 25q2 7 6.5 21.5t6.5 21.5q16 48 16 63q0 9 8 27.5t8 26.5q1 15 15.5 48t13.5 50q-1 15 12 41t15 37q2 10 7 27.5t7 23.5q10 57 16 62q4 6 8 15t7.5 19.5t5.5 14.5q15 45 20 55q0 9 9 22h18l25 5q20 4 30 2q5 0 13 -4q6 -6 6 -21q0 -3 -1 -9t-1 -9 l-4 -25q0 -12 -7 -12q-12 -39 -12 -43q-2 -16 -20 -62q-5 -13 -10.5 -37t-10.5 -36q-1 -2 -2.5 -13.5t-3.5 -21t-6 -10.5q-3 -7 -12 -36.5t-11 -33.5q-2 -6 -4 -19.5t-2 -15.5q-15 -52 -51.5 -149t-50.5 -142q0 -1 -2 -7t-4.5 -11t-5.5 -6q1 -4 -7 -43q-1 -6 1 -22.5 t1 -22.5q-3 -8 -3 -27t-1 -23q0 -22 -4 -26q-2 -2 -1.5 -27.5t-0.5 -29.5q-4 -19 -4.5 -44t1 -57.5t1.5 -46.5q0 -62 2 -74q2 -14 -1 -37t-1 -34q5 -22 0 -60q-1 -8 1 -24t1 -23q-1 -3 0 -5.5t-1 -4.5t-7 -2l-68 2h-86q-9 1 -15 3.5t-9 9.5t-4 11t-2 16t-2 15q-4 26 -5 58 t-0.5 51t2 60.5t1.5 53.5q2 69 -2 211q0 11 1 33t1 33q0 2 -1.5 12t-0.5 15q2 15 1 22.5t-4 20.5t-4 20q0 10 -18 70q-15 46 -28.5 96.5t-29.5 116.5t-24 98q-3 13 -9 37t-9 37q-1 4 -9.5 32t-7.5 39q0 4 -5 21.5t-7 21.5q-6 6 -14 62q-1 3 -5.5 15t-8 23t-1.5 15 q-1 1 -2.5 4.5t-1.5 5t-0.5 4.5zM260 1497q8 12 12 16q6 5 41 30.5t52 41.5q8 7 26.5 18.5t26.5 18.5q1 1 10 9.5t16 15.5t7 8q0 2 5.5 5.5t10 5t6.5 -2.5l4 -4q0 1 5.5 -3.5t11.5 -9.5l6 -4q1 -1 3 -4t3 -4l14 -18q7 -10 15 -25l6 -10q2 -2 2 -6q0 -1 -3 -3l-6 -4t-4 -3 l-12 -15l-18 -18q-28 -25 -60 -33q-6 -2 -24.5 -11.5t-28.5 -10.5q-6 0 -19.5 -6.5t-19.5 -6.5q-3 0 -11 -2.5t-17 -5t-17.5 -4t-14 0t-5.5 7.5q-21 0 -21 17q1 3 -1.5 9t-0.5 11z" />
<glyph unicode="&#xde;" />
<glyph unicode="&#xdf;" />
<glyph unicode="&#xe0;" horiz-adv-x="559" />
<glyph unicode="&#xe1;" horiz-adv-x="559" />
<glyph unicode="&#xe2;" horiz-adv-x="559" />
<glyph unicode="&#xe3;" horiz-adv-x="559" />
<glyph unicode="&#xe4;" horiz-adv-x="559" />
<glyph unicode="&#xe5;" horiz-adv-x="559" />
<glyph unicode="&#xe6;" horiz-adv-x="837" />
<glyph unicode="&#xe7;" horiz-adv-x="524" />
<glyph unicode="&#xe8;" horiz-adv-x="559" />
<glyph unicode="&#xe9;" horiz-adv-x="559" />
<glyph unicode="&#xea;" horiz-adv-x="559" />
<glyph unicode="&#xeb;" horiz-adv-x="559" />
<glyph unicode="&#xec;" horiz-adv-x="313" />
<glyph unicode="&#xed;" horiz-adv-x="313" />
<glyph unicode="&#xee;" horiz-adv-x="313" />
<glyph unicode="&#xef;" horiz-adv-x="313" />
<glyph unicode="&#xf0;" horiz-adv-x="593" />
<glyph unicode="&#xf1;" horiz-adv-x="593" />
<glyph unicode="&#xf2;" horiz-adv-x="593" />
<glyph unicode="&#xf3;" horiz-adv-x="593" />
<glyph unicode="&#xf4;" horiz-adv-x="593" />
<glyph unicode="&#xf5;" horiz-adv-x="733" />
<glyph unicode="&#xf6;" horiz-adv-x="593" />
<glyph unicode="&#xf7;" />
<glyph unicode="&#xf8;" horiz-adv-x="593" />
<glyph unicode="&#xf9;" horiz-adv-x="593" />
<glyph unicode="&#xfa;" horiz-adv-x="593" />
<glyph unicode="&#xfb;" horiz-adv-x="593" />
<glyph unicode="&#xfc;" horiz-adv-x="593" />
<glyph unicode="&#xfd;" horiz-adv-x="489" />
<glyph unicode="&#xfe;" horiz-adv-x="593" />
<glyph unicode="&#xff;" horiz-adv-x="489" />
<glyph unicode="&#x152;" horiz-adv-x="942" />
<glyph unicode="&#x153;" horiz-adv-x="872" />
</font>
</defs>
</svg>
