<svg width="188" height="49" viewBox="0 0 188 49" fill="none" xmlns="http://www.w3.org/2000/svg"><g clip-path="url(#a)" fill="#fff"><path d="M67.991 40.824c-.608-.288-2.805-.934-4.657-1.882-2.239-1.155-6.08-4.466-6.08-4.466-1.963-1.622-3.552-.7-3.607-.66-1.148.55-1.493 1.512-1.534 2.46-.028 1.21.47 2.363.525 2.487.083.179.069.22.014.234-.843.192-1.12.398-1.147 1.305-.014 3.078 7.42 6.747 10.93 7.09 1.673.165 3.193-.137 4.589-1.429 2.819-2.57 2.294-4.52.967-5.139zm-17.633-2.899c-.29.536-1.244.605-2.115.137-.87-.467-1.34-1.291-1.05-1.827.29-.55 1.244-.605 2.114-.138.87.454 1.355 1.278 1.05 1.828zM47.331 41.8a20.021 20.021 0 0 1-11.608 3.669c-10.752 0-19.389-8.437-20.024-19.004-.014-.275.318-.508.622-.33 1.216.742 3.924 2.281 7.282 2.529.304.027.719 0 .885.453.193.481.76 2.034 4.574 4.507.194.124.249.179.221.316 0 0-.166.7-1.271.522-1.755-.26-2.723-1.759-3.262-2.088-.193-.138-.456-.124-.622-.083-.594.124-3.164.893-2.832 3.724.165 1.401 1.437 4.108 5.762 5.208.843.233 5.708.838 9.411-2.006.318-.234.788-.578 2.073.04.415.207 3.731 1.76 8.195 1.636l.65-.028c.207 0 .373.07.4.262.028.22-.124.425-.456.673zm4.119-20.735c-.098.453-.084.577.165.907.415.494 1.7 2.088 2.446 3.998.097.22.249.151.346.014.331-.44 1.147-2.24.566-4.837C53.191 12.436 44.678 5.95 35.723 5.95c-3.759 0-8.692 1.525-11.677 3.71-.166.124-.318.233-.47.357-.36.302-.705.619.11.687 1.175.096 2.916.151 4.657.275 3.497.247 7.352 1.017 9.826 1.938 4.104 1.538 5.652 2.899 6.675 3.64.235.18.317.193.387.152.082-.069.096-.261-.014-.59-.097-.33-.511-1.031-1.576-1.883-.552-.44-.47-.591-.152-.866.263-.234.968-.728 2.142-.728 1.05 0 3.082.412 4.505 1.855 0 0 2.294 2.075 1.313 6.568z"/><path d="M31.465 12.694c-1.05-.15-2.1-.275-3.123-.343a231.15 231.15 0 0 0-4.505-.261c-8.444-.536-13.64-7.901-14.994-9.317C5.443-1.087 2.9-.044 1.574.753-.14 1.798-.084 3.57.068 4.533c.69 4.273 4.063 6.91 6.84 8.395 3.165 1.676 6.274 2.253 6.302 2.267 2.943.563 3.095 2.157 3.11 2.157.151 1.47.87 2.075.994 2.281.207.248.097.344-.235.22-2.225-.77-3.234-2.446-3.247-2.487-.235-.37-.36-.33-.58-.275-.871.234-1.466.66-1.742 1.264-.553 1.223.152 2.515.345 2.817 3.234 4.865 11.443 5.675 17.758 5.497 6.689-.193 12.714-1.484 13.032-1.567.235-.041.304.096.11.261-.608.509-3.675 1.608-6.674 2.501l-.18.055.18.069c9.038 3.531 15.077.206 15.146.178.318-.15.774-.412.539-.893-3.497-6.939-11.29-13.328-20.3-14.579zm89.537 30.59a.536.536 0 0 0-.456-.248h-1.631a.536.536 0 0 0-.456.248l-2.239 5.276c-.013.028-.013.041-.013.069 0 .096.083.178.179.178h1.285a.166.166 0 0 0 .166-.11l.525-1.264h2.046l.497 1.265a.18.18 0 0 0 .166.11h1.976c.097 0 .18-.083.18-.18 0-.027 0-.054-.014-.068l-2.211-5.276zm-2.28 3.325l.774-2.047.621 2.047h-1.395zm-17.882-3.325a.536.536 0 0 0-.456-.248h-1.631a.535.535 0 0 0-.456.248l-2.239 5.276c-.014.028-.014.041-.014.069 0 .096.083.178.18.178h1.285a.167.167 0 0 0 .166-.11l.525-1.264h2.045l.498 1.265a.18.18 0 0 0 .166.11h1.976a.182.182 0 0 0 .179-.18c0-.027 0-.054-.013-.068l-2.211-5.276zm-2.28 3.325l.773-2.047.622 2.047H98.56zm17.937-2.446c.11-.096.193-.302.193-.536 0-.247-.083-.453-.193-.55-.028-.027-.069-.04-.125-.04h-4.892c-.055 0-.096.013-.124.054-.111.096-.193.303-.193.536 0 .248.082.454.193.55.028.027.069.041.124.041h1.396v4.425c0 .096.083.178.18.178h1.741c.097 0 .18-.082.18-.178v-4.425h1.395c.056-.014.097-.027.125-.055zm-8.803-1.127h-4.892c-.055 0-.097.014-.124.055-.111.096-.194.303-.194.536 0 .248.083.454.194.55.027.027.069.041.124.041h1.396v4.425c0 .096.083.178.179.178h1.742a.182.182 0 0 0 .179-.178v-4.425h1.396c.055 0 .097-.014.124-.041.111-.096.194-.302.194-.536 0-.247-.083-.453-.194-.55-.027-.04-.069-.055-.124-.055zm52.251 5.524l-2.239-5.276a.536.536 0 0 0-.456-.248h-1.631a.536.536 0 0 0-.456.248l-2.238 5.276c-.014.028-.014.041-.014.069 0 .096.083.178.179.178h1.286a.166.166 0 0 0 .165-.11l.526-1.264h2.045l.497 1.265a.18.18 0 0 0 .166.11h1.976c.097 0 .18-.083.18-.18.028-.013.028-.04.014-.068zm-4.519-1.951l.774-2.047.622 2.047h-1.396zm-25.538 1.017c-.746-.976-1.133-1.21-1.949-1.47 0 0 1.714.013 1.714-1.567 0-1.127-1.064-1.553-2.778-1.553h-2.391a.518.518 0 0 0-.511.509v5.084c0 .096.083.178.18.178h1.741c.097 0 .18-.082.18-.178v-4.713h.483c.097 0 .926.027.926.88 0 .879-.622 1.002-.898 1.085-.18.055-.207.233.166.865.331.564.87 1.32 1.188 1.622.111.11.208.233.373.316.318.206 1.009.316 1.576.288.829-.04.884-.274.884-.357-.014-.151-.235-.137-.884-.99zm22.401-2.254h-2.391a.128.128 0 0 0-.097.041c-.096.083-.152.262-.152.468 0 .22.069.398.152.48a.128.128 0 0 0 .097.042h.719v1.635c-.069.028-.194.055-.47.055-1.05 0-1.686-.577-1.686-2.171 0-1.58.649-2.116 1.589-2.116.539 0 .981.206 1.258.398a.521.521 0 0 0 .29.096c.152 0 .345-.027.58-.26a.518.518 0 0 0 .18-.33c0-.083-.083-.165-.166-.22a4.385 4.385 0 0 0-2.294-.646c-2.059 0-3.731 1.21-3.731 3.064 0 1.841 1.672 3.078 3.731 3.078a4.4 4.4 0 0 0 2.336-.687c.138-.096.248-.247.248-.426v-2.336a.194.194 0 0 0-.193-.165zm-7.324-2.336h-1.41a.183.183 0 0 0-.18.179v3.312l-2.1-3.133c-.138-.193-.318-.358-.65-.358h-1.658a.183.183 0 0 0-.18.179v5.414c0 .096.083.178.18.178h1.41a.182.182 0 0 0 .179-.178v-2.927l1.976 2.886a.526.526 0 0 0 .429.233h2.017c.097 0 .18-.082.18-.178v-5.414c-.014-.11-.097-.193-.193-.193zm-10.779-.178c-1.977 0-3.552 1.223-3.552 3.064 0 1.869 1.589 3.078 3.552 3.078 1.976 0 3.551-1.21 3.551-3.078 0-1.855-1.575-3.064-3.551-3.064zm0 5.153c-.968 0-1.286-1.1-1.286-2.268 0-1.181.567-1.965 1.286-1.965.718 0 1.299.77 1.299 1.965 0 1.168-.332 2.268-1.299 2.268zm-26.547-23.305h4.035v10.746h1.105V24.706h4.036v-.99h-9.176v.99zm3.178-8.01h-5.514V5.95h-1.105v11.748h6.605v-1.003h.014zm70.506 0v-4.577h5.735v-.989h-5.735V6.94h6.122v-.99h-7.227v11.748h7.49v-.99h-6.385v-.013zm-87.725 13.19h5.735v-.989h-5.735V24.72h6.122v-.99h-7.227v11.722h7.49v-.99h-6.385v-4.576zm.705-23.936h-1.106v11.748h1.106V5.95zm67.742 17.767l-5.154 11.748h1.147l1.34-3.119h6.26l1.285 3.12h1.23l-4.975-11.75h-1.133zm-2.225 7.626l2.75-6.43 2.667 6.43h-5.417zm-78.59-1.759c.36-.11.677-.275.981-.508.29-.22.539-.523.733-.893.193-.372.29-.825.29-1.388 0-.509-.083-.935-.25-1.292a2.707 2.707 0 0 0-1.506-1.415 4.928 4.928 0 0 0-.953-.261 7.004 7.004 0 0 0-.87-.097c-.263-.013-.484-.013-.636-.013h-3.11v11.735h1.106v-5.58h2.045l3.317 5.58h1.257l-3.44-5.634a5.89 5.89 0 0 0 1.036-.234zm-4.201-.7v-4.178h2.335c.58 0 1.05.069 1.41.22.36.137.635.316.843.536.193.206.331.44.414.673.07.247.111.467.111.66 0 .192-.041.426-.11.66-.07.247-.208.466-.415.673-.194.206-.484.384-.843.535-.36.138-.83.22-1.41.22H77.03zm3.731-12.546h-.028L77.747 5.936h-1.395l-2.985 10.402h-.028l-2.93-10.402h-1.133l3.441 11.748h1.355l2.984-10.443h.028l2.985 10.444h1.354l3.441-11.749h-1.133L80.76 16.338zm62.201 13.548h5.735v-.989h-5.735V24.72h6.122v-.99h-7.228v11.722h7.49v-.99h-6.384v-4.576zm10.309-12.201h1.105V5.95h-1.105v11.735zm-26.16-1.32c.47-.384.843-.81 1.119-1.291.277-.467.47-.92.595-1.347.124-.426.207-.824.248-1.168.028-.343.056-.59.056-.742 0-.137-.014-.385-.056-.742a5.191 5.191 0 0 0-.248-1.168 6.6 6.6 0 0 0-.595-1.346 5.111 5.111 0 0 0-1.119-1.292c-.47-.385-1.064-.7-1.783-.948-.718-.248-1.575-.371-2.598-.371h-3.648v11.748h3.648c1.023 0 1.894-.123 2.598-.37.705-.262 1.299-.578 1.783-.963zm-4.671.33h-2.266V6.94h2.266c.774 0 1.506.096 2.184.289a4.98 4.98 0 0 1 1.768.893 4.29 4.29 0 0 1 1.189 1.511c.29.619.428 1.347.428 2.185 0 .838-.138 1.567-.428 2.185a4.029 4.029 0 0 1-1.189 1.511 4.98 4.98 0 0 1-1.768.894 7.99 7.99 0 0 1-2.184.288zm41.831.99h1.106v-5.566h5.555v-.989h-5.555V6.94h5.97v-.99h-7.076v11.734zm9.701 7.021h4.036v10.746h1.105V24.706h4.035v-.99h-9.176v.99zm-29.117-8.01h-5.5V5.95h-1.106v11.748h6.606v-1.003zm-14.248 12.888c.36-.11.677-.275.981-.508.291-.22.539-.523.733-.893.193-.372.29-.825.29-1.388 0-.509-.083-.935-.249-1.292a2.637 2.637 0 0 0-.635-.88 2.71 2.71 0 0 0-.871-.535 4.932 4.932 0 0 0-.954-.261 6.985 6.985 0 0 0-.87-.097c-.263-.013-.484-.013-.636-.013h-3.109v11.735h1.105v-5.58h2.046l3.316 5.58h1.258l-3.441-5.634a5.89 5.89 0 0 0 1.036-.234zm-4.201-.7v-4.178h2.336c.58 0 1.05.069 1.409.22.36.137.636.316.843.536.194.206.332.44.415.673.069.247.11.467.11.66 0 .192-.041.426-.11.66a1.515 1.515 0 0 1-.415.673c-.193.206-.483.384-.843.535-.359.138-.829.22-1.409.22h-2.336z"/></g><defs><clipPath id="a"><path fill="#fff" d="M0 0h187.708v49H0z"/></clipPath></defs></svg>