<svg width="20" height="20" viewBox="0 0 20 20" xmlns="http://www.w3.org/2000/svg" xmlns:xlink="http://www.w3.org/1999/xlink"><title>UI-Icons/Weather-Storm-Light@1x</title><defs><path d="M11.818 13.613a.72.72 0 0 1 .576 1.152l-3.636 4.849a.72.72 0 0 1-1.152-.864l2.772-3.697H6.97a.72.72 0 0 1-.576-1.152l3.636-4.848a.72.72 0 0 1 1.152.864L8.41 13.613h3.408zm7.993-2.916a4.356 4.356 0 0 1-4.356 4.356.72.72 0 1 1 0-1.44 2.916 2.916 0 1 0 0-5.832.975.975 0 0 0-.109.011c-.072.01-.106.014-.15.018a.72.72 0 0 1-.745-.48A4.718 4.718 0 0 0 10 4.144 4.718 4.718 0 0 0 5.549 7.33a.72.72 0 0 1-.744.48 2.857 2.857 0 0 1-.14-.016 1.104 1.104 0 0 0-.12-.013 2.916 2.916 0 1 0 0 5.832.72.72 0 0 1 0 1.44 4.356 4.356 0 0 1-.151-8.71A6.15 6.15 0 0 1 10 2.704a6.15 6.15 0 0 1 5.606 3.64 4.356 4.356 0 0 1 4.205 4.353zm-.052-4.732a.72.72 0 1 1-1.426-.204 3.522 3.522 0 0 0-5.3-3.539.72.72 0 0 1-.741-1.234 4.962 4.962 0 0 1 7.467 4.978z" id="a"/></defs><g fill="none" fill-rule="evenodd"><mask id="b" fill="#fff"><use xlink:href="#a"/></mask><use fill="#FFF" fill-rule="nonzero" xlink:href="#a"/><g mask="url(#b)" fill="#F4F4F4"><path d="M0 0h20v20H0z"/></g></g></svg>