<svg width="20" height="20" viewBox="0 0 20 20" xmlns="http://www.w3.org/2000/svg" xmlns:xlink="http://www.w3.org/1999/xlink"><title>UI-Icons/Weather-SunCloud-Light@1x</title><defs><path d="M19.872 17.33a4.69 4.69 0 0 1-.586 2.28.757.757 0 1 1-1.324-.735 3.17 3.17 0 0 0 .396-1.545c0-1.7-1.312-3.067-2.914-3.067a.963.963 0 0 0-.102.012 3.03 3.03 0 0 1-.155.02.757.757 0 0 1-.788-.514c-.667-1.993-2.443-3.343-4.463-3.343s-3.795 1.35-4.462 3.343a.757.757 0 0 1-.789.513 2.826 2.826 0 0 1-.144-.017 1.106 1.106 0 0 0-.112-.014c-1.603 0-2.914 1.366-2.914 3.067 0 .552.138 1.081.395 1.545a.757.757 0 0 1-1.324.735A4.69 4.69 0 0 1 0 17.33c0-2.461 1.88-4.48 4.248-4.578.997-2.295 3.194-3.828 5.688-3.828 2.495 0 4.691 1.533 5.689 3.828 2.368.099 4.247 2.117 4.247 4.578zM6.442 9.134a.757.757 0 1 1-1.503-.18c.348-2.911 2.743-5.13 5.61-5.13 3.128 0 5.652 2.63 5.652 5.857 0 .24-.015.483-.043.726a.757.757 0 0 1-1.505-.176c.022-.186.033-.37.033-.55 0-2.404-1.86-4.342-4.138-4.342-2.085 0-3.847 1.632-4.105 3.795zm-3.237-.21a.757.757 0 1 1 0 1.514H1.981a.757.757 0 1 1 0-1.514h1.224zm2.697-5.176a.757.757 0 1 1-1.093 1.048l-.865-.9a.757.757 0 1 1 1.092-1.05l.866.902zm5.403-1.716a.757.757 0 1 1-1.514 0V.757a.757.757 0 0 1 1.514 0v1.275zm4.982 2.764a.757.757 0 1 1-1.092-1.048l.865-.902a.757.757 0 0 1 1.092 1.05l-.865.9zm1.604 5.642a.757.757 0 0 1 0-1.514h1.224a.757.757 0 1 1 0 1.514h-1.224z" id="a"/></defs><g fill="none" fill-rule="evenodd"><mask id="b" fill="#fff"><use xlink:href="#a"/></mask><use fill="#FFF" fill-rule="nonzero" xlink:href="#a"/><g mask="url(#b)" fill="#F4F4F4"><path d="M0 0h20v20H0z"/></g></g></svg>