<svg width="20" height="20" viewBox="0 0 20 20" xmlns="http://www.w3.org/2000/svg" xmlns:xlink="http://www.w3.org/1999/xlink"><title>UI-Icons/Weather-CloudRain-Light@1x</title><defs><path d="M20 10.615a4.465 4.465 0 0 1-2.233 3.87.779.779 0 1 1-.78-1.35 2.91 2.91 0 0 0-1.454-5.43.999.999 0 0 0-.104.012c-.073.01-.109.014-.155.018a.779.779 0 0 1-.805-.519c-.664-1.903-2.44-3.2-4.469-3.2-2.03 0-3.805 1.297-4.469 3.2a.779.779 0 0 1-.805.52 2.941 2.941 0 0 1-.144-.018 1.144 1.144 0 0 0-.115-.013 2.91 2.91 0 0 0-.485 5.78.779.779 0 1 1-.259 1.536 4.467 4.467 0 0 1 .558-8.87A6.286 6.286 0 0 1 10 2.46a6.286 6.286 0 0 1 5.718 3.692A4.467 4.467 0 0 1 20 10.615zm-.053-4.793a.779.779 0 1 1-1.543-.221 3.524 3.524 0 0 0-5.302-3.54A.779.779 0 0 1 12.3.724a5.082 5.082 0 0 1 7.647 5.097zm-8.553 13.399a.779.779 0 1 1-1.558 0v-2.459a.779.779 0 1 1 1.558 0v2.459zm-3.689-2.459a.779.779 0 0 1-1.558 0v-2.459a.779.779 0 1 1 1.558 0v2.46zm7.377 0a.779.779 0 0 1-1.558 0v-2.459a.779.779 0 1 1 1.558 0v2.46z" id="a"/></defs><g fill="none" fill-rule="evenodd"><mask id="b" fill="#fff"><use xlink:href="#a"/></mask><use fill="#FFF" fill-rule="nonzero" xlink:href="#a"/><g mask="url(#b)" fill="#F4F4F4"><path d="M0 0h20v20H0z"/></g></g></svg>