<svg width="20" height="19" viewBox="0 0 20 19" xmlns="http://www.w3.org/2000/svg" xmlns:xlink="http://www.w3.org/1999/xlink"><title>UI-Icons/Weather-Rain-Light@1x</title><defs><path d="M10.09 1.668a.72.72 0 1 1 1.031 1.006l-9.697 9.934a.72.72 0 1 1-1.03-1.006l9.697-9.934zM18.577.426a.72.72 0 1 1 1.03 1.006L9.91 11.366a.72.72 0 0 1-1.03-1.006L18.576.426zm0 7.45a.72.72 0 1 1 1.03 1.006L9.91 18.816a.72.72 0 1 1-1.03-1.006l9.697-9.933z" id="a"/></defs><g fill="none" fill-rule="evenodd"><mask id="b" fill="#fff"><use xlink:href="#a"/></mask><use fill="#FFF" fill-rule="nonzero" xlink:href="#a"/><g mask="url(#b)" fill="#F4F4F4"><path d="M0 0h20v20H0z"/></g></g></svg>