<svg width="20" height="20" viewBox="0 0 20 20" xmlns="http://www.w3.org/2000/svg" xmlns:xlink="http://www.w3.org/1999/xlink"><title>UI-Icons/Weather-Sun-Light@1x</title><defs><path d="M10 14.525a4.525 4.525 0 1 0 0-9.05 4.525 4.525 0 0 0 0 9.05zm0 1.203a5.728 5.728 0 1 1 0-11.456 5.728 5.728 0 0 1 0 11.456zM0 10.602V9.398h2.912v1.204H0zm2.504-7.248l.85-.85 2.06 2.059-.851.85-2.06-2.059zM9.398 0h1.204v2.912H9.398V0zm7.248 2.504l.85.85-2.059 2.06-.85-.851 2.059-2.06zM20 9.398v1.204h-2.912V9.398H20zm-2.504 7.248l-.85.85-2.06-2.059.851-.85 2.06 2.059zM10.602 20H9.398v-2.912h1.204V20zm-7.248-2.504l-.85-.85 2.059-2.06.85.851-2.059 2.06z" id="a"/></defs><g fill="none" fill-rule="evenodd"><mask id="b" fill="#fff"><use xlink:href="#a"/></mask><use fill="#FFF" fill-rule="nonzero" xlink:href="#a"/><g mask="url(#b)" fill="#F4F4F4"><path d="M0 0h20v20H0z"/></g></g></svg>