<svg xmlns="http://www.w3.org/2000/svg" xmlns:xlink="http://www.w3.org/1999/xlink" width="20" height="19" viewBox="0 0 20 19"><defs><path id="a" d="M6.5 11.667c1.833 0 3.333 1.5 3.333 3.333 0 1.833-1.5 3.333-3.333 3.333-1.417 0-2.667-.916-3.167-2.166-.166-.417.084-.917.5-1.084.417-.166.917.084 1.084.5.25.667.916 1.084 1.583 1.084.917 0 1.667-.75 1.667-1.667s-.75-1.667-1.667-1.667H.833C.333 13.333 0 13 0 12.5c0-.5.333-.833.833-.833H6.5zm-5.667-5c-.5 0-.833-.334-.833-.834C0 5.333.333 5 .833 5H11.5c.917 0 1.667-.75 1.667-1.667 0-.916-.75-1.666-1.667-1.666-.667 0-1.333.416-1.583 1.166-.167.417-.667.667-1.084.5-.416-.166-.666-.666-.5-1.083C8.833.917 10.083 0 11.5 0c1.833 0 3.333 1.5 3.333 3.333 0 1.834-1.5 3.334-3.333 3.334H.833zm15.834 1.666C18.5 8.333 20 9.917 20 11.75c0 1.833-1.5 3.333-3.333 3.333-1.417 0-2.667-.916-3.167-2.25-.167-.416.083-.916.5-1.083.417-.167.917.083 1.083.5.25.667.917 1.083 1.584 1.083.916 0 1.666-.75 1.666-1.666 0-.917-.75-1.667-1.666-1.667H.833C.333 10 0 9.667 0 9.167c0-.5.333-.834.833-.834h15.834z"/></defs><g fill="none" fill-rule="evenodd"><mask id="b" fill="#fff"><use xlink:href="#a"/></mask><use fill="#FFF" fill-rule="nonzero" xlink:href="#a"/><g fill="#F4F4F4" mask="url(#b)"><path d="M0-1h20v20H0z"/></g></g></svg>