<svg xmlns="http://www.w3.org/2000/svg" xmlns:xlink="http://www.w3.org/1999/xlink" width="19" height="20" viewBox="0 0 19 20"><defs><path id="a" d="M14.468 8l3.083.833h.25c.334 0 .667-.25.834-.583.083-.417-.167-.917-.584-1l-1.5-.417 1.084-.666c.416-.25.5-.75.333-1.167-.167-.417-.75-.5-1.167-.333l-1.166.666.416-1.5c.084-.416-.166-.916-.583-1-.417-.083-.917.167-1 .584L13.635 6.5l-3.5 2.083V4.5l2.25-2.25a.806.806 0 0 0 0-1.167.806.806 0 0 0-1.167 0l-1.083 1.084V.833C10.135.333 9.8 0 9.3 0c-.5 0-.833.333-.833.833v1.334L7.385 1.083a.806.806 0 0 0-1.167 0 .806.806 0 0 0 0 1.167l2.25 2.25v4.083L4.968 6.5l-.833-3.083c-.084-.417-.584-.667-1-.584-.5.167-.75.584-.584 1.084l.417 1.5-1.167-.75C1.385 4.5.885 4.583.635 5c-.25.417-.084.917.333 1.167l1.167.666-1.5.334c-.5.166-.75.583-.584 1.083.084.333.417.583.834.583h.25L4.218 8l3.417 2-3.5 2-3.084-.833c-.416-.084-.916.166-1 .583-.083.417.167.917.584 1l1.5.417-1.167.666c-.417.25-.5.75-.333 1.167.166.25.416.417.75.417.166 0 .25 0 .416-.084l1.167-.666-.417 1.5c-.083.416.167.916.584 1h.25c.333 0 .666-.25.833-.584l.833-3.083 3.5-2v4.083l-2.25 2.25a.806.806 0 0 0 0 1.167.806.806 0 0 0 1.167 0l1.083-1.083v1.25c0 .5.334.833.834.833.5 0 .833-.333.833-.833v-1.334l1.083 1.084a.9.9 0 0 0 .584.25.9.9 0 0 0 .583-.25.806.806 0 0 0 0-1.167l-2.333-2.25v-4.083l3.5 2 .833 3.083c.083.333.417.583.833.583h.25c.417-.083.667-.583.584-1l-.417-1.5 1.167.667c.166.083.25.083.416.083.25 0 .584-.166.75-.416.25-.417.084-.917-.333-1.167l-1.167-.667 1.5-.416c.417-.084.667-.584.584-1-.084-.417-.584-.75-1-.584l-3.084.834L10.968 10l3.5-2z"/></defs><g fill="none" fill-rule="evenodd"><mask id="b" fill="#fff"><use xlink:href="#a"/></mask><use fill="#FFF" fill-rule="nonzero" xlink:href="#a"/><g fill="#F4F4F4" mask="url(#b)"><path d="M-1 0h20v20H-1z"/></g></g></svg>