<svg xmlns="http://www.w3.org/2000/svg" xmlns:xlink="http://www.w3.org/1999/xlink" width="20" height="15" viewBox="0 0 20 15"><defs><path id="a" d="M20 12a4.225 4.225 0 0 1-4.215 4.215H4.215A4.225 4.225 0 0 1 0 12c0-1.729 1.036-3.261 2.542-3.9C3.032 4.67 6.034 2 9.587 2c3.49 0 6.39 2.51 7.006 5.863A4.228 4.228 0 0 1 20 12zm-4.215 2.397A2.406 2.406 0 0 0 18.182 12a2.406 2.406 0 0 0-2.397-2.397h-.842l-.064-.84c-.215-2.788-2.5-4.945-5.292-4.945-2.798 0-5.149 2.242-5.29 5.005l-.036.682-.664.157C2.58 9.9 1.818 10.875 1.818 12a2.406 2.406 0 0 0 2.397 2.397h11.57z"/></defs><g fill="none" fill-rule="evenodd" transform="translate(0 -2)"><mask id="b" fill="#fff"><use xlink:href="#a"/></mask><use fill="#FFF" fill-rule="nonzero" xlink:href="#a"/><g fill="#F4F4F4" mask="url(#b)"><path d="M0 0h20v20H0z"/></g></g></svg>