<svg width="20" height="20" viewBox="0 0 20 20" xmlns="http://www.w3.org/2000/svg" xmlns:xlink="http://www.w3.org/1999/xlink"><title>UI-Icons/World-Dark@1x</title><defs><path d="M10 0C4.5 0 0 4.5 0 10s4.5 10 10 10 10-4.5 10-10S15.5 0 10 0zm0 17.5c-1.875 0-3.5-.625-4.875-1.75.75-1 .875-2.25.125-3.25-.625-.875-1.625-1.75-1.625-2.5C3.625 9 6 8.625 6.75 7.625c.875-1 0-2.875-.875-3.875 1-.625 2.125-1.125 3.5-1.25.25.625 1.125 1.375 1.5 1.875C11.5 5.375 11.625 6 12.5 6c.25 0 2.5 0 3.75-.375C17 6.875 17.5 8.375 17.5 10c0 4.125-3.375 7.5-7.5 7.5zm2.502-9.167c-1.36 0-2.608.91-2.495 2.16.34 2.84-.567 3.863.68 4.43 1.475.57 4.423-2.158 4.31-4.43 0-1.25-1.02-2.16-2.495-2.16z" id="a"/></defs><g fill="none" fill-rule="evenodd"><mask id="b" fill="#fff"><use xlink:href="#a"/></mask><use fill="#F4F4F4" fill-rule="nonzero" xlink:href="#a"/><g mask="url(#b)" fill="#181818"><path d="M0 0h20v20H0z"/></g></g></svg>