<?xml version="1.0" encoding="UTF-8"?>
<svg width="56px" height="32px" viewBox="0 0 56 32" version="1.1" xmlns="http://www.w3.org/2000/svg" xmlns:xlink="http://www.w3.org/1999/xlink">
    <!-- Generator: Sketch 43 (38999) - http://www.bohemiancoding.com/sketch -->
    <title>Group 17</title>
    <desc>Created with Sketch.</desc>
    <defs>
        <rect id="path-1" x="0" y="0" width="56" height="32" rx="3"></rect>
        <polygon id="path-3" points="56.8176 56.75148 56.8176 0 28.426584 0 0.035568 0 0.035568 56.75148 56.8176 56.75148"></polygon>
    </defs>
    <g id="Wireframes" stroke="none" stroke-width="1" fill="none" fill-rule="evenodd">
        <g id="Wireframe03" transform="translate(-723.000000, -956.000000)">
            <g id="Group-17" transform="translate(723.000000, 956.000000)">
                <g id="Page-1">
                    <mask id="mask-2" fill="white">
                        <use xlink:href="#path-1"></use>
                    </mask>
                    <g id="Mask"></g>
                    <g mask="url(#mask-2)" id="Group-5">
                        <g transform="translate(28.500000, 14.500000) rotate(-360.000000) translate(-28.500000, -14.500000) translate(0.000000, -14.000000)">
                            <g transform="translate(-0.000000, 0.000000)">
                                <mask id="mask-4" fill="white">
                                    <use xlink:href="#path-3"></use>
                                </mask>
                                <g id="Clip-4"></g>
                                <path d="M56.422248,7.10542736e-15 L0.035568,7.10542736e-15 L0.035568,23.88756 L1.961028,19.48602 L6.080988,19.48602 L6.648708,20.57358 L6.648708,19.48602 L11.460648,19.48602 L12.547068,21.83556 L13.607268,19.48602 L28.956228,19.48602 C29.672148,19.48602 30.288888,19.61028 30.757428,20.00586 L30.757428,19.48602 L34.977708,19.48602 L34.977708,20.00586 C35.669688,19.61028 36.582828,19.48602 37.619088,19.48602 L43.714668,19.48602 L44.281248,20.57358 L44.281248,19.48602 L48.771708,19.48602 L49.438608,20.57358 L49.438608,19.48602 L53.831028,19.48602 L53.831028,28.76106 L49.389588,28.76106 L48.525468,27.34974 L48.525468,28.76106 L42.997608,28.76106 L42.382008,27.2517 L41.023128,27.2517 L40.406388,28.76106 L37.518768,28.76106 C36.384468,28.76106 35.545428,28.48746 34.977708,28.19106 L34.977708,28.76106 L28.117188,28.76106 L28.117188,26.63268 C28.117188,26.33628 28.068168,26.28726 27.870948,26.28726 L27.648648,26.28726 L27.648648,28.76106 L14.397288,28.76106 L14.397288,27.57318 L13.928748,28.76106 L11.139168,28.76106 L10.670628,27.6222 L10.670628,28.76106 L5.316048,28.76106 L4.748328,27.2517 L3.391728,27.2517 L2.773848,28.76106 L0.035568,28.76106 L0.035568,56.75148 L56.422248,56.75148 L56.422248,39.76434 C55.829448,40.03566 54.966468,40.18386 54.127428,40.18386 L50.006328,40.18386 L50.006328,39.61614 C49.536648,39.98664 48.672528,40.18386 47.883648,40.18386 L34.928688,40.18386 L34.928688,38.05776 C34.928688,37.76136 34.879668,37.76136 34.632288,37.76136 L34.411128,37.76136 L34.411128,40.18386 L30.140688,40.18386 L30.140688,37.66218 C29.424768,38.0076 28.635888,38.0076 27.919968,38.0076 L27.451428,38.0076 L27.451428,40.18386 L22.245048,40.18386 L21.011568,38.74974 L19.653828,40.18386 L11.288508,40.18386 L11.288508,30.88716 L19.800888,30.88716 L21.011568,32.32128 L22.343088,30.88716 L28.068168,30.88716 C28.735068,30.88716 29.820348,30.9852 30.288888,31.45488 L30.288888,30.88716 L35.398368,30.88716 C35.915928,30.88716 36.903168,30.9852 37.568928,31.45488 L37.568928,30.88716 L45.268488,30.88716 L45.268488,31.45488 C45.711948,31.08438 46.501968,30.88716 47.217888,30.88716 L51.511128,30.88716 L51.511128,31.45488 C51.980808,31.13454 52.646568,30.88716 53.509548,30.88716 L56.422248,30.88716 L56.422248,7.10542736e-15 Z M2.947128,24.5556 L4.057488,21.93474 L5.142768,24.5556 L2.947128,24.5556 Z M29.054268,23.49312 C28.808028,23.64132 28.585728,23.64132 28.265388,23.64132 L26.315988,23.64132 L26.315988,22.18212 L28.265388,22.18212 C28.537848,22.18212 28.857048,22.18212 29.054268,22.28016 C29.252628,22.40442 29.351808,22.60278 29.351808,22.89804 C29.351808,23.17164 29.252628,23.41788 29.054268,23.49312 L29.054268,23.49312 Z M42.775308,24.5556 L41.690028,21.93474 L40.604748,24.5556 L42.775308,24.5556 Z M17.135568,20.79702 L14.546628,20.79702 L12.596088,25.29774 L10.523568,20.79702 L7.981368,20.79702 L7.981368,27.0522 L5.265888,20.79702 L2.923188,20.79702 L0.084588,27.42498 L1.786608,27.42498 L2.379408,25.96578 L5.711628,25.96578 L6.303288,27.42498 L9.535188,27.42498 L9.535188,22.23114 L11.856228,27.42498 L13.212828,27.42498 L15.532728,22.23114 L15.532728,27.42498 L17.135568,27.42498 L17.135568,20.79702 Z M23.626728,26.06382 L19.924008,26.06382 L19.924008,24.72888 L23.577708,24.72888 L23.577708,23.36886 L19.924008,23.36886 L19.924008,22.18212 L23.626728,22.18212 L23.626728,20.79702 L18.321168,20.79702 L18.321168,27.42498 L23.626728,27.42498 L23.626728,26.06382 Z M30.288888,21.09342 C29.770188,20.79702 29.203608,20.79702 28.389648,20.79702 L24.762168,20.79702 L24.762168,27.42498 L26.315988,27.42498 L26.315988,25.02528 L28.019148,25.02528 C28.585728,25.02528 28.956228,25.07544 29.203608,25.29774 C29.474928,25.6443 29.424768,26.21202 29.424768,26.58366 L29.424768,27.42498 L31.053828,27.42498 L31.053828,26.11398 C31.053828,25.54512 31.003668,25.24758 30.757428,24.92724 C30.609228,24.72888 30.339048,24.50658 29.992488,24.35838 C30.437088,24.16002 31.129068,23.64132 31.129068,22.60278 C31.129068,21.83556 30.807588,21.41604 30.288888,21.09342 L30.288888,21.09342 Z M32.043348,27.42498 L33.646188,27.42498 L33.646188,20.79702 L32.043348,20.79702 L32.043348,27.42498 Z M52.424268,27.42498 L50.154528,27.42498 L47.168868,22.45458 L47.168868,27.42498 L43.960908,27.42498 L43.343028,25.96578 L40.037028,25.96578 L39.420288,27.42498 L37.568928,27.42498 C36.803988,27.42498 35.817888,27.2517 35.250168,26.68284 C34.731468,26.11398 34.435068,25.34676 34.435068,24.16002 C34.459008,23.17164 34.583268,22.28016 35.299188,21.56424 C35.767728,21.0444 36.631848,20.79702 37.717128,20.79702 L39.221928,20.79702 L39.221928,22.23114 L37.717128,22.23114 C37.150548,22.23114 36.803988,22.33032 36.482508,22.60278 C36.187248,22.89804 36.064128,23.41788 36.064128,24.111 C36.064128,24.82806 36.187248,25.34676 36.482508,25.69332 C36.704808,25.91562 37.150548,26.0148 37.568928,26.0148 L38.284848,26.0148 L40.555728,20.79702 L42.899568,20.79702 L45.564888,27.0522 L45.564888,20.79702 L48.007908,20.79702 L50.795208,25.39578 L50.795208,20.79702 L52.424268,20.79702 L52.424268,27.42498 Z M18.172968,37.4889 L14.249088,37.4889 L14.249088,36.15282 L17.753448,36.15282 L17.753448,34.81788 L14.249088,34.81788 L14.249088,33.60606 L18.221988,33.60606 L19.975308,35.53494 L18.172968,37.4889 Z M22.022748,35.53494 L24.465768,32.93916 L24.465768,38.28006 L22.022748,35.53494 Z M28.117188,35.2887 L26.019588,35.2887 L26.019588,33.60606 L28.117188,33.60606 C28.686048,33.60606 29.054268,33.8295 29.054268,34.39836 C29.054268,34.96608 28.686048,35.2887 28.117188,35.2887 L28.117188,35.2887 Z M35.817888,34.96608 C35.570508,35.0664 35.348208,35.0664 35.052948,35.0664 L33.127488,35.11542 L33.127488,33.60606 L35.052948,33.60606 C35.348208,33.60606 35.619528,33.60606 35.817888,33.73032 C36.015108,33.8295 36.138228,34.02672 36.138228,34.29918 C36.138228,34.59672 36.015108,34.81788 35.817888,34.96608 L35.817888,34.96608 Z M28.117188,32.2221 L23.059008,32.2221 L21.011568,34.39836 L19.086108,32.2221 L12.694128,32.2221 L12.694128,38.84892 L18.986928,38.84892 L21.011568,36.67266 L22.959828,38.84892 L26.019588,38.84892 L26.019588,36.62364 L28.019148,36.62364 C29.375748,36.62364 30.757428,36.25314 30.757428,34.39836 C30.757428,32.5926 29.351808,32.2221 28.117188,32.2221 L28.117188,32.2221 Z M37.100388,32.54244 C36.582828,32.27112 35.966088,32.2221 35.150988,32.2221 L31.523508,32.2221 L31.523508,38.84892 L33.127488,38.84892 L33.127488,36.42528 L34.830648,36.42528 C35.398368,36.42528 35.718708,36.47544 35.966088,36.72282 C36.236268,37.04316 36.236268,37.61202 36.236268,38.05776 L36.236268,38.84892 L37.816308,38.84892 L37.816308,37.56186 C37.816308,36.96906 37.767288,36.67266 37.568928,36.35118 C37.420728,36.15282 37.150548,35.90544 36.754968,35.78232 C37.198428,35.63412 37.889268,35.0664 37.889268,34.02672 C37.889268,33.26064 37.619088,32.83998 37.100388,32.54244 L37.100388,32.54244 Z M44.084028,37.4889 L40.357368,37.4889 L40.357368,36.15282 L44.009928,36.15282 L44.009928,34.81788 L40.357368,34.81788 L40.357368,33.60606 L44.084028,33.60606 L44.084028,32.2221 L38.803548,32.2221 L38.803548,38.84892 L44.084028,38.84892 L44.084028,37.4889 Z M50.154528,35.33772 C49.758948,35.01624 49.192368,34.81788 48.304308,34.81788 L47.440188,34.81788 C47.217888,34.81788 47.020668,34.76886 46.823448,34.7187 C46.650168,34.64574 46.501968,34.4964 46.501968,34.24902 C46.501968,34.02672 46.552128,33.87852 46.749348,33.73032 C46.871328,33.63114 47.069688,33.63114 47.366088,33.63114 L50.277648,33.63114 L50.277648,32.2221 L47.118708,32.2221 C45.416688,32.2221 44.848968,33.26064 44.848968,34.2 C44.848968,36.30216 46.700328,36.20298 48.156108,36.25314 C48.451368,36.25314 48.624648,36.30216 48.723828,36.40134 C48.821868,36.47544 48.921048,36.67266 48.921048,36.87102 C48.921048,37.04316 48.821868,37.1925 48.723828,37.29168 C48.574488,37.38972 48.402348,37.43988 48.105948,37.43988 L45.046188,37.43988 L45.046188,38.84892 L48.105948,38.84892 C49.709928,38.84892 50.623068,38.18088 50.623068,36.77298 C50.623068,36.10494 50.424708,35.68314 50.154528,35.33772 L50.154528,35.33772 Z M56.817828,36.77298 C56.817828,38.18088 55.903548,38.84892 54.300708,38.84892 L51.239808,38.84892 L51.239808,37.43988 L54.300708,37.43988 C54.595968,37.43988 54.819408,37.38972 54.917448,37.29168 C55.016628,37.1925 55.114668,37.04316 55.114668,36.87102 C55.114668,36.67266 55.016628,36.47544 54.917448,36.40134 C54.819408,36.30216 54.644988,36.25314 54.350868,36.25314 C52.893948,36.20298 51.042588,36.30216 51.042588,34.2 C51.042588,33.26064 51.659328,32.2221 53.312328,32.2221 L56.471268,32.2221 L56.471268,33.63114 L53.559708,33.63114 C53.263308,33.63114 53.066088,33.63114 52.942968,33.73032 C52.794768,33.87852 52.695588,34.02672 52.695588,34.24902 C52.695588,34.4964 52.843788,34.64574 53.017068,34.7187 C53.215428,34.76886 53.411508,34.81788 53.634948,34.81788 L54.497928,34.81788 C55.385988,34.81788 55.953708,35.01624 56.349288,35.33772 C56.620608,35.68314 56.817828,36.10494 56.817828,36.77298 L56.817828,36.77298 Z" id="Fill-3" fill="#0078A9" mask="url(#mask-4)" transform="translate(28.426698, 28.375740) rotate(-360.000000) translate(-28.426698, -28.375740) "></path>
                            </g>
                        </g>
                    </g>
                </g>
            </g>
        </g>
    </g>
</svg>