<?xml version="1.0" encoding="UTF-8"?>
<svg width="56px" height="32px" viewBox="0 0 56 32" version="1.1" xmlns="http://www.w3.org/2000/svg" xmlns:xlink="http://www.w3.org/1999/xlink">
    <!-- Generator: Sketch 43 (38999) - http://www.bohemiancoding.com/sketch -->
    <title>Group 18</title>
    <desc>Created with Sketch.</desc>
    <defs>
        <rect id="path-1" x="0" y="0" width="56" height="32" rx="3"></rect>
        <polygon id="path-2" points="32.06 0.0003 32.06 20 0 20 0 0.0003 32.06 0.0003"></polygon>
    </defs>
    <g id="Wireframes" stroke="none" stroke-width="1" fill="none" fill-rule="evenodd">
        <g id="Wireframe03" transform="translate(-791.000000, -956.000000)">
            <g id="Group-18" transform="translate(791.000000, 956.000000)">
                <g id="Group-29">
                    <g id="Rectangle-4">
                        <use fill="#FFFFFF" fill-rule="evenodd" xlink:href="#path-1"></use>
                        <rect stroke="#CCCCCC" stroke-width="1" x="0.5" y="0.5" width="55" height="31" rx="3"></rect>
                    </g>
                </g>
                <g id="Page-1" transform="translate(12.000000, 6.000000)">
                    <g id="Group-3">
                        <mask id="mask-3" fill="white">
                            <use xlink:href="#path-2"></use>
                        </mask>
                        <g id="Clip-2"></g>
                        <path d="M22.0605,20.0003 C27.5835,20.0003 32.0605,15.5223 32.0605,10.0003 C32.0605,4.4773 27.5835,0.0003 22.0605,0.0003 L9.9995,0.0003 C4.4775,0.0003 -0.0005,4.4773 -0.0005,10.0003 C-0.0005,15.5223 4.4775,20.0003 9.9995,20.0003 L22.0605,20.0003 Z" id="Fill-1" fill="#0054A5" mask="url(#mask-3)"></path>
                    </g>
                    <path d="M19.7914,10.0007 C19.7914,15.4077 15.4074,19.7927 9.9994,19.7927 C4.5924,19.7927 0.2084,15.4077 0.2084,10.0007 C0.2084,4.5937 4.5924,0.2097 9.9994,0.2097 C15.4074,0.2097 19.7914,4.5937 19.7914,10.0007" id="Fill-4" fill="#FEFEFE"></path>
                    <path d="M3.87,10.0007 C3.87,12.6057 5.498,14.8257 7.79,15.7137 L7.79,4.2887 C5.498,5.1757 3.87,7.3957 3.87,10.0007" id="Fill-6" fill="#0054A5"></path>
                    <path d="M16.1298,10.0007 C16.1298,7.3967 14.5028,5.1767 12.2118,4.2887 L12.2118,15.7117 C14.5028,14.8257 16.1298,12.6047 16.1298,10.0007" id="Fill-8" fill="#0054A5"></path>
                </g>
            </g>
        </g>
    </g>
</svg>