<?xml version="1.0" encoding="UTF-8"?>
<svg width="56px" height="32px" viewBox="0 0 56 32" version="1.1" xmlns="http://www.w3.org/2000/svg" xmlns:xlink="http://www.w3.org/1999/xlink">
    <!-- Generator: Sketch 48.2 (47327) - http://www.bohemiancoding.com/sketch -->
    <title>mastercard-logo</title>
    <desc>Created with Sketch.</desc>
    <defs></defs>
    <g id="Page-1" stroke="none" stroke-width="1" fill="none" fill-rule="evenodd">
        <g id="mastercard">
            <g id="Group-29">
                <g id="Rectangle-4">
                    <g id="path-1-link" fill="#FFFFFF">
                        <rect id="path-1" x="0" y="0" width="56" height="32" rx="3"></rect>
                    </g>
                    <rect id="Rectangle-path" stroke="#CCCCCC" x="0.5" y="0.5" width="55" height="31" rx="3"></rect>
                </g>
            </g>
        </g>
        <g id="mc_vrt_pos" transform="translate(8.000000, -1.000000)">
            <rect id="Rectangle-path" x="0" y="0" width="41" height="34"></rect>
            <path d="M10.1626711,29.8561151 L10.1626711,28.1294964 C10.1820951,27.8357396 10.0799701,27.5474271 9.88235009,27.3381128 C9.6847301,27.1287985 9.4107258,27.0187239 9.13024078,27.0359712 C8.76060716,27.0105749 8.40708089,27.1980328 8.2076435,27.5251798 C8.02581383,27.2077869 7.69287769,27.0200735 7.33996272,27.0359712 C7.03268219,27.0196912 6.7401541,27.1751696 6.57113165,27.4446043 L6.57113165,27.105036 L6,27.105036 L6,29.8561151 L6.5766233,29.8561151 L6.5766233,28.342446 C6.55178961,28.1519684 6.60937486,27.959815 6.73366453,27.8184229 C6.8579542,27.6770308 7.03597494,27.6011584 7.21914641,27.6115108 C7.59807029,27.6115108 7.79027806,27.8705036 7.79027806,28.3366906 L7.79027806,29.8676259 L8.36690136,29.8676259 L8.36690136,28.342446 C8.3430867,28.152185 8.40102407,27.9606542 8.5250833,27.8195242 C8.64914252,27.6783943 8.82654238,27.6022051 9.00942447,27.6115108 C9.39933166,27.6115108 9.58604778,27.8705036 9.58604778,28.3366906 L9.58604778,29.8676259 L10.1626711,29.8561151 Z M18.6939501,27.105036 L17.7548779,27.105036 L17.7548779,26.2705036 L17.1782546,26.2705036 L17.1782546,27.105036 L16.6565478,27.105036 L16.6565478,27.6517985 L17.1892379,27.6517985 L17.1892379,28.9179856 C17.1892379,29.5568345 17.4253789,29.9366906 18.1008519,29.9366906 C18.3532093,29.937579 18.6006766,29.8637634 18.8147664,29.723741 L18.6500169,29.2115108 C18.4968557,29.3072546 18.3230251,29.3607202 18.1447851,29.3669064 C17.8702026,29.3669064 17.7658612,29.1827338 17.7658612,28.9064748 L17.7658612,27.6517985 L18.6994418,27.6517985 L18.6939501,27.105036 Z M23.5650441,27.0359712 C23.2813777,27.027228 23.0158744,27.1818139 22.8730962,27.4388489 L22.8730962,27.105036 L22.3074562,27.105036 L22.3074562,29.8561151 L22.8785878,29.8561151 L22.8785878,28.313669 C22.8785878,27.8589928 23.0653039,27.6057554 23.4277529,27.6057554 C23.5499103,27.6040042 23.6712018,27.6274719 23.7847101,27.6748201 L23.960443,27.0992806 C23.8300086,27.0503781 23.6925891,27.0250774 23.5540608,27.0244604 L23.5650441,27.0359712 Z M16.2007408,27.323741 C15.8774542,27.1222955 15.5057587,27.0224117 15.129869,27.0359712 C14.4653792,27.0359712 14.0315389,27.3697842 14.0315389,27.9165467 C14.0315389,28.3654676 14.3500546,28.6417266 14.9376612,28.7280575 L15.2122437,28.7683453 C15.5252678,28.8143885 15.6735424,28.9007194 15.6735424,29.0561151 C15.6735424,29.2690647 15.4648596,29.389928 15.0749524,29.389928 C14.761325,29.3994423 14.4537653,29.2980805 14.20178,29.1021582 L13.9271975,29.5683453 C14.2598855,29.8117958 14.6583618,29.9368782 15.0639691,29.9251798 C15.8218169,29.9251798 16.261149,29.5510791 16.261149,29.0273381 C16.261149,28.5035971 15.915175,28.2906475 15.3440433,28.2043165 L15.0694608,28.1640288 C14.8223365,28.1294964 14.6246371,28.0776978 14.6246371,27.8935252 C14.6246371,27.7093525 14.8113532,27.571223 15.1243773,27.571223 C15.4136982,27.5747453 15.6973201,27.6559918 15.9481249,27.8071942 L16.2007408,27.323741 Z M31.4977333,27.0359712 C31.2140668,27.027228 30.9485635,27.1818139 30.8057853,27.4388489 L30.8057853,27.105036 L30.2401453,27.105036 L30.2401453,29.8561151 L30.811277,29.8561151 L30.811277,28.313669 C30.811277,27.8589928 30.9979931,27.6057554 31.360442,27.6057554 C31.4825994,27.6040042 31.603891,27.6274719 31.7173993,27.6748201 L31.8931321,27.0992806 C31.7626977,27.0503781 31.6252782,27.0250774 31.48675,27.0244604 L31.4977333,27.0359712 Z M24.1389216,28.4748201 C24.1251864,28.8657366 24.2692673,29.2446223 24.5357987,29.5184772 C24.8023302,29.7923322 25.1666351,29.9358013 25.5392925,29.913669 C25.8822127,29.9319539 26.2192231,29.8149064 26.4838564,29.5856115 L26.2092738,29.1021582 C26.011841,29.2599456 25.7710903,29.3467413 25.5228175,29.3496403 C25.0850508,29.3125189 24.7478326,28.9293552 24.7478326,28.4690647 C24.7478326,28.0087743 25.0850508,27.6256105 25.5228175,27.5884892 C25.7710903,27.5913881 26.011841,27.6781838 26.2092738,27.8359712 L26.4838564,27.352518 C26.2192231,27.123223 25.8822127,27.0061756 25.5392925,27.0244604 C25.1666351,27.0023282 24.8023302,27.1457972 24.5357987,27.4196522 C24.2692673,27.6935072 24.1251864,28.0723928 24.1389216,28.4633093 L24.1389216,28.4748201 Z M29.4877892,28.4748201 L29.4877892,27.105036 L28.9166575,27.105036 L28.9166575,27.4388489 C28.7198926,27.1735108 28.4133412,27.0235829 28.09291,27.0359712 C27.3346712,27.0359712 26.7199973,27.6801658 26.7199973,28.4748201 C26.7199973,29.2694744 27.3346712,29.913669 28.09291,29.913669 C28.4133412,29.9260573 28.7198926,29.7761294 28.9166575,29.5107913 L28.9166575,29.8446043 L29.4877892,29.8446043 L29.4877892,28.4748201 Z M27.3625204,28.4748201 C27.3879179,28.023214 27.7530981,27.6757146 28.1844532,27.6926827 C28.6158082,27.7096508 28.9551052,28.084862 28.9481291,28.5371927 C28.9411529,28.9895235 28.5904627,29.3530466 28.1588098,29.3553956 C27.9390172,29.3583103 27.7280514,29.2648857 27.5768492,29.097679 C27.425647,28.9304722 27.347951,28.7046804 27.3625204,28.4748201 Z M20.4704991,27.0359712 C19.7122604,27.0470964 19.1061919,27.7003097 19.1168072,28.494964 C19.1274226,29.2896183 19.7507019,29.9247942 20.5089406,29.913669 C20.9039933,29.9349205 21.2924908,29.801595 21.5990332,29.5395683 L21.3244507,29.0964028 C21.1076299,29.2786413 20.8390168,29.3799052 20.5611113,29.3841726 C20.1685589,29.419554 19.820447,29.1210563 19.7758053,28.7107913 L21.7253412,28.7107913 C21.7253412,28.6359712 21.7253412,28.5611511 21.7253412,28.4805755 C21.7253412,27.6172662 21.2146177,27.0417266 20.4787365,27.0417266 L20.4704991,27.0359712 Z M20.4704991,27.571223 C20.6431025,27.5673664 20.8100945,27.6355481 20.934719,27.7607608 C21.0593435,27.8859735 21.1313857,28.0579542 21.1349888,28.2388489 L19.7620761,28.2388489 C19.78276,27.8546254 20.0925302,27.5580971 20.4595158,27.571223 L20.4704991,27.571223 Z M34.7789944,28.4805755 L34.7789944,26 L34.2298294,26 L34.2298294,27.4388489 C34.0330645,27.1735108 33.7265131,27.0235829 33.4060818,27.0359712 C32.6478431,27.0359712 32.0331692,27.6801658 32.0331692,28.4748201 C32.0331692,29.2694744 32.6478431,29.913669 33.4060818,29.913669 C33.7265131,29.9260573 34.0330645,29.7761294 34.2298294,29.5107913 L34.2298294,29.8446043 L34.7789944,29.8446043 L34.7789944,28.4805755 Z M35.7317958,29.4561151 C35.7674951,29.4556567 35.802937,29.462499 35.8361372,29.476259 C35.867671,29.489745 35.8965356,29.5092617 35.9212577,29.5338129 C35.9453851,29.5586248 35.9649336,29.5878924 35.9789201,29.6201438 C36.0070266,29.6880711 36.0070266,29.7651662 35.9789201,29.8330935 C35.9649336,29.8653449 35.9453851,29.8946125 35.9212577,29.9194244 C35.8965356,29.9439756 35.867671,29.9634923 35.8361372,29.9769784 C35.8032648,29.9921799 35.7677261,30.000021 35.7317958,30 C35.625546,29.9991606 35.5292947,29.934153 35.4846715,29.8330935 C35.4568904,29.7650959 35.4568904,29.6881415 35.4846715,29.6201438 C35.498658,29.5878924 35.5182065,29.5586248 35.5423339,29.5338129 C35.567056,29.5092617 35.5959206,29.489745 35.6274544,29.476259 C35.6632188,29.4613491 35.7015746,29.4544861 35.7400333,29.4561151 L35.7317958,29.4561151 Z M35.7317958,29.942446 C35.7592017,29.9426205 35.7863348,29.9367371 35.8114247,29.9251798 C35.8350488,29.9141259 35.8564739,29.8985056 35.8745787,29.8791366 C35.9457771,29.7977245 35.9457771,29.672779 35.8745787,29.5913669 C35.8565171,29.5719445 35.8350816,29.5563167 35.8114247,29.5453237 C35.7863101,29.5338478 35.7591936,29.5279681 35.7317958,29.5280575 C35.7044217,29.5282091 35.677351,29.5340789 35.6521669,29.5453237 C35.6274969,29.5559252 35.605093,29.5715784 35.5862671,29.5913669 C35.5150686,29.672779 35.5150686,29.7977245 35.5862671,29.8791366 C35.6051393,29.898866 35.6275312,29.9145109 35.6521669,29.9251798 C35.6798694,29.9377001 35.7098846,29.9435982 35.7400333,29.942446 L35.7317958,29.942446 Z M35.7482707,29.6 C35.7739034,29.5986972 35.7991621,29.6068424 35.8196622,29.6230215 C35.8367144,29.6378118 35.8459154,29.6603118 35.8443746,29.6834532 C35.8451717,29.7027784 35.8381994,29.7215683 35.8251539,29.7352518 C35.8092385,29.7504017 35.7889355,29.7595209 35.7674915,29.761151 L35.8471205,29.8561151 L35.7839665,29.8561151 L35.7098292,29.761151 L35.6851168,29.761151 L35.6851168,29.8561151 L35.6329461,29.8561151 L35.6329461,29.6028777 L35.7482707,29.6 Z M35.6878626,29.6489208 L35.6878626,29.7179856 L35.7482707,29.7179856 C35.7590203,29.7213444 35.7704711,29.7213444 35.7812207,29.7179856 C35.785137,29.7098403 35.785137,29.7002315 35.7812207,29.6920863 C35.785137,29.683941 35.785137,29.6743323 35.7812207,29.666187 C35.7704711,29.6628282 35.7590203,29.6628282 35.7482707,29.666187 L35.6878626,29.6489208 Z M32.6674548,28.4805755 C32.6928523,28.0289694 33.0580325,27.68147 33.4893875,27.6984381 C33.9207426,27.7154062 34.2600396,28.0906174 34.2530634,28.5429481 C34.2460873,28.9952789 33.8953971,29.358802 33.4637441,29.361151 C33.2439516,29.3640657 33.0329858,29.2706411 32.8817836,29.1034343 C32.7305814,28.9362276 32.6528853,28.7104358 32.6674548,28.4805755 Z M13.3835241,28.4805755 L13.3835241,27.105036 L12.8123924,27.105036 L12.8123924,27.4388489 C12.6156275,27.1735108 12.3090762,27.0235829 11.9886449,27.0359712 C11.2304062,27.0359712 10.6157322,27.6801658 10.6157322,28.4748201 C10.6157322,29.2694744 11.2304062,29.913669 11.9886449,29.913669 C12.3090762,29.9260573 12.6156275,29.7761294 12.8123924,29.5107913 L12.8123924,29.8446043 L13.3835241,29.8446043 L13.3835241,28.4805755 Z M11.2582554,28.4805755 C11.2836529,28.0289694 11.648833,27.68147 12.0801881,27.6984381 C12.5115431,27.7154062 12.8508401,28.0906174 12.843864,28.5429481 C12.8368878,28.9952789 12.4861976,29.358802 12.0545447,29.361151 C11.8338049,29.3656927 11.6213704,29.2729804 11.4689504,29.1055814 C11.3165304,28.9381824 11.2381049,28.7114507 11.2527637,28.4805755 L11.2582554,28.4805755 Z" id="Shape" fill="#231F20" fill-rule="nonzero"></path>
            <g id="_Group_" transform="translate(4.000000, 4.000000)" fill-rule="nonzero">
                <rect id="Rectangle-path" fill="#FF5F00" x="12.0294872" y="2.15068493" width="8.88461538" height="15.509589"></rect>
                <path d="M12.5935897,9.90684932 C12.5902679,6.87986089 14.0204431,4.01960117 16.4717949,2.15068493 C12.3086588,-1.02738307 6.33022847,-0.564469986 2.73798402,3.21410132 C-0.854260431,6.99267262 -0.854260431,12.8182863 2.73798402,16.5968576 C6.33022847,20.3754289 12.3086588,20.838342 16.4717949,17.660274 C14.021223,15.791951 12.5911351,12.9328763 12.5935897,9.90684932 Z" id="_Path_" fill="#EB001B"></path>
                <path d="M32.9012821,9.90684932 C32.9011914,13.6831179 30.6813751,17.1278494 27.1845977,18.7780531 C23.6878202,20.4282568 19.5279869,19.9942178 16.4717949,17.660274 C18.9212975,15.7903649 20.351493,12.9316703 20.351493,9.90547945 C20.351493,6.87928863 18.9212975,4.02059402 16.4717949,2.15068493 C19.5279869,-0.183258856 23.6878202,-0.617297924 27.1845977,1.03290579 C30.6813751,2.6831095 32.9011914,6.12784099 32.9012821,9.90410959 L32.9012821,9.90684932 Z" id="Shape" fill="#F79E1B"></path>
                <path d="M31.9310256,16.0164384 L31.9310256,15.6986301 L32.0635897,15.6986301 L32.0635897,15.6328767 L31.7279487,15.6328767 L31.7279487,15.6986301 L31.8717949,15.6986301 L31.8717949,16.0164384 L31.9310256,16.0164384 Z M32.5825641,16.0164384 L32.5825641,15.6328767 L32.4810256,15.6328767 L32.3625641,15.9068493 L32.2441026,15.6328767 L32.1538462,15.6328767 L32.1538462,16.0164384 L32.2271795,16.0164384 L32.2271795,15.7287671 L32.3371795,15.9780822 L32.4133333,15.9780822 L32.5233333,15.7287671 L32.5233333,16.0191781 L32.5825641,16.0164384 Z" id="Shape" fill="#F79E1B"></path>
            </g>
        </g>
    </g>
</svg>
