<?xml version="1.0" encoding="UTF-8"?>
<svg width="89px" height="117px" viewBox="0 0 89 117" version="1.1" xmlns="http://www.w3.org/2000/svg" xmlns:xlink="http://www.w3.org/1999/xlink">
    <!-- Generator: Sketch 51.2 (57519) - http://www.bohemiancoding.com/sketch -->
    <title>sydney</title>
    <desc>Created with Sketch.</desc>
    <defs>
        <polygon id="path-1" points="0.092 0.0870833333 5.88 0.0870833333 5.88 9.9875 0.092 9.9875"></polygon>
    </defs>
    <g id="sydey" stroke="none" stroke-width="1" fill="none" fill-rule="evenodd">
        <g id="TZ_TWPZ_location_logos_RGB">
            <g id="Group-3" transform="translate(12.000000, 107.000000)">
                <mask id="mask-2" fill="white">
                    <use xlink:href="#path-1"></use>
                </mask>
                <g id="Clip-2"></g>
                <path d="M4.6032,7.35104167 C4.6032,6.57020833 4.0618,6.12395833 3.382,5.76166667 L1.619,4.81333333 C0.7032,4.311875 0.092,3.55875 0.092,2.55479167 C0.092,0.951458333 1.5774,0.0870833333 3.035,0.0870833333 C3.8536,0.0870833333 4.5198,0.19875 5.2414,0.505208333 C5.3806,0.56125 5.4636,0.630833333 5.4636,0.742291667 C5.4636,0.783958333 5.4498,0.82625 5.436,0.867916667 L5.2278,1.439375 C5.1862,1.55125 5.1168,1.59291667 5.0334,1.59291667 C4.9778,1.59291667 4.9224,1.57875 4.8666,1.55125 C4.3116,1.31375 3.6594,1.14666667 3.1042,1.14666667 C2.327,1.14666667 1.4246,1.50916667 1.4246,2.44333333 C1.4246,3.16854167 1.9246,3.57270833 2.5072,3.879375 L3.9924,4.67395833 C5.0748,5.25979167 5.88,5.95666667 5.88,7.25333333 C5.88,9.07979167 4.3672,10 2.66,10 C1.9104,10 1.0914,9.86083333 0.3284,9.60958333 C0.148,9.55395833 0.1062,9.41416667 0.148,9.26104167 L0.3284,8.63354167 C0.3838,8.4525 0.5224,8.42458333 0.689,8.494375 C1.3136,8.73125 2.0078,8.89875 2.66,8.89875 C3.6038,8.89875 4.6032,8.4525 4.6032,7.35104167" id="Fill-1" fill="#0B8C44" mask="url(#mask-2)"></path>
            </g>
            <path d="M29.9378944,107.333977 L26.8064786,113.052352 L26.8064786,116.738674 C26.8064786,116.927349 26.7289584,117 26.5426417,117 L25.6280369,117 C25.4419436,117 25.3644233,116.927349 25.3644233,116.724144 L25.3644233,113.081195 L22.0464675,107.290603 C22.0158615,107.232482 22,107.188892 22,107.145518 C22,107.058337 22.0775202,107 22.2327841,107 L23.1011449,107 C23.3640882,107 23.5195755,107.058337 23.6125105,107.246796 L26.1550405,111.949361 L26.1704552,111.949361 L28.6200503,107.290603 C28.744038,107.058337 28.8215582,107 29.1008098,107 L29.7518012,107 C29.9224798,107 30,107.058337 30,107.145518 C30,107.203422 29.9843619,107.261326 29.9378944,107.333977" id="Fill-4" fill="#0B8C44"></path>
            <path d="M37.3139101,108.785652 C36.6275046,108.233952 35.7374704,108.088871 34.7443597,108.088871 L33.3578754,108.088871 L33.3578754,115.926093 L34.6128846,115.926093 C35.8977649,115.926093 36.802945,115.795541 37.4891402,115.113289 C38.1898501,114.401978 38.5546148,113.342601 38.5546148,112.036867 C38.5546148,110.643086 38.1315803,109.438628 37.3139101,108.785652 M38.496345,115.940406 C37.6641599,116.69509 36.3647647,117 34.9052853,117 L32.364975,117 C32.0875099,117 32,116.912604 32,116.651501 L32,107.406619 C32,107.116672 32.1022351,107 32.4232448,107 L34.2626348,107 C36.1167499,107 37.0801998,107.160262 38.0001052,107.726058 C39.2408099,108.495489 40,110.004858 40,112.050746 C40,113.705413 39.4597949,115.0697 38.496345,115.940406" id="Fill-5" fill="#0B8C44"></path>
            <path d="M53,116.695084 C53,116.941663 52.9261957,117 52.7492356,117 L52.0703214,117 C51.892936,117 51.7751044,116.927349 51.6272831,116.724144 L46.2986999,109.38056 L46.2695611,109.38056 L46.2695611,116.695084 C46.2695611,116.898289 46.1659798,117 45.974344,117 L45.2950044,117 C45.0886927,117 45,116.912602 45,116.695084 L45,107.305133 C45,107.087398 45.1035812,107 45.2950044,107 L45.8854385,107 C46.062824,107 46.1510914,107.044024 46.2695611,107.217952 L51.7015128,114.721368 L51.7306516,114.721368 L51.7306516,107.305133 C51.7306516,107.072651 51.8193444,107 52.0109802,107 L52.7196714,107 C52.9410842,107 53,107.087398 53,107.305133 L53,116.695084" id="Fill-6" fill="#0B8C44"></path>
            <path d="M64,116.738674 C64,116.912602 63.9230741,117 63.692518,117 L58.3232219,117 C58.0618511,117 58,116.941663 58,116.694867 L58,107.290603 C58,107.087398 58.0769259,107 58.2926289,107 L63.7080362,107 C63.938814,107 63.9691853,107.101711 63.9541105,107.275856 L63.8924811,107.827351 C63.8771846,108.030557 63.7384075,108.059617 63.4770368,108.059617 L59.4309994,108.059617 L59.4309994,111.238251 L63.0460743,111.238251 C63.2615555,111.238251 63.3537779,111.325215 63.3537779,111.499143 L63.3537779,112.021578 C63.3537779,112.225001 63.2770737,112.283121 63.0615925,112.283121 L59.4309994,112.283121 L59.4309994,115.940383 L63.6769998,115.940383 C63.9077776,115.940383 64,116.012817 64,116.187179 L64,116.738674" id="Fill-7" fill="#0B8C44"></path>
            <path d="M75.9378927,107.333977 L72.8063895,113.052352 L72.8063895,116.738674 C72.8063895,116.927349 72.7290905,117 72.5425452,117 L71.6279148,117 C71.4418163,117 71.3642939,116.927349 71.3642939,116.724144 L71.3642939,113.081195 L68.0462454,107.290603 C68.0156385,107.232482 68,107.188892 68,107.145518 C68,107.058337 68.077299,107 68.2325672,107 L69.1007289,107 C69.3641263,107 69.5191712,107.058337 69.6123321,107.246796 L72.1549331,111.949361 L72.1703482,111.949361 L74.6200117,107.290603 C74.7440029,107.058337 74.8215253,107 75.1007847,107 L75.7515708,107 C75.9224776,107 76,107.058337 76,107.145518 C76,107.203422 75.9843615,107.261326 75.9378927,107.333977" id="Fill-8" fill="#0B8C44"></path>
            <path d="M41.0003215,87.0011194 C38.5698685,87.0011194 36.6554662,89.5234809 36.6554662,93.3868162 C36.6554662,97.1969562 37.7495022,100.764739 41.0003215,100.764739 C44.2507121,100.764739 45.3741082,97.1969562 45.3741082,93.3868162 C45.3741082,89.5234809 43.4307745,87.0011194 41.0003215,87.0011194 Z M41.0003215,104 C34.3473823,104 29,100.069708 29,93.9851094 C29,87.9582242 34.3473823,84 41.0003215,84 C47.6530463,84 53,87.9582242 53,93.9851094 C53,100.069708 47.6530463,104 41.0003215,104 Z" id="Fill-9" fill="#0B8C44"></path>
            <path d="M66,87.0011194 C63.5694819,87.0011194 61.6552426,89.5234809 61.6552426,93.3868162 C61.6552426,97.1969562 62.7488793,100.764739 66,100.764739 C69.2504777,100.764739 70.3743325,97.1969562 70.3743325,93.3868162 C70.3743325,89.5234809 68.4300895,87.0011194 66,87.0011194 Z M66,104 C59.3468826,104 54,100.069708 54,93.9851094 C54,87.9582242 59.3468826,84 66,84 C72.652903,84 78,87.9582242 78,93.9851094 C78,100.069708 72.652903,104 66,104 Z" id="Fill-10" fill="#0B8C44"></path>
            <path d="M28.3430154,100.274799 C28.2380732,100.184625 28.0855626,100.12624 27.9282535,100.12624 L19.5270295,100.124162 C21.8345079,94.8389852 27.0688952,92.9426212 28.3060874,88.4158237 C28.5647921,87.47107 28.7143818,86.6443327 28.7143818,85.5857182 C28.7143818,85.2617967 28.4604757,85 28.1360517,85 L12.4301776,85 C12.2651491,85 12.1115953,85.0669036 11.9972646,85.1579091 C11.6190134,85.4598064 11.3573879,86.1379846 11.3573879,86.9273224 C11.3573879,86.9283613 11.3573879,86.929608 11.3573879,86.9316857 C11.3573879,86.934179 11.3573879,86.9364645 11.3573879,86.9389578 C11.356762,87.7415933 11.6467616,88.4108371 12.0139552,88.7249932 C12.1195234,88.8149598 12.2720339,88.8685658 12.4287171,88.8685658 L20.5787473,88.8685658 C19.202397,93.0363278 11,95.9042485 11,103.414905 C11,103.738411 11.2547406,104 11.5791645,104 L27.9288794,103.995637 C28.0928648,103.995637 28.2457926,103.922084 28.3597061,103.830871 C28.7381659,103.529389 29,102.850796 29,102.060627 C29,101.258407 28.7102091,100.589994 28.3430154,100.274799" id="Fill-11" fill="#0B8C44"></path>
            <path d="M41.4999002,74.2005307 C40.5884976,74.2005307 39.8707981,75.2096132 39.8707981,76.7548729 C39.8707981,78.2784978 40.2811689,79.7059904 41.4999002,79.7059904 C42.7192305,79.7059904 43.1403847,78.2784978 43.1403847,76.7548729 C43.1403847,75.2096132 42.4113027,74.2005307 41.4999002,74.2005307 Z M41.4999002,81 C39.0049258,81 37,79.4277988 37,76.9938769 C37,74.5840392 39.0049258,73 41.4999002,73 C43.9946748,73 46,74.5840392 46,76.9938769 C46,79.4277988 43.9946748,81 41.4999002,81 Z" id="Fill-12" fill="#0B8C44"></path>
            <path d="M18.7474638,74.0610986 C18.7069702,74.0234827 18.6533113,74 18.5930696,74 L12.4071298,74 C12.343896,74 12.2898381,74.0278314 12.2463524,74.0660995 C12.1005357,74.1932976 12,74.4790042 12,74.8110238 C12,75.1495665 12.1113074,75.4317941 12.2525362,75.5642106 C12.2928303,75.6018264 12.3470877,75.6253092 12.4071298,75.6253092 L14.1704947,75.6253092 L14.1704947,81.7534314 C14.1704947,81.8888919 14.2718283,82 14.3965006,82 L16.6031004,82 C16.7281717,82 16.8293058,81.8888919 16.8293058,81.7534314 L16.8293058,75.6253092 L18.5930696,75.6248743 C18.6559045,75.6248743 18.7101619,75.5974778 18.7534481,75.5585573 C18.8994643,75.4317941 19,75.1456527 19,74.813633 C19,74.4753078 18.8884931,74.1932976 18.7474638,74.0610986" id="Fill-13" fill="#0B8C44"></path>
            <path d="M21.2007853,78.939501 L22.1894324,76.1105615 L22.9925062,78.939501 L21.2007853,78.939501 Z M26.9812206,81.6558134 L24.1239174,74.3411426 C24.0041732,74.1361091 23.7883105,74 23.5407449,74 L21.4590532,74 C21.2116895,74 20.9950191,74.1361091 20.8766884,74.3411426 L18.0189814,81.6558134 C18.0062598,81.6856009 18,81.7184324 18,81.7521335 C18,81.8886775 18.1068207,81.9980432 18.2384788,81.9980432 L19.8741081,82 C19.9734575,82 20.0582679,81.9380334 20.0942114,81.8488884 L20.7682522,80.1059955 L23.3844514,80.1059955 L24.0213372,81.8488884 C24.0574826,81.9380334 24.142293,82 24.2408346,82 L26.762127,81.9980432 C26.8935831,81.9980432 27,81.8886775 27,81.7521335 C27,81.7184324 26.9937402,81.6856009 26.9812206,81.6558134 Z" id="Fill-14" fill="#0B8C44"></path>
            <path d="M69.2007853,78.939501 L70.1898362,76.1105615 L70.993112,78.939501 L69.2007853,78.939501 Z M74.9812206,81.6558134 L72.1241194,74.3411426 C72.004779,74.1361091 71.7889163,74 71.5413507,74 L69.459457,74 C69.2122953,74 68.9958268,74.1361091 68.8768903,74.3411426 L66.0185775,81.6558134 C66.0070675,81.6856009 66,81.7184324 66,81.7521335 C66,81.8886775 66.1068207,81.9980432 66.2382769,81.9980432 L67.8747139,82 C67.9738613,82 68.057864,81.9380334 68.0944133,81.8488884 L68.7684541,80.1059955 L71.3848553,80.1059955 L72.0215392,81.8488884 C72.0580884,81.9380334 72.1420911,82 72.2420462,82 L74.762127,81.9980432 C74.893987,81.9980432 75,81.8886775 75,81.7521335 C75,81.7184324 74.994346,81.6856009 74.9812206,81.6558134 Z" id="Fill-15" fill="#0B8C44"></path>
            <path d="M65,79.5492397 C65,79.7841616 64.8734228,79.9921421 64.6933707,80.1107256 C63.875025,80.6499643 62.8323653,81 61.730022,81 C59.124975,81 57,79.3931013 57,76.9938769 C57,74.5724053 59.124975,73 61.730022,73 C62.813539,73 63.833567,73.3186039 64.6475065,73.8347791 C64.7536551,73.9027452 64.8668135,74.0054087 64.8668135,74.1209307 C64.8668135,74.1799163 64.8137392,74.3848352 64.6463048,74.5452597 C64.3396755,74.8383509 64.090727,74.8779467 63.9026637,74.8779467 C63.7644703,74.8779467 63.6390947,74.8338606 63.5333467,74.7581386 C63.182856,74.506072 62.6136591,74.2342076 61.93571,74.2342076 C60.7482475,74.2342076 59.9250951,74.9330544 59.9250951,76.9938769 C59.9250951,79.0549036 60.7362307,79.8113073 62.0612858,79.8113073 C62.404967,79.8113073 62.5756058,79.776814 62.6561186,79.7419124 L62.6561186,77.6212879 L61.7458442,77.6208797 C61.6979772,77.6208797 61.6553174,77.6018982 61.6230723,77.5704664 C61.5101142,77.4612716 61.4209894,77.2296153 61.4215902,76.9514236 C61.4215902,76.677314 61.5019027,76.4430044 61.617865,76.3380957 C61.6525135,76.3062557 61.694973,76.2821717 61.7458442,76.2821717 L64.7738834,76.2821717 C64.8990587,76.2821717 65,76.3854475 65,76.5126033 L65,79.5492397" id="Fill-16" fill="#0B8C44"></path>
            <path d="M54.9988098,74.2471538 C54.9988098,74.1106432 54.8986363,74 54.7744607,74 L52.9975205,74 C52.8731465,74 52.7727746,74.1106432 52.7727746,74.2471538 L52.7705926,78.8398228 L50.130176,74.4973508 C49.9651376,74.2345461 49.7336474,74.0006521 49.3125217,74.0006521 L47.2243491,74 C47.1003719,74 47,74.1106432 47,74.2471538 L47,81.7502378 C47,81.8867484 47.1003719,81.9967394 47.2243491,81.9967394 L49.0014877,81.9967394 C49.1250682,81.9967394 49.2262336,81.8867484 49.2262336,81.7502378 L49.2262336,77.6916556 L51.7024052,81.6837214 C51.8170593,81.8704453 52.0130424,82 52.2344161,82 L54.7756509,82 C54.8994297,82 55,81.8919653 55,81.7558895 L54.9988098,74.2471538" id="Fill-17" fill="#0B8C44"></path>
            <path d="M37,81.5135388 C37,81.2992888 36.7023359,81.3318278 35.8419756,80.1840904 C34.8581987,78.8715453 34.3461243,78.5522833 33.2659152,78.2063985 C33.2659152,78.2063985 35.5294596,78.2311196 35.5294596,76.1006637 C35.5294596,74.5778833 34.1126787,74.0019016 31.8505985,74.0019016 L28.6752353,74 C28.3022661,74 28,74.3061619 28,74.6828953 L28,81.5359357 C28,81.6692609 28.1060546,81.7761746 28.2370017,81.7761746 L30.5507496,81.7761746 C30.6816967,81.7761746 30.7877513,81.6692609 30.7877513,81.5359357 L30.7877513,75.1880942 L31.4301453,75.1880942 C31.5566996,75.1880942 32.6515514,75.2290848 32.6515514,76.3751319 C32.6515514,77.553084 31.8282162,77.7250756 31.4519001,77.8446668 C31.2167809,77.9192528 31.1747356,78.1518852 31.6667286,79.0021237 C32.1016153,79.7532662 32.8301917,80.7706366 33.2416502,81.1811767 C33.3916328,81.33056 33.5171412,81.4928322 33.744939,81.6109443 C34.1641371,81.887948 35.0832772,82.0405007 35.8342359,81.9906358 C36.9290877,81.9424613 37,81.6261574 37,81.5135388" id="Fill-18" fill="#0B8C44"></path>
            <path d="M87.6617499,52.4569725 C86.8729128,52.0525651 83.987352,51.2551625 81.5436077,50.0135135 C78.6072633,48.5257757 73.5682705,44.2362354 73.5682705,44.2362354 C70.9855063,42.1374253 68.8999972,43.3363304 68.823822,43.3819792 C67.320842,44.0872541 66.8580773,45.3463327 66.8138534,46.5599698 C66.7704758,48.1244807 67.4321425,49.6269507 67.498161,49.7753095 C67.6014208,50.0101936 67.5950729,50.0635198 67.5140309,50.0855142 C66.403565,50.3291132 66.038347,50.6063262 66.0000478,51.7705796 C65.9750792,55.7497077 75.7434971,60.500924 80.3565433,60.9470379 C82.5499673,61.1603425 84.5411038,60.7650649 86.3887768,59.1048989 C90.1076102,55.7837369 89.2023943,53.2469053 87.6617499,52.4569725" id="Fill-19" fill="#134A39"></path>
            <path d="M63.8955501,48.4788 C63.5457645,49.105962 62.4125749,49.1772725 61.3643746,48.6375354 C60.317716,48.0979835 59.754012,47.150943 60.1036048,46.521188 C60.455703,45.8934704 61.5890853,45.8229008 62.6359366,46.3631936 C63.6824025,46.9044124 64.2470701,47.8508972 63.8955501,48.4788" id="Fill-20" fill="#134A39"></path>
            <path d="M60.2368218,52.0560844 C61.1281149,51.9740723 61.1956933,52.7386235 60.6624832,53.0988984 C56.4415119,56.1845782 51.2320005,58 45.5974457,58 C31.8592523,58 20.8151294,47.12193 20.0008921,33.5054405 C19.9780226,33.1573539 20.3989454,32.8481042 20.7918478,33.0809194 C22.3412061,34.0439936 25.8083075,36.0283975 30.1001537,36.3386801 C30.4844028,36.3694605 31.0231757,36.3388867 31.2353884,36.9175162 C31.4840686,37.5353959 32.2156872,39.5450025 37.0784472,42.7288077 C37.3265094,42.8967569 37.4006808,42.9678203 37.3559719,43.1339103 C37.3549418,43.1368025 37.1386085,44.0329449 35.7334723,43.8121113 C33.345771,43.4487377 32.097425,41.2893609 31.4389477,41.0522074 C31.0876636,40.9228886 30.8616469,40.9858954 30.797365,40.9970507 C30.0863496,41.1323603 26.7187616,42.1090688 27.1563729,45.7996138 C27.3642589,47.6053264 28.9980902,51.0919773 34.5207698,52.5097333 C35.6044965,52.8148514 41.8188245,53.5961355 46.5577595,49.9200511 C46.9716771,49.6217501 47.5617519,49.178017 49.2110356,49.9793394 C49.7491904,50.2394232 53.9746944,52.2453113 59.6823905,52.0866582 C59.6823905,52.0866582 60.2368218,52.0560844 60.244857,52.0560844" id="Fill-21" fill="#0B8C44"></path>
            <g id="Group-25">
                <path d="M30.4289854,13.7379243 C31.9373732,13.8619892 34.1708717,13.9244324 36.4068542,14.0834162 C40.8922741,14.4017946 45.8438513,15.3791135 49.0303644,16.568 C54.3000962,18.5333189 56.2965831,20.2846054 57.5973528,21.2321405 C57.9051574,21.4584973 58.0132099,21.4870486 58.1026327,21.4186486 C58.2144111,21.3332 58.223312,21.0926703 58.0935248,20.6594703 C57.9637376,20.2283243 57.437965,19.3311135 56.0744752,18.2457514 C55.3644752,17.6802703 55.4679738,17.4857514 55.879277,17.1332757 C56.2206152,16.8416 57.1129796,16.2064865 58.6269563,16.2064865 C60.8213324,16.2064865 66.3713382,17.6063243 66.3713382,23.8541405 C66.3713382,25.8391784 66.2328571,26.5096216 66.0896152,27.0071135 C65.9275364,27.5730054 65.9308484,27.7243892 66.1200437,27.9618378 C66.1200437,27.9618378 68.2767464,30.3246162 69.4338601,33.2894378 C69.5499854,33.570227 69.7474606,33.4909405 69.8826297,33.3114162 C70.3046968,32.749427 71.357277,30.4478595 70.6172624,27.1046811 C68.3264257,15.9511676 57.3829038,7.63368649 45.8869067,7.63368649 C41.0580787,7.63368649 34.7235539,9.58195676 30.8932799,12.386973 C30.6844198,12.5397946 30.4830117,12.6950811 30.2898834,12.8530378 C29.8249679,13.2355027 29.3786822,13.6438486 30.4289854,13.7379243" id="Fill-22" fill="#0B8C44"></path>
                <path d="M40.4236327,16.2882378 C39.0831195,16.0924865 37.7258397,15.9421297 36.4087172,15.8486703 C34.2683673,15.6966703 30.6262536,15.5177622 30.6262536,15.5177622 C19.7750525,14.8261622 13.0913236,5.37422703 11.356481,3.56111351 C6.9861516,-1.39326486 3.72656851,-0.039027027 2.03209038,0.979372973 C-0.18319242,2.3064973 -0.111364431,4.58957838 0.0972886297,5.82632432 C0.989653061,11.3122919 5.32375802,14.6883351 8.89176676,16.5825838 C12.9563615,18.7307135 16.9427114,19.4767459 16.9841108,19.4827027 C20.7609796,20.2063459 20.9685977,22.2429405 20.9733586,22.2558811 C21.1671079,24.1493081 22.082863,24.9189622 22.2581895,25.1833189 C22.5154869,25.4953297 22.3765918,25.6239135 21.9578367,25.4723243 C19.098586,24.4847351 17.8120991,22.3290054 17.7824985,22.2811459 C17.4840087,21.797827 17.3122012,21.8660216 17.038137,21.9288757 C15.9112449,22.2244541 15.1650204,22.7696 14.8102274,23.5536324 C14.0989854,25.1247784 15.0095656,26.7745946 15.2565131,27.155827 C19.4097026,33.3941946 29.9539271,34.4300541 38.0673848,34.2020541 C46.6629388,33.9625514 54.4017318,32.2917838 54.810758,32.2030486 C55.1065569,32.1453297 55.1924606,32.3285514 54.9486181,32.5339568 C54.1672041,33.1836541 50.2203907,34.5892432 46.3735569,35.7407459 L46.1388222,35.8066811 L46.365277,35.8935676 C57.9807114,40.4155676 65.7377201,36.1647027 65.8232099,36.1236216 C66.2392741,35.9264324 66.8178309,35.599427 66.5123032,34.9801297 C62.0097026,26.0780649 51.9906297,17.8922486 40.4265306,16.2892649 L40.4236327,16.2882378" id="Fill-24" fill="#134A39"></path>
            </g>
            <path d="M78.3617219,101.283341 L78.2607618,101.283341 L78.2607618,101.982942 L78.385878,101.982942 C78.5475379,101.982942 78.6546919,101.85844 78.6546919,101.62428 C78.6546919,101.373062 78.5374729,101.283341 78.3617219,101.283341 Z M78.9698049,103 L78.785847,103 C78.7496129,103 78.725302,102.9856 78.7071849,102.942401 L78.4162279,102.26296 L78.2607618,102.26296 L78.2607618,102.92778 C78.2607618,102.970979 78.248529,103 78.214153,103 L78.0486219,103 C78.0142459,103 78,102.976961 78,102.92778 L78,101.083961 C78,101.020381 78.0102199,101 78.0546609,101 L78.353515,101 C78.529266,101 78.7150821,101.037661 78.8223908,101.214001 C78.8869619,101.32078 78.9193249,101.462561 78.9193249,101.61852 C78.9193249,101.88436 78.820223,102.092601 78.658563,102.193841 L78.989935,102.9249 C78.995974,102.9393 79,102.9537 79,102.965441 C79,102.988702 78.987922,103 78.9698049,103 Z" id="Fill-26" fill="#0B8C44"></path>
            <path d="M77.2208738,101.500109 C77.2208738,102.209898 77.7947926,102.781203 78.5,102.782722 C79.2052074,102.781203 79.7791262,102.209898 79.7791262,101.500109 L79.7795675,101.500109 C79.7791262,100.790536 79.2047661,100.218797 78.5,100.217278 C77.7952339,100.218797 77.2208738,100.790536 77.2208738,101.500109 Z M77,101.500109 C77.0013239,100.673323 77.6696823,100.000434 78.5,100 C79.3303177,100.000434 79.9986761,100.673323 80,101.500109 C79.9986761,102.327328 79.3298764,102.999566 78.5,103 C77.6701236,102.999566 77.0013239,102.327328 77,101.500109 Z" id="Fill-27" fill="#0B8C44"></path>
        </g>
    </g>
</svg>
